<?xml version="1.0" encoding="UTF-8"?>
<svg width="100px" height="24px" viewBox="0 0 100 24" version="1.1" xmlns="http://www.w3.org/2000/svg" xmlns:xlink="http://www.w3.org/1999/xlink">
    <title>CAB8AA8A-8E4D-4555-A7FD-91477154144E</title>
    <g id="Dizajn" stroke="none" stroke-width="1" fill="none" fill-rule="evenodd">
        <g id="PoÄetna---r1" transform="translate(-1404.000000, -8314.000000)" fill-rule="nonzero">
            <g id="Footer" transform="translate(260.000000, 7921.000000)">
                <g id="Group-53" transform="translate(1144.000000, 392.000000)">
                    <g id="Corvus" transform="translate(0.000000, 0.063333)">
                        <path d="M70.0266052,19.2715069 L66.4538192,19.2715069 L66.4538192,6.13997871 C66.7307101,6.13997871 67.016533,6.08634415 67.3470157,6.08634415 C68.9726333,6.08634415 70.6071829,6.08634415 72.2328005,6.08634415 C73.332391,6.07052313 74.4197408,6.31882068 75.4036481,6.81041072 C76.5799847,7.39728403 77.3260921,8.59684819 77.3329525,9.91227613 C77.5741156,13.3895835 74.8766622,14.9002903 72.6079431,14.971803 C71.7862023,14.971803 70.9555295,14.971803 70.0355372,14.971803 L70.0266052,19.2715069 Z M70.0266052,12.6565778 C70.7839519,12.6106056 71.5382947,12.5240704 72.2863923,12.3973441 C73.1296659,12.2042742 73.7014812,11.4183545 73.6261871,10.5558909 C73.7689527,9.72968608 73.2316622,8.93892251 72.4114398,8.76807217 C71.6396864,8.52485098 70.8183178,8.48482733 70.0266052,8.65186396 L70.0266052,12.6565778 Z" id="Shape" fill="#87B441"></path>
                        <path d="M83.6657157,12.7817251 C83.7377676,12.5120983 83.695137,12.224652 83.5479396,11.9875936 C83.4007421,11.7505351 83.1620982,11.5849944 82.8886347,11.530252 C81.9508221,11.2134813 80.9396383,11.1854569 79.9857461,11.4498002 C79.3783725,11.6107039 78.7709989,11.7984248 77.976054,12.0219022 L78.3333326,9.57259058 C79.8871524,9.05986022 81.5412771,8.92803776 83.1565937,9.18820957 C83.8554183,9.31211793 84.5471399,9.4732506 85.2288095,9.67092061 C86.2859433,10.0601807 87.011981,11.0395343 87.0777263,12.1649277 C87.0912035,12.3553898 87.0912035,12.5465675 87.0777263,12.7370296 L87.0777263,19.2536287 L83.7996951,19.2536287 L83.585328,18.413354 C82.9093262,19.045993 82.0604869,19.4629719 81.1469016,19.6111925 C78.9049784,20.0223908 76.8148986,18.511684 77.0649936,16.0355551 C77.1093981,15.194517 77.5460125,14.4232115 78.2440129,13.9527464 C78.9689792,13.4675928 79.7984912,13.1612555 80.6645754,13.058837 C81.6381596,12.9783852 82.6117438,12.8979333 83.6657157,12.7817251 Z M83.6657157,16.8221953 L83.6657157,14.7483257 C82.8288954,14.6682819 81.9856398,14.8068833 81.2183573,15.1505849 C80.9251607,15.249622 80.6845999,15.4633736 80.551624,15.7430144 C80.418648,16.0226552 80.4046156,16.3442986 80.512732,16.6344744 C80.6109837,17.1082463 80.9682623,17.3764191 81.5934998,17.4389928 C82.3354461,17.5437538 83.0860493,17.3183931 83.6478517,16.8221953 L83.6657157,16.8221953 Z" id="Shape" fill="#87B441"></path>
                        <path d="M18.1050929,9.02730588 C19.8914859,9.02730588 21.5438995,9.45638237 22.6425311,11.047541 C23.8837487,13.0485917 23.8837487,15.5809676 22.6425311,17.5820183 C21.989108,18.5262158 20.9975725,19.182432 19.873622,19.4145324 C18.5510956,19.7366783 17.1666148,19.6996471 15.8631697,19.3072633 C14.1450391,18.8222861 12.8805388,17.3599196 12.6476624,15.5886004 C12.5048416,14.7724145 12.5048416,13.9375966 12.6476624,13.1214107 C12.9583391,10.8202974 14.8924504,9.08540522 17.2118965,9.02730588 C17.4977193,9.0004886 17.8014061,9.02730588 18.1050929,9.02730588 Z M20.2576965,14.3907619 C20.1631314,13.7674798 20.034919,13.1497785 19.873622,12.5403696 C19.5765927,11.7709781 18.8313894,11.268838 18.0073439,11.282816 C17.1832984,11.296794 16.4555265,11.8239197 16.1847205,12.6029432 C15.8095754,13.7224678 15.8095754,14.9339088 16.1847205,16.0534333 C16.4158279,16.8864942 17.1787585,17.4591488 18.0425692,17.4479319 C18.9023385,17.4658394 19.6720337,16.9171756 19.9361458,16.0981288 C20.0780664,15.5240465 20.1854429,14.9419597 20.2576965,14.3550056 L20.2576965,14.3907619 Z" id="Shape" fill="#364456"></path>
                        <path d="M43.5879889,9.30441778 L46.8481562,9.30441778 C46.8481562,11.0922365 46.8481562,12.7370296 46.8481562,14.4354574 C46.8497869,14.9265174 46.9097543,15.4156417 47.0267955,15.8925296 C47.2411626,16.786439 47.6073732,17.0546118 48.4827057,16.9562817 C49.074554,16.847239 49.6569245,16.6918162 50.2244389,16.4914489 L50.2244389,9.34017415 L53.511402,9.34017415 L53.511402,19.2625678 L50.2869627,19.2625678 L50.1351193,18.3686585 C49.9918229,18.4272905 49.8542758,18.4991115 49.7242489,18.5831967 C48.8186698,19.279649 47.6938005,19.6284782 46.5534013,19.566497 C44.9651276,19.5577696 43.6675442,18.2946752 43.6147848,16.7059871 C43.6147848,15.642235 43.6147848,14.587422 43.6147848,13.5236699 C43.579057,12.1291713 43.5879889,10.76149 43.5879889,9.30441778 Z" id="Path" fill="#364456"></path>
                        <path d="M92.9370953,23.0795607 L89.3643093,23.0795607 C89.9002272,21.7476358 90.4182812,20.4782845 90.963131,19.1195423 L87.0687943,9.42956509 L90.5701246,9.42956509 L92.6959322,15.3114886 L92.8924355,15.3114886 C93.5534009,13.3627662 94.2054343,11.4140438 94.8753317,9.46532146 L98.2516144,9.46532146 L92.9370953,23.0795607 Z" id="Path" fill="#87B441"></path>
                        <path d="M54.5921698,18.7351613 L54.5921698,16.4288752 C54.9851762,16.1070679 55.2531352,16.4288752 55.5300261,16.5719007 C56.5344911,17.1801051 57.6981466,17.4728081 58.870581,17.4121755 C59.2427652,17.3857898 59.6065236,17.2887101 59.9424168,17.1261245 C60.1798717,17.0311371 60.3355951,16.8010082 60.3355951,16.5450834 C60.3355951,16.2891587 60.1798717,16.0590298 59.9424168,15.9640424 C59.559183,15.8214839 59.1648351,15.7108588 58.7633974,15.6332959 C57.9224655,15.436348 57.0934271,15.1916163 56.2803111,14.9002903 C55.4218696,14.5139081 54.8193706,13.7163284 54.6819541,12.7844076 C54.5445376,11.8524869 54.8911526,10.914732 55.6014818,10.2966571 C56.5333838,9.51616322 57.7006009,9.07220376 58.9152408,9.03624498 C60.251516,8.89228013 61.6027704,9.07320448 62.8542373,9.56365149 C63.2829717,10.189388 63.2829717,10.189388 63.2293799,11.619643 C62.8542373,11.9861458 62.4612309,11.8788767 62.0235646,11.7090339 C61.4494657,11.4591784 60.8507106,11.27042 60.2371716,11.145871 C59.4321539,10.9289149 58.575778,11.2181283 58.0667041,11.8788767 C58.0655516,12.3491304 58.4286493,12.7398696 58.8973769,12.772786 C59.4064989,12.9068724 59.9245528,12.9962634 60.4426068,13.1214107 C60.9913822,13.2396 61.5315168,13.3949007 62.0592925,13.5862435 C62.961228,13.9346569 63.6152514,14.7299797 63.7833699,15.6828016 C63.9514883,16.6356235 63.6091897,17.6070208 62.8810332,18.2435112 C62.1494201,18.9367478 61.2050836,19.3620383 60.2014438,19.4502888 C58.3021578,19.7720013 56.3502057,19.5231465 54.5921698,18.7351613 L54.5921698,18.7351613 Z" id="Path" fill="#364456"></path>
                        <path d="M39.3006458,9.29547869 L42.7215883,9.29547869 L38.9076393,19.2446897 L35.2455337,19.2446897 C33.9950586,15.9640424 32.7535155,12.674456 31.4673125,9.30441778 L34.9507788,9.30441778 L37.0497906,15.5617832 L37.2373619,15.5617832 L39.3006458,9.29547869 Z" id="Path" fill="#364456"></path>
                        <path d="M0.893196495,11.8967549 C2.36735518,10.5019193 4.36444827,9.7999414 6.38635494,9.96591069 C5.21661274,10.6364194 4.43680692,11.825327 4.28734318,13.1661061 C4.22127068,14.0048414 4.46609935,14.8385596 4.97510448,15.5081486 C6.2166476,17.2155154 7.86906112,17.4479319 10.3342834,16.2411543 L12.6476624,18.6725877 C10.8612694,20.62131 7.22595964,20.996752 4.74287339,19.8257307 C1.98289622,18.5027449 0.607373616,15.7673823 0.893196495,11.8967549 Z" id="Path" fill="#87B441"></path>
                        <path d="M98.5285053,8.27642204 L97.8318121,8.27642204 L97.9032678,7.70432006 L87.6404401,5.65726767 L87.2652975,7.3735736 L91.1060425,8.20490929 L91.1060425,8.30323932 L86.64006,8.30323932 C86.5954269,7.83649305 86.5954269,7.36654792 86.64006,6.89980165 C86.9080189,5.53212036 87.2295697,4.21807363 87.5332565,2.82357506 C87.5813872,2.48087878 87.766297,2.17235608 88.0457306,1.96851003 C88.3251641,1.76466398 88.6752412,1.68291519 89.0159627,1.74194475 C90.1324583,1.85815297 91.2400219,2.06375212 92.3475856,2.27829036 C94.1339786,2.61797591 95.9203716,3.00235692 97.7692883,3.35098157 C98.9929675,3.59233709 99.4038379,4.18231725 99.135879,5.41591215 C98.9572397,6.33663877 98.7518045,7.31099995 98.5285053,8.27642204 Z" id="Path" fill="#87B441"></path>
                        <path d="M27.8587987,19.2536287 L24.7504749,19.2536287 C24.6438635,19.0643456 24.5684618,18.8590893 24.5271757,18.6457704 C24.5271757,15.5707223 24.5271757,12.5016335 24.5271757,9.43850418 C24.5271757,9.43850418 24.5271757,9.38486962 24.6254274,9.31335687 L27.7516151,9.31335687 L27.9213224,10.5022563 L30.3865448,9.17927047 L31.5744961,12.1649277 C30.315089,12.2543186 29.0735459,11.9861458 27.8409347,12.674456 L27.8587987,19.2536287 Z" id="Path" fill="#364557"></path>
                        <path d="M12.6387304,8.24960476 L10.1377802,10.6452818 C7.61543444,8.84068516 4.26628604,8.6969355 1.59882173,10.278779 C3.26909917,6.26512602 9.3517673,4.95107929 12.6387304,8.24960476 Z" id="Path" fill="#364456"></path>
                    </g>
                </g>
            </g>
        </g>
    </g>
</svg>