<?xml version="1.0" encoding="UTF-8"?>
<svg width="34px" height="23px" viewBox="0 0 34 23" version="1.1" xmlns="http://www.w3.org/2000/svg" xmlns:xlink="http://www.w3.org/1999/xlink">
    <title>A0651956-38B0-435A-AE23-DB46596AC447</title>
    <g id="Dizajn" stroke="none" stroke-width="1" fill="none" fill-rule="evenodd">
        <g id="Uvjeti-kupnje" transform="translate(-1474.000000, -4509.000000)" fill="#0769AA">
            <g id="Footer-+-Newsletter" transform="translate(0.000000, 3504.000000)">
                <g id="footer-unutarnje" transform="translate(0.000000, 481.000000)">
                    <g id="footer-content" transform="translate(260.000000, 100.000000)">
                        <g id="Group-59" transform="translate(70.000000, 65.000000)">
                            <g id="Group-53" transform="translate(1074.000000, 328.000000)">
                                <g id="Diners" transform="translate(70.265888, 31.440010)">
                                    <path d="M22.0878314,14.9199105 C20.9605963,15.97322 19.4562469,16.5816892 17.9584702,16.5816892 L17.9288926,16.5816892 L15.3786465,16.5816892 C12.213022,16.5816892 9.64059262,14.036808 9.64059262,10.9056586 C9.64059262,7.61910285 12.1168948,5.13342409 15.4008297,5.13342409 L17.936287,5.13342409 C19.4710357,5.13342409 20.9753851,5.71969235 22.080437,6.73600031 C23.2520385,7.81973322 23.8969944,9.29568207 23.8969944,10.9056586 C23.8896,12.4046306 23.2520385,13.8287773 22.0878314,14.9199105 M31.1467921,0.340496054 L2.15253096,0.340496054 C1.44102543,0.340496054 0.863440691,0.919364014 0.863440691,1.63143739 L0.863440691,20.0836759 C0.863440691,20.7957492 1.44102543,21.3746172 2.15253096,21.3746172 L31.1467921,21.3746172 C31.8591192,21.3746172 32.4375256,20.7957492 32.4375256,20.0836759 L32.4375256,1.63143739 C32.4375256,0.919364014 31.8591192,0.340496054 31.1467921,0.340496054" id="Fill-41"></path>
                                    <path d="M17.3491717,13.7624213 L17.3491717,7.93098441 C18.5207732,8.383225 19.3514107,9.51876002 19.3514107,10.8467029 C19.3514107,12.1746457 18.5207732,13.3101807 17.3491717,13.7624213 L17.3491717,13.7624213 Z M15.1177063,13.7624213 C13.9461048,13.3101807 13.1162889,12.182046 13.1162889,10.8467029 C13.1162889,9.51876002 13.9461048,8.383225 15.1177063,7.93098441 L15.1177063,13.7624213 Z M16.2301526,6.26920579 C13.7094841,6.26920579 11.6554843,8.32402259 11.6554843,10.8467029 C11.6554843,13.3693831 13.7094841,15.4241999 16.2301526,15.4241999 C18.7508212,15.4241999 20.8040193,13.3693831 20.8040193,10.8467029 C20.8113938,8.32402259 18.7582156,6.26920579 16.2301526,6.26920579 L16.2301526,6.26920579 Z" id="Fill-43"></path>
                                </g>
                            </g>
                        </g>
                    </g>
                </g>
            </g>
        </g>
    </g>
</svg>