<?xml version="1.0" encoding="UTF-8"?>
<svg width="149px" height="49px" viewBox="0 0 149 49" version="1.1" xmlns="http://www.w3.org/2000/svg" xmlns:xlink="http://www.w3.org/1999/xlink">
    <title>6D2ADB7C-1FD4-4A50-9FFD-F567CCE7477C</title>
    <g id="Dizajn" stroke="none" stroke-width="1" fill="none" fill-rule="evenodd">
        <g id="PoÄetna---r1" transform="translate(-977.000000, -8318.000000)">
            <g id="Footer" transform="translate(260.000000, 7921.000000)">
                <g id="Group-73" transform="translate(539.000000, 397.000000)">
                    <g id="EU-2" transform="translate(178.425184, 0.000000)">
                        <polygon id="Fill-18" fill="#223F99" points="13.135102 36.384215 16.4069388 48.60359 28.6212245 45.329165 25.3493878 33.10979"></polygon>
                        <polygon id="Fill-19" fill="#223F99" points="1.2244898 29.2273975 3.53265306 37.8452725 12.1469388 35.5361475 9.83877551 26.9182725"></polygon>
                        <polygon id="Fill-20" fill="#FFF100" points="11.91 33.91388 7.23979592 33.932255 11.0357143 36.646855 9.63979592 41.01398 13.3340816 38.28958 17.07 40.983355 15.6214286 36.627255 19.41 33.883255 14.7385714 33.912655 13.2973469 29.45733"></polygon>
                        <polygon id="Stroke-21" stroke="#FEFEFE" stroke-width="0.595" points="17.0698776 40.98458 13.3339592 38.28958 9.63967347 41.01398 11.0368163 36.646855 7.23967347 33.932255 11.911102 33.91388 13.2972245 29.458555 14.7396735 33.912655 19.411102 33.883255 15.6225306 36.627255"></polygon>
                        <polygon id="Fill-22" fill="#EC1D24" points="46.9323673 5.98535 52.916449 5.98535 52.916449 0 46.9323673 0"></polygon>
                        <polygon id="Fill-23" fill="#EC1D24" points="25.3519592 33.1142 39.0454286 33.1142 39.0454286 19.415025 25.3519592 19.415025"></polygon>
                        <polygon id="Fill-24" fill="#FEFEFE" points="26.6726939 20.7187925 36.3718776 22.1863425 37.758 31.7474675 37.758 20.7187925"></polygon>
                        <polygon id="Fill-25" fill="#EC1D24" points="36.2886122 9.12625 39.0449388 19.41625 49.3306531 16.658775 46.5743265 6.37"></polygon>
                        <polygon id="Fill-26" fill="#FEFEFE" points="39.7492653 18.1778975 48.0757959 15.9459475 40.4949796 16.7960975 37.5304898 9.8932225"></polygon>
                        <path d="M48.7840408,33.0239175 L48.7840408,32.1504925 C48.7840408,32.0475925 48.699551,31.9630675 48.5966939,31.9630675 L46.6926122,31.9630675 C46.2505714,31.9630675 46.0913878,31.8123925 46.0913878,31.3248425 L46.0913878,30.3289175 L48.522,30.3289175 C48.6248571,30.3289175 48.7093469,30.2443925 48.7093469,30.1414925 L48.7093469,29.2484675 C48.7093469,29.1455675 48.6248571,29.0622675 48.522,29.0622675 L46.0913878,29.0622675 L46.0913878,28.2072175 C46.0913878,27.7196675 46.2505714,27.5689925 46.6926122,27.5689925 L48.5966939,27.5689925 C48.699551,27.5689925 48.7840408,27.4844675 48.7840408,27.3815675 L48.7840408,26.5081425 C48.7840408,26.3856425 48.7289388,26.3390925 48.5966939,26.3207175 C48.2685306,26.2729425 47.799551,26.1982175 46.7856735,26.1982175 C45.5746531,26.1982175 44.4958776,26.4983425 44.4958776,28.2072175 L44.4958776,31.3248425 C44.4958776,33.0337175 45.5660816,33.3436425 46.7758776,33.3436425 C47.7897551,33.3436425 48.2685306,33.2676925 48.5966939,33.2211425 C48.7289388,33.2027675 48.7840408,33.1464175 48.7840408,33.0239175" id="Fill-27" fill="#223F99"></path>
                        <path d="M55.4386531,30.6390875 L55.4386531,26.4606125 C55.4386531,26.3577125 55.3443673,26.2817625 55.2415102,26.2817625 L54.0206939,26.2817625 C53.9190612,26.2817625 53.8333469,26.3577125 53.8333469,26.4606125 L53.8333469,30.6390875 C53.8333469,31.5970375 53.5713061,32.0000625 52.7264082,32.0000625 C51.8815102,32.0000625 51.6280408,31.5970375 51.6280408,30.6390875 L51.6280408,26.4606125 C51.6280408,26.3577125 51.543551,26.2817625 51.4406939,26.2817625 L50.2100816,26.2817625 C50.1072245,26.2817625 50.0239592,26.3577125 50.0239592,26.4606125 L50.0239592,30.6390875 C50.0239592,32.7803875 51.2337551,33.3438875 52.7264082,33.3438875 C54.2178367,33.3438875 55.4386531,32.7803875 55.4386531,30.6390875" id="Fill-29" fill="#223F99"></path>
                        <path d="M62.1966122,33.1459275 C62.1966122,33.1177525 62.1868163,33.0797775 62.168449,33.0430275 L60.7504898,30.3945775 C61.4362041,30.1226275 61.9615102,29.5125775 61.9615102,28.5166525 L61.9615102,28.3953775 C61.9615102,26.7330525 60.7321224,26.1977275 59.1366122,26.1977275 C58.4619184,26.1977275 57.663551,26.2540775 57.2313061,26.3202275 C56.941102,26.3667775 56.8088571,26.4525275 56.8088571,26.7710275 L56.8088571,33.0712025 C56.8088571,33.1741025 56.8933469,33.2586275 56.9974286,33.2586275 L58.2170204,33.2586275 C58.3198776,33.2586275 58.4043673,33.1741025 58.4043673,33.0712025 L58.4043673,30.6861275 C58.5831429,30.6861275 58.8745714,30.7045025 59.0704898,30.7045025 L59.1745714,30.6959275 L60.4321224,33.0712025 C60.4786531,33.1643025 60.5166122,33.2586275 60.6194694,33.2586275 L62.0557959,33.2586275 C62.1586531,33.2586275 62.1966122,33.2120775 62.1966122,33.1459275 L62.1966122,33.1459275 Z M60.366,28.5166525 C60.366,29.1548775 60.0562041,29.4096775 59.0704898,29.4096775 C58.9676327,29.4096775 58.508449,29.3986525 58.4043673,29.3913025 L58.4043673,27.5868775 C58.5170204,27.5783025 59.0055918,27.5599275 59.1366122,27.5599275 C59.9251837,27.5599275 60.366,27.8220775 60.366,28.3953775 L60.366,28.5166525 Z" id="Fill-31" fill="#223F99"></path>
                        <path d="M68.4751837,30.3291625 L68.4751837,29.2119625 C68.4751837,27.0339125 67.2457959,26.1984625 65.6968163,26.1984625 C64.1490612,26.1984625 62.918449,27.0339125 62.918449,29.2119625 L62.918449,30.3291625 C62.918449,32.5072125 64.1490612,33.3426625 65.6968163,33.3426625 C67.2457959,33.3426625 68.4751837,32.5072125 68.4751837,30.3291625 L68.4751837,30.3291625 Z M66.8613061,30.3291625 C66.8613061,31.4561625 66.4853878,31.9351375 65.6968163,31.9351375 C64.9082449,31.9351375 64.5433469,31.4561625 64.5433469,30.3291625 L64.5433469,29.2119625 C64.5433469,28.0849625 64.9082449,27.6059875 65.6968163,27.6059875 C66.4853878,27.6059875 66.8613061,28.0849625 66.8613061,29.2119625 L66.8613061,30.3291625 Z" id="Fill-33" fill="#223F99"></path>
                        <path d="M74.8577143,28.54495 L74.8577143,28.460425 C74.8577143,26.6952 73.4593469,26.19785 72.0426122,26.19785 C71.3654694,26.19785 70.6148571,26.245625 70.1373061,26.32035 C69.8458776,26.3669 69.7136327,26.451425 69.7136327,26.77115 L69.7136327,33.0799 C69.7136327,33.184025 69.7993469,33.25875 69.9022041,33.25875 L71.112,33.25875 C71.2160816,33.25875 71.3005714,33.174225 71.3005714,33.071325 L71.3005714,30.78915 C71.5356735,30.79895 71.8356735,30.817325 72.0609796,30.817325 C73.4593469,30.817325 74.8577143,30.3016 74.8577143,28.54495 L74.8577143,28.54495 Z M73.2622041,28.54495 C73.2622041,29.183175 72.8960816,29.4931 72.0609796,29.4931 C71.9581224,29.4931 71.4046531,29.484525 71.3005714,29.474725 L71.3005714,27.558825 C71.4132245,27.55025 71.9287347,27.53065 72.0609796,27.53065 C72.8483265,27.53065 73.2622041,27.794025 73.2622041,28.460425 L73.2622041,28.54495 Z" id="Fill-35" fill="#223F99"></path>
                        <path d="M80.3762449,31.2868675 C80.3762449,30.5261425 80.0860408,29.9062925 79.108898,29.3807675 L77.9076735,28.7327425 C77.4007347,28.4607925 77.2795102,28.3382925 77.2795102,28.0749175 C77.2795102,27.7380425 77.4766531,27.5787925 78.0105306,27.5787925 C78.6497143,27.5787925 79.7382857,27.6633175 80.0003265,27.6816925 L80.0199184,27.6816925 C80.1411429,27.6816925 80.179102,27.6069675 80.179102,27.5212175 L80.179102,26.5730675 C80.179102,26.4701675 80.1142041,26.4236175 80.0382857,26.4052425 C79.6819592,26.3109175 78.7342041,26.1982175 78.0484898,26.1982175 C76.2276735,26.1982175 75.6460408,26.9969175 75.6460408,28.0283675 C75.6460408,28.7143675 75.8811429,29.3060425 76.7542041,29.8217675 L78.0484898,30.5922925 C78.5370612,30.8826175 78.6680816,31.0332925 78.6680816,31.3052425 C78.6680816,31.7560425 78.4807347,31.9630675 77.8329796,31.9630675 C77.4668571,31.9630675 76.4346122,31.8871175 76.0501224,31.8503675 L76.0219592,31.8503675 C75.9276735,31.8503675 75.8517551,31.8981425 75.8517551,32.0292175 L75.8517551,32.9479675 C75.8517551,33.0520925 75.9460408,33.1084425 76.0403265,33.1366175 C76.519102,33.2578925 77.0725714,33.3424175 77.8146122,33.3424175 C79.7186939,33.3424175 80.3762449,32.2815675 80.3762449,31.2868675" id="Fill-37" fill="#223F99"></path>
                        <path d="M86.9746531,26.3856425 C86.9746531,26.3305175 86.926898,26.2827425 86.8240408,26.2827425 L85.3889388,26.2827425 C85.2848571,26.2827425 85.2285306,26.3194925 85.182,26.3954425 L83.1175102,29.4469175 L83.1175102,26.4615925 C83.1175102,26.3586925 83.0330204,26.2827425 82.9301633,26.2827425 L81.699551,26.2827425 C81.5966939,26.2827425 81.5122041,26.3586925 81.5122041,26.4615925 L81.5122041,33.0704675 C81.5122041,33.1745925 81.5966939,33.2591175 81.699551,33.2591175 L82.9301633,33.2591175 C83.0330204,33.2591175 83.1175102,33.1745925 83.1175102,33.0704675 L83.1175102,30.0287925 L85.0228163,33.1268175 C85.0693469,33.2015425 85.1158776,33.2591175 85.2285306,33.2591175 L86.8436327,33.2591175 C86.926898,33.2591175 86.9746531,33.2211425 86.9746531,33.1647925 C86.9746531,33.1366175 86.9648571,33.0986425 86.9366939,33.0618925 L84.6934286,29.6906925 L86.926898,26.5167175 C86.9562857,26.4701675 86.9746531,26.4236175 86.9746531,26.3856425" id="Fill-39" fill="#223F99"></path>
                        <path d="M89.5646939,33.07108 L89.5646939,26.46098 C89.5646939,26.35808 89.4887755,26.28213 89.3859184,26.28213 L88.1295918,26.28213 C88.0255102,26.28213 87.9593878,26.35808 87.9593878,26.46098 L87.9593878,33.07108 C87.9593878,33.17398 88.0255102,33.258505 88.1295918,33.258505 L89.3859184,33.258505 C89.4887755,33.258505 89.5646939,33.17398 89.5646939,33.07108" id="Fill-41" fill="#223F99"></path>
                        <path d="M97.4390204,31.4466075 C97.4390204,30.6956825 97.0545306,30.1787325 95.9659592,29.5307075 L95.1026939,29.0149825 C94.3900408,28.5825575 94.0802449,28.3204075 94.0802449,27.8781825 C94.0802449,27.1934075 94.492898,26.9863825 95.4590204,26.9863825 C96.0039184,26.9863825 96.6602449,27.0145575 97.0741224,27.0427325 L97.0924898,27.0427325 C97.185551,27.0427325 97.2516735,26.9863825 97.2516735,26.8932825 L97.2516735,26.4890325 C97.2516735,26.3947075 97.185551,26.3481575 97.0924898,26.3297825 C96.7361633,26.2722075 96.0137143,26.2170825 95.4590204,26.2170825 C94.0337143,26.2170825 93.2169796,26.7426075 93.2169796,27.8781825 C93.2169796,28.6303325 93.6467755,29.1080825 94.5112653,29.6348325 L95.4222857,30.1885325 C96.2757551,30.7140575 96.5475918,30.9774325 96.5475918,31.4466075 C96.5475918,32.1032075 96.2475918,32.5540075 95.1210612,32.5540075 C94.6900408,32.5540075 94.0043265,32.5356325 93.5733061,32.4976575 L93.5439184,32.4976575 C93.4606531,32.4976575 93.3847347,32.5442075 93.3847347,32.6483325 L93.3847347,33.0231825 C93.3847347,33.1273075 93.403102,33.1640575 93.5635102,33.1934575 C93.9773878,33.2583825 94.4635102,33.3245325 95.1210612,33.3245325 C96.9700408,33.3245325 97.4390204,32.3482075 97.4390204,31.4466075" id="Fill-43" fill="#223F99"></path>
                        <path d="M103.197918,26.86474 L103.197918,26.451915 C103.197918,26.34779 103.122,26.282865 103.019143,26.282865 L98.5056735,26.282865 C98.4015918,26.282865 98.3183265,26.35759 98.3183265,26.451915 L98.3183265,26.86474 C98.3183265,26.96764 98.4015918,27.015415 98.5056735,27.015415 L100.335061,27.015415 L100.335061,33.07059 C100.335061,33.17349 100.41098,33.258015 100.504041,33.258015 L101.020776,33.258015 C101.123633,33.258015 101.188531,33.164915 101.188531,33.07059 L101.188531,27.015415 L103.019143,27.015415 C103.122,27.015415 103.197918,26.959065 103.197918,26.86474" id="Fill-45" fill="#223F99"></path>
                        <path d="M109.106327,33.13625 C109.106327,33.1093 109.096531,33.0799 109.079388,33.051725 L107.37,30.197475 C108.224694,29.972075 108.843061,29.352225 108.843061,28.301175 L108.843061,28.23625 C108.843061,26.713575 107.699388,26.21745 106.216531,26.21745 C105.671633,26.21745 104.967551,26.245625 104.564694,26.292175 C104.395714,26.31055 104.338163,26.3669 104.338163,26.497975 L104.338163,33.0701 C104.338163,33.174225 104.414082,33.25875 104.508367,33.25875 L105.015306,33.25875 C105.116939,33.25875 105.184286,33.164425 105.184286,33.0701 L105.184286,30.310175 C105.681429,30.32855 105.906735,30.33835 106.216531,30.33835 L106.375714,30.33835 L106.460204,30.33835 L108.13898,33.13625 C108.214898,33.25875 108.271224,33.25875 108.383878,33.25875 L108.983878,33.25875 C109.059796,33.25875 109.106327,33.2024 109.106327,33.13625 L109.106327,33.13625 Z M107.999388,28.301175 C107.999388,29.315475 107.37,29.607025 106.216531,29.607025 C105.999796,29.607025 105.596939,29.596 105.184286,29.58865 L105.184286,27.014925 C105.408367,26.98675 105.925102,26.98675 106.216531,26.98675 C107.389592,26.98675 107.999388,27.296675 107.999388,28.23625 L107.999388,28.301175 Z" id="Fill-47" fill="#223F99"></path>
                        <path d="M115.06249,30.7233675 L115.06249,26.4615925 C115.06249,26.3574675 114.978,26.2827425 114.883714,26.2827425 L114.376776,26.2827425 C114.273918,26.2827425 114.199224,26.3672675 114.199224,26.4615925 L114.199224,30.7233675 C114.199224,31.9446925 113.823306,32.5914925 112.660041,32.5914925 C111.495551,32.5914925 111.119633,31.9348925 111.119633,30.7233675 L111.119633,26.4615925 C111.119633,26.3574675 111.036367,26.2827425 110.942082,26.2827425 L110.435143,26.2827425 C110.332286,26.2827425 110.256367,26.3672675 110.256367,26.4615925 L110.256367,30.7233675 C110.256367,32.5167675 111.139224,33.3240425 112.660041,33.3240425 C114.179633,33.3240425 115.06249,32.5167675 115.06249,30.7233675" id="Fill-49" fill="#223F99"></path>
                        <path d="M121.140735,33.164425 C121.140735,33.127675 121.119918,33.0799 121.09298,33.051725 L118.268082,29.67195 L121.09298,26.4796 C121.119918,26.45265 121.129714,26.41345 121.129714,26.3865 C121.129714,26.328925 121.09298,26.282375 120.999918,26.282375 L120.322776,26.282375 C120.229714,26.282375 120.19298,26.31055 120.136653,26.3669 L117.43298,29.4931 L117.43298,26.461225 C117.43298,26.3571 117.34849,26.282375 117.254204,26.282375 L116.757061,26.282375 C116.654204,26.282375 116.578286,26.3669 116.578286,26.461225 L116.578286,33.071325 C116.578286,33.174225 116.654204,33.25875 116.747265,33.25875 L117.264,33.25875 C117.366857,33.25875 117.43298,33.164425 117.43298,33.071325 L117.43298,29.9439 L120.080327,33.164425 C120.136653,33.230575 120.201551,33.25875 120.286041,33.25875 L121.017061,33.25875 C121.102776,33.25875 121.140735,33.2122 121.140735,33.164425" id="Fill-51" fill="#223F99"></path>
                        <path d="M126.701143,26.86474 L126.701143,26.451915 C126.701143,26.34779 126.625224,26.282865 126.522367,26.282865 L122.008898,26.282865 C121.906041,26.282865 121.821551,26.35759 121.821551,26.451915 L121.821551,26.86474 C121.821551,26.96764 121.906041,27.015415 122.008898,27.015415 L123.838286,27.015415 L123.838286,33.07059 C123.838286,33.17349 123.914204,33.258015 124.00849,33.258015 L124.524,33.258015 C124.628082,33.258015 124.69298,33.164915 124.69298,33.07059 L124.69298,27.015415 L126.522367,27.015415 C126.625224,27.015415 126.701143,26.959065 126.701143,26.86474" id="Fill-53" fill="#223F99"></path>
                        <path d="M132.619102,30.7233675 L132.619102,26.4615925 C132.619102,26.3574675 132.535837,26.2827425 132.440327,26.2827425 L131.933388,26.2827425 C131.830531,26.2827425 131.755837,26.3672675 131.755837,26.4615925 L131.755837,30.7233675 C131.755837,31.9446925 131.379918,32.5914925 130.216653,32.5914925 C129.053388,32.5914925 128.677469,31.9348925 128.677469,30.7233675 L128.677469,26.4615925 C128.677469,26.3574675 128.59298,26.2827425 128.499918,26.2827425 L127.99298,26.2827425 C127.890122,26.2827425 127.814204,26.3672675 127.814204,26.4615925 L127.814204,30.7233675 C127.814204,32.5167675 128.697061,33.3240425 130.216653,33.3240425 C131.737469,33.3240425 132.619102,32.5167675 132.619102,30.7233675" id="Fill-55" fill="#223F99"></path>
                        <path d="M138.904163,33.13625 C138.904163,33.1093 138.894367,33.0799 138.876,33.051725 L137.167837,30.197475 C138.020082,29.972075 138.639673,29.352225 138.639673,28.301175 L138.639673,28.23625 C138.639673,26.713575 137.496,26.21745 136.013143,26.21745 C135.468245,26.21745 134.765388,26.245625 134.361306,26.292175 C134.191102,26.31055 134.136,26.3669 134.136,26.497975 L134.136,33.0701 C134.136,33.174225 134.210694,33.25875 134.30498,33.25875 L134.810694,33.25875 C134.914776,33.25875 134.980898,33.164425 134.980898,33.0701 L134.980898,30.310175 C135.478041,30.32855 135.703347,30.33835 136.013143,30.33835 L136.173551,30.33835 L136.256816,30.33835 L137.936816,33.13625 C138.01151,33.25875 138.067837,33.25875 138.18049,33.25875 L138.78049,33.25875 C138.857633,33.25875 138.904163,33.2024 138.904163,33.13625 L138.904163,33.13625 Z M137.797224,28.301175 C137.797224,29.315475 137.167837,29.607025 136.013143,29.607025 C135.797633,29.607025 135.393551,29.596 134.980898,29.58865 L134.980898,27.014925 C135.20498,26.98675 135.721714,26.98675 136.013143,26.98675 C137.186204,26.98675 137.797224,27.296675 137.797224,28.23625 L137.797224,28.301175 Z" id="Fill-57" fill="#223F99"></path>
                        <path d="M145.000408,32.9861875 L145.000408,26.4606125 C145.000408,26.3675125 144.933061,26.2829875 144.830204,26.2829875 L144.333061,26.2829875 C144.24,26.2829875 144.164082,26.3675125 144.164082,26.4606125 L144.164082,31.9535125 C144.164082,31.9633125 144.164082,31.9816875 144.156735,31.9816875 L144.137143,31.9535125 L141.254694,26.4704125 C141.18,26.3295375 141.133469,26.2829875 140.870204,26.2829875 L140.353469,26.2829875 C140.204082,26.2829875 140.081633,26.3956875 140.081633,26.5451375 L140.081633,33.1454375 C140.081633,33.2397625 140.157551,33.2593625 140.250612,33.2593625 L140.739184,33.2593625 C140.833469,33.2593625 140.908163,33.1736125 140.908163,33.0805125 L140.908163,27.5974125 C140.908163,27.5778125 140.908163,27.5692375 140.917959,27.5692375 C140.927755,27.5692375 140.936327,27.5778125 140.944898,27.5974125 L143.845714,33.1086875 C143.893469,33.2030125 143.996327,33.2593625 144.145714,33.2593625 L144.727347,33.2593625 C144.877959,33.2593625 145.000408,33.1368625 145.000408,32.9861875" id="Fill-59" fill="#223F99"></path>
                        <path d="M147.492367,33.07108 L147.492367,26.46098 C147.492367,26.35808 147.416449,26.28213 147.323388,26.28213 L146.806653,26.28213 C146.703796,26.28213 146.638898,26.366655 146.638898,26.46098 L146.638898,33.07108 C146.638898,33.17398 146.713592,33.258505 146.806653,33.258505 L147.323388,33.258505 C147.426245,33.258505 147.492367,33.16418 147.492367,33.07108" id="Fill-61" fill="#223F99"></path>
                        <path d="M45.709102,45.13929 L45.709102,38.52919 C45.709102,38.42629 45.6344082,38.351565 45.5401224,38.351565 L45.0246122,38.351565 C44.9205306,38.351565 44.8556327,38.43609 44.8556327,38.52919 L44.8556327,45.13929 C44.8556327,45.24219 44.9303265,45.326715 45.0246122,45.326715 L45.5401224,45.326715 C45.6442041,45.326715 45.709102,45.233615 45.709102,45.13929" id="Fill-63" fill="#223F99"></path>
                        <path d="M50.5334694,45.13929 L50.5334694,38.52919 C50.5334694,38.42629 50.457551,38.351565 50.3644898,38.351565 L49.8477551,38.351565 C49.744898,38.351565 49.6787755,38.43609 49.6787755,38.52919 L49.6787755,45.13929 C49.6787755,45.24219 49.7546939,45.326715 49.8477551,45.326715 L50.3644898,45.326715 C50.4673469,45.326715 50.5334694,45.233615 50.5334694,45.13929" id="Fill-65" fill="#223F99"></path>
                        <path d="M57.0086939,45.0548875 L57.0086939,38.5293125 C57.0086939,38.4362125 56.9437959,38.3516875 56.8397143,38.3516875 L56.3425714,38.3516875 C56.2482857,38.3516875 56.1735918,38.4362125 56.1735918,38.5293125 L56.1735918,44.0222125 C56.1735918,44.0307875 56.1735918,44.0503875 56.1650204,44.0503875 L56.1454286,44.0222125 L53.2642041,38.5391125 C53.1895102,38.3982375 53.1429796,38.3516875 52.8797143,38.3516875 L52.3642041,38.3516875 C52.2123673,38.3516875 52.0911429,38.4643875 52.0911429,38.6138375 L52.0911429,45.2141375 C52.0911429,45.3084625 52.1658367,45.3268375 52.2601224,45.3268375 L52.7486939,45.3268375 C52.8417551,45.3268375 52.916449,45.2423125 52.916449,45.1492125 L52.916449,39.6648875 C52.916449,39.6465125 52.916449,39.6379375 52.9274694,39.6379375 C52.9360408,39.6379375 52.9458367,39.6465125 52.9544082,39.6648875 L55.8552245,45.1773875 C55.9017551,45.2704875 56.0046122,45.3268375 56.1552245,45.3268375 L56.7368571,45.3268375 C56.8862449,45.3268375 57.0086939,45.2055625 57.0086939,45.0548875" id="Fill-67" fill="#223F99"></path>
                        <path d="M63.2406122,38.5106925 C63.2406122,38.4163675 63.1744898,38.3514425 63.0814286,38.3514425 L62.5267347,38.3514425 C62.4520408,38.3514425 62.3859184,38.4163675 62.367551,38.4923175 L60.7255102,44.4727675 C60.687551,44.6038425 60.6410204,44.6699925 60.5479592,44.6699925 C60.4438776,44.6699925 60.3973469,44.6038425 60.3593878,44.4727675 L58.7259184,38.4923175 C58.707551,38.4163675 58.6328571,38.3514425 58.5581633,38.3514425 L58.0132653,38.3514425 C57.9189796,38.3514425 57.8442857,38.4163675 57.8442857,38.5106925 C57.8442857,38.5290675 57.8442857,38.5486675 57.8540816,38.5670425 L59.5904082,44.6797925 C59.7581633,45.2714675 60.2002041,45.3927425 60.5479592,45.3927425 C60.9042857,45.3927425 61.3353061,45.2714675 61.5042857,44.6797925 L63.2308163,38.5670425 C63.2406122,38.5486675 63.2406122,38.5290675 63.2406122,38.5106925" id="Fill-69" fill="#223F99"></path>
                        <path d="M67.970449,45.214015 L67.970449,44.73504 C67.970449,44.670115 67.9337143,44.62234 67.8675918,44.62234 L66.0565714,44.62234 C65.0622857,44.62234 64.9018776,44.36019 64.9018776,43.646015 L64.9018776,42.06944 L67.783102,42.06944 C67.8859592,42.06944 67.970449,41.984915 67.970449,41.88079 L67.970449,41.524315 C67.970449,41.421415 67.8859592,41.335665 67.783102,41.335665 L64.9018776,41.335665 L64.9018776,40.03104 C64.9018776,39.31809 65.0622857,39.05594 66.0565714,39.05594 L67.8675918,39.05594 C67.9337143,39.05594 67.970449,39.008165 67.970449,38.942015 L67.970449,38.47284 C67.970449,38.41649 67.9337143,38.35034 67.8761633,38.341765 C67.483102,38.30379 66.6002449,38.285415 66.0467755,38.285415 C64.732898,38.285415 64.0471837,38.782765 64.0471837,40.03104 L64.0471837,43.646015 C64.0471837,44.895515 64.732898,45.392865 66.0467755,45.392865 C66.6002449,45.392865 67.5210612,45.383065 67.8761633,45.34509 C67.9337143,45.336515 67.970449,45.270365 67.970449,45.214015" id="Fill-71" fill="#223F99"></path>
                        <path d="M73.1794286,43.514695 C73.1794286,42.76377 72.7949388,42.24682 71.7063673,41.60002 L70.8418776,41.08307 C70.1292245,40.65187 69.8194286,40.388495 69.8194286,39.947495 C69.8194286,39.261495 70.2333061,39.055695 71.1994286,39.055695 C71.7443265,39.055695 72.4006531,39.08387 72.8133061,39.11082 L72.8316735,39.11082 C72.9259592,39.11082 72.9920816,39.055695 72.9920816,38.96137 L72.9920816,38.55712 C72.9920816,38.46402 72.9259592,38.416245 72.8316735,38.39787 C72.4765714,38.34152 71.752898,38.28517 71.1994286,38.28517 C69.772898,38.28517 68.9561633,38.81192 68.9561633,39.947495 C68.9561633,40.69842 69.3871837,41.177395 70.2516735,41.70292 L71.1614694,42.25662 C72.0149388,42.78337 72.288,43.04552 72.288,43.514695 C72.288,44.17252 71.988,44.622095 70.8602449,44.622095 C70.4292245,44.622095 69.7447347,44.60372 69.3124898,44.565745 L69.2843265,44.565745 C69.1998367,44.565745 69.1251429,44.61352 69.1251429,44.71642 L69.1251429,45.092495 C69.1251429,45.19662 69.1435102,45.23337 69.3026939,45.261545 C69.7165714,45.32647 70.2039184,45.39262 70.8602449,45.39262 C72.710449,45.39262 73.1794286,44.416295 73.1794286,43.514695" id="Fill-73" fill="#223F99"></path>
                        <path d="M78.8570204,38.93295 L78.8570204,38.520125 C78.8570204,38.417225 78.7823265,38.351075 78.6782449,38.351075 L74.1647755,38.351075 C74.0606939,38.351075 73.9774286,38.4258 73.9774286,38.520125 L73.9774286,38.93295 C73.9774286,39.03585 74.0606939,39.083625 74.1647755,39.083625 L75.9953878,39.083625 L75.9953878,45.1388 C75.9953878,45.2417 76.0700816,45.32745 76.1643673,45.32745 L76.6798776,45.32745 C76.7839592,45.32745 76.8488571,45.233125 76.8488571,45.1388 L76.8488571,39.083625 L78.6782449,39.083625 C78.7823265,39.083625 78.8570204,39.027275 78.8570204,38.93295" id="Fill-75" fill="#223F99"></path>
                        <path d="M80.8659184,45.13929 L80.8659184,38.52919 C80.8659184,38.42629 80.79,38.351565 80.6969388,38.351565 L80.1802041,38.351565 C80.0773469,38.351565 80.0112245,38.43609 80.0112245,38.52919 L80.0112245,45.13929 C80.0112245,45.24219 80.0871429,45.326715 80.1802041,45.326715 L80.6969388,45.326715 C80.7997959,45.326715 80.8659184,45.233615 80.8659184,45.13929" id="Fill-77" fill="#223F99"></path>
                        <path d="M86.4777551,45.0830625 L86.4777551,44.6984125 C86.4777551,44.5955125 86.43,44.5477375 86.3271429,44.5477375 L86.2904082,44.5477375 C85.952449,44.5759125 85.2765306,44.6224625 84.7426531,44.6224625 C83.8218367,44.6224625 83.1091837,44.0687625 83.1091837,42.4921875 L83.1091837,41.1863375 C83.1091837,39.5913875 83.8218367,39.0560625 84.7426531,39.0560625 C85.2863265,39.0560625 85.9806122,39.1111875 86.3185714,39.1393625 L86.3467347,39.1393625 C86.4410204,39.1393625 86.4593878,39.0928125 86.4593878,39.0364625 L86.4593878,38.5574875 C86.4593878,38.4729625 86.3932653,38.4447875 86.3087755,38.4362125 C85.8961224,38.3700625 85.3242857,38.2855375 84.7328571,38.2855375 C83.5781633,38.2855375 82.2544898,38.8857875 82.2544898,41.1863375 L82.2544898,42.4921875 C82.2544898,44.7731375 83.5781633,45.3929875 84.7328571,45.3929875 C85.53,45.3929875 85.8961224,45.3464375 86.2904082,45.2704875 C86.3932653,45.2521125 86.4777551,45.1945375 86.4777551,45.0830625" id="Fill-79" fill="#223F99"></path>
                        <path d="M88.4860408,45.13929 L88.4860408,38.52919 C88.4860408,38.42629 88.4113469,38.351565 88.3170612,38.351565 L87.8003265,38.351565 C87.6974694,38.351565 87.6325714,38.43609 87.6325714,38.52919 L87.6325714,45.13929 C87.6325714,45.24219 87.7072653,45.326715 87.8003265,45.326715 L88.3170612,45.326715 C88.4199184,45.326715 88.4860408,45.233615 88.4860408,45.13929" id="Fill-81" fill="#223F99"></path>
                        <path d="M90.992449,45.674615 L90.992449,38.52919 C90.992449,38.43609 90.9079592,38.35034 90.8136735,38.35034 L90.3153061,38.35034 C90.2222449,38.35034 90.1377551,38.43609 90.1377551,38.52919 L90.1377551,45.674615 C90.1377551,46.13399 90.034898,46.331215 89.5377551,46.331215 L89.1716327,46.331215 C89.0687755,46.331215 88.9830612,46.387565 88.9830612,46.49169 L88.9830612,46.838365 C88.9830612,46.88614 89.0026531,46.92289 89.0393878,46.941265 C89.0957143,46.970665 89.3320408,47.017215 89.5377551,47.017215 C90.57,47.017215 90.992449,46.576215 90.992449,45.674615" id="Fill-83" fill="#223F99"></path>
                        <path d="M96.4165714,43.514695 C96.4165714,42.76377 96.0320816,42.24682 94.9435102,41.60002 L94.0802449,41.08307 C93.3663673,40.65187 93.0565714,40.388495 93.0565714,39.947495 C93.0565714,39.261495 93.470449,39.055695 94.4365714,39.055695 C94.9802449,39.055695 95.6377959,39.08387 96.050449,39.11082 L96.0700408,39.11082 C96.163102,39.11082 96.2292245,39.055695 96.2292245,38.96137 L96.2292245,38.55712 C96.2292245,38.46402 96.163102,38.416245 96.0700408,38.39787 C95.7124898,38.34152 94.9900408,38.28517 94.4365714,38.28517 C93.0100408,38.28517 92.1933061,38.81192 92.1933061,39.947495 C92.1933061,40.69842 92.6243265,41.177395 93.4888163,41.70292 L94.3998367,42.25662 C95.2533061,42.78337 95.5251429,43.04552 95.5251429,43.514695 C95.5251429,44.17252 95.2239184,44.622095 94.0986122,44.622095 C93.6675918,44.622095 92.9818776,44.60372 92.5496327,44.565745 L92.5214694,44.565745 C92.4369796,44.565745 92.3622857,44.61352 92.3622857,44.71642 L92.3622857,45.092495 C92.3622857,45.19662 92.3806531,45.23337 92.5410612,45.261545 C92.9537143,45.32647 93.4410612,45.39262 94.0986122,45.39262 C95.9475918,45.39262 96.4165714,44.416295 96.4165714,43.514695" id="Fill-85" fill="#223F99"></path>
                        <path d="M102.179143,45.233125 C102.179143,45.19515 102.159551,45.1486 102.131388,45.120425 L99.3064898,41.739425 L102.131388,38.5483 C102.159551,38.520125 102.169347,38.48215 102.169347,38.453975 C102.169347,38.397625 102.131388,38.351075 102.038327,38.351075 L101.362408,38.351075 C101.269347,38.351075 101.231388,38.37925 101.175061,38.4356 L98.4726122,41.5618 L98.4726122,38.529925 C98.4726122,38.4258 98.386898,38.351075 98.2938367,38.351075 L97.7966939,38.351075 C97.6938367,38.351075 97.6166939,38.4356 97.6166939,38.529925 L97.6166939,45.1388 C97.6166939,45.2417 97.6938367,45.326225 97.786898,45.326225 L98.3036327,45.326225 C98.4064898,45.326225 98.4726122,45.233125 98.4726122,45.1388 L98.4726122,42.0126 L101.118735,45.233125 C101.175061,45.299275 101.239959,45.326225 101.325673,45.326225 L102.056694,45.326225 C102.142408,45.326225 102.179143,45.2809 102.179143,45.233125" id="Fill-87" fill="#223F99"></path>
                        <path d="M104.262122,45.13929 L104.262122,38.52919 C104.262122,38.42629 104.187429,38.351565 104.093143,38.351565 L103.576408,38.351565 C103.473551,38.351565 103.408653,38.43609 103.408653,38.52919 L103.408653,45.13929 C103.408653,45.24219 103.483347,45.326715 103.576408,45.326715 L104.093143,45.326715 C104.196,45.326715 104.262122,45.233615 104.262122,45.13929" id="Fill-89" fill="#223F99"></path>
                        <path d="M112.324163,39.45872 L112.324163,38.58652 C112.324163,38.46402 112.267837,38.41747 112.136816,38.39787 C111.808653,38.35132 111.338449,38.276595 110.324571,38.276595 C109.113551,38.276595 108.034776,38.575495 108.034776,40.285595 L108.034776,45.139045 C108.034776,45.241945 108.119265,45.32647 108.222122,45.32647 L109.442939,45.32647 C109.545796,45.32647 109.630286,45.241945 109.630286,45.139045 L109.630286,42.397495 L112.060898,42.397495 C112.16498,42.397495 112.248245,42.314195 112.248245,42.21007 L112.248245,41.31827 C112.248245,41.214145 112.16498,41.12962 112.060898,41.12962 L109.630286,41.12962 L109.630286,40.285595 C109.630286,39.79682 109.790694,39.646145 110.23151,39.646145 L112.136816,39.646145 C112.239673,39.646145 112.324163,39.56162 112.324163,39.45872" id="Fill-91" fill="#223F99"></path>
                        <path d="M118.81849,42.3973725 L118.81849,41.2801725 C118.81849,39.1021225 117.589102,38.2666725 116.040122,38.2666725 C114.492367,38.2666725 113.26298,39.1021225 113.26298,41.2801725 L113.26298,42.3973725 C113.26298,44.5754225 114.492367,45.4108725 116.040122,45.4108725 C117.589102,45.4108725 118.81849,44.5754225 118.81849,42.3973725 L118.81849,42.3973725 Z M117.204612,42.3973725 C117.204612,43.5243725 116.828694,44.0033475 116.040122,44.0033475 C115.252776,44.0033475 114.886653,43.5243725 114.886653,42.3973725 L114.886653,41.2801725 C114.886653,40.1531725 115.252776,39.6741975 116.040122,39.6741975 C116.828694,39.6741975 117.204612,40.1531725 117.204612,41.2801725 L117.204612,42.3973725 Z" id="Fill-93" fill="#223F99"></path>
                        <path d="M125.500653,44.9706075 L125.500653,38.5295575 C125.500653,38.4266575 125.417388,38.3519325 125.313306,38.3519325 L124.205143,38.3519325 C124.102286,38.3519325 124.017796,38.4266575 124.017796,38.5295575 L124.017796,42.5010075 C124.017796,42.5671575 123.989633,42.5855325 123.971265,42.5855325 C123.943102,42.5855325 123.934531,42.5671575 123.895347,42.5108075 L121.671673,38.6410325 C121.55902,38.4450325 121.464735,38.3519325 121.277388,38.3519325 L120.329633,38.3519325 C120.13249,38.3519325 119.973306,38.5111825 119.973306,38.7071825 L119.973306,45.1396575 C119.973306,45.2425575 120.057796,45.3270825 120.161878,45.3270825 L121.268816,45.3270825 C121.371673,45.3270825 121.456163,45.2425575 121.456163,45.1396575 L121.456163,41.3372575 C121.456163,41.2796825 121.474531,41.2613075 121.502694,41.2613075 C121.530857,41.2613075 121.549224,41.2796825 121.587184,41.3372575 L123.727592,45.0367575 C123.87698,45.2891075 124.017796,45.3270825 124.214939,45.3270825 L125.134531,45.3270825 C125.331673,45.3270825 125.500653,45.1678325 125.500653,44.9706075" id="Fill-95" fill="#223F99"></path>
                        <path d="M132.079837,42.4446575 L132.079837,41.2343575 C132.079837,39.2523075 130.953306,38.2661825 129.085959,38.2661825 C128.307184,38.2661825 127.472082,38.3409075 127.087592,38.4070575 C126.907592,38.4364575 126.814531,38.5197575 126.814531,38.7353575 L126.814531,44.9424325 C126.814531,45.1580325 126.907592,45.2425575 127.087592,45.2707325 C127.472082,45.3356575 128.307184,45.4116075 129.085959,45.4116075 C130.953306,45.4116075 132.079837,44.4254825 132.079837,42.4446575 L132.079837,42.4446575 Z M130.474531,42.4446575 C130.474531,43.7125325 129.930857,44.0506325 129.085959,44.0506325 C128.850857,44.0506325 128.550857,44.0408325 128.419837,44.0310325 L128.419837,39.6467575 C128.550857,39.6369575 128.850857,39.6283825 129.085959,39.6283825 C129.930857,39.6283825 130.474531,39.9664825 130.474531,41.2343575 L130.474531,42.4446575 Z" id="Fill-97" fill="#223F99"></path>
                        <path d="M138.61249,42.3973725 L138.61249,41.2801725 C138.61249,39.1021225 137.383102,38.2666725 135.834122,38.2666725 C134.285143,38.2666725 133.055755,39.1021225 133.055755,41.2801725 L133.055755,42.3973725 C133.055755,44.5754225 134.285143,45.4108725 135.834122,45.4108725 C137.383102,45.4108725 138.61249,44.5754225 138.61249,42.3973725 L138.61249,42.3973725 Z M136.998612,42.3973725 C136.998612,43.5243725 136.622694,44.0033475 135.834122,44.0033475 C135.045551,44.0033475 134.679429,43.5243725 134.679429,42.3973725 L134.679429,41.2801725 C134.679429,40.1531725 135.045551,39.6741975 135.834122,39.6741975 C136.622694,39.6741975 136.998612,40.1531725 136.998612,41.2801725 L136.998612,42.3973725 Z" id="Fill-99" fill="#223F99"></path>
                        <path d="M145.058939,38.501015 C145.058939,38.407915 144.992816,38.35034 144.899755,38.35034 L143.585878,38.35034 C143.492816,38.35034 143.426694,38.42629 143.407102,38.520615 L142.234041,43.937565 C142.215673,44.040465 142.18751,44.07844 142.10302,44.07844 C142.018531,44.07844 141.990367,44.040465 141.972,43.937565 L140.798939,38.520615 C140.779347,38.42629 140.704653,38.35034 140.610367,38.35034 L139.306286,38.35034 C139.213224,38.35034 139.137306,38.41649 139.137306,38.501015 C139.137306,38.520615 139.147102,38.52919 139.147102,38.54879 L140.544245,44.368765 C140.76098,45.270365 141.455265,45.41124 142.10302,45.41124 C142.749551,45.41124 143.43649,45.270365 143.652,44.368765 L145.050367,38.54879 C145.050367,38.52919 145.058939,38.510815 145.058939,38.501015" id="Fill-101" fill="#223F99"></path>
                        <path d="M147.584449,45.13929 L147.584449,38.52919 C147.584449,38.42629 147.508531,38.351565 147.405673,38.351565 L146.148122,38.351565 C146.044041,38.351565 145.977918,38.42629 145.977918,38.52919 L145.977918,45.13929 C145.977918,45.24219 146.044041,45.326715 146.148122,45.326715 L147.405673,45.326715 C147.508531,45.326715 147.584449,45.24219 147.584449,45.13929" id="Fill-103" fill="#223F99"></path>
                    </g>
                </g>
            </g>
        </g>
    </g>
</svg>