<?xml version="1.0" encoding="UTF-8"?>
<svg width="161px" height="33px" viewBox="0 0 161 33" version="1.1" xmlns="http://www.w3.org/2000/svg" xmlns:xlink="http://www.w3.org/1999/xlink">
    <title>BAC4605E-B4D8-4FCE-BF67-E187657644B1</title>
    <defs>
        <polygon id="path-1" points="0.322040816 1.108625 48.1677551 1.108625 48.1677551 32.1832 0.322040816 32.1832"></polygon>
    </defs>
    <g id="Dizajn" stroke="none" stroke-width="1" fill="none" fill-rule="evenodd">
        <g id="PoÄetna---r1" transform="translate(-799.000000, -8333.000000)">
            <g id="Footer" transform="translate(260.000000, 7921.000000)">
                <g id="Group-73" transform="translate(539.000000, 397.000000)">
                    <g id="EU-1" transform="translate(-0.000000, 15.136900)">
                        <g id="Group-3">
                            <mask id="mask-2" fill="white">
                                <use xlink:href="#path-1"></use>
                            </mask>
                            <g id="Clip-2"></g>
                            <polygon id="Stroke-1" stroke="#231F20" stroke-width="0.276" mask="url(#mask-2)" points="-10.8514286 64.75595 291.781224 64.75595 291.781224 -105.089075 -10.8514286 -105.089075"></polygon>
                        </g>
                        <polygon id="Fill-4" fill="#FEFEFE" points="0.320816327 32.181975 48.1653061 32.181975 48.1653061 1.1074 0.320816327 1.1074"></polygon>
                        <polygon id="Fill-5" fill="#0053A4" points="0.353877551 32.181975 48.1665306 32.181975 48.1665306 1.1074 0.353877551 1.1074"></polygon>
                        <polygon id="Fill-6" fill="#FFF100" points="24.049102 4.7969775 22.6923673 4.7969775 23.7858367 5.5699525 23.3780816 6.7704525 24.4421633 6.0391275 25.4829796 6.7778025 25.1168571 5.5736275 26.2274694 4.7969775 24.8744082 4.7969775 24.4813469 3.5242025"></polygon>
                        <polygon id="Fill-7" fill="#FFF100" points="24.049102 26.3606525 22.6923673 26.3606525 23.7858367 27.1348525 23.3780816 28.3353525 24.4421633 27.6028025 25.4829796 28.3427025 25.1168571 27.1373025 26.2274694 26.3606525 24.8744082 26.3606525 24.4813469 25.0891025"></polygon>
                        <polygon id="Fill-8" fill="#FFF100" points="13.3109388 15.5624 11.9542041 15.5624 13.046449 16.3366 12.6386939 17.5371 13.704 16.805775 14.7448163 17.54445 14.3786939 16.340275 15.4893061 15.5624 14.1362449 15.5624 13.7431837 14.29085"></polygon>
                        <polygon id="Fill-9" fill="#FFF100" points="14.838 10.07146 13.4812653 10.07146 14.5747347 10.84566 14.1669796 12.04616 15.2322857 11.31361 16.273102 12.05351 15.9057551 10.84811 17.0163673 10.07146 15.6633061 10.07146 15.2702449 8.79991"></polygon>
                        <polygon id="Fill-10" fill="#FFF100" points="18.6340408 6.208545 17.2773061 6.208545 18.3707755 6.98152 17.9617959 8.18202 19.027102 7.450695 20.0679184 8.18937 19.7017959 6.985195 20.8111837 6.208545 19.4581224 6.208545 19.0650612 4.93577"></polygon>
                        <polygon id="Fill-11" fill="#FFF100" points="29.2795102 6.208545 27.9227755 6.208545 29.0162449 6.98152 28.6084898 8.18202 29.6725714 7.450695 30.7133878 8.18937 30.3472653 6.985195 31.4578776 6.208545 30.1048163 6.208545 29.7105306 4.93577"></polygon>
                        <polygon id="Fill-12" fill="#FFF100" points="33.1676327 10.07146 31.810898 10.07146 32.9043673 10.84566 32.4978367 12.04616 33.5606939 11.31361 34.6027347 12.05351 34.2353878 10.84811 35.346 10.07146 33.9941633 10.07146 33.5998776 8.79991"></polygon>
                        <polygon id="Fill-13" fill="#FFF100" points="14.7925714 20.9157725 13.4358367 20.9157725 14.5293061 21.6899725 14.1203265 22.8892475 15.1856327 22.1566975 16.226449 22.8978225 15.8603265 21.6924225 16.9709388 20.9157725 15.6178776 20.9157725 15.2248163 19.6429975"></polygon>
                        <polygon id="Fill-14" fill="#FFF100" points="18.588 24.9185825 17.2312653 24.9185825 18.3247347 25.6927825 17.9157551 26.8920575 18.9810612 26.1607325 20.0218776 26.9006325 19.6545306 25.6952325 20.7651429 24.9185825 19.4133061 24.9185825 19.0202449 23.6458075"></polygon>
                        <polygon id="Fill-15" fill="#FFF100" points="29.3728163 24.9185825 28.0160816 24.9185825 29.109551 25.6927825 28.7017959 26.8920575 29.767102 26.1607325 30.8066939 26.9006325 30.4405714 25.6952325 31.5511837 24.9185825 30.1981224 24.9185825 29.8050612 23.6458075"></polygon>
                        <polygon id="Fill-16" fill="#FFF100" points="33.2142857 20.9157725 31.857551 20.9157725 32.9510204 21.6899725 32.5432653 22.8892475 33.6085714 22.1566975 34.6481633 22.8978225 34.2820408 21.6924225 35.3914286 20.9157725 34.0395918 20.9157725 33.6453061 19.6429975"></polygon>
                        <polygon id="Fill-17" fill="#FFF100" points="34.6498776 15.5624 33.2943673 15.5624 34.3853878 16.3366 33.9788571 17.5371 35.0429388 16.805775 36.0825306 17.54445 35.7176327 16.340275 36.8282449 15.5624 35.4751837 15.5624 35.0821224 14.29085"></polygon>
                        <polygon id="Fill-105" fill="#213F99" points="55.9768163 23.2503775 55.9768163 17.7856525 59.6662041 17.7856525 59.6662041 18.8183275 57.2062041 18.8183275 57.2062041 19.8914275 59.3894694 19.8914275 59.3894694 20.9008275 57.2062041 20.9008275 57.2062041 22.2177025 59.8474286 22.2177025 59.8474286 23.2503775"></polygon>
                        <path d="M62.8896735,23.360995 C62.5064082,23.360995 62.1745714,23.307095 61.8953878,23.199295 C61.6174286,23.091495 61.3872245,22.942045 61.206,22.74972 C61.026,22.557395 60.8913061,22.329545 60.8043673,22.06372 C60.7174286,21.797895 60.6745714,21.50512 60.6745714,21.18417 L60.6745714,17.784795 L61.9039592,17.784795 L61.9039592,21.08127 C61.9039592,21.302995 61.928449,21.49042 61.9786531,21.645995 C62.0288571,21.800345 62.0974286,21.92652 62.1843673,22.02452 C62.2713061,22.121295 62.3753878,22.19112 62.4990612,22.23277 C62.6227347,22.275645 62.7586531,22.29647 62.9055918,22.29647 C63.2043673,22.29647 63.4480408,22.204595 63.6341633,22.01962 C63.8202857,21.83587 63.9145714,21.523495 63.9145714,21.08127 L63.9145714,17.784795 L65.1439592,17.784795 L65.1439592,21.18417 C65.1439592,21.50512 65.0986531,21.79912 65.0092653,22.067395 C64.921102,22.33567 64.7839592,22.56597 64.6002857,22.75707 C64.4166122,22.949395 64.1827347,23.09762 63.8986531,23.20297 C63.6145714,23.30832 63.2778367,23.360995 62.8896735,23.360995" id="Fill-107" fill="#213F99"></path>
                        <path d="M67.9975102,18.7707975 C67.9081224,18.7707975 67.8273061,18.7732475 67.7575102,18.7793725 C67.6864898,18.7842725 67.6191429,18.7891725 67.5554694,18.7952975 L67.5554694,20.2775475 L67.9032245,20.2775475 C68.3648571,20.2775475 68.6966939,20.2199725 68.8962857,20.1035975 C69.0958776,19.9884475 69.1962857,19.7912225 69.1962857,19.5119225 C69.1962857,19.2448725 69.0946531,19.0537725 68.8913878,18.9410725 C68.6893469,18.8271475 68.3917959,18.7707975 67.9975102,18.7707975 M67.9264898,17.7221975 C68.7456735,17.7221975 69.3738367,17.8679725 69.8097551,18.1595225 C70.246898,18.4522975 70.4648571,18.9055475 70.4648571,19.5204975 C70.4648571,19.9039225 70.3766939,20.2150725 70.2003673,20.4551725 C70.0240408,20.6940475 69.7705714,20.8814725 69.4399592,21.0186725 C69.5501633,21.1558725 69.6652653,21.3114475 69.7864898,21.4878475 C69.9077143,21.6642475 70.0277143,21.8479975 70.1452653,22.0390975 C70.2640408,22.2314225 70.3779184,22.4310975 70.4881224,22.6393475 C70.5983265,22.8475975 70.7011837,23.0509475 70.7954694,23.2506225 L69.4215918,23.2506225 C69.3211837,23.0717725 69.219551,22.8904725 69.1166939,22.7054975 C69.0138367,22.5229725 68.9085306,22.3441225 68.799551,22.1701725 C68.6917959,21.9962225 68.5840408,21.8320725 68.4799592,21.6777225 C68.3734286,21.5221475 68.2681224,21.3812725 68.1628163,21.2550975 L67.5554694,21.2550975 L67.5554694,23.2506225 L66.3260816,23.2506225 L66.3260816,17.8642975 C66.5942449,17.8116225 66.8709796,17.7748725 67.1575102,17.7540475 C67.4440408,17.7332225 67.6999592,17.7221975 67.9264898,17.7221975" id="Fill-109" fill="#213F99"></path>
                        <path d="M72.4195102,20.51385 C72.4195102,20.782125 72.4525714,21.024675 72.5186939,21.23905 C72.5835918,21.455875 72.6778776,21.639625 72.801551,21.7952 C72.9252245,21.950775 73.0758367,22.070825 73.2546122,22.154125 C73.4333878,22.23865 73.639102,22.2803 73.8705306,22.2803 C74.0958367,22.2803 74.299102,22.23865 74.4803265,22.154125 C74.6627755,22.070825 74.8146122,21.950775 74.9382857,21.7952 C75.0619592,21.639625 75.1562449,21.455875 75.2223673,21.23905 C75.2872653,21.024675 75.3203265,20.782125 75.3203265,20.51385 C75.3203265,20.245575 75.2872653,20.003025 75.2223673,19.784975 C75.1562449,19.566925 75.0619592,19.3795 74.9382857,19.22515 C74.8146122,19.069575 74.6627755,18.949525 74.4803265,18.866225 C74.299102,18.7817 74.0958367,18.74005 73.8705306,18.74005 C73.639102,18.74005 73.4333878,18.782925 73.2546122,18.8699 C73.0758367,18.956875 72.9252245,19.07815 72.801551,19.2325 C72.6778776,19.388075 72.5835918,19.574275 72.5186939,19.792325 C72.4525714,20.010375 72.4195102,20.2517 72.4195102,20.51385 M76.588898,20.51385 C76.588898,20.9818 76.5203265,21.3934 76.3807347,21.747425 C76.2411429,22.102675 76.0501224,22.40035 75.808898,22.639225 C75.5676735,22.8781 75.2786939,23.058175 74.9456327,23.17945 C74.6125714,23.2995 74.2537959,23.36075 73.8705306,23.36075 C73.4970612,23.36075 73.1444082,23.2995 72.8137959,23.17945 C72.4819592,23.058175 72.1929796,22.8781 71.9468571,22.639225 C71.6995102,22.40035 71.5048163,22.102675 71.3627755,21.747425 C71.2207347,21.3934 71.1497143,20.9818 71.1497143,20.51385 C71.1497143,20.0459 71.2231837,19.6343 71.3713469,19.280275 C71.5182857,18.925025 71.7166531,18.626125 71.966449,18.3848 C72.2150204,18.14225 72.5052245,17.962175 72.8333878,17.8409 C73.161551,17.719625 73.5068571,17.6596 73.8705306,17.6596 C74.2427755,17.6596 74.5954286,17.719625 74.9260408,17.8409 C75.2566531,17.962175 75.5456327,18.14225 75.7929796,18.3848 C76.0403265,18.626125 76.2350204,18.925025 76.3758367,19.280275 C76.519102,19.6343 76.588898,20.0459 76.588898,20.51385" id="Fill-111" fill="#213F99"></path>
                        <path d="M79.3329796,18.7707975 C79.2435918,18.7707975 79.1554286,18.7732475 79.0684898,18.7793725 C78.981551,18.7842725 78.9068571,18.7891725 78.8444082,18.7952975 L78.8444082,20.3718725 L79.2301224,20.3718725 C79.6562449,20.3718725 79.9758367,20.3142975 80.1925714,20.1991475 C80.4068571,20.0827725 80.5146122,19.8671725 80.5146122,19.5523475 C80.5146122,19.3992225 80.4876735,19.2730475 80.4325714,19.1738225 C80.3774694,19.0733725 80.299102,18.9937475 80.1962449,18.9324975 C80.0933878,18.8724725 79.9684898,18.8295975 79.821551,18.8063225 C79.6746122,18.7830475 79.5117551,18.7707975 79.3329796,18.7707975 M79.2546122,17.7221975 C80.068898,17.7221975 80.6933878,17.8655225 81.1305306,18.1521725 C81.566449,18.4388225 81.7844082,18.9079975 81.7844082,19.5596975 C81.7844082,20.2175225 81.564,20.6915975 81.1219592,20.9831475 C80.6811429,21.2746975 80.0505306,21.4204725 79.2301224,21.4204725 L78.8444082,21.4204725 L78.8444082,23.2506225 L77.6150204,23.2506225 L77.6150204,17.8642975 C77.8819592,17.8116225 78.1660408,17.7748725 78.4660408,17.7540475 C78.7660408,17.7332225 79.0280816,17.7221975 79.2546122,17.7221975" id="Fill-113" fill="#213F99"></path>
                        <path d="M84.1807347,22.3117825 C84.3546122,22.3117825 84.4966531,22.2970825 84.6105306,22.2689075 C84.7231837,22.2395075 84.8137959,22.2003075 84.8823673,22.1500825 C84.9497143,22.0998575 84.9974694,22.0410575 85.0231837,21.9724575 C85.0501224,21.9038575 85.0635918,21.8279075 85.0635918,21.7446075 C85.0635918,21.5657575 84.979102,21.4175325 84.8113469,21.2987075 C84.6423673,21.1798825 84.3546122,21.0524825 83.9444082,20.9165075 C83.7656327,20.8528075 83.5868571,20.7805325 83.4080816,20.6996825 C83.2293061,20.6176075 83.068898,20.5147075 82.9268571,20.3922075 C82.7848163,20.2684825 82.6697143,20.1178075 82.5803265,19.9414075 C82.4909388,19.7662325 82.4456327,19.5518575 82.4456327,19.2995075 C82.4456327,19.0471575 82.4933878,18.8193075 82.5876735,18.6171825 C82.6831837,18.4150575 82.8166531,18.2423325 82.9905306,18.1002325 C83.1631837,17.9593575 83.3737959,17.8491075 83.6199184,17.7731575 C83.8672653,17.6972075 84.146449,17.6592325 84.4562449,17.6592325 C84.8235918,17.6592325 85.1419592,17.6984325 85.4101224,17.7768325 C85.6782857,17.8564575 85.8986939,17.9434325 86.0725714,18.0377575 L85.7174694,19.0079575 C85.5644082,18.9283325 85.3954286,18.8597325 85.2093061,18.7984825 C85.0219592,18.7384575 84.7978776,18.7078325 84.5358367,18.7078325 C84.2407347,18.7078325 84.028898,18.7482575 83.9003265,18.8303325 C83.7717551,18.9124075 83.7068571,19.0361325 83.7068571,19.2051825 C83.7068571,19.3044075 83.7313469,19.3889325 83.7778776,19.4563075 C83.8256327,19.5261325 83.8929796,19.5873825 83.9786939,19.6425075 C84.0656327,19.6976325 84.1660408,19.7478575 84.2786939,19.7919575 C84.3913469,19.8372825 84.5162449,19.8826075 84.6533878,19.9303825 C84.9374694,20.0357325 85.1835918,20.1398575 85.3942041,20.2415325 C85.6048163,20.3444325 85.7799184,20.4644825 85.9182857,20.6004575 C86.0578776,20.7376575 86.1619592,20.8981325 86.2293061,21.0818825 C86.2978776,21.2656325 86.3321633,21.4898075 86.3321633,21.7519575 C86.3321633,22.2615575 86.1533878,22.6572325 85.7958367,22.9389825 C85.4382857,23.2207325 84.9007347,23.3603825 84.1807347,23.3603825 C83.9382857,23.3603825 83.7203265,23.3456825 83.5256327,23.3175075 C83.3321633,23.2881075 83.1595102,23.2525825 83.0101224,23.2109325 C82.8595102,23.1692825 82.7309388,23.1239575 82.6244082,23.0774075 C82.5154286,23.0296325 82.4248163,22.9843075 82.3513469,22.9426575 L82.699102,21.9651075 C82.8607347,22.0545325 83.061551,22.1341575 83.301551,22.2052075 C83.5403265,22.2762575 83.8329796,22.3117825 84.1807347,22.3117825" id="Fill-115" fill="#213F99"></path>
                        <path d="M90.4986122,23.2503775 C90.3884082,23.0727525 90.2573878,22.8804275 90.1067755,22.6734025 C89.9573878,22.4676025 89.7945306,22.2593525 89.6218776,22.0498775 C89.448,21.8391775 89.2667755,21.6382775 89.0769796,21.4459525 C88.8871837,21.2536275 88.6973878,21.0833525 88.5075918,20.9351275 L88.5075918,23.2503775 L87.2782041,23.2503775 L87.2782041,17.7856525 L88.5075918,17.7856525 L88.5075918,19.8387525 C88.8235102,19.5067775 89.145551,19.1601025 89.4712653,18.7975025 C89.7969796,18.4336775 90.0982041,18.0968025 90.3749388,17.7856525 L91.8345306,17.7856525 C91.4622857,18.2278775 91.0888163,18.6541775 90.712898,19.0633275 C90.3369796,19.4724775 89.9402449,19.8828525 89.5251429,20.2969025 C89.9622857,20.6619525 90.3835102,21.0943775 90.7888163,21.5941775 C91.1953469,22.0952025 91.5859592,22.6476775 91.9606531,23.2503775 L90.4986122,23.2503775 Z" id="Fill-117" fill="#213F99"></path>
                        <path d="M94.7467347,19.02327 C94.7197959,19.102895 94.6793878,19.210695 94.6267347,19.347895 C94.5728571,19.48387 94.5140816,19.641895 94.4455102,19.820745 C94.3781633,19.999595 94.3034694,20.19682 94.2189796,20.41242 C94.1357143,20.62802 94.0512245,20.85342 93.9655102,21.089845 L95.5279592,21.089845 C95.4434694,20.852195 95.3626531,20.626795 95.2842857,20.40997 C95.2059184,20.19437 95.1312245,19.997145 95.0614286,19.81707 C94.9904082,19.63822 94.9291837,19.48142 94.8753061,19.34422 C94.8226531,19.208245 94.7797959,19.100445 94.7467347,19.02327 L94.7467347,19.02327 Z M96.2246939,23.250745 C96.1634694,23.06087 96.0985714,22.86487 96.027551,22.665195 C95.9577551,22.46552 95.8891837,22.265845 95.8193878,22.067395 L93.685102,22.067395 C93.6165306,22.26707 93.5479592,22.466745 93.4781633,22.667645 C93.4095918,22.86732 93.3446939,23.062095 93.2846939,23.250745 L92.007551,23.250745 C92.2132653,22.66152 92.4079592,22.11762 92.5928571,21.61782 C92.7777551,21.11802 92.9577551,20.64762 93.1340816,20.20662 C93.3116327,19.764395 93.4842857,19.345445 93.6557143,18.948545 C93.8271429,18.551645 94.0059184,18.16332 94.1895918,17.784795 L95.3553061,17.784795 C95.5353061,18.16332 95.7116327,18.551645 95.8867347,18.948545 C96.0606122,19.345445 96.2357143,19.764395 96.4132653,20.20662 C96.5895918,20.64762 96.7708163,21.11802 96.9557143,21.61782 C97.1406122,22.11762 97.3353061,22.66152 97.5410204,23.250745 L96.2246939,23.250745 Z" id="Fill-119" fill="#213F99"></path>
                        <path d="M102.271224,23.360995 C101.887959,23.360995 101.556122,23.307095 101.276939,23.199295 C100.99898,23.091495 100.768776,22.942045 100.587551,22.74972 C100.407551,22.557395 100.272857,22.329545 100.185918,22.06372 C100.09898,21.797895 100.056122,21.50512 100.056122,21.18417 L100.056122,17.784795 L101.28551,17.784795 L101.28551,21.08127 C101.28551,21.302995 101.31,21.49042 101.360204,21.645995 C101.410408,21.800345 101.47898,21.92652 101.565918,22.02452 C101.652857,22.121295 101.756939,22.19112 101.880612,22.23277 C102.004286,22.275645 102.140204,22.29647 102.287143,22.29647 C102.585918,22.29647 102.829592,22.204595 103.015714,22.01962 C103.201837,21.83587 103.296122,21.523495 103.296122,21.08127 L103.296122,17.784795 L104.52551,17.784795 L104.52551,21.18417 C104.52551,21.50512 104.480204,21.79912 104.390816,22.067395 C104.302653,22.33567 104.16551,22.56597 103.981837,22.75707 C103.798163,22.949395 103.564286,23.09762 103.280204,23.20297 C102.996122,23.30832 102.659388,23.360995 102.271224,23.360995" id="Fill-121" fill="#213F99"></path>
                        <path d="M109.37302,23.2503775 C109.020367,22.6244025 108.639551,22.0070025 108.230571,21.3969525 C107.820367,20.7869025 107.383224,20.2123775 106.921592,19.6697025 L106.921592,23.2503775 L105.708122,23.2503775 L105.708122,17.7856525 L106.708531,17.7856525 C106.882408,17.9596025 107.074653,18.1715275 107.284041,18.4238775 C107.494653,18.6762275 107.708939,18.9457275 107.926898,19.2323775 C108.144857,19.5190275 108.361592,19.8154775 108.577102,20.1241775 C108.792612,20.4316525 108.994653,20.7268775 109.184449,21.0110775 L109.184449,17.7856525 L110.405265,17.7856525 L110.405265,23.2503775 L109.37302,23.2503775 Z" id="Fill-123" fill="#213F99"></path>
                        <polygon id="Fill-125" fill="#213F99" points="111.667347 23.249275 112.896735 23.249275 112.896735 17.78455 111.667347 17.78455"></polygon>
                        <path d="M117.145102,21.4128775 C117.145102,21.6811525 117.115714,21.9335025 117.05449,22.1699275 C116.99449,22.4063525 116.889184,22.6121525 116.738571,22.7897775 C116.589184,22.9649525 116.387143,23.1046025 116.132449,23.2062775 C115.877755,23.3091775 115.555714,23.3606275 115.166327,23.3606275 C114.808776,23.3606275 114.501429,23.3177525 114.244286,23.2307775 C113.987143,23.1438025 113.774082,23.0433525 113.606327,22.9269775 L114.015306,21.9727025 C114.168367,22.0621275 114.331224,22.1417525 114.505102,22.2091275 C114.677755,22.2777275 114.867551,22.3120275 115.072041,22.3120275 C115.372041,22.3120275 115.587551,22.2385275 115.718571,22.0915275 C115.849592,21.9445275 115.915714,21.6970775 115.915714,21.3504025 L115.915714,17.7856525 L117.145102,17.7856525 L117.145102,21.4128775 Z" id="Fill-127" fill="#213F99"></path>
                        <path d="M120.514776,19.02327 C120.487837,19.102895 120.447429,19.210695 120.394776,19.347895 C120.340898,19.48387 120.282122,19.641895 120.213551,19.820745 C120.146204,19.999595 120.07151,20.19682 119.98702,20.41242 C119.903755,20.62802 119.819265,20.85342 119.733551,21.089845 L121.296,21.089845 C121.21151,20.852195 121.130694,20.626795 121.052327,20.40997 C120.973959,20.19437 120.899265,19.997145 120.829469,19.81707 C120.758449,19.63822 120.697224,19.48142 120.643347,19.34422 C120.590694,19.208245 120.547837,19.100445 120.514776,19.02327 L120.514776,19.02327 Z M121.992735,23.250745 C121.93151,23.06087 121.866612,22.86487 121.795592,22.665195 C121.725796,22.46552 121.657224,22.265845 121.587429,22.067395 L119.453143,22.067395 C119.384571,22.26707 119.316,22.466745 119.246204,22.667645 C119.177633,22.86732 119.112735,23.062095 119.052735,23.250745 L117.775592,23.250745 C117.981306,22.66152 118.176,22.11762 118.360898,21.61782 C118.545796,21.11802 118.725796,20.64762 118.902122,20.20662 C119.079673,19.764395 119.252327,19.345445 119.423755,18.948545 C119.595184,18.551645 119.773959,18.16332 119.957633,17.784795 L121.123347,17.784795 C121.303347,18.16332 121.479673,18.551645 121.654776,18.948545 C121.828653,19.345445 122.003755,19.764395 122.181306,20.20662 C122.357633,20.64762 122.538857,21.11802 122.723755,21.61782 C122.908653,22.11762 123.103347,22.66152 123.309061,23.250745 L121.992735,23.250745 Z" id="Fill-128" fill="#213F99"></path>
                        <path d="M59.8326122,27.40031 C59.6636327,27.57426 59.4640408,27.798435 59.2326122,28.075285 C59.0011837,28.35091 58.7624082,28.651035 58.5150612,28.97811 C58.2689388,29.30396 58.0240408,29.640835 57.7815918,29.98751 C57.5403673,30.334185 57.3248571,30.66616 57.1350612,30.980985 L59.919551,30.980985 L59.919551,32.01366 L55.6228163,32.01366 L55.6228163,31.279885 C55.7697551,31.012835 55.9509796,30.713935 56.1628163,30.385635 C56.3758776,30.05611 56.5975102,29.72536 56.8289388,29.390935 C57.0603673,29.057735 57.2954694,28.734335 57.5354694,28.42196 C57.7730204,28.109585 57.9958776,27.82906 58.2003673,27.58161 L55.7489388,27.58161 L55.7489388,26.548935 L59.8326122,26.548935 L59.8326122,27.40031 Z" id="Fill-129" fill="#213F99"></path>
                        <path d="M62.8077551,27.786675 C62.7808163,27.8663 62.7404082,27.9741 62.6877551,28.1113 C62.6338776,28.247275 62.575102,28.4053 62.5065306,28.58415 C62.4391837,28.763 62.3644898,28.960225 62.28,29.175825 C62.1967347,29.391425 62.1122449,29.616825 62.0265306,29.85325 L63.5889796,29.85325 C63.5044898,29.6156 63.4236735,29.3902 63.3453061,29.173375 C63.2669388,28.957775 63.1922449,28.76055 63.122449,28.580475 C63.0514286,28.401625 62.9902041,28.244825 62.9363265,28.107625 C62.8836735,27.97165 62.8408163,27.86385 62.8077551,27.786675 L62.8077551,27.786675 Z M64.2857143,32.01415 C64.2244898,31.824275 64.1595918,31.628275 64.0885714,31.4286 C64.0187755,31.228925 63.9502041,31.02925 63.8804082,30.8308 L61.7461224,30.8308 C61.677551,31.030475 61.6089796,31.23015 61.5391837,31.43105 C61.4706122,31.630725 61.4057143,31.8255 61.3457143,32.01415 L60.0685714,32.01415 C60.2742857,31.424925 60.4689796,30.881025 60.6538776,30.381225 C60.8387755,29.881425 61.0187755,29.411025 61.195102,28.970025 C61.3726531,28.5278 61.5453061,28.10885 61.7167347,27.71195 C61.8881633,27.31505 62.0669388,26.926725 62.2506122,26.5482 L63.4163265,26.5482 C63.5963265,26.926725 63.7726531,27.31505 63.9477551,27.71195 C64.1216327,28.10885 64.2967347,28.5278 64.4742857,28.970025 C64.6506122,29.411025 64.8318367,29.881425 65.0167347,30.381225 C65.2016327,30.881025 65.3963265,31.424925 65.6020408,32.01415 L64.2857143,32.01415 Z" id="Fill-130" fill="#213F99"></path>
                        <path d="M69.2913061,30.1762825 C69.2913061,30.4445575 69.2619184,30.6969075 69.2006939,30.9333325 C69.1406939,31.1697575 69.0353878,31.3755575 68.8847755,31.5531825 C68.7353878,31.7283575 68.5333469,31.8680075 68.2786531,31.9696825 C68.0239592,32.0725825 67.7019184,32.1240325 67.3125306,32.1240325 C66.9549796,32.1240325 66.6476327,32.0811575 66.3904898,31.9941825 C66.1333469,31.9072075 65.9202857,31.8067575 65.7525306,31.6903825 L66.1615102,30.7361075 C66.3145714,30.8255325 66.4774286,30.9051575 66.6513061,30.9725325 C66.8239592,31.0411325 67.0137551,31.0754325 67.2182449,31.0754325 C67.5182449,31.0754325 67.7337551,31.0019325 67.8647755,30.8549325 C67.9957959,30.7079325 68.0619184,30.4604825 68.0619184,30.1138075 L68.0619184,26.5490575 L69.2913061,26.5490575 L69.2913061,30.1762825 Z" id="Fill-131" fill="#213F99"></path>
                        <polygon id="Fill-132" fill="#213F99" points="70.4739184 32.0137825 70.4739184 26.5490575 74.1633061 26.5490575 74.1633061 27.5817325 71.7033061 27.5817325 71.7033061 28.6548325 73.8865714 28.6548325 73.8865714 29.6642325 71.7033061 29.6642325 71.7033061 30.9811075 74.3445306 30.9811075 74.3445306 32.0137825"></polygon>
                        <path d="M76.4797959,31.0124675 C76.5373469,31.0173675 76.6046939,31.0210425 76.6818367,31.0234925 C76.7577551,31.0271675 76.8483673,31.0283925 76.952449,31.0283925 C77.5683673,31.0283925 78.0238776,30.8728175 78.3202041,30.5628925 C78.6177551,30.2529675 78.7659184,29.8242175 78.7659184,29.2766425 C78.7659184,28.7045675 78.6238776,28.2709175 78.3410204,27.9756925 C78.0569388,27.6816925 77.607551,27.5346925 76.9916327,27.5346925 C76.9083673,27.5346925 76.8214286,27.5359175 76.7320408,27.5383675 C76.6426531,27.5420425 76.5581633,27.5481675 76.4797959,27.5579675 L76.4797959,31.0124675 Z M80.0344898,29.2766425 C80.0344898,29.7507175 79.9610204,30.1635425 79.8140816,30.5151175 C79.6671429,30.8679175 79.4589796,31.1594675 79.1871429,31.3909925 C78.9165306,31.6225175 78.5871429,31.7952425 78.1989796,31.9116175 C77.8095918,32.0267675 77.3736735,32.0843425 76.89,32.0843425 C76.6695918,32.0843425 76.4112245,32.0757675 76.1173469,32.0573925 C75.8234694,32.0390175 75.5344898,32.0010425 75.2504082,31.9422425 L75.2504082,26.6196175 C75.5344898,26.5669425 75.8295918,26.5314175 76.1369388,26.5130425 C76.4442857,26.4946675 76.7087755,26.4860925 76.9291837,26.4860925 C77.3969388,26.4860925 77.8218367,26.5387675 78.2026531,26.6441175 C78.5834694,26.7494675 78.9104082,26.9136175 79.1834694,27.1402425 C79.4565306,27.3656425 79.6671429,27.6559675 79.8140816,28.0075425 C79.9610204,28.3591175 80.0344898,28.7829675 80.0344898,29.2766425 L80.0344898,29.2766425 Z" id="Fill-133" fill="#213F99"></path>
                        <path d="M84.7253878,32.0137825 C84.3727347,31.3878075 83.9919184,30.7704075 83.5829388,30.1603575 C83.1727347,29.5503075 82.7355918,28.9757825 82.2739592,28.4331075 L82.2739592,32.0137825 L81.0604898,32.0137825 L81.0604898,26.5490575 L82.060898,26.5490575 C82.2347755,26.7230075 82.4270204,26.9349325 82.6364082,27.1872825 C82.8470204,27.4396325 83.0613061,27.7091325 83.2792653,27.9957825 C83.4972245,28.2824325 83.7139592,28.5788825 83.9294694,28.8875825 C84.1449796,29.1950575 84.3470204,29.4902825 84.5368163,29.7744825 L84.5368163,26.5490575 L85.7576327,26.5490575 L85.7576327,32.0137825 L84.7253878,32.0137825 Z" id="Fill-134" fill="#213F99"></path>
                        <path d="M88.0520816,29.277255 C88.0520816,29.54553 88.0851429,29.78808 88.1512653,30.002455 C88.2161633,30.21928 88.310449,30.40303 88.4341224,30.558605 C88.5577959,30.71418 88.7084082,30.83423 88.8871837,30.91753 C89.0659592,31.002055 89.2716735,31.043705 89.503102,31.043705 C89.7284082,31.043705 89.9316735,31.002055 90.112898,30.91753 C90.2953469,30.83423 90.4471837,30.71418 90.5708571,30.558605 C90.6945306,30.40303 90.7888163,30.21928 90.8549388,30.002455 C90.9198367,29.78808 90.952898,29.54553 90.952898,29.277255 C90.952898,29.00898 90.9198367,28.76643 90.8549388,28.54838 C90.7888163,28.33033 90.6945306,28.142905 90.5708571,27.988555 C90.4471837,27.83298 90.2953469,27.71293 90.112898,27.62963 C89.9316735,27.545105 89.7284082,27.503455 89.503102,27.503455 C89.2716735,27.503455 89.0659592,27.54633 88.8871837,27.633305 C88.7084082,27.72028 88.5577959,27.841555 88.4341224,27.995905 C88.310449,28.15148 88.2161633,28.33768 88.1512653,28.55573 C88.0851429,28.77378 88.0520816,29.015105 88.0520816,29.277255 M92.2214694,29.277255 C92.2214694,29.745205 92.152898,30.156805 92.0133061,30.51083 C91.8737143,30.86608 91.6826939,31.163755 91.4414694,31.40263 C91.2002449,31.641505 90.9112653,31.82158 90.5782041,31.942855 C90.2451429,32.062905 89.8863673,32.124155 89.503102,32.124155 C89.1296327,32.124155 88.7769796,32.062905 88.4463673,31.942855 C88.1145306,31.82158 87.825551,31.641505 87.5794286,31.40263 C87.3320816,31.163755 87.1373878,30.86608 86.9953469,30.51083 C86.8533061,30.156805 86.7822857,29.745205 86.7822857,29.277255 C86.7822857,28.809305 86.8557551,28.397705 87.0039184,28.04368 C87.1508571,27.68843 87.3492245,27.38953 87.5990204,27.148205 C87.8475918,26.905655 88.1377959,26.72558 88.4659592,26.604305 C88.7941224,26.48303 89.1394286,26.423005 89.503102,26.423005 C89.8753469,26.423005 90.228,26.48303 90.5586122,26.604305 C90.8892245,26.72558 91.1782041,26.905655 91.425551,27.148205 C91.672898,27.38953 91.8675918,27.68843 92.0084082,28.04368 C92.1516735,28.397705 92.2214694,28.809305 92.2214694,29.277255" id="Fill-135" fill="#213F99"></path>
                        <path d="M96.3675918,31.0124675 C96.4251429,31.0173675 96.4924898,31.0210425 96.5696327,31.0234925 C96.645551,31.0271675 96.7361633,31.0283925 96.8402449,31.0283925 C97.4561633,31.0283925 97.9116735,30.8728175 98.208,30.5628925 C98.505551,30.2529675 98.6537143,29.8242175 98.6537143,29.2766425 C98.6537143,28.7045675 98.5116735,28.2709175 98.2288163,27.9756925 C97.9447347,27.6816925 97.4953469,27.5346925 96.8794286,27.5346925 C96.7961633,27.5346925 96.7092245,27.5359175 96.6198367,27.5383675 C96.530449,27.5420425 96.4459592,27.5481675 96.3675918,27.5579675 L96.3675918,31.0124675 Z M99.9222857,29.2766425 C99.9222857,29.7507175 99.8488163,30.1635425 99.7018776,30.5151175 C99.5549388,30.8679175 99.3467755,31.1594675 99.0749388,31.3909925 C98.8043265,31.6225175 98.4749388,31.7952425 98.0867755,31.9116175 C97.6973878,32.0267675 97.2614694,32.0843425 96.7777959,32.0843425 C96.5573878,32.0843425 96.2990204,32.0757675 96.0051429,32.0573925 C95.7112653,32.0390175 95.4222857,32.0010425 95.1382041,31.9422425 L95.1382041,26.6196175 C95.4222857,26.5669425 95.7173878,26.5314175 96.0247347,26.5130425 C96.3320816,26.4946675 96.5965714,26.4860925 96.8169796,26.4860925 C97.2847347,26.4860925 97.7096327,26.5387675 98.090449,26.6441175 C98.4712653,26.7494675 98.7982041,26.9136175 99.0712653,27.1402425 C99.3443265,27.3656425 99.5549388,27.6559675 99.7018776,28.0075425 C99.8488163,28.3591175 99.9222857,28.7829675 99.9222857,29.2766425 L99.9222857,29.2766425 Z" id="Fill-136" fill="#213F99"></path>
                        <path d="M101.980653,29.277255 C101.980653,29.54553 102.013714,29.78808 102.079837,30.002455 C102.144735,30.21928 102.23902,30.40303 102.362694,30.558605 C102.486367,30.71418 102.63698,30.83423 102.815755,30.91753 C102.994531,31.002055 103.200245,31.043705 103.431673,31.043705 C103.65698,31.043705 103.860245,31.002055 104.041469,30.91753 C104.223918,30.83423 104.375755,30.71418 104.499429,30.558605 C104.623102,30.40303 104.717388,30.21928 104.78351,30.002455 C104.848408,29.78808 104.881469,29.54553 104.881469,29.277255 C104.881469,29.00898 104.848408,28.76643 104.78351,28.54838 C104.717388,28.33033 104.623102,28.142905 104.499429,27.988555 C104.375755,27.83298 104.223918,27.71293 104.041469,27.62963 C103.860245,27.545105 103.65698,27.503455 103.431673,27.503455 C103.200245,27.503455 102.994531,27.54633 102.815755,27.633305 C102.63698,27.72028 102.486367,27.841555 102.362694,27.995905 C102.23902,28.15148 102.144735,28.33768 102.079837,28.55573 C102.013714,28.77378 101.980653,29.015105 101.980653,29.277255 M106.150041,29.277255 C106.150041,29.745205 106.081469,30.156805 105.941878,30.51083 C105.802286,30.86608 105.611265,31.163755 105.370041,31.40263 C105.128816,31.641505 104.839837,31.82158 104.506776,31.942855 C104.173714,32.062905 103.814939,32.124155 103.431673,32.124155 C103.058204,32.124155 102.705551,32.062905 102.374939,31.942855 C102.043102,31.82158 101.754122,31.641505 101.508,31.40263 C101.260653,31.163755 101.065959,30.86608 100.923918,30.51083 C100.781878,30.156805 100.710857,29.745205 100.710857,29.277255 C100.710857,28.809305 100.784327,28.397705 100.93249,28.04368 C101.079429,27.68843 101.277796,27.38953 101.527592,27.148205 C101.776163,26.905655 102.066367,26.72558 102.394531,26.604305 C102.722694,26.48303 103.068,26.423005 103.431673,26.423005 C103.803918,26.423005 104.156571,26.48303 104.487184,26.604305 C104.817796,26.72558 105.106776,26.905655 105.354122,27.148205 C105.601469,27.38953 105.796163,27.68843 105.93698,28.04368 C106.080245,28.397705 106.150041,28.809305 106.150041,29.277255" id="Fill-137" fill="#213F99"></path>
                        <polygon id="Fill-138" fill="#213F99" points="109.066898 32.0137825 109.066898 26.5490575 112.724449 26.5490575 112.724449 27.5817325 110.296286 27.5817325 110.296286 28.7246575 112.456286 28.7246575 112.456286 29.7585575 110.296286 29.7585575 110.296286 32.0137825"></polygon>
                        <path d="M114.45098,29.277255 C114.45098,29.54553 114.484041,29.78808 114.550163,30.002455 C114.615061,30.21928 114.709347,30.40303 114.83302,30.558605 C114.956694,30.71418 115.107306,30.83423 115.286082,30.91753 C115.464857,31.002055 115.670571,31.043705 115.902,31.043705 C116.127306,31.043705 116.330571,31.002055 116.511796,30.91753 C116.694245,30.83423 116.846082,30.71418 116.969755,30.558605 C117.093429,30.40303 117.187714,30.21928 117.253837,30.002455 C117.318735,29.78808 117.351796,29.54553 117.351796,29.277255 C117.351796,29.00898 117.318735,28.76643 117.253837,28.54838 C117.187714,28.33033 117.093429,28.142905 116.969755,27.988555 C116.846082,27.83298 116.694245,27.71293 116.511796,27.62963 C116.330571,27.545105 116.127306,27.503455 115.902,27.503455 C115.670571,27.503455 115.464857,27.54633 115.286082,27.633305 C115.107306,27.72028 114.956694,27.841555 114.83302,27.995905 C114.709347,28.15148 114.615061,28.33768 114.550163,28.55573 C114.484041,28.77378 114.45098,29.015105 114.45098,29.277255 M118.620367,29.277255 C118.620367,29.745205 118.551796,30.156805 118.412204,30.51083 C118.272612,30.86608 118.081592,31.163755 117.840367,31.40263 C117.599143,31.641505 117.310163,31.82158 116.977102,31.942855 C116.644041,32.062905 116.285265,32.124155 115.902,32.124155 C115.528531,32.124155 115.175878,32.062905 114.845265,31.942855 C114.513429,31.82158 114.224449,31.641505 113.978327,31.40263 C113.73098,31.163755 113.536286,30.86608 113.394245,30.51083 C113.252204,30.156805 113.181184,29.745205 113.181184,29.277255 C113.181184,28.809305 113.254653,28.397705 113.402816,28.04368 C113.549755,27.68843 113.748122,27.38953 113.997918,27.148205 C114.24649,26.905655 114.536694,26.72558 114.864857,26.604305 C115.19302,26.48303 115.538327,26.423005 115.902,26.423005 C116.274245,26.423005 116.626898,26.48303 116.95751,26.604305 C117.288122,26.72558 117.577102,26.905655 117.824449,27.148205 C118.071796,27.38953 118.26649,27.68843 118.407306,28.04368 C118.550571,28.397705 118.620367,28.809305 118.620367,29.277255" id="Fill-139" fill="#213F99"></path>
                        <path d="M123.310531,32.0137825 C122.957878,31.3878075 122.577061,30.7704075 122.168082,30.1603575 C121.757878,29.5503075 121.320735,28.9757825 120.859102,28.4331075 L120.859102,32.0137825 L119.645633,32.0137825 L119.645633,26.5490575 L120.646041,26.5490575 C120.819918,26.7230075 121.012163,26.9349325 121.221551,27.1872825 C121.432163,27.4396325 121.646449,27.7091325 121.864408,27.9957825 C122.082367,28.2824325 122.299102,28.5788825 122.514612,28.8875825 C122.730122,29.1950575 122.932163,29.4902825 123.121959,29.7744825 L123.121959,26.5490575 L124.342776,26.5490575 L124.342776,32.0137825 L123.310531,32.0137825 Z" id="Fill-140" fill="#213F99"></path>
                        <path d="M126.834,31.0124675 C126.891551,31.0173675 126.958898,31.0210425 127.036041,31.0234925 C127.111959,31.0271675 127.202571,31.0283925 127.306653,31.0283925 C127.922571,31.0283925 128.378082,30.8728175 128.674408,30.5628925 C128.971959,30.2529675 129.120122,29.8242175 129.120122,29.2766425 C129.120122,28.7045675 128.978082,28.2709175 128.695224,27.9756925 C128.411143,27.6816925 127.961755,27.5346925 127.345837,27.5346925 C127.262571,27.5346925 127.175633,27.5359175 127.086245,27.5383675 C126.996857,27.5420425 126.912367,27.5481675 126.834,27.5579675 L126.834,31.0124675 Z M130.388694,29.2766425 C130.388694,29.7507175 130.315224,30.1635425 130.168286,30.5151175 C130.021347,30.8679175 129.813184,31.1594675 129.541347,31.3909925 C129.270735,31.6225175 128.941347,31.7952425 128.553184,31.9116175 C128.163796,32.0267675 127.727878,32.0843425 127.244204,32.0843425 C127.023796,32.0843425 126.765429,32.0757675 126.471551,32.0573925 C126.177673,32.0390175 125.888694,32.0010425 125.604612,31.9422425 L125.604612,26.6196175 C125.888694,26.5669425 126.183796,26.5314175 126.491143,26.5130425 C126.79849,26.4946675 127.06298,26.4860925 127.283388,26.4860925 C127.751143,26.4860925 128.176041,26.5387675 128.556857,26.6441175 C128.937673,26.7494675 129.264612,26.9136175 129.537673,27.1402425 C129.810735,27.3656425 130.021347,27.6559675 130.168286,28.0075425 C130.315224,28.3591175 130.388694,28.7829675 130.388694,29.2766425 L130.388694,29.2766425 Z" id="Fill-141" fill="#213F99"></path>
                        <path d="M132.446939,29.277255 C132.446939,29.54553 132.48,29.78808 132.546122,30.002455 C132.61102,30.21928 132.705306,30.40303 132.82898,30.558605 C132.952653,30.71418 133.103265,30.83423 133.282041,30.91753 C133.460816,31.002055 133.666531,31.043705 133.897959,31.043705 C134.123265,31.043705 134.326531,31.002055 134.507755,30.91753 C134.690204,30.83423 134.842041,30.71418 134.965714,30.558605 C135.089388,30.40303 135.183673,30.21928 135.249796,30.002455 C135.314694,29.78808 135.347755,29.54553 135.347755,29.277255 C135.347755,29.00898 135.314694,28.76643 135.249796,28.54838 C135.183673,28.33033 135.089388,28.142905 134.965714,27.988555 C134.842041,27.83298 134.690204,27.71293 134.507755,27.62963 C134.326531,27.545105 134.123265,27.503455 133.897959,27.503455 C133.666531,27.503455 133.460816,27.54633 133.282041,27.633305 C133.103265,27.72028 132.952653,27.841555 132.82898,27.995905 C132.705306,28.15148 132.61102,28.33768 132.546122,28.55573 C132.48,28.77378 132.446939,29.015105 132.446939,29.277255 M136.616327,29.277255 C136.616327,29.745205 136.547755,30.156805 136.408163,30.51083 C136.268571,30.86608 136.077551,31.163755 135.836327,31.40263 C135.595102,31.641505 135.306122,31.82158 134.973061,31.942855 C134.64,32.062905 134.281224,32.124155 133.897959,32.124155 C133.52449,32.124155 133.171837,32.062905 132.841224,31.942855 C132.509388,31.82158 132.220408,31.641505 131.974286,31.40263 C131.726939,31.163755 131.532245,30.86608 131.390204,30.51083 C131.248163,30.156805 131.177143,29.745205 131.177143,29.277255 C131.177143,28.809305 131.250612,28.397705 131.398776,28.04368 C131.545714,27.68843 131.744082,27.38953 131.993878,27.148205 C132.242449,26.905655 132.532653,26.72558 132.860816,26.604305 C133.18898,26.48303 133.534286,26.423005 133.897959,26.423005 C134.270204,26.423005 134.622857,26.48303 134.953469,26.604305 C135.284082,26.72558 135.573061,26.905655 135.820408,27.148205 C136.067755,27.38953 136.262449,27.68843 136.403265,28.04368 C136.546531,28.397705 136.616327,28.809305 136.616327,29.277255" id="Fill-142" fill="#213F99"></path>
                        <path d="M139.100939,32.0137825 C138.88298,31.5544075 138.668694,31.0778825 138.458082,30.5842075 C138.246245,30.0917575 138.045429,29.6029825 137.854408,29.1191075 C137.664612,28.6364575 137.48951,28.1734075 137.330327,27.7311825 C137.169918,27.2901825 137.032776,26.8957325 136.916449,26.5490575 L138.271959,26.5490575 C138.373592,26.8651075 138.488694,27.2056575 138.613592,27.5707075 C138.73849,27.9357575 138.865837,28.2995825 138.995633,28.6609575 C139.125429,29.0235575 139.250327,29.3702325 139.369102,29.7022075 C139.487878,30.0341825 139.601755,30.3220575 139.710735,30.5621575 C139.813592,30.3232825 139.92502,30.0366325 140.046245,29.7046575 C140.168694,29.3739075 140.294816,29.0260075 140.424612,28.6634075 C140.554408,28.3020325 140.681755,27.9382075 140.806653,27.5731575 C140.931551,27.2081075 141.045429,26.8663325 141.148286,26.5490575 L142.457265,26.5490575 C142.334816,26.8969575 142.194,27.2926325 142.034816,27.7324075 C141.875633,28.1746325 141.701755,28.6364575 141.513184,29.1203325 C141.323388,29.6042075 141.123796,30.0929825 140.913184,30.5866575 C140.703796,31.0815575 140.490735,31.5568575 140.274,32.0137825 L139.100939,32.0137825 Z" id="Fill-143" fill="#213F99"></path>
                        <path d="M145.18102,27.786675 C145.154082,27.8663 145.113673,27.9741 145.06102,28.1113 C145.007143,28.247275 144.948367,28.4053 144.879796,28.58415 C144.812449,28.763 144.737755,28.960225 144.653265,29.175825 C144.57,29.391425 144.48551,29.616825 144.399796,29.85325 L145.962245,29.85325 C145.877755,29.6156 145.796939,29.3902 145.718571,29.173375 C145.640204,28.957775 145.56551,28.76055 145.495714,28.580475 C145.424694,28.401625 145.363469,28.244825 145.309592,28.107625 C145.256939,27.97165 145.214082,27.86385 145.18102,27.786675 L145.18102,27.786675 Z M146.65898,32.01415 C146.597755,31.824275 146.532857,31.628275 146.461837,31.4286 C146.392041,31.228925 146.323469,31.02925 146.253673,30.8308 L144.119388,30.8308 C144.050816,31.030475 143.982245,31.23015 143.912449,31.43105 C143.843878,31.630725 143.77898,31.8255 143.71898,32.01415 L142.441837,32.01415 C142.647551,31.424925 142.842245,30.881025 143.027143,30.381225 C143.212041,29.881425 143.392041,29.411025 143.568367,28.970025 C143.745918,28.5278 143.918571,28.10885 144.09,27.71195 C144.261429,27.31505 144.440204,26.926725 144.623878,26.5482 L145.789592,26.5482 C145.969592,26.926725 146.145918,27.31505 146.32102,27.71195 C146.494898,28.10885 146.67,28.5278 146.847551,28.970025 C147.023878,29.411025 147.205102,29.881425 147.39,30.381225 C147.574898,30.881025 147.769592,31.424925 147.975306,32.01415 L146.65898,32.01415 Z" id="Fill-144" fill="#213F99"></path>
                        <polygon id="Fill-145" fill="#213F99" points="150.568653 32.0137825 150.568653 26.5490575 154.258041 26.5490575 154.258041 27.5817325 151.798041 27.5817325 151.798041 28.6548325 153.981306 28.6548325 153.981306 29.6642325 151.798041 29.6642325 151.798041 30.9811075 154.439265 30.9811075 154.439265 32.0137825"></polygon>
                        <path d="M157.482122,32.1244 C157.098857,32.1244 156.76702,32.0705 156.487837,31.9627 C156.209878,31.8549 155.979673,31.70545 155.798449,31.513125 C155.618449,31.3208 155.483755,31.09295 155.396816,30.827125 C155.309878,30.5613 155.26702,30.268525 155.26702,29.947575 L155.26702,26.5482 L156.496408,26.5482 L156.496408,29.844675 C156.496408,30.0664 156.520898,30.253825 156.571102,30.4094 C156.621306,30.56375 156.689878,30.689925 156.776816,30.787925 C156.863755,30.8847 156.967837,30.954525 157.09151,30.996175 C157.215184,31.03905 157.351102,31.059875 157.498041,31.059875 C157.796816,31.059875 158.04049,30.968 158.226612,30.783025 C158.412735,30.599275 158.50702,30.2869 158.50702,29.844675 L158.50702,26.5482 L159.736408,26.5482 L159.736408,29.947575 C159.736408,30.268525 159.691102,30.562525 159.601714,30.8308 C159.513551,31.099075 159.376408,31.329375 159.192735,31.520475 C159.009061,31.7128 158.775184,31.861025 158.491102,31.966375 C158.20702,32.071725 157.870286,32.1244 157.482122,32.1244" id="Fill-146" fill="#213F99"></path>
                    </g>
                </g>
            </g>
        </g>
    </g>
</svg>