<?xml version="1.0" encoding="UTF-8"?>
<svg width="124px" height="35px" viewBox="0 0 124 35" version="1.1" xmlns="http://www.w3.org/2000/svg" xmlns:xlink="http://www.w3.org/1999/xlink">
    <title>B142EC74-A0C6-47E2-8A81-D0B7F898DA3E</title>
    <g id="Dizajn" stroke="none" stroke-width="1" fill="none" fill-rule="evenodd">
        <g id="PoÄetna---r1" transform="translate(-1154.000000, -8331.000000)">
            <g id="Footer" transform="translate(260.000000, 7921.000000)">
                <g id="Group-73" transform="translate(539.000000, 397.000000)">
                    <g id="EU-3" transform="translate(354.432245, 12.980100)">
                        <polygon id="Fill-147" fill="#D83430" points="17.9914286 15.566075 32.3216327 15.566075 32.3216327 1.2299 17.9914286 1.2299"></polygon>
                        <polyline id="Fill-148" fill="#FEFEFE" points="19.3731429 2.5946725 30.9739592 2.5946725 30.9739592 14.1366225 29.5229388 4.1308225"></polyline>
                        <polygon id="Fill-149" fill="#EDE340" points="24.2314286 25.814425 32.3314286 25.814425 32.3314286 17.71105 24.2314286 17.71105"></polygon>
                        <polygon id="Fill-150" fill="#9DC347" points="15.8485714 23.98795 22.1155102 23.98795 22.1155102 17.717175 15.8485714 17.717175"></polygon>
                        <polygon id="Fill-151" fill="#E47D30" points="26.9314286 32.304475 32.3228571 32.304475 32.3228571 26.909575 26.9314286 26.909575"></polygon>
                        <polygon id="Fill-152" fill="#1795D2" points="9.6 17.702475 15.8326531 17.702475 15.8326531 11.467225 9.6 11.467225"></polygon>
                        <polygon id="Fill-153" fill="#1F854B" points="7.45959184 26.083925 13.6910204 26.083925 13.6910204 19.8499 7.45959184 19.8499"></polygon>
                        <polygon id="Fill-154" fill="#3A428F" points="7.73387755 9.328375 15.8338776 9.328375 15.8338776 1.226225 7.73387755 1.226225"></polygon>
                        <polygon id="Fill-155" fill="#66B278" points="1.2244898 32.3155 7.45714286 32.3155 7.45714286 26.08025 1.2244898 26.08025"></polygon>
                        <path d="M49.6278367,5.75407 L49.6278367,4.51927 C49.6278367,2.393895 48.5453878,1.51312 47.0441633,1.51312 C45.5404898,1.51312 44.4494694,2.393895 44.4494694,4.51927 L44.4494694,5.75407 C44.4494694,7.879445 45.5404898,8.76022 47.0441633,8.76022 C48.5453878,8.76022 49.6278367,7.879445 49.6278367,5.75407 M48.7462041,5.75407 C48.7462041,7.362495 48.0862041,7.974995 47.0441633,7.974995 C45.9898776,7.974995 45.3298776,7.362495 45.3298776,5.75407 L45.3298776,4.51927 C45.3298776,2.910845 46.000898,2.298345 47.0441633,2.298345 C48.0947755,2.298345 48.7462041,2.910845 48.7462041,4.51927" id="Fill-156" fill="#39428F"></path>
                        <path d="M54.9001224,6.4144675 L54.9001224,5.7260175 C54.9001224,4.2890925 54.238898,3.3605425 52.8135918,3.3605425 C52.2295102,3.3605425 51.5597143,3.4560925 51.0527755,3.5810425 C50.8801224,3.6190175 50.8519592,3.6765925 50.8519592,3.8015425 L50.8519592,10.3871425 C50.8519592,10.4924925 50.929102,10.5696675 51.0246122,10.5696675 L51.5107347,10.5696675 C51.6160408,10.5696675 51.6944082,10.4826925 51.6944082,10.3871425 L51.6944082,8.6537675 C52.0678776,8.7211425 52.5172653,8.7603425 52.8135918,8.7603425 C54.2107347,8.7603425 54.9001224,7.9175425 54.9001224,6.4144675 M54.058898,6.4144675 C54.058898,7.4373425 53.751551,8.0510675 52.8135918,8.0510675 C52.5074694,8.0510675 52.009102,8.0130925 51.6944082,7.9555175 L51.6944082,4.1653675 C51.9625714,4.1163675 52.4119592,4.0685925 52.8135918,4.0685925 C53.7601224,4.0685925 54.058898,4.7202925 54.058898,5.7260175" id="Fill-157" fill="#39428F"></path>
                        <path d="M60.0862041,6.1177725 L60.0862041,5.6008225 C60.0862041,4.2410725 59.378449,3.3602975 57.9800816,3.3602975 C56.611102,3.3602975 55.8568163,4.2324975 55.8568163,5.6008225 L55.8568163,6.4619975 C55.8568163,8.2431475 56.9270204,8.7600975 58.0278367,8.7600975 C58.6694694,8.7600975 59.1947755,8.7025225 59.7421224,8.5971725 C59.8939592,8.5677725 59.9331429,8.5016225 59.9331429,8.3766725 L59.9331429,8.0520475 C59.9331429,7.9552725 59.8572245,7.9172975 59.7788571,7.9172975 L59.7323265,7.9172975 C59.2915102,7.9846725 58.5825306,8.0226475 58.0278367,8.0226475 C57.1486531,8.0226475 56.6980408,7.6000225 56.6980408,6.4619975 L56.6980408,6.3272475 L59.9037551,6.3272475 C60.0188571,6.3272475 60.0862041,6.2427225 60.0862041,6.1177725 M59.2339592,5.6865725 L56.6980408,5.6865725 L56.6980408,5.6008225 C56.6980408,4.5669225 57.1572245,4.0977475 57.9800816,4.0977475 C58.8225306,4.0977475 59.2339592,4.5191475 59.2339592,5.6008225" id="Fill-158" fill="#39428F"></path>
                        <path d="M63.5982857,3.9255125 L63.5982857,3.5322875 C63.5982857,3.4183625 63.5309388,3.3607875 63.3962449,3.3607875 C62.9652245,3.3607875 62.5268571,3.4857375 62.0468571,3.8201625 L62.0468571,3.6192625 C62.0468571,3.5139125 61.9709388,3.4269375 61.8656327,3.4269375 L61.4162449,3.4269375 C61.3109388,3.4269375 61.2337959,3.5139125 61.2337959,3.6192625 L61.2337959,8.5008875 C61.2337959,8.6062375 61.3195102,8.6932125 61.4162449,8.6932125 L61.8852245,8.6932125 C61.9905306,8.6932125 62.0774694,8.5964375 62.0774694,8.5008875 L62.0774694,4.4902375 C62.5537959,4.2023625 62.9578776,4.0884375 63.3962449,4.0884375 C63.5309388,4.0884375 63.5982857,4.0308625 63.5982857,3.9255125" id="Fill-159" fill="#39428F"></path>
                        <path d="M67.9138776,8.5013775 L67.9138776,5.1595775 C67.9138776,4.0313525 67.377551,3.3600525 66.0477551,3.3600525 C65.3963265,3.3600525 64.9555102,3.4188525 64.5636735,3.4850025 C64.4302041,3.5033775 64.3640816,3.5609525 64.3640816,3.6663025 L64.3640816,4.0019525 C64.3640816,4.1269025 64.4497959,4.1550775 64.5355102,4.1550775 L64.5832653,4.1550775 C64.9665306,4.1158775 65.4257143,4.0791275 66.0477551,4.0791275 C66.7934694,4.0791275 67.0714286,4.3559775 67.0714286,5.1595775 L67.0714286,5.5430025 L66.3636735,5.5430025 C64.6591837,5.5430025 64.0579592,6.0599525 64.0579592,7.0938525 L64.0579592,7.2090025 C64.0579592,8.4058275 64.8036735,8.7598525 65.6179592,8.7598525 C66.1530612,8.7598525 66.6306122,8.5577275 67.0897959,8.2919025 L67.0897959,8.5013775 C67.0897959,8.6067275 67.1767347,8.6924775 67.2808163,8.6924775 L67.7228571,8.6924775 C67.8281633,8.6924775 67.9138776,8.6067275 67.9138776,8.5013775 M67.0714286,7.6879775 C66.6134694,7.9366525 66.2191837,8.0701775 65.7795918,8.0701775 C65.224898,8.0701775 64.8991837,7.8888775 64.8991837,7.1992025 L64.8991837,7.0840525 C64.8991837,6.4041775 65.2053061,6.1457025 66.3636735,6.1457025 L67.0714286,6.1457025" id="Fill-160" fill="#39428F"></path>
                        <path d="M71.7798367,8.549275 L71.7798367,8.213625 C71.7798367,8.118075 71.7124898,8.0801 71.5790204,8.0801 L71.0414694,8.0801 C70.6594286,8.0801 70.5259592,8.00415 70.5259592,7.4774 L70.5259592,4.1356 L71.5594286,4.1356 C71.6647347,4.1356 71.7516735,4.051075 71.7516735,3.9445 L71.7516735,3.619875 C71.7516735,3.5133 71.6647347,3.42755 71.5594286,3.42755 L70.5259592,3.42755 L70.5259592,2.385075 C70.5259592,2.289525 70.4598367,2.22215 70.3826939,2.22215 L70.3533061,2.22215 L69.8561633,2.296875 C69.7508571,2.3177 69.6835102,2.39365 69.6835102,2.4892 L69.6835102,3.42755 L68.7541224,3.42755 C68.6500408,3.42755 68.5741224,3.494925 68.5741224,3.59905 L68.5741224,3.85875 C68.5741224,3.962875 68.6500408,4.02045 68.7541224,4.03025 L69.6835102,4.1356 L69.6835102,7.4774 C69.6835102,8.529675 70.1047347,8.75875 70.9851429,8.75875 C71.1663673,8.75875 71.4161633,8.740375 71.6059592,8.7122 C71.7308571,8.693825 71.7798367,8.635025 71.7798367,8.549275" id="Fill-161" fill="#39428F"></path>
                        <path d="M73.6357959,2.39365 L73.6357959,1.628025 C73.6357959,1.522675 73.5500816,1.4357 73.4447755,1.4357 L72.9562041,1.4357 C72.850898,1.4357 72.7639592,1.522675 72.7639592,1.628025 L72.7639592,2.39365 C72.7639592,2.499 72.850898,2.58475 72.9562041,2.58475 L73.4447755,2.58475 C73.5500816,2.58475 73.6357959,2.499 73.6357959,2.39365 M73.6174286,8.5015 L73.6174286,3.61865 C73.6174286,3.514525 73.5304898,3.428775 73.4251837,3.428775 L72.9672245,3.428775 C72.8606939,3.428775 72.7749796,3.514525 72.7749796,3.61865 L72.7749796,8.5015 C72.7749796,8.60685 72.8606939,8.6926 72.9672245,8.6926 L73.4251837,8.6926 C73.5304898,8.6926 73.6174286,8.60685 73.6174286,8.5015" id="Fill-162" fill="#39428F"></path>
                        <path d="M79.0802449,3.589985 C79.0802449,3.494435 79.0239184,3.42706 78.9284082,3.42706 L78.4006531,3.42706 C78.3247347,3.42706 78.2573878,3.484635 78.2194286,3.61081 L77.1186122,7.78316 C77.0622857,8.01346 77.0047347,8.06001 76.9177959,8.06001 C76.8222857,8.06001 76.7745306,8.01346 76.7182041,7.78316 L75.6173878,3.61081 C75.5782041,3.484635 75.5120816,3.42706 75.4349388,3.42706 L74.9096327,3.42706 C74.8141224,3.42706 74.7553469,3.494435 74.7553469,3.589985 C74.7553469,3.61081 74.7553469,3.629185 74.7651429,3.65736 L76.0569796,8.21436 C76.1818776,8.644335 76.5063673,8.759485 76.9177959,8.759485 C77.3292245,8.759485 77.6549388,8.644335 77.7798367,8.21436 L79.070449,3.65736 C79.0802449,3.629185 79.0802449,3.61081 79.0802449,3.589985" id="Fill-163" fill="#39428F"></path>
                        <path d="M84.1335918,8.5013775 L84.1335918,5.3519025 C84.1335918,4.0791275 83.6168571,3.3600525 82.4682857,3.3600525 C81.9050204,3.3600525 81.474,3.5033775 80.9462449,3.8010525 L80.9462449,3.6185275 C80.9462449,3.5144025 80.8703265,3.4286525 80.7650204,3.4286525 L80.2862449,3.4286525 C80.1809388,3.4286525 80.1050204,3.5144025 80.1050204,3.6185275 L80.1050204,8.5013775 C80.1050204,8.6067275 80.1907347,8.6924775 80.2862449,8.6924775 L80.756449,8.6924775 C80.8605306,8.6924775 80.9462449,8.5969275 80.9462449,8.5013775 L80.9462449,4.4625525 C81.3882857,4.2420525 81.8376735,4.0877025 82.2380816,4.0877025 C82.9666531,4.0877025 83.2923673,4.3853775 83.2923673,5.3519025 L83.2923673,8.5013775 C83.2923673,8.6067275 83.3768571,8.6924775 83.4833878,8.6924775 L83.9425714,8.6924775 C84.0478776,8.6924775 84.1335918,8.6067275 84.1335918,8.5013775" id="Fill-164" fill="#39428F"></path>
                        <path d="M86.4019592,2.39365 L86.4019592,1.628025 C86.4019592,1.522675 86.3150204,1.4357 86.2097143,1.4357 L85.7223673,1.4357 C85.6158367,1.4357 85.5301224,1.522675 85.5301224,1.628025 L85.5301224,2.39365 C85.5301224,2.499 85.6158367,2.58475 85.7223673,2.58475 L86.2097143,2.58475 C86.3150204,2.58475 86.4019592,2.499 86.4019592,2.39365 M86.3811429,8.5015 L86.3811429,3.61865 C86.3811429,3.514525 86.2954286,3.428775 86.1901224,3.428775 L85.7309388,3.428775 C85.6256327,3.428775 85.5399184,3.514525 85.5399184,3.61865 L85.5399184,8.5015 C85.5399184,8.60685 85.6256327,8.6926 85.7309388,8.6926 L86.1901224,8.6926 C86.2954286,8.6926 86.3811429,8.60685 86.3811429,8.5015" id="Fill-165" fill="#39428F"></path>
                        <path d="M94.2093061,6.4144675 L94.2093061,5.7260175 C94.2093061,4.2890925 93.5493061,3.3605425 92.124,3.3605425 C91.5399184,3.3605425 90.868898,3.4560925 90.3631837,3.5810425 C90.1905306,3.6190175 90.1611429,3.6765925 90.1611429,3.8015425 L90.1611429,10.3871425 C90.1611429,10.4924925 90.2395102,10.5696675 90.3350204,10.5696675 L90.8223673,10.5696675 C90.9276735,10.5696675 91.0035918,10.4826925 91.0035918,10.3871425 L91.0035918,8.6537675 C91.3770612,8.7211425 91.8276735,8.7603425 92.124,8.7603425 C93.5211429,8.7603425 94.2093061,7.9175425 94.2093061,6.4144675 M93.3680816,6.4144675 C93.3680816,7.4373425 93.0619592,8.0510675 92.124,8.0510675 C91.8178776,8.0510675 91.3207347,8.0130925 91.0035918,7.9555175 L91.0035918,4.1653675 C91.2729796,4.1163675 91.7223673,4.0685925 92.124,4.0685925 C93.0705306,4.0685925 93.3680816,4.7202925 93.3680816,5.7260175" id="Fill-166" fill="#39428F"></path>
                        <path d="M97.7022857,3.9255125 L97.7022857,3.5322875 C97.7022857,3.4183625 97.6349388,3.3607875 97.5014694,3.3607875 C97.0716735,3.3607875 96.6308571,3.4857375 96.1508571,3.8201625 L96.1508571,3.6192625 C96.1508571,3.5139125 96.0761633,3.4269375 95.9708571,3.4269375 L95.5214694,3.4269375 C95.4161633,3.4269375 95.3377959,3.5139125 95.3377959,3.6192625 L95.3377959,8.5008875 C95.3377959,8.6062375 95.4259592,8.6932125 95.5214694,8.6932125 L95.9892245,8.6932125 C96.0957551,8.6932125 96.1814694,8.5964375 96.1814694,8.5008875 L96.1814694,4.4902375 C96.6590204,4.2023625 97.0618776,4.0884375 97.5014694,4.0884375 C97.6349388,4.0884375 97.7022857,4.0308625 97.7022857,3.9255125" id="Fill-167" fill="#39428F"></path>
                        <path d="M102.459061,6.4240225 L102.459061,5.6963725 C102.459061,4.2888475 101.73049,3.3615225 100.324776,3.3615225 C98.9166122,3.3615225 98.2002857,4.2888475 98.2002857,5.6963725 L98.2002857,6.4240225 C98.2002857,7.8315475 98.9166122,8.7588725 100.324776,8.7588725 C101.73049,8.7588725 102.459061,7.8315475 102.459061,6.4240225 M101.617837,6.4240225 C101.617837,7.4101475 101.213755,8.0226475 100.324776,8.0226475 C99.4247755,8.0226475 99.0427347,7.4003475 99.0427347,6.4240225 L99.0427347,5.6963725 C99.0427347,4.7102475 99.4333469,4.0977475 100.324776,4.0977475 C101.224776,4.0977475 101.617837,4.7200475 101.617837,5.6963725" id="Fill-168" fill="#39428F"></path>
                        <path d="M107.941837,3.8872925 L107.941837,3.6386175 C107.941837,3.5234675 107.835306,3.4279175 107.721429,3.4279175 L105.625102,3.4279175 C103.979388,3.4279175 103.501837,4.2694925 103.501837,5.1220925 L103.501837,5.1992675 C103.501837,5.6868175 103.645102,6.0310425 103.941429,6.3091175 C103.673265,6.4622425 103.548367,6.7403175 103.548367,6.9987925 L103.548367,7.0073675 C103.548367,7.3050425 103.681837,7.6210925 103.989184,7.7533925 L104.056531,7.7840175 C103.740612,8.0228925 103.452857,8.4626675 103.452857,8.9979925 L103.452857,9.0849675 C103.452857,10.0233175 104.14102,10.6064175 105.65449,10.6064175 C107.224286,10.6064175 107.835306,10.0416925 107.835306,9.1241675 L107.835306,9.0469925 C107.835306,8.1466175 106.937755,7.8795675 105.998571,7.6394675 L104.573265,7.2768675 C104.352857,7.2180675 104.276939,7.1323175 104.276939,6.9706175 C104.276939,6.8260675 104.352857,6.7207175 104.515714,6.6447675 C104.793673,6.7586925 105.119388,6.8358675 105.625102,6.8358675 C107.100612,6.8358675 107.750816,6.2527675 107.750816,5.1992675 L107.750816,5.1220925 C107.750816,4.6051425 107.597755,4.3184925 107.425102,4.1359675 L107.767959,4.0685925 C107.87449,4.0502175 107.941837,4.0110175 107.941837,3.8872925 L107.941837,3.8872925 Z M106.916939,5.1992675 C106.916939,5.7725675 106.658571,6.1755925 105.625102,6.1755925 C104.52551,6.1755925 104.333265,5.6206675 104.333265,5.1992675 L104.333265,5.1220925 C104.333265,4.5855425 104.553673,4.0979925 105.625102,4.0979925 C106.658571,4.0979925 106.916939,4.5475675 106.916939,5.1220925 L106.916939,5.1992675 Z M106.995306,9.1241675 C106.995306,9.6509175 106.74551,9.9559425 105.65449,9.9559425 C104.592857,9.9559425 104.276939,9.6202925 104.276939,9.0849675 L104.276939,8.9979925 C104.276939,8.5018675 104.466735,8.2617675 104.745918,8.0228925 L105.825918,8.3009675 C106.689184,8.5202425 106.995306,8.6745925 106.995306,9.0469925 L106.995306,9.1241675 Z" id="Fill-169" fill="#39428F"></path>
                        <path d="M111.300735,3.9255125 L111.300735,3.5322875 C111.300735,3.4183625 111.233388,3.3607875 111.099918,3.3607875 C110.667673,3.3607875 110.229306,3.4857375 109.749306,3.8201625 L109.749306,3.6192625 C109.749306,3.5139125 109.674612,3.4269375 109.568082,3.4269375 L109.118694,3.4269375 C109.013388,3.4269375 108.936245,3.5139125 108.936245,3.6192625 L108.936245,8.5008875 C108.936245,8.6062375 109.023184,8.6932125 109.118694,8.6932125 L109.587673,8.6932125 C109.69298,8.6932125 109.779918,8.5964375 109.779918,8.5008875 L109.779918,4.4902375 C110.257469,4.2023625 110.660327,4.0884375 111.099918,4.0884375 C111.233388,4.0884375 111.300735,4.0308625 111.300735,3.9255125" id="Fill-170" fill="#39428F"></path>
                        <path d="M115.616327,8.5013775 L115.616327,5.1595775 C115.616327,4.0313525 115.08,3.3600525 113.750204,3.3600525 C113.098776,3.3600525 112.659184,3.4188525 112.266122,3.4850025 C112.132653,3.5033775 112.066531,3.5609525 112.066531,3.6663025 L112.066531,4.0019525 C112.066531,4.1269025 112.152245,4.1550775 112.239184,4.1550775 L112.285714,4.1550775 C112.66898,4.1158775 113.128163,4.0791275 113.750204,4.0791275 C114.495918,4.0791275 114.773878,4.3559775 114.773878,5.1595775 L114.773878,5.5430025 L114.066122,5.5430025 C112.362857,5.5430025 111.760408,6.0599525 111.760408,7.0938525 L111.760408,7.2090025 C111.760408,8.4058275 112.506122,8.7598525 113.320408,8.7598525 C113.856735,8.7598525 114.333061,8.5577275 114.792245,8.2919025 L114.792245,8.5013775 C114.792245,8.6067275 114.879184,8.6924775 114.983265,8.6924775 L115.425306,8.6924775 C115.530612,8.6924775 115.616327,8.6067275 115.616327,8.5013775 M114.773878,7.6879775 C114.315918,7.9366525 113.922857,8.0701775 113.482041,8.0701775 C112.927347,8.0701775 112.601633,7.8888775 112.601633,7.1992025 L112.601633,7.0840525 C112.601633,6.4041775 112.907755,6.1457025 114.066122,6.1457025 L114.773878,6.1457025" id="Fill-171" fill="#39428F"></path>
                        <path d="M123.25151,8.5013775 L123.25151,5.1130275 C123.25151,3.7802275 122.563347,3.3514775 121.701306,3.3514775 C121.204163,3.3514775 120.639673,3.4948025 120.113143,3.7434775 C119.874367,3.4654025 119.568245,3.3514775 119.156816,3.3514775 C118.63151,3.3514775 118.141714,3.5609525 117.759673,3.8010525 L117.759673,3.6185275 C117.759673,3.5144025 117.681306,3.4286525 117.577224,3.4286525 L117.100898,3.4286525 C116.994367,3.4286525 116.917224,3.5144025 116.917224,3.6185275 L116.917224,8.5013775 C116.917224,8.6067275 116.984571,8.6924775 117.080082,8.6924775 L117.588245,8.6924775 C117.692327,8.6924775 117.759673,8.5969275 117.759673,8.5013775 L117.759673,4.4625525 C118.161306,4.2604275 118.582531,4.0877025 118.926612,4.0877025 C119.423755,4.0877025 119.663755,4.2604275 119.663755,5.0922025 L119.663755,8.5013775 C119.663755,8.6067275 119.731102,8.6924775 119.826612,8.6924775 L120.333551,8.6924775 C120.438857,8.6924775 120.507429,8.5969275 120.507429,8.5013775 L120.507429,5.0922025 C120.507429,4.8055525 120.476816,4.5568775 120.419265,4.3461775 C120.79151,4.2016275 121.194367,4.0877025 121.540898,4.0877025 C122.036816,4.0877025 122.410286,4.3082025 122.410286,5.1130275 L122.410286,8.5013775 C122.410286,8.6067275 122.496,8.6924775 122.601306,8.6924775 L123.06049,8.6924775 C123.16702,8.6924775 123.25151,8.6067275 123.25151,8.5013775" id="Fill-172" fill="#39428F"></path>
                        <path d="M49.9662857,13.69207 C49.9662857,13.63572 49.9185306,13.58917 49.8156735,13.58917 L48.3915918,13.58917 C48.2887347,13.58917 48.2324082,13.62592 48.187102,13.700645 L46.1373061,16.73007 L46.1373061,13.766795 C46.1373061,13.663895 46.0528163,13.58917 45.9511837,13.58917 L44.7303673,13.58917 C44.6275102,13.58917 44.5417959,13.663895 44.5417959,13.766795 L44.5417959,20.327895 C44.5417959,20.430795 44.6275102,20.51532 44.7303673,20.51532 L45.9511837,20.51532 C46.0528163,20.51532 46.1373061,20.430795 46.1373061,20.327895 L46.1373061,17.309495 L48.0279184,20.384245 C48.0732245,20.45897 48.1209796,20.51532 48.2324082,20.51532 L49.8364898,20.51532 C49.9185306,20.51532 49.9662857,20.47857 49.9662857,20.42222 C49.9662857,20.39282 49.9552653,20.35607 49.9283265,20.31932 L47.7009796,16.97262 L49.9185306,13.82192 C49.9466939,13.77537 49.9662857,13.72882 49.9662857,13.69207" id="Fill-173" fill="#39428F"></path>
                        <path d="M55.7239592,17.6063125 L55.7239592,16.4976875 C55.7239592,14.3355625 54.5031429,13.5050125 52.9664082,13.5050125 C51.428449,13.5050125 50.2088571,14.3355625 50.2088571,16.4976875 L50.2088571,17.6063125 C50.2088571,19.7696625 51.428449,20.5989875 52.9664082,20.5989875 C54.5031429,20.5989875 55.7239592,19.7696625 55.7239592,17.6063125 M54.1198776,17.6063125 C54.1198776,18.7247375 53.7488571,19.2000375 52.9664082,19.2000375 C52.1839592,19.2000375 51.8202857,18.7247375 51.8202857,17.6063125 L51.8202857,16.4976875 C51.8202857,15.3792625 52.1839592,14.9039625 52.9664082,14.9039625 C53.7488571,14.9039625 54.1198776,15.3792625 54.1198776,16.4976875" id="Fill-174" fill="#39428F"></path>
                        <path d="M62.3570204,20.1604375 L62.3570204,13.7659375 C62.3570204,13.6642625 62.2749796,13.5895375 62.170898,13.5895375 L61.0713061,13.5895375 C60.968449,13.5895375 60.8864082,13.6642625 60.8864082,13.7659375 L60.8864082,17.7092125 C60.8864082,17.7741375 60.8570204,17.7925125 60.8386531,17.7925125 C60.8104898,17.7925125 60.8006939,17.7741375 60.7639592,17.7177875 L58.5562041,13.8774125 C58.4447755,13.6826375 58.3504898,13.5895375 58.1655918,13.5895375 L57.2239592,13.5895375 C57.0280408,13.5895375 56.8700816,13.7475625 56.8700816,13.9435625 L56.8700816,20.3282625 C56.8700816,20.4311625 56.9533469,20.5144625 57.0562041,20.5144625 L58.1545714,20.5144625 C58.2574286,20.5144625 58.3419184,20.4311625 58.3419184,20.3282625 L58.3419184,16.5528125 C58.3419184,16.4976875 58.3602857,16.4793125 58.388449,16.4793125 C58.4153878,16.4793125 58.4349796,16.4976875 58.4717143,16.5528125 L60.5974286,20.2265875 C60.7455918,20.4777125 60.8864082,20.5144625 61.081102,20.5144625 L61.9945714,20.5144625 C62.1892653,20.5144625 62.3570204,20.3552125 62.3570204,20.1604375" id="Fill-175" fill="#39428F"></path>
                        <path d="M69.0846122,13.69207 C69.0846122,13.63572 69.0380816,13.58917 68.9352245,13.58917 L67.5099184,13.58917 C67.4082857,13.58917 67.3507347,13.62592 67.3054286,13.700645 L65.2544082,16.73007 L65.2544082,13.766795 C65.2544082,13.663895 65.1723673,13.58917 65.0695102,13.58917 L63.8486939,13.58917 C63.7470612,13.58917 63.6613469,13.663895 63.6613469,13.766795 L63.6613469,20.327895 C63.6613469,20.430795 63.7470612,20.51532 63.8486939,20.51532 L65.0695102,20.51532 C65.1723673,20.51532 65.2544082,20.430795 65.2544082,20.327895 L65.2544082,17.309495 L67.1462449,20.384245 C67.1927755,20.45897 67.2405306,20.51532 67.3507347,20.51532 L68.9548163,20.51532 C69.0380816,20.51532 69.0846122,20.47857 69.0846122,20.42222 C69.0846122,20.39282 69.0748163,20.35607 69.0466531,20.31932 L66.8205306,16.97262 L69.0380816,13.82192 C69.0650204,13.77537 69.0846122,13.72882 69.0846122,13.69207" id="Fill-176" fill="#39428F"></path>
                        <path d="M75.2620408,17.9137875 L75.2620408,13.7671625 C75.2620408,13.6630375 75.1689796,13.5895375 75.0661224,13.5895375 L73.855102,13.5895375 C73.7522449,13.5895375 73.6689796,13.6630375 73.6689796,13.7671625 L73.6689796,17.9137875 C73.6689796,18.8643875 73.4069388,19.2661875 72.5693878,19.2661875 C71.7306122,19.2661875 71.4783673,18.8643875 71.4783673,17.9137875 L71.4783673,13.7671625 C71.4783673,13.6630375 71.395102,13.5895375 71.2922449,13.5895375 L70.0714286,13.5895375 C69.9697959,13.5895375 69.8853061,13.6630375 69.8853061,13.7671625 L69.8853061,17.9137875 C69.8853061,20.0391625 71.0877551,20.5977625 72.5693878,20.5977625 C74.0497959,20.5977625 75.2620408,20.0391625 75.2620408,17.9137875" id="Fill-177" fill="#39428F"></path>
                        <path d="M81.885551,20.40262 C81.885551,20.374445 81.8757551,20.33647 81.8586122,20.300945 L80.450449,17.672095 C81.1312653,17.400145 81.652898,16.79622 81.652898,15.80887 L81.652898,15.68637 C81.652898,14.03752 80.4320816,13.50587 78.8488163,13.50587 C78.1777959,13.50587 77.3867755,13.560995 76.9569796,13.627145 C76.668,13.67247 76.5369796,13.756995 76.5369796,14.07427 L76.5369796,20.327895 C76.5369796,20.42957 76.6214694,20.514095 76.7243265,20.514095 L77.9341224,20.514095 C78.0382041,20.514095 78.1214694,20.42957 78.1214694,20.327895 L78.1214694,17.961195 C78.2990204,17.961195 78.588,17.97957 78.7839184,17.97957 L78.885551,17.96977 L80.1333061,20.327895 C80.1810612,20.42222 80.2190204,20.514095 80.3206531,20.514095 L81.7459592,20.514095 C81.8488163,20.514095 81.885551,20.467545 81.885551,20.40262 M80.0696327,15.80887 C80.0696327,16.442195 79.7622857,16.692095 78.7839184,16.692095 C78.6798367,16.692095 78.2243265,16.68352 78.1214694,16.67372 L78.1214694,14.883995 C78.2341224,14.87542 78.7177959,14.857045 78.8488163,14.857045 C79.6312653,14.857045 80.0696327,15.11797 80.0696327,15.68637" id="Fill-178" fill="#39428F"></path>
                        <path d="M86.8886939,20.281835 L86.8886939,19.414535 C86.8886939,19.31286 86.8054286,19.228335 86.7025714,19.228335 L84.8119592,19.228335 C84.3723673,19.228335 84.2144082,19.08011 84.2144082,18.59501 L84.2144082,17.606435 L86.6278776,17.606435 C86.7307347,17.606435 86.8127755,17.523135 86.8127755,17.420235 L86.8127755,16.535785 C86.8127755,16.43166 86.7307347,16.34836 86.6278776,16.34836 L84.2144082,16.34836 L84.2144082,15.50066 C84.2144082,15.01556 84.3723673,14.86611 84.8119592,14.86611 L86.7025714,14.86611 C86.8054286,14.86611 86.8886939,14.78281 86.8886939,14.67991 L86.8886939,13.81261 C86.8886939,13.69256 86.8323673,13.644785 86.7025714,13.62641 C86.3768571,13.57986 85.911551,13.50636 84.9050204,13.50636 C83.7013469,13.50636 82.6299184,13.804035 82.6299184,15.50066 L82.6299184,18.59501 C82.6299184,20.291635 83.6927755,20.597885 84.8952245,20.597885 C85.9005306,20.597885 86.3768571,20.524385 86.7025714,20.477835 C86.8323673,20.45946 86.8886939,20.40311 86.8886939,20.281835" id="Fill-179" fill="#39428F"></path>
                        <path d="M93.5504082,20.1604375 L93.5504082,13.7659375 C93.5504082,13.6642625 93.4683673,13.5895375 93.3655102,13.5895375 L92.2646939,13.5895375 C92.1630612,13.5895375 92.0797959,13.6642625 92.0797959,13.7659375 L92.0797959,17.7092125 C92.0797959,17.7741375 92.0504082,17.7925125 92.0332653,17.7925125 C92.0038776,17.7925125 91.9940816,17.7741375 91.9573469,17.7177875 L89.7495918,13.8774125 C89.6381633,13.6826375 89.545102,13.5895375 89.3577551,13.5895375 L88.4173469,13.5895375 C88.2214286,13.5895375 88.0634694,13.7475625 88.0634694,13.9435625 L88.0634694,20.3282625 C88.0634694,20.4311625 88.1479592,20.5144625 88.2495918,20.5144625 L89.3491837,20.5144625 C89.4508163,20.5144625 89.5353061,20.4311625 89.5353061,20.3282625 L89.5353061,16.5528125 C89.5353061,16.4976875 89.5536735,16.4793125 89.5818367,16.4793125 C89.61,16.4793125 89.6283673,16.4976875 89.665102,16.5528125 L91.7908163,20.2265875 C91.9402041,20.4777125 92.0797959,20.5144625 92.2744898,20.5144625 L93.1867347,20.5144625 C93.3826531,20.5144625 93.5504082,20.3552125 93.5504082,20.1604375" id="Fill-180" fill="#39428F"></path>
                        <path d="M99.1970204,14.726215 L99.1970204,13.765815 C99.1970204,13.66414 99.1039592,13.58819 99.001102,13.58819 L94.3798776,13.58819 C94.2770204,13.58819 94.1925306,13.66414 94.1925306,13.765815 L94.1925306,14.726215 C94.1925306,14.829115 94.2770204,14.90384 94.3798776,14.90384 L95.8994694,14.90384 L95.8994694,20.32814 C95.8994694,20.429815 95.9815102,20.515565 96.0855918,20.515565 L97.3051837,20.515565 C97.4068163,20.515565 97.4913061,20.429815 97.4913061,20.32814 L97.4913061,14.90384 L99.001102,14.90384 C99.1039592,14.90384 99.1970204,14.829115 99.1970204,14.726215" id="Fill-181" fill="#39428F"></path>
                        <path d="M105.569388,20.1604375 L105.569388,13.7659375 C105.569388,13.6642625 105.486122,13.5895375 105.383265,13.5895375 L104.283673,13.5895375 C104.180816,13.5895375 104.098776,13.6642625 104.098776,13.7659375 L104.098776,17.7092125 C104.098776,17.7741375 104.069388,17.7925125 104.05102,17.7925125 C104.022857,17.7925125 104.013061,17.7741375 103.976327,17.7177875 L101.768571,13.8774125 C101.657143,13.6826375 101.562857,13.5895375 101.377959,13.5895375 L100.437551,13.5895375 C100.240408,13.5895375 100.082449,13.7475625 100.082449,13.9435625 L100.082449,20.3282625 C100.082449,20.4311625 100.165714,20.5144625 100.268571,20.5144625 L101.366939,20.5144625 C101.469796,20.5144625 101.554286,20.4311625 101.554286,20.3282625 L101.554286,16.5528125 C101.554286,16.4976875 101.572653,16.4793125 101.602041,16.4793125 C101.627755,16.4793125 101.647347,16.4976875 101.684082,16.5528125 L103.809796,20.2265875 C103.957959,20.4777125 104.098776,20.5144625 104.293469,20.5144625 L105.206939,20.5144625 C105.401633,20.5144625 105.569388,20.3552125 105.569388,20.1604375" id="Fill-182" fill="#39428F"></path>
                        <path d="M112.232327,17.6063125 L112.232327,16.4976875 C112.232327,14.3355625 111.01151,13.5050125 109.472327,13.5050125 C107.936816,13.5050125 106.716,14.3355625 106.716,16.4976875 L106.716,17.6063125 C106.716,19.7696625 107.936816,20.5989875 109.472327,20.5989875 C111.01151,20.5989875 112.232327,19.7696625 112.232327,17.6063125 M110.628245,17.6063125 C110.628245,18.7247375 110.257224,19.2000375 109.472327,19.2000375 C108.691102,19.2000375 108.328653,18.7247375 108.328653,17.6063125 L108.328653,16.4976875 C108.328653,15.3792625 108.691102,14.9039625 109.472327,14.9039625 C110.257224,14.9039625 110.628245,15.3792625 110.628245,16.4976875" id="Fill-183" fill="#39428F"></path>
                        <path d="M117.811837,18.5574025 C117.811837,17.8015775 117.524082,17.1866275 116.55551,16.6660025 L115.361633,16.0228775 C114.858367,15.7509275 114.737143,15.6308775 114.737143,15.3699525 C114.737143,15.0330775 114.931837,14.8762775 115.46449,14.8762775 C116.1,14.8762775 117.178776,14.9583525 117.439592,14.9779525 L117.457959,14.9779525 C117.579184,14.9779525 117.617143,14.9044525 117.617143,14.8199275 L117.617143,13.8779025 C117.617143,13.7762275 117.55102,13.7296775 117.477551,13.7100775 C117.123673,13.6169775 116.182041,13.5055025 115.501224,13.5055025 C113.695102,13.5055025 113.115918,14.2980775 113.115918,15.3221775 C113.115918,16.0032775 113.349796,16.5912775 114.21551,17.1033275 L115.501224,17.8677275 C115.986122,18.1556025 116.115918,18.3050525 116.115918,18.5757775 C116.115918,19.0229025 115.929796,19.2274775 115.286939,19.2274775 C114.92449,19.2274775 113.900816,19.1539775 113.517551,19.1160025 L113.489388,19.1160025 C113.397551,19.1160025 113.321633,19.1637775 113.321633,19.2936275 L113.321633,20.2074775 C113.321633,20.3103775 113.414694,20.3667275 113.506531,20.3936775 C113.982857,20.5149525 114.532653,20.5982525 115.269796,20.5982525 C117.160408,20.5982525 117.811837,19.5447525 117.811837,18.5574025" id="Fill-184" fill="#39428F"></path>
                        <path d="M123.439224,14.726215 L123.439224,13.765815 C123.439224,13.66414 123.346163,13.58819 123.244531,13.58819 L118.623306,13.58819 C118.519224,13.58819 118.435959,13.66414 118.435959,13.765815 L118.435959,14.726215 C118.435959,14.829115 118.519224,14.90384 118.623306,14.90384 L120.141673,14.90384 L120.141673,20.32814 C120.141673,20.429815 120.224939,20.515565 120.327796,20.515565 L121.548612,20.515565 C121.651469,20.515565 121.734735,20.429815 121.734735,20.32814 L121.734735,14.90384 L123.244531,14.90384 C123.346163,14.90384 123.439224,14.829115 123.439224,14.726215" id="Fill-185" fill="#39428F"></path>
                        <path d="M46.1362041,32.09941 L46.1362041,25.537085 C46.1362041,25.43541 46.0615102,25.36191 45.9598776,25.36191 L44.710898,25.36191 C44.6092653,25.36191 44.5431429,25.43541 44.5431429,25.537085 L44.5431429,32.09941 C44.5431429,32.20231 44.6092653,32.28561 44.710898,32.28561 L45.9598776,32.28561 C46.0615102,32.28561 46.1362041,32.20231 46.1362041,32.09941" id="Fill-186" fill="#39428F"></path>
                        <path d="M55.285102,25.463585 C55.285102,25.407235 55.2397959,25.360685 55.1357143,25.360685 L53.7104082,25.360685 C53.6087755,25.360685 53.5512245,25.397435 53.5059184,25.47216 L51.4561224,28.501585 L51.4561224,25.53831 C51.4561224,25.43541 51.3728571,25.360685 51.27,25.360685 L50.0491837,25.360685 C49.947551,25.360685 49.8630612,25.43541 49.8630612,25.53831 L49.8630612,32.09941 C49.8630612,32.20231 49.947551,32.286835 50.0491837,32.286835 L51.27,32.286835 C51.3728571,32.286835 51.4561224,32.20231 51.4561224,32.09941 L51.4561224,29.08101 L53.3467347,32.15576 C53.3944898,32.230485 53.4397959,32.286835 53.5512245,32.286835 L55.1553061,32.286835 C55.2397959,32.286835 55.285102,32.24886 55.285102,32.193735 C55.285102,32.164335 55.2765306,32.127585 55.2483673,32.090835 L53.0210204,28.744135 L55.2397959,25.593435 C55.2655102,25.546885 55.285102,25.500335 55.285102,25.463585" id="Fill-187" fill="#39428F"></path>
                        <path d="M61.042898,29.3778275 L61.042898,28.2692025 C61.042898,26.1058525 59.8233061,25.2765275 58.2853469,25.2765275 C56.7486122,25.2765275 55.5277959,26.1058525 55.5277959,28.2692025 L55.5277959,29.3778275 C55.5277959,31.5411775 56.7486122,32.3705025 58.2853469,32.3705025 C59.8233061,32.3705025 61.042898,31.5411775 61.042898,29.3778275 M59.4400408,29.3778275 C59.4400408,30.4962525 59.0677959,30.9715525 58.2853469,30.9715525 C57.502898,30.9715525 57.1392245,30.4962525 57.1392245,29.3778275 L57.1392245,28.2692025 C57.1392245,27.1507775 57.502898,26.6754775 58.2853469,26.6754775 C59.0677959,26.6754775 59.4400408,27.1507775 59.4400408,28.2692025" id="Fill-188" fill="#39428F"></path>
                        <path d="M67.6771837,32.09941 L67.6771837,25.537085 C67.6771837,25.43541 67.5939184,25.36191 67.4922857,25.36191 L66.2714694,25.36191 C66.1686122,25.36191 66.0841224,25.43541 66.0841224,25.537085 L66.0841224,28.016485 L63.7820816,28.016485 L63.7820816,25.537085 C63.7820816,25.43541 63.6988163,25.36191 63.5959592,25.36191 L62.3763673,25.36191 C62.2735102,25.36191 62.1902449,25.43541 62.1902449,25.537085 L62.1902449,32.09941 C62.1902449,32.20231 62.2735102,32.28561 62.3763673,32.28561 L63.5959592,32.28561 C63.6988163,32.28561 63.7820816,32.20231 63.7820816,32.09941 L63.7820816,29.40686 L66.0841224,29.40686 L66.0841224,32.09941 C66.0841224,32.20231 66.1686122,32.28561 66.2714694,32.28561 L67.4922857,32.28561 C67.5939184,32.28561 67.6771837,32.20231 67.6771837,32.09941" id="Fill-189" fill="#39428F"></path>
                        <path d="M73.2112653,32.05335 L73.2112653,31.18605 C73.2112653,31.084375 73.128,30.99985 73.0251429,30.99985 L71.1345306,30.99985 C70.6949388,30.99985 70.5369796,30.8504 70.5369796,30.366525 L70.5369796,29.376725 L72.950449,29.376725 C73.0533061,29.376725 73.1365714,29.29465 73.1365714,29.19175 L73.1365714,28.306075 C73.1365714,28.203175 73.0533061,28.119875 72.950449,28.119875 L70.5369796,28.119875 L70.5369796,27.272175 C70.5369796,26.787075 70.6949388,26.637625 71.1345306,26.637625 L73.0251429,26.637625 C73.128,26.637625 73.2112653,26.554325 73.2112653,26.451425 L73.2112653,25.584125 C73.2112653,25.464075 73.1549388,25.4163 73.0251429,25.397925 C72.6994286,25.351375 72.2341224,25.27665 71.2275918,25.27665 C70.0251429,25.27665 68.9524898,25.57555 68.9524898,27.272175 L68.9524898,30.366525 C68.9524898,32.061925 70.0153469,32.3694 71.2177959,32.3694 C72.223102,32.3694 72.6994286,32.2959 73.0251429,32.248125 C73.1549388,32.230975 73.2112653,32.174625 73.2112653,32.05335" id="Fill-190" fill="#39428F"></path>
                        <path d="M78.9977143,32.09941 L78.9977143,31.074085 C78.9977143,30.97241 78.914449,30.907485 78.8115918,30.907485 L76.2964898,30.907485 C76.2303673,30.907485 76.1936327,30.878085 76.1936327,30.841335 C76.1936327,30.81316 76.212,30.77641 76.2389388,30.738435 L78.8679184,26.713085 C78.914449,26.63836 78.9413878,26.553835 78.9413878,26.470535 C78.9413878,26.470535 78.9524082,26.098135 78.9524082,25.845785 C78.9524082,25.71471 78.9413878,25.62161 78.9413878,25.62161 C78.9413878,25.443985 78.7662857,25.36191 78.5691429,25.36191 L74.5528163,25.36191 C74.4511837,25.36191 74.3666939,25.43541 74.3666939,25.537085 L74.3666939,26.563635 C74.3666939,26.66531 74.4511837,26.740035 74.5528163,26.740035 L76.874449,26.740035 C76.9393469,26.740035 76.9773061,26.76821 76.9773061,26.81476 C76.9773061,26.842935 76.9662857,26.869885 76.9393469,26.90786 L74.3385306,30.841335 C74.227102,31.00916 74.2001633,31.120635 74.2001633,31.25171 L74.2001633,31.99651 C74.2001633,32.20231 74.3666939,32.28561 74.5822041,32.28561 L78.8115918,32.28561 C78.914449,32.28561 78.9977143,32.20231 78.9977143,32.09941" id="Fill-191" fill="#39428F"></path>
                        <path d="M81.7084898,32.09941 L81.7084898,25.537085 C81.7084898,25.43541 81.6337959,25.36191 81.5309388,25.36191 L80.2831837,25.36191 C80.1803265,25.36191 80.1154286,25.43541 80.1154286,25.537085 L80.1154286,32.09941 C80.1154286,32.20231 80.1803265,32.28561 80.2831837,32.28561 L81.5309388,32.28561 C81.6337959,32.28561 81.7084898,32.20231 81.7084898,32.09941" id="Fill-192" fill="#39428F"></path>
                        <path d="M84.606,32.3415925 L84.606,25.5367175 C84.606,25.4350425 84.5239592,25.3603175 84.4198776,25.3603175 L83.2002857,25.3603175 C83.0986531,25.3603175 83.0129388,25.4350425 83.0129388,25.5367175 L83.0129388,32.3415925 C83.0129388,32.5755675 82.986,32.6772425 82.7717143,32.6772425 L82.3051837,32.6772425 C82.2390612,32.6772425 82.2023265,32.7433925 82.2023265,32.8070925 L82.2023265,33.7589175 C82.2023265,33.8422175 82.2586531,33.9083675 82.3419184,33.9169425 C82.5929388,33.9451175 82.7239592,33.9536925 82.9394694,33.9536925 C83.8798776,33.9536925 84.606,33.6094675 84.606,32.3415925" id="Fill-193" fill="#39428F"></path>
                        <path d="M91.3143673,32.1370175 C91.3143673,32.1272175 91.3045714,32.1100675 91.3045714,32.0904675 L89.916,26.3109175 C89.7029388,25.4166675 89.0221224,25.2757925 88.3804898,25.2757925 C87.7364082,25.2757925 87.0470204,25.4166675 86.8327347,26.3109175 L85.4441633,32.0904675 C85.4441633,32.1100675 85.4355918,32.1272175 85.4355918,32.1370175 C85.4355918,32.2301175 85.5004898,32.2864675 85.5947755,32.2864675 L86.8988571,32.2864675 C86.9919184,32.2864675 87.0653878,32.2117425 87.0849796,32.1174175 L87.4192653,30.5886175 L89.3294694,30.5886175 L89.6649796,32.1174175 C89.6845714,32.2117425 89.7580408,32.2864675 89.8523265,32.2864675 L91.1551837,32.2864675 C91.2482449,32.2864675 91.3143673,32.2301175 91.3143673,32.1370175 M89.0686531,29.3121675 L87.6800816,29.3121675 L88.2494694,26.7408925 C88.2678367,26.6465675 88.296,26.6000175 88.3804898,26.6000175 C88.4637551,26.6000175 88.4821224,26.6465675 88.5004898,26.7408925" id="Fill-194" fill="#39428F"></path>
                        <polygon id="Fill-195" fill="#6C92A7" points="1.23306122 6.657875 6.66489796 6.657875 6.66489796 1.225 1.23306122 1.225"></polygon>
                    </g>
                </g>
            </g>
        </g>
    </g>
</svg>