<?xml version="1.0" encoding="UTF-8"?>
<svg width="34px" height="23px" viewBox="0 0 34 23" version="1.1" xmlns="http://www.w3.org/2000/svg" xmlns:xlink="http://www.w3.org/1999/xlink">
    <title>4B348CA8-234C-4692-86DD-CCF4966EF3CF</title>
    <defs>
        <path d="M9.02527511,0.669316079 L9.02527511,1.14457983 L8.70649434,1.14457983 L8.70649434,1.46361501 L9.02527511,1.46361501 L9.02527511,2.19871154 C9.02527511,2.59174973 9.15180149,2.79895815 9.57492545,2.79895815 L9.57492545,2.79895815 C9.73020784,2.79895815 9.88631182,2.74715604 10.019411,2.66575274 L10.019411,2.66575274 L9.91588942,2.37631876 C9.80415183,2.42812086 9.70063024,2.45772206 9.59628705,2.45772206 L9.59628705,2.45772206 C9.41142707,2.45772206 9.35966627,2.35411785 9.35966627,2.19871154 L9.35966627,2.19871154 L9.35966627,1.46361501 L9.93807262,1.46361501 L9.94546702,1.14457983 L9.36706067,1.14457983 L9.36706067,0.669316079 L9.02527511,0.669316079 Z M12.013434,1.15198013 C11.9099124,1.20378223 11.8351468,1.26298464 11.7538084,1.3378099 L11.7538084,1.3378099 C11.67247,1.41181291 11.6207093,1.49321621 11.5689485,1.59764268 L11.5689485,1.59764268 C11.4867885,1.8344523 11.4867885,2.07208417 11.5689485,2.28011485 L11.5689485,2.28011485 C11.6207093,2.38371906 11.6798644,2.45772206 11.7538084,2.53994763 L11.7538084,2.53994763 C11.8277524,2.62135093 11.9099124,2.67315304 12.013434,2.72495514 L12.013434,2.72495514 C12.2212988,2.80635845 12.4883188,2.80635845 12.6953619,2.72495514 L12.6953619,2.72495514 C12.7693059,2.67315304 12.8736491,2.61395063 12.9549875,2.53994763 L12.9549875,2.53994763 C13.0371475,2.46594462 13.0889083,2.38371906 13.1406691,2.28011485 L13.1406691,2.28011485 C13.2220075,2.04248297 13.2220075,1.8048511 13.1406691,1.59764268 L13.1406691,1.59764268 C13.0889083,1.49321621 13.0371475,1.41921321 12.9549875,1.3378099 L12.9549875,1.3378099 C12.8736491,1.25558434 12.7693059,1.20378223 12.6657843,1.15198013 L12.6657843,1.15198013 C12.5622628,1.12977923 12.428342,1.10017803 12.3248204,1.10017803 L12.3248204,1.10017803 C12.2212988,1.10017803 12.087378,1.12237893 12.013434,1.15198013 L12.013434,1.15198013 Z M12.1169556,2.41332026 C12.0651948,2.39111936 12.013434,2.36151815 11.9616732,2.30971605 L11.9616732,2.30971605 C11.9099124,2.28751515 11.8869076,2.20528959 11.85733,2.15430974 L11.85733,2.15430974 C11.8055692,2.02028207 11.8055692,1.8640535 11.85733,1.73084809 L11.85733,1.73084809 C11.8803348,1.67904599 11.9099124,1.62724388 11.9616732,1.57461952 L11.9616732,1.57461952 C12.013434,1.52281742 12.0651948,1.50061652 12.1169556,1.47101531 L12.1169556,1.47101531 C12.1917212,1.44141411 12.243482,1.44141411 12.3248204,1.44141411 L12.3248204,1.44141411 C12.4061588,1.44141411 12.4579196,1.44141411 12.5096804,1.47101531 L12.5096804,1.47101531 C12.5622628,1.49321621 12.6140236,1.52281742 12.6657843,1.57461952 L12.6657843,1.57461952 C12.7175451,1.59764268 12.7397283,1.67904599 12.7693059,1.73084809 L12.7693059,1.73084809 C12.8218883,1.8640535 12.8218883,2.02028207 12.7693059,2.15430974 L12.7693059,2.15430974 C12.7479443,2.20528959 12.7175451,2.25709169 12.6657843,2.30971605 L12.6657843,2.30971605 C12.6436011,2.36151815 12.5622628,2.38371906 12.5096804,2.41332026 L12.5096804,2.41332026 C12.4431308,2.43963244 12.3782244,2.45278853 12.313318,2.45278853 L12.313318,2.45278853 C12.2484116,2.45278853 12.1835052,2.43963244 12.1169556,2.41332026 L12.1169556,2.41332026 Z M10.7309165,1.3378099 L10.7309165,1.15198013 L10.360375,1.15198013 L10.360375,2.75455634 L10.7013389,2.75455634 L10.7013389,1.8640535 C10.7013389,1.59764268 10.8048605,1.44141411 11.0414813,1.44141411 L11.0414813,1.44141411 C11.1162469,1.44141411 11.1680077,1.46361501 11.2493461,1.49321621 L11.2493461,1.49321621 L11.3536893,1.15198013 C11.2715293,1.12977923 11.1975853,1.10017803 11.1162469,1.10017803 L11.1162469,1.10017803 C10.9601429,1.10017803 10.8048605,1.20378223 10.7309165,1.3378099 L10.7309165,1.3378099 Z M7.0468625,1.62724388 C7.0468625,1.8936547 7.22432809,2.04988327 7.59486965,2.10168538 L7.59486965,2.10168538 L7.75097363,2.13128658 C7.95801681,2.15430974 8.0393552,2.20528959 8.0393552,2.28751515 L8.0393552,2.28751515 C8.0393552,2.39111936 7.90625602,2.47252266 7.66963524,2.47252266 L7.66963524,2.47252266 C7.48395366,2.50212387 7.29827208,2.42072056 7.14298969,2.31711635 L7.14298969,2.31711635 L6.98688571,2.57694913 C7.17256729,2.70275424 7.43219286,2.78415755 7.66963524,2.78415755 L7.66963524,2.78415755 C8.14287679,2.78415755 8.40250237,2.51774672 8.40250237,2.25709169 L8.40250237,2.25709169 C8.40250237,1.99068087 8.19463759,1.8344523 7.85449522,1.78265019 L7.85449522,1.78265019 L7.69839124,1.75304899 C7.57268645,1.73084809 7.43958726,1.70124689 7.43958726,1.59764268 L7.43958726,1.59764268 C7.43958726,1.49321621 7.58090245,1.41181291 7.75836803,1.41181291 L7.75836803,1.41181291 C7.93583362,1.41181291 8.0985104,1.46361501 8.25461438,1.54501832 L8.25461438,1.54501832 L8.38771357,1.25558434 C8.17327599,1.15198013 7.96541121,1.10017803 7.72879044,1.10017803 L7.72879044,1.10017803 C7.30648808,1.10017803 7.0468625,1.30738644 7.0468625,1.62724388 L7.0468625,1.62724388 Z M5.20730028,1.93887876 C5.20730028,2.41332026 5.60002505,2.7775795 6.0453322,2.75455634 L6.0453322,2.75455634 C6.28277458,2.75455634 6.52021696,2.67315304 6.70507694,2.51774672 L6.70507694,2.51774672 L6.54979455,2.25709169 C6.41587377,2.36151815 6.26059138,2.41332026 6.0749098,2.41332026 L6.0749098,2.41332026 C5.83746742,2.44292146 5.62960264,2.25709169 5.60002505,2.02028207 L5.60002505,2.02028207 L6.77984253,2.02028207 C6.78723693,2.04248297 6.78723693,1.99068087 6.78723693,1.93887876 L6.78723693,1.93887876 C6.78723693,1.44141411 6.46845616,1.10017803 6.023149,1.10017803 L6.023149,1.10017803 C5.54826425,1.10017803 5.18511709,1.49321621 5.20730028,1.93887876 L5.20730028,1.93887876 Z M6.023149,1.41181291 C6.12667059,1.41181291 6.23101378,1.44141411 6.31235218,1.51541712 L6.31235218,1.51541712 C6.39369057,1.59764268 6.44545136,1.70124689 6.44545136,1.8048511 L6.44545136,1.8048511 L5.60002505,1.8048511 C5.60002505,1.56721922 5.80788983,1.41181291 6.023149,1.41181291 L6.023149,1.41181291 Z M3.22067168,1.93887876 C3.22067168,2.40591996 3.59121324,2.7775795 4.0587036,2.7775795 L4.0587036,2.7775795 C4.24438518,2.7775795 4.45142836,2.69535394 4.55577155,2.53994763 L4.55577155,2.53994763 L4.55577155,2.72495514 L4.89673552,2.72495514 L4.89673552,1.93887876 L4.89673552,1.15198013 L4.55577155,1.15198013 L4.55577155,1.3378099 C4.42185076,1.18158133 4.23699078,1.10017803 4.0587036,1.10017803 L4.0587036,1.10017803 C3.58381885,1.10017803 3.22067168,1.47101531 3.22067168,1.93887876 L3.22067168,1.93887876 Z M3.73252843,2.30971605 C3.62900684,2.20528959 3.57642445,2.07208417 3.60600204,1.93887876 L3.60600204,1.93887876 C3.63557964,1.67904599 3.84426602,1.46361501 4.10389159,1.49321621 L4.10389159,1.49321621 C4.36269557,1.49321621 4.57795475,1.73084809 4.57795475,1.99068087 L4.57795475,1.99068087 C4.57795475,2.25051365 4.37008997,2.46594462 4.10389159,2.46594462 L4.10389159,2.46594462 C3.96997081,2.46594462 3.84426602,2.41332026 3.73252843,2.30971605 L3.73252843,2.30971605 Z M1.77547742,1.41181291 C1.67195583,1.22598314 1.45669666,1.12237893 1.24883188,1.12237893 L1.24883188,1.12237893 C1.06397189,1.12237893 0.878290313,1.20378223 0.774768723,1.35918855 L0.774768723,1.35918855 L0.774768723,1.15198013 L0.432983157,1.15198013 L0.432983157,2.75455634 L0.752585526,2.75455634 L0.752585526,1.8640535 C0.723007928,1.76044929 0.782163123,1.65684508 0.856107115,1.54501832 L0.856107115,1.54501832 C0.937445507,1.46361501 1.0409671,1.41181291 1.14531029,1.41181291 L1.14531029,1.41181291 C1.38275266,1.41181291 1.48627425,1.56721922 1.48627425,1.8344523 L1.48627425,1.8344523 L1.48627425,2.72495514 L1.82723822,2.72495514 L1.82723822,1.8344523 C1.79766062,1.73084809 1.85681582,1.62724388 1.93158141,1.51541712 L1.93158141,1.51541712 C2.0129198,1.43401381 2.11644139,1.38221171 2.21996298,1.38221171 L2.21996298,1.38221171 C2.45740536,1.38221171 2.56092695,1.53761802 2.56092695,1.8048511 L2.56092695,1.8048511 L2.56092695,2.69535394 L2.92407411,2.75455634 L2.92407411,1.75304899 C2.92407411,1.59764268 2.87231332,1.41181291 2.76879173,1.30738644 L2.76879173,1.30738644 C2.63487094,1.17418103 2.47958855,1.12237893 2.32348457,1.12237893 L2.32348457,1.12237893 C2.30130137,1.11991216 2.27911817,1.11826765 2.25775658,1.11826765 L2.25775658,1.11826765 C2.0482486,1.11826765 1.86996142,1.2432505 1.77547742,1.41181291 L1.77547742,1.41181291 Z" id="path-1"></path>
        <polygon id="path-3" points="0.0476527953 0.435795481 5.32561067 0.435795481 5.32561067 9.92544765 0.0476527953 9.92544765"></polygon>
        <path d="M1.90364701,1.94874583 C-0.224296778,4.26339542 -0.224296778,7.83938513 1.90364701,10.1244335 L1.90364701,10.1244335 C4.0307692,12.4390831 7.57515125,12.7285171 10.0736366,10.7847048 L10.0736366,10.7847048 C8.62762075,9.61956856 7.76083283,7.86158603 7.76083283,6.0222002 L7.76083283,6.0222002 C7.76083283,4.18116985 8.59804315,2.42318733 10.0736366,1.28765231 L10.0736366,1.28765231 C8.97597911,0.424283902 7.66634884,0.00164451125 6.36082657,0.00164451125 L6.36082657,0.00164451125 C4.72830753,0.00164451125 3.10236129,0.661915778 1.90364701,1.94874583 L1.90364701,1.94874583 Z" id="path-5"></path>
        <path d="M0.214437579,1.28765231 C1.68920943,2.42318733 2.52724135,4.18116985 2.52724135,6.0222002 L2.52724135,6.0222002 C2.52724135,7.86158603 1.65963184,9.59818991 0.214437579,10.7551036 L0.214437579,10.7551036 C2.022779,12.1726723 4.49168676,12.4390831 6.56786975,11.438398 L6.56786975,11.438398 C8.64323115,10.4360684 9.95532622,8.33684978 9.95532622,6.0222002 L9.95532622,6.0222002 C9.95532622,3.70672836 8.64323115,1.60010945 6.56786975,0.606002396 L6.56786975,0.606002396 C5.73558903,0.202274884 4.83758032,0.00493353375 3.94285801,0.00493353375 L3.94285801,0.00493353375 C2.61515254,0.00493353375 1.29566307,0.441551271 0.214437579,1.28765231 L0.214437579,1.28765231 Z" id="path-7"></path>
    </defs>
    <g id="Dizajn" stroke="none" stroke-width="1" fill="none" fill-rule="evenodd">
        <g id="Uvjeti-kupnje" transform="translate(-1439.000000, -4509.000000)">
            <g id="Footer-+-Newsletter" transform="translate(0.000000, 3504.000000)">
                <g id="footer-unutarnje" transform="translate(0.000000, 481.000000)">
                    <g id="footer-content" transform="translate(260.000000, 100.000000)">
                        <g id="Group-59" transform="translate(70.000000, 65.000000)">
                            <g id="Group-53" transform="translate(1074.000000, 328.000000)">
                                <g id="Maestro" transform="translate(35.758691, 31.440010)">
                                    <g id="Group-28" transform="translate(0.091055, 0.000000)" fill="#223343">
                                        <path d="M30.7687526,0.34057828 L2.37508105,0.34057828 C1.50747153,0.34057828 0.795966001,1.05265165 0.795966001,1.92095359 L0.795966001,19.7943241 C0.795966001,20.6626261 1.50747153,21.3746994 2.37508105,21.3746994 L30.7687526,21.3746994 C31.6363622,21.3746994 32.3478677,20.6626261 32.3478677,19.7943241 L32.3478677,1.92095359 C32.3478677,1.05265165 31.6363622,0.34057828 30.7687526,0.34057828" id="Fill-24"></path>
                                        <path d="M0.796048161,1.92120027 C0.796048161,1.05289833 1.50755369,0.340824957 2.37516321,0.340824957 L30.7688348,0.340824957 C31.6364443,0.340824957 32.3479498,1.05289833 32.3479498,1.92120027 L32.3479498,19.7945708 C32.3479498,20.6620505 31.6364443,21.3749461 30.7688348,21.3749461 L2.37516321,21.3749461 C1.50755369,21.3749461 0.796048161,20.6620505 0.796048161,19.7945708 L0.796048161,1.92120027 Z" id="Fill-26"></path>
                                    </g>
                                    <g id="Group-31" transform="translate(9.950254, 15.622857)">
                                        <mask id="mask-2" fill="white">
                                            <use xlink:href="#path-1"></use>
                                        </mask>
                                        <g id="Clip-30"></g>
                                        <polygon id="Fill-29" fill="#FEFEFE" mask="url(#mask-2)" points="-1.36056947 4.59476443 15.4534729 4.59476443 15.4534729 -1.08044389 -1.36056947 -1.08044389"></polygon>
                                    </g>
                                    <g id="Group-34" transform="translate(14.058253, 4.111278)">
                                        <mask id="mask-4" fill="white">
                                            <use xlink:href="#path-3"></use>
                                        </mask>
                                        <g id="Clip-33"></g>
                                        <polygon id="Fill-32" fill="#7773B5" mask="url(#mask-4)" points="-1.70974943 11.6842524 7.0608297 11.6842524 7.0608297 -1.29998614 -1.70974943 -1.29998614"></polygon>
                                    </g>
                                    <g id="Group-37" transform="translate(6.663854, 3.289022)">
                                        <mask id="mask-6" fill="white">
                                            <use xlink:href="#path-5"></use>
                                        </mask>
                                        <g id="Clip-36"></g>
                                        <polygon id="Fill-35" fill="#E91D25" mask="url(#mask-6)" points="-1.43287026 13.8048497 11.8302172 13.8048497 11.8302172 -1.76127155 -1.43287026 -1.76127155"></polygon>
                                    </g>
                                    <g id="Group-40" transform="translate(16.523053, 3.289022)">
                                        <mask id="mask-8" fill="white">
                                            <use xlink:href="#path-7"></use>
                                        </mask>
                                        <g id="Clip-39"></g>
                                        <polygon id="Fill-38" fill="#179FDA" mask="url(#mask-8)" points="-1.55035905 13.7974494 11.7127284 13.7974494 11.7127284 -1.79087275 -1.55035905 -1.79087275"></polygon>
                                    </g>
                                </g>
                            </g>
                        </g>
                    </g>
                </g>
            </g>
        </g>
    </g>
</svg>