<?xml version="1.0" encoding="UTF-8"?>
<svg width="33px" height="23px" viewBox="0 0 33 23" version="1.1" xmlns="http://www.w3.org/2000/svg" xmlns:xlink="http://www.w3.org/1999/xlink">
    <title>92C26717-6502-4854-853E-78D2925DC43A</title>
    <defs>
        <path d="M2.38428296,0.340413829 C1.51667345,0.340413829 0.80516792,1.05330946 0.80516792,1.92078914 L0.80516792,1.92078914 L0.80516792,19.7941597 C0.80516792,20.6624616 1.51667345,21.374535 2.38428296,21.374535 L2.38428296,21.374535 L30.7779546,21.374535 C31.6455641,21.374535 32.3570696,20.6624616 32.3570696,19.7941597 L32.3570696,19.7941597 L32.3570696,1.92078914 C32.3570696,1.05330946 31.6455641,0.340413829 30.7779546,0.340413829 L30.7779546,0.340413829 L2.38428296,0.340413829 Z" id="path-1"></path>
        <path d="M17.4376367,0.335480295 L17.4376367,1.15198013 C17.3332935,1.01795246 17.1484335,0.914348255 16.9413903,0.914348255 L16.9413903,0.914348255 C16.4969048,0.914348255 16.1773024,1.25558434 16.1773024,1.73084809 L16.1773024,1.73084809 C16.1773024,2.20528959 16.519088,2.54734793 16.9413903,2.54734793 L16.9413903,2.54734793 C17.1484335,2.54734793 17.3332935,2.46594462 17.4376367,2.30971605 L17.4376367,2.30971605 L17.4376367,2.49554582 L17.7564174,2.49554582 L17.7564174,1.75304899 L17.7564174,0.335480295 L17.4376367,0.335480295 Z M16.4969048,1.75304899 C16.4969048,1.46361501 16.6817647,1.22598314 16.9923295,1.22598314 L16.9923295,1.22598314 C17.2815327,1.22598314 17.4672143,1.46361501 17.4672143,1.75304899 L17.4672143,1.75304899 C17.4672143,2.07208417 17.2815327,2.28011485 16.9923295,2.28011485 L16.9923295,2.28011485 C16.6817647,2.28011485 16.4969048,2.04248297 16.4969048,1.75304899 L16.4969048,1.75304899 Z M7.27362408,0.490886608 L7.27362408,0.966150359 L6.93266011,0.966150359 L6.93266011,1.25558434 L7.27362408,1.25558434 L7.27362408,1.99068087 C7.27362408,2.36151815 7.40754487,2.56954883 7.80026963,2.56954883 L7.80026963,2.56954883 C7.95637361,2.56954883 8.1190504,2.51774672 8.22257199,2.43552116 L8.22257199,2.43552116 L8.1190504,2.14608718 C8.01552881,2.19871154 7.91200722,2.22749049 7.82984723,2.22749049 L7.82984723,2.22749049 C7.67456484,2.22749049 7.59322645,2.12388628 7.59322645,1.96847997 L7.59322645,1.96847997 L7.59322645,1.23338344 L8.17081119,1.23338344 L8.17081119,0.966150359 L7.59322645,0.966150359 L7.59322645,0.490886608 L7.27362408,0.490886608 Z M13.0272883,1.73084809 C13.0272883,2.20528959 13.3682523,2.54734793 13.7905546,2.54734793 L13.7905546,2.54734793 C13.9984194,2.54734793 14.1824578,2.46594462 14.286801,2.30971605 L14.286801,2.30971605 L14.286801,2.49554582 L14.6055818,2.49554582 L14.6055818,1.75304899 L14.6055818,0.966150359 L14.286801,0.966150359 L14.286801,1.15198013 C14.1824578,1.01795246 13.9984194,0.914348255 13.7905546,0.914348255 L13.7905546,0.914348255 C13.3460691,0.914348255 13.0272883,1.25558434 13.0272883,1.73084809 L13.0272883,1.73084809 Z M13.3460691,1.75304899 C13.3460691,1.46361501 13.5309291,1.22598314 13.8423154,1.22598314 L13.8423154,1.22598314 C14.1315186,1.22598314 14.3163786,1.46361501 14.3163786,1.75304899 L14.3163786,1.75304899 C14.3163786,2.07208417 14.1315186,2.28011485 13.8423154,2.28011485 L13.8423154,2.28011485 C13.5235347,2.28011485 13.3460691,2.04248297 13.3460691,1.75304899 L13.3460691,1.75304899 Z M3.41128286,1.73084809 C3.41128286,2.20528959 3.75224683,2.54734793 4.17537079,2.54734793 L4.17537079,2.54734793 C4.38241397,2.54734793 4.56809555,2.46594462 4.67161714,2.30971605 L4.67161714,2.30971605 L4.67161714,2.49554582 L4.99121951,2.49554582 L4.99121951,1.75304899 L4.99121951,0.966150359 L4.67161714,0.966150359 L4.67161714,1.15198013 C4.56809555,1.01795246 4.38241397,0.914348255 4.17537079,0.914348255 L4.17537079,0.914348255 C3.73006363,0.914348255 3.41128286,1.25558434 3.41128286,1.73084809 L3.41128286,1.73084809 Z M3.70048603,1.75304899 C3.70048603,1.46361501 3.88616762,1.22598314 4.19755398,1.22598314 L4.19755398,1.22598314 C4.48675716,1.22598314 4.67161714,1.46361501 4.67161714,1.75304899 L4.67161714,1.75304899 C4.67161714,2.07208417 4.48675716,2.28011485 4.19755398,2.28011485 L4.19755398,2.28011485 C3.90835081,2.28011485 3.70048603,2.04248297 3.70048603,1.75304899 L3.70048603,1.75304899 Z M1.92172221,1.20378223 C1.81737902,1.01795246 1.63251904,0.914348255 1.39507666,0.914348255 L1.39507666,0.914348255 C1.23897268,0.914348255 1.0541127,0.966150359 0.920191909,1.15198013 L0.920191909,1.15198013 L0.920191909,0.966150359 L0.601411141,0.966150359 L0.601411141,2.54734793 L0.920191909,2.54734793 L0.920191909,1.65684508 C0.920191909,1.39701231 1.07629589,1.23338344 1.31373827,1.23338344 L1.31373827,1.23338344 C1.55035905,1.23338344 1.65470224,1.38961201 1.65470224,1.65684508 L1.65470224,1.65684508 L1.65470224,2.54734793 L1.973483,2.54734793 L1.973483,1.65684508 C1.973483,1.39701231 2.12958699,1.23338344 2.36620777,1.23338344 L2.36620777,1.23338344 C2.60365014,1.23338344 2.73674933,1.38961201 2.73674933,1.65684508 L2.73674933,1.65684508 L2.73674933,2.54734793 L3.0703189,2.54734793 L3.0703189,1.54501832 C3.0703189,1.17418103 2.86245412,0.943949457 2.47055096,0.914348255 L2.47055096,0.914348255 C2.26268618,0.914348255 2.07700459,0.966150359 1.92172221,1.20378223 L1.92172221,1.20378223 Z M15.3918529,1.17418103 L15.3918529,0.988351261 L15.0730721,0.988351261 L15.0730721,2.56954883 L15.3918529,2.56954883 L15.3918529,1.67904599 C15.3918529,1.41921321 15.5249521,1.25558434 15.7328168,1.25558434 L15.7328168,1.25558434 C15.8141552,1.25558434 15.865916,1.25558434 15.9406816,1.30738644 L15.9406816,1.30738644 L16.0442032,1.01795246 C15.9702592,0.936549157 15.865916,0.936549157 15.8141552,0.936549157 L15.8141552,0.936549157 C15.6292953,0.936549157 15.4731913,1.01795246 15.3918529,1.17418103 L15.3918529,1.17418103 Z M11.4251685,1.75304899 C11.4251685,2.22749049 11.7439492,2.56954883 12.2410172,2.56954883 L12.2410172,2.56954883 C12.4784596,2.56954883 12.633742,2.51774672 12.7898459,2.38371906 L12.7898459,2.38371906 L12.633742,2.14608718 C12.5006428,2.22749049 12.3741164,2.28011485 12.2114396,2.28011485 L12.2114396,2.28011485 C11.951814,2.28011485 11.7365548,2.07208417 11.7365548,1.75304899 L11.7365548,1.75304899 C11.7365548,1.43401381 11.9444196,1.22598314 12.2114396,1.22598314 L12.2114396,1.22598314 C12.366722,1.22598314 12.5006428,1.27778524 12.633742,1.35918855 L12.633742,1.35918855 L12.7898459,1.12237893 C12.633742,0.988351261 12.4710652,0.936549157 12.2410172,0.936549157 L12.2410172,0.936549157 C11.7439492,0.936549157 11.4251685,1.2860078 11.4251685,1.75304899 L11.4251685,1.75304899 Z M10.6627237,1.17418103 L10.6627237,0.988351261 L10.3431214,0.988351261 L10.3431214,2.56954883 L10.6627237,2.56954883 L10.6627237,1.67904599 C10.6627237,1.41921321 10.7958229,1.25558434 11.0036877,1.25558434 L11.0036877,1.25558434 C11.0850261,1.25558434 11.1367869,1.25558434 11.2107309,1.30738644 L11.2107309,1.30738644 L11.3142525,1.01795246 C11.2394869,0.936549157 11.1367869,0.936549157 11.0850261,0.936549157 L11.0850261,0.936549157 C10.8993445,0.936549157 10.7440621,1.01795246 10.6627237,1.17418103 L10.6627237,1.17418103 Z M8.45261996,1.75304899 C8.45261996,2.25051365 8.77140073,2.56954883 9.23889109,2.56954883 L9.23889109,2.56954883 C9.47551186,2.56954883 9.68337664,2.51774672 9.86823662,2.36151815 L9.86823662,2.36151815 L9.71295424,2.12388628 C9.57985505,2.22749049 9.42375107,2.28011485 9.26764708,2.28011485 L9.26764708,2.28011485 C9.0606039,2.28011485 8.82316153,2.14608718 8.79358393,1.8862544 L8.79358393,1.8862544 L9.97257981,1.8862544 L9.97257981,1.75304899 C9.95779102,1.25558434 9.66858784,0.936549157 9.21588629,0.936549157 L9.21588629,0.936549157 C8.77140073,0.936549157 8.45261996,1.27778524 8.45261996,1.75304899 L8.45261996,1.75304899 Z M9.21588629,1.22598314 C9.45332866,1.22598314 9.60943265,1.38221171 9.63901025,1.61902133 L9.63901025,1.61902133 L8.80097833,1.61902133 C8.82316153,1.38961201 8.97926551,1.22598314 9.21588629,1.22598314 L9.21588629,1.22598314 Z M5.41352186,1.44141411 C5.41352186,1.70124689 5.59838185,1.8640535 5.93934581,1.8862544 L5.93934581,1.8862544 L6.0946282,1.91585561 C6.28030978,1.94545681 6.38383137,1.99808117 6.38383137,2.10168538 L6.38383137,2.10168538 C6.38383137,2.23571304 6.25073218,2.30971605 6.01328981,2.30971605 L6.01328981,2.30971605 C5.77666903,2.30971605 5.62056504,2.22749049 5.48664426,2.15430974 L5.48664426,2.15430974 L5.33218347,2.39111936 C5.56880425,2.54734793 5.82842982,2.59915003 6.01328981,2.59915003 L6.01328981,2.59915003 C6.45859696,2.59915003 6.72561693,2.39111936 6.72561693,2.10168538 L6.72561693,2.10168538 C6.72561693,1.8418526 6.53993535,1.67904599 6.19897139,1.62724388 L6.19897139,1.62724388 L6.0428674,1.59764268 C5.88758502,1.56721922 5.75366423,1.54501832 5.75366423,1.44141411 L5.75366423,1.44141411 C5.75366423,1.3378099 5.88758502,1.25558434 6.072445,1.25558434 L6.072445,1.25558434 C6.28030978,1.25558434 6.46599136,1.3378099 6.56951295,1.38961201 L6.56951295,1.38961201 L6.67385614,1.10017803 C6.51775216,0.995751562 6.28030978,0.943949457 6.0428674,0.943949457 L6.0428674,0.943949457 C5.65014264,0.943949457 5.41352186,1.12977923 5.41352186,1.44141411 L5.41352186,1.44141411 Z" id="path-3"></path>
        <polygon id="path-5" points="0.551293545 0.569823148 6.22279778 0.569823148 6.22279778 9.85144464 0.551293545 9.85144464"></polygon>
        <path d="M0.452701555,6.0222002 C0.452701555,9.28655503 3.0768917,11.9128395 6.33864337,11.9128395 L6.33864337,11.9128395 C7.70249924,11.9128395 8.96365511,11.438398 9.99311981,10.6514994 L9.99311981,10.6514994 C8.59229195,9.56858871 7.73207684,7.88378693 7.73207684,6.0222002 L7.73207684,6.0222002 C7.73207684,4.12936775 8.62186955,2.47498943 9.99311981,1.39207877 L9.99311981,1.39207877 C8.99241111,0.606002396 7.73207684,0.1315609 6.33864337,0.1315609 L6.33864337,0.1315609 C3.08428609,0.1315609 0.452701555,2.75702311 0.452701555,6.0222002 L0.452701555,6.0222002 Z" id="path-7"></path>
        <path d="M0.0969487904,1.39207877 C1.46902065,2.47498943 2.35799177,4.12936775 2.35799177,6.0222002 L2.35799177,6.0222002 C2.35799177,7.89118723 1.46162626,9.57516675 0.0969487904,10.6514994 L0.0969487904,10.6514994 C1.12723509,11.438398 2.38756936,11.9128395 3.75224683,11.9128395 L3.75224683,11.9128395 C7.01399851,11.9128395 9.63818865,9.27915473 9.63818865,6.0222002 L9.63818865,6.0222002 C9.63818865,2.75702311 7.01399851,0.1315609 3.75224683,0.1315609 L3.75224683,0.1315609 C2.35799177,0.1315609 1.09847909,0.606002396 0.0969487904,1.39207877 L0.0969487904,1.39207877 Z" id="path-9"></path>
    </defs>
    <g id="Dizajn" stroke="none" stroke-width="1" fill="none" fill-rule="evenodd">
        <g id="Uvjeti-kupnje" transform="translate(-1405.000000, -4509.000000)">
            <g id="Footer-+-Newsletter" transform="translate(0.000000, 3504.000000)">
                <g id="footer-unutarnje" transform="translate(0.000000, 481.000000)">
                    <g id="footer-content" transform="translate(260.000000, 100.000000)">
                        <g id="Group-59" transform="translate(70.000000, 65.000000)">
                            <g id="Group-53" transform="translate(1074.000000, 328.000000)">
                                <g id="Mastercard" transform="translate(0.520949, 31.440010)">
                                    <g id="Group-8" transform="translate(0.000000, -0.000000)" fill="#223343">
                                        <path d="M0.80483928,1.92120027 C0.80483928,1.05289833 1.51716641,0.340824957 2.38395432,0.340824957 L30.7776259,0.340824957 C31.6452354,0.340824957 32.356741,1.05289833 32.356741,1.92120027 L32.356741,19.7945708 C32.356741,20.6620505 31.6452354,21.3749461 30.7776259,21.3749461 L2.38395432,21.3749461 C1.51716641,21.3749461 0.80483928,20.6620505 0.80483928,19.7945708 L0.80483928,1.92120027 Z" id="Fill-4"></path>
                                        <path d="M0.80483928,1.92120027 C0.80483928,1.05289833 1.51716641,0.340824957 2.38395432,0.340824957 L30.7776259,0.340824957 C31.6452354,0.340824957 32.356741,1.05289833 32.356741,1.92120027 L32.356741,19.7945708 C32.356741,20.6620505 31.6452354,21.3749461 30.7776259,21.3749461 L2.38395432,21.3749461 C1.51716641,21.3749461 0.80483928,20.6620505 0.80483928,19.7945708 L0.80483928,1.92120027 Z" id="Fill-6"></path>
                                    </g>
                                    <g id="Group-11">
                                        <mask id="mask-2" fill="white">
                                            <use xlink:href="#path-1"></use>
                                        </mask>
                                        <g id="Clip-10"></g>
                                        <path d="M1,1.58037531 C1,0.712073371 1.71232713,0 2.57911504,0 L30.9727866,0 C31.8403961,0 32.5519017,0.712073371 32.5519017,1.58037531 L32.5519017,19.4537458 C32.5519017,20.3212255 31.8403961,21.0341211 30.9727866,21.0341211 L2.57911504,21.0341211 C1.71232713,21.0341211 1,20.3212255 1,19.4537458 L1,1.58037531 Z" id="Fill-9" fill="#223343" mask="url(#mask-2)"></path>
                                    </g>
                                    <g id="Group-14" transform="translate(7.394399, 15.622857)">
                                        <mask id="mask-4" fill="white">
                                            <use xlink:href="#path-3"></use>
                                        </mask>
                                        <g id="Clip-13"></g>
                                        <polygon id="Fill-12" fill="#FEFEFE" mask="url(#mask-4)" points="-0.71068393 3.94107121 19.8022012 3.94107121 19.8022012 -0.977661938 -0.71068393 -0.977661938"></polygon>
                                    </g>
                                    <g id="Group-17" transform="translate(13.145599, 4.111278)">
                                        <mask id="mask-6" fill="white">
                                            <use xlink:href="#path-5"></use>
                                        </mask>
                                        <g id="Clip-16"></g>
                                        <polygon id="Fill-15" fill="#F06022" mask="url(#mask-6)" points="-0.760801525 11.1645869 7.54228725 11.1645869 7.54228725 -0.743319085 -0.760801525 -0.743319085"></polygon>
                                    </g>
                                    <g id="Group-20" transform="translate(6.572799, 3.289022)">
                                        <mask id="mask-8" fill="white">
                                            <use xlink:href="#path-7"></use>
                                        </mask>
                                        <g id="Clip-19"></g>
                                        <polygon id="Fill-18" fill="#E91D25" mask="url(#mask-8)" points="-0.889792712 13.2481826 11.2756373 13.2481826 11.2756373 -1.18240359 -0.889792712 -1.18240359"></polygon>
                                    </g>
                                    <g id="Group-23" transform="translate(16.431998, 3.289022)">
                                        <mask id="mask-10" fill="white">
                                            <use xlink:href="#path-9"></use>
                                        </mask>
                                        <g id="Clip-22"></g>
                                        <polygon id="Fill-21" fill="#F59E1E" mask="url(#mask-10)" points="-1.20775188 13.2481826 10.9576781 13.2481826 10.9576781 -1.18240359 -1.20775188 -1.18240359"></polygon>
                                    </g>
                                </g>
                            </g>
                        </g>
                    </g>
                </g>
            </g>
        </g>
    </g>
</svg>