<?xml version="1.0" encoding="UTF-8"?>
<svg width="22px" height="25px" viewBox="0 0 22 25" version="1.1" xmlns="http://www.w3.org/2000/svg" xmlns:xlink="http://www.w3.org/1999/xlink">
    <title>E91B785E-FF94-4EF0-A5D0-E6B85F831414</title>
    <g id="Dizajn" stroke="none" stroke-width="1" fill="none" fill-rule="evenodd">
        <g id="Detalji-proizvoda" transform="translate(-285.000000, -1040.000000)" fill-rule="nonzero">
            <g id="Dokumenti-za-preuzimanje" transform="translate(260.000000, 1025.000000)">
                <g id="pdf" transform="translate(25.000000, 15.000000)">
                    <path d="M4.6875,0 C3.828125,0 3.125,0.703125 3.125,1.5625 L3.125,23.4375 C3.125,24.296875 3.828125,25 4.6875,25 L20.3125,25 C21.171875,25 21.875,24.296875 21.875,23.4375 L21.875,6.25 L15.625,0 L4.6875,0 Z" id="Path" fill="#E2E5E7"></path>
                    <path d="M17.1875,6.25 L21.875,6.25 L15.625,0 L15.625,4.6875 C15.625,5.546875 16.328125,6.25 17.1875,6.25 Z" id="Path" fill="#8697AC"></path>
                    <polygon id="Path" fill="#EAEAF4" points="21.875 10.9375 17.1875 6.25 21.875 6.25"></polygon>
                    <path d="M18.75,20.3125 C18.75,20.7421875 18.3984375,21.09375 17.96875,21.09375 L0.78125,21.09375 C0.3515625,21.09375 0,20.7421875 0,20.3125 L0,12.5 C0,12.0703125 0.3515625,11.71875 0.78125,11.71875 L17.96875,11.71875 C18.3984375,11.71875 18.75,12.0703125 18.75,12.5 L18.75,20.3125 Z" id="Path" fill="#144578"></path>
                    <g id="Group" transform="translate(3.369141, 14.355469)" fill="#FFFFFF">
                        <path d="M0.036328125,0.446875 C0.036328125,0.240625 0.198828125,0.015625 0.460546875,0.015625 L1.90351563,0.015625 C2.71601563,0.015625 3.44726563,0.559375 3.44726563,1.6015625 C3.44726563,2.5890625 2.71601563,3.1390625 1.90351563,3.1390625 L0.860546875,3.1390625 L0.860546875,3.9640625 C0.860546875,4.2390625 0.685546875,4.39453125 0.460546875,4.39453125 C0.254296875,4.39453125 0.036328125,4.2390625 0.036328125,3.9640625 L0.036328125,0.446875 L0.036328125,0.446875 Z M0.860546875,0.80234375 L0.860546875,2.35859375 L1.90351562,2.35859375 C2.32226562,2.35859375 2.65351562,1.9890625 2.65351562,1.6015625 C2.65351562,1.16484375 2.32226562,0.80234375 1.90351562,0.80234375 L0.860546875,0.80234375 Z" id="Shape"></path>
                        <path d="M4.67070313,4.39453125 C4.46445313,4.39453125 4.23945313,4.28203125 4.23945313,4.0078125 L4.23945313,0.459375 C4.23945313,0.23515625 4.46445313,0.071875 4.67070313,0.071875 L6.10117188,0.071875 C8.95585937,0.071875 8.89335937,4.39453125 6.15742187,4.39453125 L4.67070313,4.39453125 L4.67070313,4.39453125 Z M5.06445312,0.834375 L5.06445312,3.6328125 L6.10117188,3.6328125 C7.78789062,3.6328125 7.86289062,0.834375 6.10117188,0.834375 L5.06445312,0.834375 L5.06445312,0.834375 Z" id="Shape"></path>
                        <path d="M9.90585938,0.884375 L9.90585938,1.87734375 L11.4988281,1.87734375 C11.7238281,1.87734375 11.9488281,2.10234375 11.9488281,2.3203125 C11.9488281,2.5265625 11.7238281,2.6953125 11.4988281,2.6953125 L9.90585938,2.6953125 L9.90585938,4.00703125 C9.90585938,4.22578125 9.75039063,4.39375 9.53164063,4.39375 C9.25664063,4.39375 9.08867188,4.22578125 9.08867188,4.00703125 L9.08867188,0.45859375 C9.08867188,0.234375 9.25742188,0.07109375 9.53164063,0.07109375 L11.7246094,0.07109375 C11.9996094,0.07109375 12.1621094,0.234375 12.1621094,0.45859375 C12.1621094,0.65859375 11.9996094,0.88359375 11.7246094,0.88359375 L9.90585938,0.88359375 L9.90585938,0.884375 Z" id="Path"></path>
                    </g>
                    <path d="M17.96875,21.09375 L3.125,21.09375 L3.125,21.875 L17.96875,21.875 C18.3984375,21.875 18.75,21.5234375 18.75,21.09375 L18.75,20.3125 C18.75,20.7421875 18.3984375,21.09375 17.96875,21.09375 Z" id="Path" fill="#CAD1D8"></path>
                </g>
            </g>
        </g>
    </g>
</svg>