<?xml version="1.0" encoding="UTF-8"?>
<svg width="34px" height="23px" viewBox="0 0 34 23" version="1.1" xmlns="http://www.w3.org/2000/svg" xmlns:xlink="http://www.w3.org/1999/xlink">
    <title>B884A8A8-4403-4A86-BD36-944175AD5B22</title>
    <defs>
        <path d="M2.0523566,0.340413829 C1.34085107,0.340413829 0.763266324,0.920104044 0.763266324,1.63135516 L0.763266324,1.63135516 L0.763266324,20.0835936 C0.763266324,20.7964893 1.34085107,21.374535 2.0523566,21.374535 L2.0523566,21.374535 L31.0474393,21.374535 C31.7589449,21.374535 32.3374213,20.7964893 32.3374213,20.0835936 L32.3374213,20.0835936 L32.3374213,1.63135516 C32.3447456,0.920104044 31.7663393,0.340413829 31.0474393,0.340413829 L31.0474393,0.340413829 L2.0523566,0.340413829 Z M18.4071246,12.8789899 C18.6881118,12.8789899 18.9625261,12.8345881 19.2221517,12.7013826 L19.2221517,12.7013826 C19.6896421,12.4571727 19.7487972,11.981909 19.3404621,11.6554735 L19.3404621,11.6554735 C19.1408133,11.5000672 18.9107653,11.3734398 18.681539,11.255035 L18.681539,11.255035 C18.303603,11.0544046 17.925667,10.8537742 17.5986703,10.5791409 L17.5986703,10.5791409 C16.6571168,9.78566419 16.7754271,8.68055263 17.2872839,7.9380558 L17.2872839,7.9380558 C17.7104078,7.32958664 18.3257862,7.00397341 19.0225029,6.82554394 L19.0225029,6.82554394 C19.2443349,6.76634154 19.4743829,6.75154094 19.7044309,6.70713913 L19.7044309,6.70713913 C19.7414028,6.69973883 19.7709804,6.69233853 19.800558,6.67753793 L19.800558,6.67753793 L20.5498572,6.67753793 C20.7642947,6.71453943 20.9869483,6.74414064 21.2022075,6.78854244 L21.2022075,6.78854244 C21.4166451,6.83294424 21.6245099,6.89954695 21.831553,6.95874935 L21.831553,6.95874935 C21.8841354,6.97437221 21.9285018,6.99575086 21.987657,7.01877401 L21.987657,7.01877401 C21.8759194,7.54501761 21.7650034,8.06468317 21.6540875,8.58352647 L21.6540875,8.58352647 C21.4018563,8.50212316 21.1578411,8.41331955 20.9056099,8.35329489 L20.9056099,8.35329489 C20.4529084,8.24229038 19.9862396,8.19788858 19.5335381,8.31629339 L19.5335381,8.31629339 C19.3708613,8.36151745 19.1999685,8.45772136 19.0742637,8.56872587 L19.0742637,8.56872587 C18.8516101,8.76195594 18.8516101,9.03658932 19.0660477,9.23721969 L19.0660477,9.23721969 C19.2073629,9.3704251 19.3782557,9.48965217 19.5483269,9.58585608 L19.5483269,9.58585608 C19.8901124,9.78566419 20.2458652,9.95669336 20.5794348,10.1713021 L20.5794348,10.1713021 C21.0321363,10.4533358 21.4100723,10.8093724 21.5571387,11.3438386 L21.5571387,11.3438386 C21.7723978,12.1159366 21.5357771,13.1462229 20.675562,13.770315 L20.675562,13.770315 C20.178494,14.1263516 19.6156981,14.3187595 19.0225029,14.3935847 L19.0225029,14.3935847 C18.0809494,14.5119895 17.1615791,14.4231859 16.2569976,14.111551 L16.2569976,14.111551 C16.2044152,14.0967504 16.1600488,14.0737273 16.0934992,14.0441261 L16.0934992,14.0441261 C16.2126312,13.5022596 16.3235472,12.9603932 16.4426792,12.4045484 L16.4426792,12.4045484 C16.5158016,12.4349718 16.5831728,12.464573 16.6497224,12.4941742 L16.6497224,12.4941742 C17.1895135,12.7531847 17.7564174,12.8798121 18.3512558,12.8798121 L18.3512558,12.8798121 C18.369331,12.8798121 18.3882278,12.8798121 18.4071246,12.8789899 L18.4071246,12.8789899 Z M7.75343843,6.80334304 C8.25790078,6.80334304 8.60625915,7.08537672 8.70238634,7.58201912 L8.70238634,7.58201912 C8.96283351,8.96258631 9.22163749,10.334931 9.48126306,11.7146759 L9.48126306,11.7146759 C9.48865746,11.7598999 9.50344626,11.8117021 9.54041826,11.8709045 L9.54041826,11.8709045 C10.2075574,10.1861027 10.8746965,8.49472286 11.5426573,6.81814364 L11.5426573,6.81814364 L13.5728307,6.81814364 C13.5358587,6.91434755 13.5062811,6.99575086 13.4693091,7.06975386 L13.4693091,7.06975386 C12.4768164,9.44442811 11.4826805,11.8182801 10.4885446,14.1929543 L10.4885446,14.1929543 C10.4597886,14.2891583 10.4154222,14.326982 10.311079,14.326982 L10.311079,14.326982 C9.71131104,14.3187595 9.1107215,14.3187595 8.51013196,14.326982 L8.51013196,14.326982 C8.42139917,14.326982 8.38360557,14.3039589 8.35402797,14.2077549 L8.35402797,14.2077549 C7.85038722,12.249142 7.33853047,10.2971072 6.84228412,8.33931655 L6.84228412,8.33931655 C6.75355133,7.98985791 6.57526415,7.74482573 6.24169458,7.59681972 L6.24169458,7.59681972 C5.69286584,7.35178754 5.11445949,7.18158063 4.52865875,7.04097492 L4.52865875,7.04097492 C4.50647555,7.03275236 4.47689796,7.02535206 4.45471476,7.01877401 L4.45471476,7.01877401 L4.45471476,6.96697191 C4.46950356,6.81814364 4.56563075,6.80334304 4.69133554,6.80334304 L4.69133554,6.80334304 C5.0331211,6.80580981 5.37326347,6.80663206 5.71258423,6.80663206 L5.71258423,6.80663206 C6.39286897,6.80663206 7.0715105,6.80334304 7.75343843,6.80334304 L7.75343843,6.80334304 Z M21.5875379,14.2151552 C22.5364858,11.9449075 23.4854337,9.68205998 24.4343816,7.41098995 L24.4343816,7.41098995 C24.5970584,7.02535206 24.8936559,6.82554394 25.3085639,6.82554394 L25.3085639,6.82554394 L26.9328669,6.82554394 C27.4512965,9.3260233 27.977942,11.8182801 28.4971932,14.326982 L28.4971932,14.326982 C27.8883876,14.3187595 27.3025869,14.3187595 26.702819,14.3187595 L26.702819,14.3187595 C26.6436638,14.0515264 26.5845086,13.7851156 26.5319262,13.5170602 L26.5319262,13.5170602 C26.4653766,13.2054253 26.4735926,13.2054253 26.1474174,13.2054253 L26.1474174,13.2054253 L24.100812,13.2054253 C24.0046848,13.2054253 23.9603184,13.2350265 23.9299192,13.3246524 L23.9299192,13.3246524 C23.8263976,13.628887 23.7154817,13.9257213 23.6037441,14.2299558 L23.6037441,14.2299558 C23.5889553,14.2743576 23.5298001,14.326982 23.4928281,14.326982 L23.4928281,14.326982 C22.8478721,14.3335601 22.2020946,14.3335601 21.5431715,14.3335601 L21.5431715,14.3335601 C21.5571387,14.2891583 21.5727491,14.2521567 21.5875379,14.2151552 L21.5875379,14.2151552 Z M14.4256514,6.82554394 L16.3605192,6.82554394 C16.3087584,7.06975386 16.2569976,7.31478604 16.2126312,7.55241792 L16.2126312,7.55241792 C15.7459624,9.75606299 15.2710777,11.9523078 14.8044089,14.1559528 L14.8044089,14.1559528 C14.7748313,14.2891583 14.7222489,14.326982 14.574361,14.326982 L14.574361,14.326982 C14.0477154,14.3187595 13.5136755,14.326982 12.9870299,14.326982 L12.9870299,14.326982 L12.8169587,14.326982 C13.3583931,11.8117021 13.892433,9.318623 14.4256514,6.82554394 L14.4256514,6.82554394 Z" id="path-1"></path>
        <linearGradient x1="49.9986509%" y1="0.00163871623%" x2="49.9986509%" y2="100.00145%" id="linearGradient-3">
            <stop stop-color="#29398E" offset="0%"></stop>
            <stop stop-color="#25255D" offset="100%"></stop>
        </linearGradient>
        <path d="M0.70411113,3.44771784 L2.32101977,3.44771784 C2.12794379,2.50541289 1.93486781,1.59270915 1.74179183,0.673427357 L1.74179183,0.673427357 C1.73439743,0.665204801 1.72700303,0.665204801 1.71221423,0.665204801 L1.71221423,0.665204801 C1.37864466,1.58530884 1.0450751,2.51281319 0.70411113,3.44771784" id="path-4"></path>
        <linearGradient x1="49.9784654%" y1="0.00642730496%" x2="49.9784654%" y2="99.9982624%" id="linearGradient-6">
            <stop stop-color="#29398E" offset="0%"></stop>
            <stop stop-color="#25255D" offset="100%"></stop>
        </linearGradient>
    </defs>
    <g id="Dizajn" stroke="none" stroke-width="1" fill="none" fill-rule="evenodd">
        <g id="Uvjeti-kupnje" transform="translate(-1509.000000, -4509.000000)">
            <g id="Footer-+-Newsletter" transform="translate(0.000000, 3504.000000)">
                <g id="footer-unutarnje" transform="translate(0.000000, 481.000000)">
                    <g id="footer-content" transform="translate(260.000000, 100.000000)">
                        <g id="Group-59" transform="translate(70.000000, 65.000000)">
                            <g id="Group-53" transform="translate(1074.000000, 328.000000)">
                                <g id="Visa" transform="translate(105.685739, 31.440010)">
                                    <g>
                                        <mask id="mask-2" fill="white">
                                            <use xlink:href="#path-1"></use>
                                        </mask>
                                        <g id="Clip-47"></g>
                                        <path d="M2.0523566,0.340413829 C1.34085107,0.340413829 0.763266324,0.920104044 0.763266324,1.63135516 L0.763266324,1.63135516 L0.763266324,20.0835936 C0.763266324,20.7964893 1.34085107,21.374535 2.0523566,21.374535 L2.0523566,21.374535 L31.0474393,21.374535 C31.7589449,21.374535 32.3374213,20.7964893 32.3374213,20.0835936 L32.3374213,20.0835936 L32.3374213,1.63135516 C32.3447456,0.920104044 31.7663393,0.340413829 31.0474393,0.340413829 L31.0474393,0.340413829 L2.0523566,0.340413829 Z M18.4071246,12.8789899 C18.6881118,12.8789899 18.9625261,12.8345881 19.2221517,12.7013826 L19.2221517,12.7013826 C19.6896421,12.4571727 19.7487972,11.981909 19.3404621,11.6554735 L19.3404621,11.6554735 C19.1408133,11.5000672 18.9107653,11.3734398 18.681539,11.255035 L18.681539,11.255035 C18.303603,11.0544046 17.925667,10.8537742 17.5986703,10.5791409 L17.5986703,10.5791409 C16.6571168,9.78566419 16.7754271,8.68055263 17.2872839,7.9380558 L17.2872839,7.9380558 C17.7104078,7.32958664 18.3257862,7.00397341 19.0225029,6.82554394 L19.0225029,6.82554394 C19.2443349,6.76634154 19.4743829,6.75154094 19.7044309,6.70713913 L19.7044309,6.70713913 C19.7414028,6.69973883 19.7709804,6.69233853 19.800558,6.67753793 L19.800558,6.67753793 L20.5498572,6.67753793 C20.7642947,6.71453943 20.9869483,6.74414064 21.2022075,6.78854244 L21.2022075,6.78854244 C21.4166451,6.83294424 21.6245099,6.89954695 21.831553,6.95874935 L21.831553,6.95874935 C21.8841354,6.97437221 21.9285018,6.99575086 21.987657,7.01877401 L21.987657,7.01877401 C21.8759194,7.54501761 21.7650034,8.06468317 21.6540875,8.58352647 L21.6540875,8.58352647 C21.4018563,8.50212316 21.1578411,8.41331955 20.9056099,8.35329489 L20.9056099,8.35329489 C20.4529084,8.24229038 19.9862396,8.19788858 19.5335381,8.31629339 L19.5335381,8.31629339 C19.3708613,8.36151745 19.1999685,8.45772136 19.0742637,8.56872587 L19.0742637,8.56872587 C18.8516101,8.76195594 18.8516101,9.03658932 19.0660477,9.23721969 L19.0660477,9.23721969 C19.2073629,9.3704251 19.3782557,9.48965217 19.5483269,9.58585608 L19.5483269,9.58585608 C19.8901124,9.78566419 20.2458652,9.95669336 20.5794348,10.1713021 L20.5794348,10.1713021 C21.0321363,10.4533358 21.4100723,10.8093724 21.5571387,11.3438386 L21.5571387,11.3438386 C21.7723978,12.1159366 21.5357771,13.1462229 20.675562,13.770315 L20.675562,13.770315 C20.178494,14.1263516 19.6156981,14.3187595 19.0225029,14.3935847 L19.0225029,14.3935847 C18.0809494,14.5119895 17.1615791,14.4231859 16.2569976,14.111551 L16.2569976,14.111551 C16.2044152,14.0967504 16.1600488,14.0737273 16.0934992,14.0441261 L16.0934992,14.0441261 C16.2126312,13.5022596 16.3235472,12.9603932 16.4426792,12.4045484 L16.4426792,12.4045484 C16.5158016,12.4349718 16.5831728,12.464573 16.6497224,12.4941742 L16.6497224,12.4941742 C17.1895135,12.7531847 17.7564174,12.8798121 18.3512558,12.8798121 L18.3512558,12.8798121 C18.369331,12.8798121 18.3882278,12.8798121 18.4071246,12.8789899 L18.4071246,12.8789899 Z M7.75343843,6.80334304 C8.25790078,6.80334304 8.60625915,7.08537672 8.70238634,7.58201912 L8.70238634,7.58201912 C8.96283351,8.96258631 9.22163749,10.334931 9.48126306,11.7146759 L9.48126306,11.7146759 C9.48865746,11.7598999 9.50344626,11.8117021 9.54041826,11.8709045 L9.54041826,11.8709045 C10.2075574,10.1861027 10.8746965,8.49472286 11.5426573,6.81814364 L11.5426573,6.81814364 L13.5728307,6.81814364 C13.5358587,6.91434755 13.5062811,6.99575086 13.4693091,7.06975386 L13.4693091,7.06975386 C12.4768164,9.44442811 11.4826805,11.8182801 10.4885446,14.1929543 L10.4885446,14.1929543 C10.4597886,14.2891583 10.4154222,14.326982 10.311079,14.326982 L10.311079,14.326982 C9.71131104,14.3187595 9.1107215,14.3187595 8.51013196,14.326982 L8.51013196,14.326982 C8.42139917,14.326982 8.38360557,14.3039589 8.35402797,14.2077549 L8.35402797,14.2077549 C7.85038722,12.249142 7.33853047,10.2971072 6.84228412,8.33931655 L6.84228412,8.33931655 C6.75355133,7.98985791 6.57526415,7.74482573 6.24169458,7.59681972 L6.24169458,7.59681972 C5.69286584,7.35178754 5.11445949,7.18158063 4.52865875,7.04097492 L4.52865875,7.04097492 C4.50647555,7.03275236 4.47689796,7.02535206 4.45471476,7.01877401 L4.45471476,7.01877401 L4.45471476,6.96697191 C4.46950356,6.81814364 4.56563075,6.80334304 4.69133554,6.80334304 L4.69133554,6.80334304 C5.0331211,6.80580981 5.37326347,6.80663206 5.71258423,6.80663206 L5.71258423,6.80663206 C6.39286897,6.80663206 7.0715105,6.80334304 7.75343843,6.80334304 L7.75343843,6.80334304 Z M21.5875379,14.2151552 C22.5364858,11.9449075 23.4854337,9.68205998 24.4343816,7.41098995 L24.4343816,7.41098995 C24.5970584,7.02535206 24.8936559,6.82554394 25.3085639,6.82554394 L25.3085639,6.82554394 L26.9328669,6.82554394 C27.4512965,9.3260233 27.977942,11.8182801 28.4971932,14.326982 L28.4971932,14.326982 C27.8883876,14.3187595 27.3025869,14.3187595 26.702819,14.3187595 L26.702819,14.3187595 C26.6436638,14.0515264 26.5845086,13.7851156 26.5319262,13.5170602 L26.5319262,13.5170602 C26.4653766,13.2054253 26.4735926,13.2054253 26.1474174,13.2054253 L26.1474174,13.2054253 L24.100812,13.2054253 C24.0046848,13.2054253 23.9603184,13.2350265 23.9299192,13.3246524 L23.9299192,13.3246524 C23.8263976,13.628887 23.7154817,13.9257213 23.6037441,14.2299558 L23.6037441,14.2299558 C23.5889553,14.2743576 23.5298001,14.326982 23.4928281,14.326982 L23.4928281,14.326982 C22.8478721,14.3335601 22.2020946,14.3335601 21.5431715,14.3335601 L21.5431715,14.3335601 C21.5571387,14.2891583 21.5727491,14.2521567 21.5875379,14.2151552 L21.5875379,14.2151552 Z M14.4256514,6.82554394 L16.3605192,6.82554394 C16.3087584,7.06975386 16.2569976,7.31478604 16.2126312,7.55241792 L16.2126312,7.55241792 C15.7459624,9.75606299 15.2710777,11.9523078 14.8044089,14.1559528 L14.8044089,14.1559528 C14.7748313,14.2891583 14.7222489,14.326982 14.574361,14.326982 L14.574361,14.326982 C14.0477154,14.3187595 13.5136755,14.326982 12.9870299,14.326982 L12.9870299,14.326982 L12.8169587,14.326982 C13.3583931,11.8117021 13.892433,9.318623 14.4256514,6.82554394 L14.4256514,6.82554394 Z" id="Fill-46" fill="url(#linearGradient-3)" mask="url(#mask-2)"></path>
                                    </g>
                                    <g id="Group-51" transform="translate(23.826398, 8.222556)">
                                        <mask id="mask-5" fill="white">
                                            <use xlink:href="#path-4"></use>
                                        </mask>
                                        <g id="Clip-50"></g>
                                        <path d="M0.70411113,3.44771784 L2.32101977,3.44771784 C2.12794379,2.50541289 1.93486781,1.59270915 1.74179183,0.673427357 L1.74179183,0.673427357 C1.73439743,0.665204801 1.72700303,0.665204801 1.71221423,0.665204801 L1.71221423,0.665204801 C1.37864466,1.58530884 1.0450751,2.51281319 0.70411113,3.44771784" id="Fill-49" fill="url(#linearGradient-6)" mask="url(#mask-5)"></path>
                                    </g>
                                </g>
                            </g>
                        </g>
                    </g>
                </g>
            </g>
        </g>
    </g>
</svg>