<?xml version="1.0" encoding="UTF-8"?>
<svg width="28px" height="50px" viewBox="0 0 28 50" version="1.1" xmlns="http://www.w3.org/2000/svg" xmlns:xlink="http://www.w3.org/1999/xlink">
    <title>arrow lijevo</title>
    <g id="Dizajn" stroke="none" stroke-width="1" fill="none" fill-rule="evenodd">
        <g id="PoÄetna---r1" transform="translate(-70.000000, -493.000000)" fill="#FFFFFF" fill-rule="nonzero">
            <g id="Slider" transform="translate(0.000000, 193.000000)">
                <g id="arrows" transform="translate(70.000000, 290.000000)">
                    <g id="next-(1)" transform="translate(14.000000, 35.000000) rotate(180.000000) translate(-14.000000, -35.000000) translate(-0.000000, 10.000000)">
                        <path d="M26.9337668,23.6279295 L3.80728971,0.565417051 C3.04957767,-0.18975594 1.82282439,-0.188486413 1.06638187,0.569323287 C0.310525288,1.32703533 0.312478406,2.5544722 1.07028811,3.31023113 L22.8202077,25.0000924 L1.06950686,46.689856 C0.311794814,47.4457126 0.309841697,48.6723682 1.06560062,49.4301779 C1.44479844,49.8100593 1.94157395,50 2.43834946,50 C2.93385544,50 3.42867783,49.8113288 3.80719205,49.4340841 L26.9337668,26.3721576 C27.2987068,26.009073 27.5034912,25.5149342 27.5034912,25.0000924 C27.5034912,24.4852505 27.2981209,23.9916977 26.9337668,23.6279295 Z" id="Path"></path>
                    </g>
                </g>
            </g>
        </g>
    </g>
</svg>