<?xml version="1.0" encoding="UTF-8"?>
<svg width="14px" height="7px" viewBox="0 0 14 7" version="1.1" xmlns="http://www.w3.org/2000/svg" xmlns:xlink="http://www.w3.org/1999/xlink">
    <title>55F4A63C-698E-44D6-96C7-C6469F7A8551</title>
    <g id="Dizajn" stroke="none" stroke-width="1" fill="none" fill-rule="evenodd">
        <g id="PoÄetna---r1" transform="translate(-1569.000000, -2096.000000)" fill="#71ACD2" fill-rule="nonzero">
            <g id="Group-39" transform="translate(260.000000, 2043.000000)">
                <g id="Group-63" transform="translate(1180.000000, 30.000000)">
                    <g id="right-arrow" transform="translate(129.000000, 23.000000)">
                        <path d="M13.8395947,3.10040726 C13.8394306,3.1002379 13.8392939,3.10004032 13.8391025,3.09987097 L10.9815727,0.164387097 C10.7674986,-0.0555201613 10.4212448,-0.0547016129 10.2081551,0.166306452 C9.9950927,0.38728629 9.99591301,0.744709677 10.2099871,0.964645161 L12.128533,2.93548387 L0.546874729,2.93548387 C0.244835816,2.93548387 0,3.18821774 0,3.50000193 C0,3.81178226 0.244835816,4.06451613 0.546874729,4.06451613 L12.1285057,4.06451613 L10.2100145,6.03535484 C9.99594035,6.25529032 9.99512004,6.61271371 10.2081824,6.83369355 C10.4212722,7.05472984 10.7675533,7.05549194 10.9816,6.8356129 L13.8391299,3.90012903 C13.8392939,3.89995968 13.8394306,3.8997621 13.839622,3.89959274 C14.0538055,3.67892339 14.0531219,3.32034274 13.8395947,3.10040726 Z" id="Path"></path>
                    </g>
                </g>
            </g>
        </g>
    </g>
</svg>