<?xml version="1.0" encoding="UTF-8"?>
<svg width="15px" height="18px" viewBox="0 0 15 18" version="1.1" xmlns="http://www.w3.org/2000/svg" xmlns:xlink="http://www.w3.org/1999/xlink">
    <!-- Generator: sketchtool 63.1 (101010) - https://sketch.com -->
    <title>F82D511F-01AC-4C66-8936-5858E94AE90E</title>
    <desc>Created with sketchtool.</desc>
    <g id="Unutarnje" stroke="none" stroke-width="1" fill="none" fill-rule="evenodd" opacity="0.400000006">
        <g id="Košarica" transform="translate(-440.000000, -482.000000)" fill="#202331" fill-rule="nonzero">
            <g id="Group-15" transform="translate(220.000000, 335.000000)">
                <g id="Group-7">
                    <g id="Group-6" transform="translate(220.000000, 15.000000)">
                        <g id="Group-5" transform="translate(0.000000, 132.000000)">
                            <g id="bin" transform="translate(0.000000, 0.000000)">
                                <path d="M9.79665547,6.52144321 C9.56381733,6.52144321 9.3751098,6.71015078 9.3751098,6.94298888 L9.3751098,14.910202 C9.3751098,15.1428754 9.56381733,15.3317477 9.79665547,15.3317477 C10.0294936,15.3317477 10.2182011,15.1428754 10.2182011,14.910202 L10.2182011,6.94298888 C10.2182011,6.71015078 10.0294936,6.52144321 9.79665547,6.52144321 Z" id="Path"></path>
                                <path d="M4.82241659,6.52144321 C4.58957845,6.52144321 4.40087092,6.71015078 4.40087092,6.94298888 L4.40087092,14.910202 C4.40087092,15.1428754 4.58957845,15.3317477 4.82241659,15.3317477 C5.05525468,15.3317477 5.24396226,15.1428754 5.24396226,14.910202 L5.24396226,6.94298888 C5.24396226,6.71015078 5.05525468,6.52144321 4.82241659,6.52144321 Z" id="Path"></path>
                                <path d="M1.19712385,5.35873464 L1.19712385,15.7447307 C1.19712385,16.3586066 1.42222262,16.9351032 1.81544569,17.3487449 C2.20685741,17.7635392 2.7515735,17.999012 3.32164813,18 L11.2974239,18 C11.8676632,17.999012 12.4123793,17.7635392 12.8036263,17.3487449 C13.1968494,16.9351032 13.4219482,16.3586066 13.4219482,15.7447307 L13.4219482,5.35873464 C14.203619,5.15125513 14.7101325,4.39609557 14.6055694,3.59400613 C14.5008416,2.79208138 13.8176412,2.19220213 13.0088005,2.19203747 L10.8505196,2.19203747 L10.8505196,1.66510539 C10.8529896,1.22198843 10.6777847,0.796490768 10.3640954,0.483460187 C10.0504062,0.170594262 9.62424986,-0.00362265808 9.1811329,-5.53876434e-05 L5.43793911,-5.53876434e-05 C4.99482215,-0.00362265808 4.56866583,0.170594262 4.25497658,0.483460187 C3.94128733,0.796490768 3.76608242,1.22198843 3.76855242,1.66510539 L3.76855242,2.19203747 L1.61027153,2.19203747 C0.801430778,2.19220213 0.118230407,2.79208138 0.0135026136,3.59400613 C-0.0910604403,4.39609557 0.415453026,5.15125513 1.19712385,5.35873464 Z M11.2974239,17.1569087 L3.32164813,17.1569087 C2.60090385,17.1569087 2.04021519,16.5377635 2.04021519,15.7447307 L2.04021519,5.39578454 L12.5788569,5.39578454 L12.5788569,15.7447307 C12.5788569,16.5377635 12.0181682,17.1569087 11.2974239,17.1569087 Z M4.61164376,1.66510539 C4.6088444,1.44560525 4.69512953,1.23433841 4.85090385,1.07938745 C5.00651347,0.924436496 5.21827428,0.839304 5.43793911,0.843091335 L9.1811329,0.843091335 C9.4007977,0.839304 9.61255855,0.924436496 9.76816817,1.07938745 C9.92394249,1.23417375 10.0102276,1.44560525 10.0074283,1.66510539 L10.0074283,2.19203747 L4.61164376,2.19203747 L4.61164376,1.66510539 Z M1.61027153,3.03512881 L13.0088005,3.03512881 C13.4278761,3.03512881 13.7675827,3.37483534 13.7675827,3.79391101 C13.7675827,4.21298667 13.4278761,4.55269321 13.0088005,4.55269321 L1.61027153,4.55269321 C1.19119582,4.55269321 0.851489326,4.21298667 0.851489326,3.79391101 C0.851489326,3.37483534 1.19119582,3.03512881 1.61027153,3.03512881 Z" id="Shape"></path>
                                <path d="M7.30953603,6.52144321 C7.07669789,6.52144321 6.88799036,6.71015078 6.88799036,6.94298888 L6.88799036,14.910202 C6.88799036,15.1428754 7.07669789,15.3317477 7.30953603,15.3317477 C7.54237412,15.3317477 7.7310817,15.1428754 7.7310817,14.910202 L7.7310817,6.94298888 C7.7310817,6.71015078 7.54237412,6.52144321 7.30953603,6.52144321 Z" id="Path"></path>
                            </g>
                        </g>
                    </g>
                </g>
            </g>
        </g>
    </g>
</svg>