<?xml version="1.0" encoding="UTF-8"?>
<svg width="48px" height="48px" viewBox="0 0 48 48" version="1.1" xmlns="http://www.w3.org/2000/svg" xmlns:xlink="http://www.w3.org/1999/xlink">
    <title>12A85285-8B09-4469-B06E-C4F1690BE6E0</title>
    <g id="Dizajn" stroke="none" stroke-width="1" fill="none" fill-rule="evenodd">
        <g id="PoÄetna---r1" transform="translate(-759.000000, -873.000000)" fill="#1661A2" fill-rule="nonzero">
            <g id="Benefits" transform="translate(326.000000, 873.000000)">
                <g id="tiles" transform="translate(433.000000, 0.000000)">
                    <path d="M23.7927862,47.947868 C23.6328855,47.947868 23.4721087,47.8974884 23.3371788,47.797167 L0.339515215,30.7504381 C0.140624972,30.6032418 0.0258469907,30.3684287 0.0301067649,30.1209112 C0.0341706168,29.8733937 0.158586393,29.6429614 0.362733645,29.5036507 L3.06921735,27.6492406 C3.41880841,27.4104848 3.8945677,27.5002921 4.13376168,27.8481308 C4.37207944,28.1972839 4.28358639,28.6734813 3.93443338,28.9126753 L2.11419387,30.1599007 L23.7927862,46.2288259 L45.4897781,30.1467582 L43.6966997,28.8658003 C43.3532418,28.6195969 43.2730724,28.1416473 43.5188376,27.7981893 C43.7646028,27.4542932 44.2434287,27.3741239 44.5864486,27.619889 L47.2355433,29.5124124 C47.4348716,29.6543517 47.5540304,29.8839077 47.5562515,30.1283586 C47.5584112,30.3736857 47.4431951,30.6045561 47.2464953,30.7504381 L24.2483937,47.796729 C24.1139019,47.8974884 23.953125,47.947868 23.7927862,47.947868 Z" id="Path"></path>
                    <path d="M23.7927862,44.088347 C23.6328855,44.088347 23.4721087,44.0379673 23.3371788,43.9376461 L0.339515215,26.890479 C0.140624972,26.7424065 0.0258469907,26.5084697 0.0301067649,26.260514 C0.0341706168,26.0129965 0.158586393,25.7830024 0.362733645,25.6432535 L2.8703271,23.9259638 C3.22123245,23.6876461 3.69567757,23.7770152 3.93487155,24.1248539 C4.17362736,24.474007 4.08469626,24.9502044 3.73598131,25.1898364 L2.11419387,26.2999415 L23.7927862,42.3693049 L45.4902161,26.286361 L43.9472839,25.1841414 C43.6033879,24.9388143 43.5232184,24.4604264 43.7689837,24.1165303 C44.0147489,23.7730724 44.4940128,23.6929031 44.8370327,23.9386682 L47.2364194,25.6524533 C47.4357477,25.7943925 47.5549065,26.0235105 47.5571276,26.2683995 C47.5592873,26.5128505 47.4440713,26.7445969 47.2473714,26.890479 L24.2492698,43.9376461 C24.1139019,44.0379673 23.953125,44.088347 23.7927862,44.088347 Z" id="Path"></path>
                    <path d="M38.4462617,17.2206483 C38.2924941,17.2206483 38.1365362,17.1746495 38.0020443,17.077833 L30.3162967,11.588639 C29.9724007,11.3433119 29.8926694,10.864924 30.1384346,10.521028 C30.3841997,10.177132 30.8630256,10.0974007 31.2060455,10.3431658 L38.8917932,15.8323598 C39.2356892,16.0776869 39.3158586,16.5560748 39.0700935,16.8999708 C38.9207068,17.109375 38.6854556,17.2206483 38.4462617,17.2206483 L38.4462617,17.2206483 Z" id="Path"></path>
                    <path d="M15.963347,34.4246495 C15.8051987,34.4246495 15.6457359,34.3760222 15.5081776,34.2743867 L7.95998826,28.6796144 C7.62047316,28.4277161 7.54950348,27.9484521 7.80052576,27.6080607 C8.05330026,27.2685455 8.53168811,27.198014 8.87207944,27.4490362 L16.4207068,33.0438084 C16.7602219,33.2957068 16.8307535,33.7749708 16.5797314,34.114924 C16.4294685,34.317757 16.1972839,34.4246495 15.963347,34.4246495 L15.963347,34.4246495 Z" id="Path"></path>
                    <path d="M19.2643108,20.5286215 C19.1964077,20.5286215 19.1276286,20.5198598 19.0601636,20.5010222 L8.66267529,17.6254381 C8.37573017,17.5461449 8.16063084,17.3078271 8.11200348,17.0138726 C8.06293806,16.7199183 8.18866822,16.4237733 8.43399533,16.255549 L23.843604,5.70166475 C24.109521,5.51985981 24.4595502,5.52380254 24.7210865,5.71086449 L31.2064836,10.3431658 C31.4040596,10.484667 31.5232184,10.7102804 31.5272623,10.9534171 C31.531104,11.1965538 31.4193925,11.4265479 31.2266355,11.5741822 L19.7299941,20.3709112 C19.5946262,20.473861 19.4303446,20.5286215 19.2643108,20.5286215 Z M10.6581483,16.5884929 L19.1017816,18.9234813 L29.4742991,10.9871495 L24.2672313,7.26825353 L10.6581483,16.5884929 Z" id="Shape"></path>
                    <path d="M8.41559574,28.8303154 C8.25569507,28.8303154 8.09491828,28.7799358 7.95998826,28.6796144 L0.339515215,23.0309579 C0.140624972,22.8828855 0.0258469907,22.6489486 0.0301067649,22.4014311 C0.0341706168,22.1534754 0.158586393,21.9234813 0.362733645,21.7837324 L8.43355727,16.255549 C8.78358639,16.0163551 9.25890774,16.1074766 9.49810161,16.4548773 C9.73685742,16.8040304 9.64792643,17.2802278 9.29921148,17.5194218 L2.11419387,22.4404206 L8.40858639,27.1060163 L18.7995035,19.1552278 C19.1346379,18.8985105 19.6169685,18.9620327 19.8728096,19.2980433 C20.129965,19.6336156 20.0655666,20.114632 19.7299941,20.3709112 L8.88127918,28.672167 C8.74415888,28.7777453 8.57943925,28.8303154 8.41559574,28.8303154 Z" id="Path"></path>
                    <path d="M23.7927862,40.2279498 C23.6328855,40.2279498 23.4721087,40.1780081 23.3371788,40.0776869 L15.5081776,34.2743867 C15.3154206,34.1306951 15.2002044,33.9050817 15.1984405,33.6650117 C15.1971378,33.4240654 15.3075351,33.1966997 15.4989778,33.0508178 L26.401139,24.7092582 C26.6127336,24.546729 26.8944218,24.5059872 27.1432535,24.604118 C27.3920853,24.7004965 27.572576,24.9199766 27.619451,25.1828271 L29.4870035,35.6657418 C29.5382593,35.9522489 29.4230433,36.2422605 29.1895444,36.4157418 L24.2492698,40.0776869 C24.1139019,40.1780081 23.953125,40.2279498 23.7927862,40.2279498 Z M17.2368574,33.6492406 L23.7927862,38.5089077 L27.8971963,35.4677278 L26.3327979,26.6889602 L17.2368574,33.6492406 Z" id="Shape"></path>
                    <path d="M28.734375,36.5660047 C28.4995619,36.5660047 28.2682535,36.4595502 28.1184287,36.2562792 C27.8669685,35.9163259 27.9379381,35.4370619 28.2774533,35.1851636 L45.4902161,22.4268399 L38.463347,17.4072722 L27.3311916,25.9253797 C26.9969334,26.1825351 26.5146028,26.1190128 26.2583236,25.7825642 C26.0011682,25.4469919 26.0651284,24.9659754 26.401139,24.7096963 L37.9823306,15.8476928 C38.2482477,15.6431075 38.6184287,15.6360981 38.8922313,15.8327979 L47.2364194,21.7929322 C47.4357477,21.9348716 47.5549065,22.1639895 47.5571276,22.4088785 C47.5592873,22.6537676 47.4440713,22.885076 47.2473714,23.0309579 L29.1895444,36.4157418 C29.051986,36.5173773 28.8925234,36.5660047 28.734375,36.5660047 L28.734375,36.5660047 Z" id="Path"></path>
                    <path d="M19.8141063,5.70779787 C19.6182828,5.70779787 19.4224591,5.63288546 19.2726343,5.4834988 L16.8482769,3.05870333 C16.5490654,2.75949185 16.5490654,2.27497077 16.8482769,1.97619746 C17.1470502,1.67698598 17.6315713,1.67698598 17.9307827,1.97619746 L20.3555782,4.40055488 C20.6543517,4.69976636 20.6543517,5.18428733 20.3555782,5.4834988 C20.2057535,5.63288546 20.0099299,5.70779787 19.8141063,5.70779787 Z" id="Path"></path>
                    <path d="M28.7374416,5.70779787 C28.54118,5.70779787 28.3457944,5.63288546 28.1959696,5.4834988 C27.8971963,5.18428733 27.8971963,4.69976636 28.1959696,4.40055488 L30.6207652,1.97619746 C30.9195386,1.67698598 31.4040596,1.67698598 31.703271,1.97619746 C32.0020443,2.27497077 32.0020443,2.75949185 31.703271,3.05870333 L29.2784754,5.4834988 C29.1290888,5.63288546 28.9332652,5.70779787 28.7374416,5.70779787 L28.7374416,5.70779787 Z" id="Path"></path>
                    <path d="M23.6158003,4.59375006 C23.192611,4.59375006 22.8500292,4.25116822 22.8500292,3.82797892 L22.8500292,0.765771028 C22.8500292,0.342581832 23.192611,0 23.6158003,0 C24.0385514,0 24.3811332,0.342581832 24.3811332,0.765771028 L24.3811332,3.82797892 C24.3811332,4.25160628 24.0389895,4.59375006 23.6158003,4.59375006 Z" id="Path"></path>
                </g>
            </g>
        </g>
    </g>
</svg>