<?xml version="1.0" encoding="UTF-8"?>
<svg width="20px" height="22px" viewBox="0 0 20 22" version="1.1" xmlns="http://www.w3.org/2000/svg" xmlns:xlink="http://www.w3.org/1999/xlink">
    <title>6F5E066A-174F-4AE1-98C9-F3E72CF621B4</title>
    <g id="Dizajn" stroke="none" stroke-width="1" fill="none" fill-rule="evenodd">
        <g id="Moj-račun---Računi" transform="translate(-1136.000000, -386.000000)" fill="#71ACD2" fill-rule="nonzero">
            <g id="wrapper" transform="translate(260.000000, 330.000000)">
                <g id="Group-9" transform="translate(560.000000, 40.000000)">
                    <g id="Group-7-Copy" transform="translate(189.000000, 0.000000)">
                        <g id="calendar" transform="translate(127.000000, 16.000000)">
                            <path d="M15.727293,10.8046641 L17.2618789,10.8046641 C17.6088086,10.8046641 17.8910703,10.5224023 17.8910703,10.1754727 L17.8910703,8.64088672 C17.8910703,8.29395703 17.6088086,8.01169531 17.2618789,8.01169531 L15.727293,8.01169531 C15.3803633,8.01169531 15.0981016,8.29395703 15.0981016,8.64088672 L15.0981016,10.1754727 C15.0981016,10.5224023 15.3803633,10.8046641 15.727293,10.8046641 Z M15.7426328,8.65622656 L17.2465391,8.65622656 L17.2465391,10.1601328 L15.7426328,10.1601328 L15.7426328,8.65622656 Z M15.727293,14.8866953 L17.2618789,14.8866953 C17.6088086,14.8866953 17.8910703,14.6044336 17.8910703,14.2575039 L17.8910703,12.722918 C17.8910703,12.3759883 17.6088086,12.0937266 17.2618789,12.0937266 L15.727293,12.0937266 C15.3803633,12.0937266 15.0981016,12.3759883 15.0981016,12.722918 L15.0981016,14.2575039 C15.0981016,14.6044336 15.3803633,14.8866953 15.727293,14.8866953 L15.727293,14.8866953 Z M15.7426328,12.7382578 L17.2465391,12.7382578 L17.2465391,14.2421641 L15.7426328,14.2421641 L15.7426328,12.7382578 Z M11.3480898,10.8046641 L12.8826758,10.8046641 C13.2296055,10.8046641 13.5118672,10.5224023 13.5118672,10.1754727 L13.5118672,8.64088672 C13.5118672,8.29395703 13.2296055,8.01169531 12.8826758,8.01169531 L11.3480898,8.01169531 C11.0011602,8.01169531 10.7188984,8.29395703 10.7188984,8.64088672 L10.7188984,10.1754727 C10.7188984,10.5224023 11.0011602,10.8046641 11.3480898,10.8046641 Z M11.3634297,8.65622656 L12.8673359,8.65622656 L12.8673359,10.1601328 L11.3634297,10.1601328 L11.3634297,8.65622656 Z M4.12426953,15.984375 L2.58968359,15.984375 C2.24275391,15.984375 1.96049219,16.2666367 1.96049219,16.6135664 L1.96049219,18.1481523 C1.96049219,18.495082 2.24275391,18.7773438 2.58968359,18.7773438 L4.12426953,18.7773438 C4.47119922,18.7773438 4.75346094,18.495082 4.75346094,18.1481523 L4.75346094,16.6135664 C4.75346094,16.2666367 4.47119922,15.984375 4.12426953,15.984375 Z M4.10892969,18.1328125 L2.60502344,18.1328125 L2.60502344,16.6289062 L4.10892969,16.6289062 L4.10892969,18.1328125 Z M4.12426953,8.01169531 L2.58968359,8.01169531 C2.24275391,8.01169531 1.96049219,8.29395703 1.96049219,8.64088672 L1.96049219,10.1754727 C1.96049219,10.5224023 2.24275391,10.8046641 2.58968359,10.8046641 L4.12426953,10.8046641 C4.47119922,10.8046641 4.75346094,10.5224023 4.75346094,10.1754727 L4.75346094,8.64088672 C4.75346094,8.29391406 4.47119922,8.01169531 4.12426953,8.01169531 Z M4.10892969,10.1601328 L2.60502344,10.1601328 L2.60502344,8.65622656 L4.10892969,8.65622656 L4.10892969,10.1601328 Z M11.3480898,14.7910039 L12.8826758,14.7910039 C13.2296055,14.7910039 13.5118672,14.5087422 13.5118672,14.1618125 L13.5118672,12.6272266 C13.5118672,12.2802969 13.2296055,11.9980352 12.8826758,11.9980352 L11.3480898,11.9980352 C11.0011602,11.9980352 10.7188984,12.2802969 10.7188984,12.6272266 L10.7188984,14.1618125 C10.7188984,14.5087422 11.0011602,14.7910039 11.3480898,14.7910039 Z M11.3634297,12.6425664 L12.8673359,12.6425664 L12.8673359,14.1464727 L11.3634297,14.1464727 L11.3634297,12.6425664 Z M18.2111445,1.47271094 L16.8333086,1.47271094 L16.8333086,0.979988281 C16.8333086,0.439613281 16.3936953,0 15.8533203,0 L15.7053359,0 C15.1650039,0 14.7253906,0.439613281 14.7253906,0.979988281 L14.7253906,1.47271094 L5.12617187,1.47271094 L5.12617187,0.979988281 C5.12617187,0.439613281 4.68655859,0 4.14618359,0 L3.99819922,0 C3.45782422,0 3.01821094,0.439613281 3.01821094,0.979988281 L3.01821094,1.47271094 L1.64041797,1.47271094 C0.75075,1.47271094 0.0269414063,2.19651953 0.0269414063,3.0861875 L0.0269414063,20.3886719 C0.0269414063,21.2771797 0.749761719,22 1.63826953,22 L18.2133789,22 C19.1018867,22 19.824707,21.2771797 19.824707,20.3886719 L19.824707,3.0861875 C19.824707,2.19651953 19.1008555,1.47271094 18.2111445,1.47271094 L18.2111445,1.47271094 Z M15.3699219,0.979988281 C15.3699219,0.795007812 15.5203984,0.64453125 15.7053789,0.64453125 L15.8533633,0.64453125 C16.0383438,0.64453125 16.1888203,0.795007812 16.1888203,0.979988281 L16.1888203,1.47271094 L15.3699219,1.47271094 L15.3699219,0.979988281 Z M3.66278516,0.979988281 C3.66278516,0.795007812 3.81326172,0.64453125 3.99824219,0.64453125 L4.14622656,0.64453125 C4.33120703,0.64453125 4.48168359,0.795007812 4.48168359,0.979988281 L4.48168359,1.47271094 L3.66282813,1.47271094 L3.66282813,0.979988281 L3.66278516,0.979988281 Z M19.1801328,20.3886719 C19.1801328,20.9217852 18.7464492,21.3554687 18.2133359,21.3554687 L1.63822656,21.3554687 C1.10511328,21.3554687 0.671429688,20.9217852 0.671429688,20.3886719 L0.671429688,20.3866523 C0.941445313,20.5901094 1.27707422,20.7109375 1.64041797,20.7109375 L14.7064844,20.7109375 C15.1374609,20.7109375 15.5426563,20.5431016 15.8473906,20.2383242 L19.1801328,16.905582 L19.1801328,20.3886719 Z M15.5185508,19.655668 C15.5438164,19.5513828 15.5575664,19.4426289 15.5575664,19.3306953 L15.5575664,17.1795078 C15.5575664,16.7738828 15.8876094,16.4438398 16.2932773,16.4438398 L18.4444219,16.4438398 C18.5563555,16.4438398 18.6651094,16.4300898 18.7693945,16.4048242 L15.5185508,19.655668 Z M19.1801328,6.07810156 L5.4484375,6.07810156 C5.27046094,6.07810156 5.12617188,6.22239062 5.12617188,6.40036719 C5.12617188,6.57834375 5.27046094,6.72263281 5.4484375,6.72263281 L19.1801328,6.72263281 L19.1801328,15.0636406 C19.1801328,15.4693086 18.8500898,15.7993516 18.4444219,15.7993516 L16.2932773,15.7993516 C15.5322148,15.7993516 14.9130352,16.4185312 14.9130352,17.1795508 L14.9130352,19.3307383 C14.9130352,19.7364062 14.5829922,20.0664492 14.1773672,20.0664492 L1.64041797,20.0664492 C1.10614453,20.0664492 0.671429687,19.6317773 0.671429687,19.0974609 L0.671429687,6.72263281 L4.159375,6.72263281 C4.33735156,6.72263281 4.48164063,6.57834375 4.48164063,6.40036719 C4.48164063,6.22239062 4.33735156,6.07810156 4.159375,6.07810156 L0.671429687,6.07810156 L0.671429687,3.0861875 C0.671429687,2.55191406 1.10610156,2.11724219 1.640375,2.11724219 L3.01821094,2.11724219 L3.01821094,3.06478906 C3.01821094,3.60516406 3.45782422,4.04477734 3.99819922,4.04477734 C4.17617578,4.04477734 4.32046484,3.90048828 4.32046484,3.72251172 C4.32046484,3.54453516 4.17617578,3.40024609 3.99819922,3.40024609 C3.81321875,3.40024609 3.66274219,3.24976953 3.66274219,3.06478906 L3.66274219,2.11724219 L14.7253906,2.11724219 L14.7253906,3.06478906 C14.7253906,3.60516406 15.1650039,4.04477734 15.7053789,4.04477734 C15.8833555,4.04477734 16.0276445,3.90048828 16.0276445,3.72251172 C16.0276445,3.54453516 15.8833555,3.40024609 15.7053789,3.40024609 C15.5203984,3.40024609 15.3699219,3.24976953 15.3699219,3.06478906 L15.3699219,2.11724219 L18.2111875,2.11724219 C18.7454609,2.11724219 19.1801328,2.55191406 19.1801328,3.0861875 L19.1801328,6.07810156 Z M4.12426953,11.9980352 L2.58968359,11.9980352 C2.24275391,11.9980352 1.96049219,12.2802969 1.96049219,12.6272266 L1.96049219,14.1618125 C1.96049219,14.5087422 2.24275391,14.7910039 2.58968359,14.7910039 L4.12426953,14.7910039 C4.47119922,14.7910039 4.75346094,14.5087422 4.75346094,14.1618125 L4.75346094,12.6272266 C4.75346094,12.2802539 4.47119922,11.9980352 4.12426953,11.9980352 Z M4.10892969,14.1464727 L2.60502344,14.1464727 L2.60502344,12.6425664 L4.10892969,12.6425664 L4.10892969,14.1464727 Z M6.96888672,10.8046641 L8.50347266,10.8046641 C8.85040234,10.8046641 9.13266406,10.5224023 9.13266406,10.1754727 L9.13266406,8.64088672 C9.13266406,8.29395703 8.85040234,8.01169531 8.50347266,8.01169531 L6.96888672,8.01169531 C6.62195703,8.01169531 6.33969531,8.29395703 6.33969531,8.64088672 L6.33969531,10.1754727 C6.33969531,10.5224023 6.62195703,10.8046641 6.96888672,10.8046641 Z M6.98422656,8.65622656 L8.48813281,8.65622656 L8.48813281,10.1601328 L6.98422656,10.1601328 L6.98422656,8.65622656 Z M11.363043,18.1328125 C11.3550508,17.9619258 11.2139844,17.8258867 11.0411211,17.8258867 C10.8631445,17.8258867 10.7188555,17.9701758 10.7188555,18.1481523 C10.7188555,18.495082 11.0011172,18.7773438 11.3480469,18.7773438 L12.8826328,18.7773438 C13.2295625,18.7773438 13.5118242,18.495082 13.5118242,18.1481523 L13.5118242,16.6135664 C13.5118242,16.2666367 13.2295625,15.984375 12.8826328,15.984375 L11.3480469,15.984375 C11.0011172,15.984375 10.7188555,16.2666367 10.7188555,16.6135664 L10.7188555,17.0561445 C10.7188555,17.2341211 10.8631445,17.3784102 11.0411211,17.3784102 C11.2190977,17.3784102 11.3633867,17.2341211 11.3633867,17.0561445 L11.3633867,16.6289063 L12.867293,16.6289063 L12.867293,18.1328125 L11.363043,18.1328125 Z M6.96888672,14.7910039 L8.50347266,14.7910039 C8.85040234,14.7910039 9.13266406,14.5087422 9.13266406,14.1618125 L9.13266406,12.6272266 C9.13266406,12.2802969 8.85040234,11.9980352 8.50347266,11.9980352 L6.96888672,11.9980352 C6.62195703,11.9980352 6.33969531,12.2802969 6.33969531,12.6272266 L6.33969531,14.1618125 C6.33969531,14.5087422 6.62195703,14.7910039 6.96888672,14.7910039 Z M6.98422656,12.6425664 L8.48813281,12.6425664 L8.48813281,14.1464727 L6.98422656,14.1464727 L6.98422656,12.6425664 Z M6.96888672,18.7773438 L8.50347266,18.7773438 C8.85040234,18.7773438 9.13266406,18.495082 9.13266406,18.1481523 L9.13266406,16.6135664 C9.13266406,16.2666367 8.85040234,15.984375 8.50347266,15.984375 L6.96888672,15.984375 C6.62195703,15.984375 6.33969531,16.2666367 6.33969531,16.6135664 L6.33969531,18.1481523 C6.33969531,18.495082 6.62195703,18.7773438 6.96888672,18.7773438 Z M6.98422656,16.6289062 L8.48813281,16.6289062 L8.48813281,18.1328125 L6.98422656,18.1328125 L6.98422656,16.6289062 Z" id="Shape"></path>
                        </g>
                    </g>
                </g>
            </g>
        </g>
    </g>
</svg>