<?xml version="1.0" encoding="UTF-8"?>
<svg width="33px" height="26px" viewBox="0 0 33 26" version="1.1" xmlns="http://www.w3.org/2000/svg" xmlns:xlink="http://www.w3.org/1999/xlink">
    <title>75F425AB-0C14-4DB4-AF6A-07E85B297456</title>
    <defs>
        <filter id="filter-1">
            <feColorMatrix in="SourceGraphic" type="matrix" values="0 0 0 0 0.443137 0 0 0 0 0.674510 0 0 0 0 0.823529 0 0 0 1.000000 0"></feColorMatrix>
        </filter>
    </defs>
    <g id="Dizajn" stroke="none" stroke-width="1" fill="none" fill-rule="evenodd">
        <g id="Česta-pitanja" transform="translate(-381.000000, -491.000000)">
            <g id="wrapper" transform="translate(260.000000, 340.000000)">
                <g id="credit-card-(14)" transform="translate(121.000000, 151.000000)" filter="url(#filter-1)">
                    <g>
                        <path d="M30.3009053,7.91178005 L27.2399539,7.91178005 L26.3808235,1.42920204 C26.2578056,0.55883376 25.4585218,-0.0514015345 24.5864911,0.0593810742 L1.38571356,3.13416369 C0.965258311,3.19055243 0.584501279,3.41198465 0.327626599,3.74965218 C0.0696214834,4.08505883 -0.0430230179,4.50990281 0.0148286445,4.92902813 L1.9724757,19.6927724 C2.0764757,20.487867 2.7542711,21.0823427 3.55614834,21.0817443 C3.62483887,21.0816113 3.69339642,21.0769565 3.76148849,21.067913 L5.29834782,20.8652327 L5.29834782,24.4028286 C5.29834782,25.2842353 6.01284911,25.9987366 6.89425575,25.9987366 L30.3009053,25.9987366 C31.182312,25.9987366 31.8968133,25.2842353 31.8968133,24.4028286 L31.8968133,9.50768799 C31.8968133,8.62628133 31.182312,7.91178005 30.3009053,7.91178005 Z M26.1669719,7.91178005 L22.0128235,7.91178005 L26.095156,7.37076726 L26.1669719,7.91178005 Z M1.06812788,4.78539642 C1.04944246,4.64655243 1.08734527,4.50597954 1.17345781,4.39546292 C1.25903837,4.28168798 1.3866445,4.20694629 1.52774773,4.18799489 L24.7242711,1.11427621 C25.0159898,1.07730434 25.2835704,1.28078261 25.3259284,1.57176982 L25.5360563,3.15597443 L1.27825575,6.37279284 L1.06812788,4.78539642 Z M5.29834782,19.7922507 L3.62477238,20.0130179 C3.33351918,20.0517187 3.06607161,19.846977 3.02737084,19.5557238 C3.02737084,19.5556573 3.02737084,19.5555908 3.02737084,19.5555243 L1.84054732,10.5875856 L5.29834782,10.130624 L5.29834782,19.7922507 Z M5.36856778,9.04859846 L1.69797954,9.53269051 L1.41869565,7.42821995 L25.6764962,4.21086957 L25.836087,5.43014322 L25.9541841,6.31587212 L13.9162507,7.91178005 L6.89425575,7.91178005 C6.19072634,7.91304348 5.5709821,8.37479284 5.36856778,9.04859846 Z M30.8328747,24.4028286 C30.8328747,24.6966087 30.5946855,24.9347979 30.3009053,24.9347979 L6.89425575,24.9347979 C6.6004757,24.9347979 6.36228644,24.6966087 6.36228644,24.4028286 L6.36228644,9.52364706 C6.36228644,9.51832737 6.36494629,9.51300768 6.36494629,9.50768799 C6.36494629,9.21390793 6.60313555,8.97571867 6.8969156,8.97571867 L30.3009053,8.97571867 C30.5946855,8.97571867 30.8328747,9.21390793 30.8328747,9.50768799 L30.8328747,24.4028286 Z" id="Shape" fill="#1661A2" fill-rule="nonzero"></path>
                        <path d="M23.356578,15.9036215 C23.5704296,15.7457596 23.7594782,15.5567775 23.9172736,15.3429258 C24.7918977,16.5202404 26.4553658,16.7656113 27.6326803,15.8909207 C28.8099948,15.0162967 29.0553658,13.3528286 28.1806752,12.1755141 C27.6788286,11.5000461 26.8865933,11.102399 26.0451509,11.1035959 C25.2046394,11.1059233 24.4151304,11.5068286 23.9172736,12.1840256 C23.044977,11.0020563 21.3797135,10.7510332 20.1976778,11.6233299 C19.0157084,12.4956266 18.7646855,14.1608901 19.6369821,15.3429258 C20.5092788,16.5248286 22.1746087,16.7759182 23.356578,15.9036215 Z M26.0451509,12.1675345 C26.9265575,12.1675345 27.6410588,12.8820358 27.6410588,13.7634425 C27.6410588,14.6448491 26.9265575,15.3593504 26.0451509,15.3593504 C25.1637443,15.3593504 24.449243,14.6448491 24.449243,13.7634425 C24.449243,12.8820358 25.1637443,12.1675345 26.0451509,12.1675345 Z M21.7893964,12.1675345 C22.6708031,12.1675345 23.3853043,12.8820358 23.3853043,13.7634425 C23.3853043,14.6448491 22.6708031,15.3593504 21.7893964,15.3593504 C20.9079898,15.3593504 20.1934885,14.6448491 20.1934885,13.7634425 C20.1934885,12.8820358 20.9079898,12.1675345 21.7893964,12.1675345 Z" id="Shape" fill="#1661A2" fill-rule="nonzero"></path>
                        <rect id="Rectangle" fill="#1661A2" fill-rule="nonzero" x="8.49016369" y="11.6355652" width="1.06393862" height="1.06393862"></rect>
                        <rect id="Rectangle" fill="#1661A2" fill-rule="nonzero" x="10.6180409" y="11.6355652" width="6.38363172" height="1.06393862"></rect>
                        <rect id="Rectangle" fill="#1661A2" fill-rule="nonzero" x="8.49016369" y="13.7634425" width="8.51150895" height="1.06393862"></rect>
                        <path d="M28.1730281,18.5511662 L9.02213299,18.5511662 C8.72835294,18.5511662 8.49016369,18.7893555 8.49016369,19.0831356 L8.49016369,22.2749514 C8.49016369,22.5687314 8.72835294,22.8069207 9.02213299,22.8069207 L28.1730281,22.8069207 C28.4668082,22.8069207 28.7049975,22.5687314 28.7049975,22.2749514 L28.7049975,19.0831356 C28.7049975,18.7893555 28.4668747,18.5511662 28.1730281,18.5511662 Z M27.6410588,21.7429821 L9.55410226,21.7429821 L9.55410226,19.6151049 L27.6410588,19.6151049 L27.6410588,21.7429821 Z" id="Shape" fill="#1661A2" fill-rule="nonzero"></path>
                    </g>
                </g>
            </g>
        </g>
    </g>
</svg>