<?xml version="1.0" encoding="UTF-8"?>
<svg width="29px" height="28px" viewBox="0 0 29 28" version="1.1" xmlns="http://www.w3.org/2000/svg" xmlns:xlink="http://www.w3.org/1999/xlink">
    <title>81EB6994-D816-4BCC-9C97-611D020AF67E</title>
    <g id="Dizajn" stroke="none" stroke-width="1" fill="none" fill-rule="evenodd">
        <g id="PoÄetna---r1" transform="translate(-1622.000000, -19.000000)" fill="#144578" fill-rule="nonzero">
            <g id="Header-top" transform="translate(260.000000, 16.000000)">
                <g id="cart" transform="translate(1357.000000, 3.000000)">
                    <g id="shopping-cart" transform="translate(5.000000, 0.000000)">
                        <path d="M23.409009,20.0370901 C24.6135135,20.0244775 25.6666667,19.210964 25.9756757,18.0442973 L28.9459459,6.98303604 C29.0405405,6.62357658 28.8324324,6.25781081 28.472973,6.15690991 C28.4162162,6.1442973 28.3594595,6.13168468 28.3027027,6.13168468 L5.95945946,6.13168468 L4.43963964,0.519072072 C4.36396396,0.228981982 4.0990991,0.0208738739 3.7963964,0.0208738739 L0,0.0208738739 L0,1.36411712 L3.26666667,1.36411712 L4.73603604,6.8506036 C4.72972973,6.89474775 4.72972973,6.93889189 4.73603604,6.98303604 L7.76306306,18.0821351 C7.78198198,18.1704234 7.81351351,18.265018 7.84504505,18.3533063 L8.86666667,22.074027 C7.88288288,22.5974505 7.21441441,23.6316847 7.21441441,24.8235766 C7.21441441,26.5451982 8.60810811,27.9388919 10.3297297,27.9388919 C12.0513514,27.9388919 13.445045,26.5451982 13.445045,24.8235766 C13.445045,24.2875405 13.3063063,23.7767297 13.0666667,23.3352883 C13.0099099,23.2343874 12.9531532,23.1334865 12.8837838,23.0325856 L20.8108108,23.0325856 C20.4576577,23.5370901 20.2432432,24.1551081 20.2432432,24.8235766 C20.2432432,26.5451982 21.6369369,27.9388919 23.3585586,27.9388919 C25.0801802,27.9388919 26.4738739,26.5451982 26.4738739,24.8235766 C26.4738739,24.0100631 26.1648649,23.2722252 25.6540541,22.7172703 C25.1054054,22.0929459 24.2981982,21.6956486 23.3963964,21.6893423 L10.2099099,21.6893423 L9.73693694,19.9551081 C9.93873874,20.0055586 10.1468468,20.0370901 10.354955,20.0370901 L23.409009,20.0370901 Z M23.3648649,23.0325856 C24.354955,23.0325856 25.1558559,23.8334865 25.1558559,24.8235766 C25.1558559,25.8136667 24.354955,26.6145676 23.3648649,26.6145676 C22.3747748,26.6145676 21.5738739,25.8136667 21.5738739,24.8235766 C21.5738739,23.8334865 22.3747748,23.0325856 23.3648649,23.0325856 Z M10.3297297,23.0325856 C11.3198198,23.0325856 12.1144144,23.8397928 12.1144144,24.8235766 C12.1144144,25.8136667 11.3135135,26.6145676 10.3234234,26.6145676 C9.33333333,26.6145676 8.53873874,25.8136667 8.53873874,24.8235766 C8.53873874,23.8334865 9.33963964,23.0325856 10.3297297,23.0325856 Z M9.13153153,17.8424955 L7.62432432,12.3307838 L6.28108108,7.48754054 L27.4009009,7.48754054 L24.6702703,17.7415946 C24.5189189,18.3280811 23.9954955,18.737991 23.3900901,18.7506036 L10.3423423,18.7506036 C9.79369369,18.7190721 9.31441441,18.3659189 9.13153153,17.8424955 Z" id="Shape"></path>
                    </g>
                </g>
            </g>
        </g>
    </g>
</svg>