<?xml version="1.0" encoding="UTF-8"?>
<svg width="38px" height="40px" viewBox="0 0 38 40" version="1.1" xmlns="http://www.w3.org/2000/svg" xmlns:xlink="http://www.w3.org/1999/xlink">
    <title>D99B6EC7-A4A7-421D-AEBD-24147F0B4C70</title>
    <g id="Dizajn" stroke="none" stroke-width="1" fill="none" fill-rule="evenodd">
        <g id="PoÄetna---r1" transform="translate(-1303.000000, -877.000000)" fill="#1661A2" fill-rule="nonzero">
            <g id="Benefits" transform="translate(326.000000, 873.000000)">
                <g id="certificate" transform="translate(977.000000, 4.000000)">
                    <path d="M33.0558507,7.22313596 C33.4633637,7.22313596 33.7936979,6.87541575 33.7936979,6.44645468 L33.7936979,2.33004386 C33.7936979,1.04525768 32.8007031,0 31.5801562,0 L2.21383681,0 C0.993289931,0 0.000295138889,1.04525768 0.000295138889,2.33004386 L0.000295138889,37.436038 C0.000295138889,38.7208242 0.993289931,39.7660819 2.21383681,39.7660819 L31.5801562,39.7660819 C32.8007031,39.7660819 33.7936979,38.7208242 33.7936979,37.436038 L33.7936979,35.2613304 C33.7936979,34.8323693 33.4633637,34.4846491 33.0558507,34.4846491 C32.6483377,34.4846491 32.3180035,34.8323693 32.3180035,35.2613304 L32.3180035,37.436038 C32.3180035,37.8643001 31.9870052,38.2127193 31.5801562,38.2127193 L2.21383681,38.2127193 C1.80698785,38.2127193 1.47598958,37.8643001 1.47598958,37.436038 L1.47598958,2.33004386 C1.47598958,1.9017818 1.80698785,1.55336257 2.21383681,1.55336257 L31.5801562,1.55336257 C31.9870052,1.55336257 32.3180035,1.9017818 32.3180035,2.33004386 L32.3180035,6.44645468 C32.3180035,6.87541575 32.6483377,7.22313596 33.0558507,7.22313596 Z" id="Path"></path>
                    <path d="M29.5146267,3.72807018 L4.27936632,3.72807018 C3.8718533,3.72807018 3.5415191,4.07579039 3.5415191,4.50475146 L3.5415191,20.7373904 C3.5415191,21.1663514 3.8718533,21.5140716 4.27936632,21.5140716 C4.68687934,21.5140716 5.01721354,21.1663514 5.01721354,20.7373904 L5.01721354,5.28143275 L28.7767795,5.28143275 L28.7767795,6.52412281 C28.7767795,6.95308388 29.1071875,7.30080409 29.5146267,7.30080409 C29.9221398,7.30080409 30.252474,6.95308388 30.252474,6.52412281 L30.252474,4.50475146 C30.252474,4.07579039 29.9221398,3.72807018 29.5146267,3.72807018 Z" id="Path"></path>
                    <path d="M4.80072917,23.0619974 C4.66348958,22.9175347 4.47386285,22.8344298 4.27907118,22.8344298 C4.08501736,22.8344298 3.89465278,22.9175347 3.75741319,23.0619974 C3.62017361,23.2064602 3.54122396,23.4068439 3.54122396,23.6111111 C3.54122396,23.8153783 3.62017361,24.0157621 3.75741319,24.1602248 C3.89465278,24.3046875 4.08501736,24.3877924 4.27907118,24.3877924 C4.47386285,24.3877924 4.66348958,24.3046875 4.80072917,24.1602248 C4.9387066,24.0157621 5.0169184,23.8153783 5.0169184,23.6111111 C5.0169184,23.4068439 4.9387066,23.2064602 4.80072917,23.0619974 Z" id="Path"></path>
                    <path d="M29.5146267,32.7759503 C29.1071137,32.7759503 28.7767795,33.1236705 28.7767795,33.5526316 L28.7767795,34.4846491 L5.01721354,34.4846491 L5.01721354,26.6013341 C5.01721354,26.172373 4.68687934,25.8246528 4.27936632,25.8246528 C3.8718533,25.8246528 3.5415191,26.172373 3.5415191,26.6013341 L3.5415191,35.2613304 C3.5415191,35.6902915 3.8718533,36.0380117 4.27936632,36.0380117 L29.5146267,36.0380117 C29.9221398,36.0380117 30.252474,35.6902915 30.252474,35.2613304 L30.252474,33.5526316 C30.252474,33.1236705 29.9221398,32.7759503 29.5146267,32.7759503 Z" id="Path"></path>
                    <path d="M22.8664757,27.4429459 C22.5783464,27.1395742 22.1112153,27.1395742 21.8230122,27.4428682 L20.3647309,28.9779788 L19.4582856,28.0237482 C18.8859375,27.4213542 17.9548481,27.4213542 17.3825,28.0237482 L16.7926649,28.6446272 C16.5045356,28.9479212 16.5045356,29.4397158 16.7926649,29.7430875 C17.0807943,30.0463816 17.5479991,30.0463816 17.8362023,29.7430875 L18.4204297,29.1281113 L19.326875,30.0823419 C19.6130122,30.3835389 19.9888715,30.5341374 20.3647309,30.5341374 C20.7405903,30.5341374 21.1164497,30.3835389 21.4025868,30.0823419 L22.8664757,28.5414062 C23.154605,28.2381122 23.154605,27.7463176 22.8664757,27.4429459 Z" id="Path"></path>
                    <path d="M37.4383681,16.2933754 C37.7635373,15.759407 37.860638,15.1017133 37.7046571,14.4890671 C37.5486762,13.8764209 37.1523047,13.3579861 36.6169965,13.0667306 C36.3848698,12.9404423 36.2427604,12.6813414 36.2549349,12.4066292 C36.2828993,11.7730126 36.0546094,11.1524443 35.6285764,10.7039108 C35.2025434,10.255455 34.613151,10.0147615 34.0109939,10.0445861 C33.748763,10.057945 33.5038715,9.90773483 33.3838976,9.66346857 C33.1072049,9.10006396 32.6146918,8.68275311 32.032678,8.51856268 C31.4504427,8.35429459 30.825855,8.45658352 30.3186589,8.79886696 C30.0987066,8.94736842 29.8144878,8.94729075 29.5946094,8.79886696 C29.0873394,8.45650585 28.462678,8.35437226 27.8805903,8.51856268 C27.2985764,8.68275311 26.8060634,9.10006396 26.5293707,9.66346857 C26.4093967,9.9078125 26.1625868,10.057013 25.9022743,10.0445861 C25.3001172,10.0149945 24.7107986,10.255455 24.2847656,10.7039108 C23.8586589,11.1524443 23.6303689,11.7730126 23.6583333,12.4065515 C23.6705078,12.6813414 23.5283247,12.9404423 23.2962717,13.0667306 C22.7610373,13.3579861 22.364592,13.8763432 22.2086111,14.4890671 C22.1341623,14.7813322 22.1180035,15.0838496 22.1561502,15.3782895 L9.28071615,15.3782895 C8.87320312,15.3782895 8.54264757,15.7260097 8.54264757,16.1549708 C8.54264757,16.5839318 8.87320312,16.931652 9.28071615,16.931652 L22.5331163,16.931652 C22.5172526,16.9742918 22.4988802,17.016155 22.4748264,17.0556104 C22.1496571,17.5895788 22.0525564,18.2472725 22.2085373,18.8599187 C22.2299349,18.9440333 22.256276,19.0262061 22.2865278,19.1063596 L9.28049479,19.1063596 C8.87298177,19.1063596 8.54264757,19.4540799 8.54264757,19.8830409 C8.54264757,20.312002 8.87298177,20.6597222 9.28049479,20.6597222 L23.6142839,20.6597222 C23.6463802,20.7484969 23.6624653,20.8442617 23.658112,20.9423565 C23.6301476,21.5759731 23.8584375,22.1965415 24.2845443,22.6450749 C24.7105773,23.0935307 25.2998958,23.3343019 25.902053,23.3043997 C26.1627344,23.2909631 26.4091753,23.4411732 26.5291493,23.6855172 C26.6177648,23.8660179 26.7288108,24.031218 26.8575651,24.1782438 L26.8575651,31.4319033 C26.8575651,31.7456826 27.0369358,32.0286276 27.3121528,32.1490908 C27.587296,32.2695541 27.9044227,32.2038469 28.115816,31.9824927 L29.9565234,30.0550027 L31.7972309,31.9824927 C31.9383073,32.1302175 32.1263845,32.208628 32.3177821,32.208628 C32.413112,32.208628 32.5093273,32.1890899 32.6008941,32.1490132 C32.8761111,32.0285499 33.0554818,31.7456049 33.0554818,31.4318257 L33.0554818,24.1781661 C33.1842361,24.031218 33.2952821,23.8659402 33.3838976,23.6854395 C33.5038715,23.4410956 33.7503125,23.2918174 34.0109939,23.304322 C34.61352,23.3343019 35.2024696,23.0935307 35.6285026,22.6449973 C36.0546094,22.1964638 36.2828993,21.5758955 36.2549349,20.9422789 C36.2427604,20.6675667 36.3849436,20.4084658 36.6169965,20.2821774 C37.1522309,19.990922 37.5486762,19.4725649 37.7046571,18.859841 C37.860638,18.2471171 37.7635373,17.5895011 37.4383681,17.055455 C37.2972917,16.8240817 37.2972917,16.5249041 37.4383681,16.2933754 Z M31.5797873,29.5637518 L30.4768533,28.4088268 C30.1890191,28.1073967 29.723954,28.1073967 29.4361198,28.4088268 L28.3332595,29.5637518 L28.3332595,24.9042855 C28.7747135,24.9261879 29.2171267,24.8047149 29.5945356,24.5501188 C29.8144878,24.4016173 30.0987066,24.401695 30.3185851,24.5501188 C30.6670703,24.7852979 31.0709679,24.9071592 31.4784809,24.9071592 C31.5122743,24.9071592 31.5459939,24.9053728 31.5797873,24.9036641 L31.5797873,29.5637518 Z M36.2792101,18.4579084 C36.2297743,18.6521564 36.1089887,18.8100557 35.9392839,18.9024031 C35.1967144,19.3065104 34.7419054,20.13554 34.7807899,21.0145879 C34.7897179,21.2155154 34.7201389,21.4044819 34.5850391,21.5467699 C34.4499392,21.6889803 34.270421,21.7619883 34.0795399,21.7528235 C33.2440017,21.7121254 32.4568663,22.190561 32.0729644,22.9722908 C31.9852344,23.1510051 31.83523,23.2780702 31.6506207,23.3301078 C31.4661589,23.3820678 31.2757943,23.3510782 31.1150174,23.2424982 C30.7630642,23.004989 30.3598307,22.8863121 29.9564497,22.8863121 C29.5532161,22.8863121 29.1498351,23.0050667 28.7979557,23.2424982 C28.637105,23.3510005 28.4468142,23.3820678 28.2622786,23.3301078 C28.0776693,23.2780702 27.9277387,23.1509274 27.8399349,22.9722908 C27.456033,22.1906387 26.6690451,21.711737 25.8333594,21.7528235 C25.642921,21.762066 25.4629601,21.6889803 25.3278602,21.5467699 C25.1926866,21.4044819 25.1231814,21.2155154 25.1321094,21.0145102 C25.1594835,20.3940972 24.9401215,19.7993147 24.5481033,19.3605674 C24.5365929,19.3472862 24.5248611,19.3342379 24.5124653,19.321811 C24.3567795,19.1556789 24.1763759,19.0127696 23.9736155,18.9024031 C23.8039106,18.8100557 23.6831988,18.6522341 23.633763,18.4579084 C23.5843273,18.2635828 23.6138411,18.0632767 23.7169922,17.8940378 C24.1681858,17.1532392 24.1681858,16.1959019 23.7169922,15.4551033 C23.6139149,15.2857867 23.5843273,15.0854806 23.633763,14.891155 C23.6831988,14.696907 23.8039844,14.5390077 23.9736892,14.4466603 C24.7162587,14.042553 25.1709939,13.2135234 25.1321832,12.3344755 C25.1232552,12.1335481 25.1928342,11.9445815 25.327934,11.8022935 C25.4630339,11.6600055 25.642921,11.5869974 25.8334332,11.5962399 C26.6690451,11.6370157 27.4561806,11.1585024 27.8400087,10.3767727 C27.9277387,10.1980583 28.0777431,10.0709932 28.2623524,10.0189556 C28.446888,9.96699561 28.6371788,9.9979852 28.7979557,10.1065652 C29.5017882,10.5815835 30.4113325,10.5815835 31.1149436,10.1065652 C31.2757943,9.99806287 31.4660113,9.96684028 31.6506207,10.0189556 C31.83523,10.0709932 31.9851606,10.198136 32.0729644,10.3767727 C32.4568663,11.1584247 33.2443707,11.6372487 34.0795399,11.5962399 C34.2704948,11.5870751 34.4499392,11.6600055 34.5850391,11.8022935 C34.7202127,11.9445815 34.7897179,12.1335481 34.7807899,12.3344755 C34.7419792,13.2134457 35.1966406,14.042553 35.9393576,14.4466603 C36.1090625,14.5390077 36.2297743,14.6968293 36.2792101,14.891155 C36.3286458,15.0854806 36.2991319,15.2857867 36.1959809,15.4550256 C35.7447873,16.1958242 35.7447873,17.1531615 36.1959809,17.8939602 C36.2991319,18.0632767 36.3287196,18.2635828 36.2792101,18.4579084 Z" id="Shape"></path>
                    <path d="M33.4655035,14.5616868 C33.1773741,14.2583927 32.7101693,14.2583927 32.4220399,14.5616868 L29.9730512,17.1396473 L28.9981337,16.1134183 C28.7100043,15.8101243 28.2427995,15.8101243 27.9545964,16.1134183 C27.666467,16.4167124 27.666467,16.9085069 27.9545964,17.2118787 L29.4512457,18.787299 C29.5953472,18.9389848 29.7841623,19.0147889 29.9729774,19.0147889 C30.1617925,19.0147889 30.3506814,18.9389848 30.4947092,18.787299 L33.4655035,15.6601471 C33.7536328,15.3568531 33.7536328,14.8650585 33.4655035,14.5616868 Z" id="Path"></path>
                    <path d="M9.00719618,9.3924068 C8.8699566,9.24794408 8.67959201,9.16483918 8.48553819,9.16483918 C8.29148437,9.16483918 8.10111979,9.24794408 7.96388021,9.3924068 C7.82664062,9.53686952 7.74769097,9.73725329 7.74769097,9.94152047 C7.74769097,10.1457876 7.82664062,10.3461714 7.96388021,10.4906341 C8.10111979,10.6350969 8.29148437,10.7182018 8.48553819,10.7182018 C8.67959201,10.7182018 8.8699566,10.6350969 9.00719618,10.4906341 C9.14443576,10.3461714 9.22338542,10.1457876 9.22338542,9.94152047 C9.22338542,9.73725329 9.14443576,9.53686952 9.00719618,9.3924068 Z" id="Path"></path>
                    <path d="M14.8305078,9.16483918 L11.2396267,9.16483918 C10.8321137,9.16483918 10.5017795,9.51255939 10.5017795,9.94152047 C10.5017795,10.3704815 10.8321137,10.7182018 11.2396267,10.7182018 L14.8305078,10.7182018 C15.2380208,10.7182018 15.568355,10.3704815 15.568355,9.94152047 C15.568355,9.51255939 15.2380208,9.16483918 14.8305078,9.16483918 Z" id="Path"></path>
                    <path d="M22.3448177,22.8344298 L13.9096007,22.8344298 C13.5020877,22.8344298 13.1717535,23.18215 13.1717535,23.6111111 C13.1717535,24.0400722 13.5020877,24.3877924 13.9096007,24.3877924 L22.3447439,24.3877924 C22.7522569,24.3877924 23.0825911,24.0400722 23.0825911,23.6111111 C23.0825911,23.18215 22.7523307,22.8344298 22.3448177,22.8344298 Z" id="Path"></path>
                </g>
            </g>
        </g>
    </g>
</svg>