<?xml version="1.0" encoding="UTF-8"?>
<svg width="23px" height="23px" viewBox="0 0 23 23" version="1.1" xmlns="http://www.w3.org/2000/svg" xmlns:xlink="http://www.w3.org/1999/xlink">
    <title>0C7F42CF-6024-4B86-B5C2-66B7199C580C</title>
    <g id="Dizajn" stroke="none" stroke-width="1" fill="none" fill-rule="evenodd">
        <g id="Checkout---korak-2-dostava" transform="translate(-837.000000, -177.000000)" fill-rule="nonzero">
            <g id="wrapper" transform="translate(320.000000, 113.000000)">
                <g id="korak-1" transform="translate(100.000000, 60.000000)">
                    <g id="check-in-ikona" transform="translate(417.000000, 4.000000)">
                        <path d="M11.5,0 C5.15864565,0 0,5.15864565 0,11.5 C0,17.8413543 5.15864565,23 11.5,23 C17.8413543,23 23,17.8413543 23,11.5 C23,5.15864565 17.8413543,0 11.5,0 Z" id="Path" fill="#71ACD2"></path>
                        <path d="M17.3286133,9.06298828 L11.0993881,15.2920379 C10.9125061,15.47892 10.6671906,15.5729752 10.421875,15.5729752 C10.1765594,15.5729752 9.9312439,15.47892 9.74436189,15.2920379 L6.62983706,12.1775131 C6.25502016,11.8028717 6.25502016,11.1971283 6.62983706,10.8224869 C7.00447844,10.44767 7.61004639,10.44767 7.98486328,10.8224869 L10.421875,13.2594986 L15.9735871,7.70796206 C16.3482284,7.33314516 16.9537964,7.33314516 17.3286133,7.70796206 C17.7032547,8.08260344 17.7032547,8.68817139 17.3286133,9.06298828 Z" id="Path" fill="#FAFAFA"></path>
                    </g>
                </g>
            </g>
        </g>
    </g>
</svg>