<?xml version="1.0" encoding="UTF-8"?>
<svg width="25px" height="29px" viewBox="0 0 25 29" version="1.1" xmlns="http://www.w3.org/2000/svg" xmlns:xlink="http://www.w3.org/1999/xlink">
    <title>8C77D5B8-BB94-4547-9EDC-E9648907E020</title>
    <g id="Dizajn" stroke="none" stroke-width="1" fill="none" fill-rule="evenodd">
        <g id="Moj-raÄun---2B2-dashboard" transform="translate(-383.000000, -692.000000)" fill="#71ACD2" fill-rule="nonzero">
            <g id="wrapper" transform="translate(260.000000, 345.000000)">
                <g id="B2B-DIO" transform="translate(0.000000, 263.000000)">
                    <g id="checklist" transform="translate(123.000000, 84.000000)">
                        <path d="M20.1642324,8.609375 L12.0078691,8.609375 C11.695043,8.609375 11.4414629,8.86295508 11.4414629,9.17578125 C11.4414629,9.48860742 11.695043,9.7421875 12.0078691,9.7421875 L20.1642324,9.7421875 C20.4770586,9.7421875 20.7306387,9.48860742 20.7306387,9.17578125 C20.7306387,8.86295508 20.4770586,8.609375 20.1642324,8.609375 Z" id="Path"></path>
                        <path d="M18.1822637,11.4941387 C18.0769121,11.3887871 17.9307793,11.3281816 17.7818145,11.3281816 C17.6328496,11.3281816 17.4867168,11.3887871 17.3813652,11.4941387 C17.2760137,11.5994902 17.2154082,11.745623 17.2154082,11.8945879 C17.2154082,12.0435527 17.2760137,12.1896855 17.3813652,12.2950371 C17.4867168,12.4003887 17.6328496,12.4609941 17.7818145,12.4609941 C17.9307793,12.4609941 18.0769121,12.4003887 18.1822637,12.2950371 C18.2876152,12.1896855 18.3482207,12.0435527 18.3482207,11.8945879 C18.3482207,11.745623 18.2876152,11.5994902 18.1822637,11.4941387 Z" id="Path"></path>
                        <path d="M12.407752,2.60156055 C12.3024004,2.49620898 12.1562676,2.43560352 12.0073027,2.43560352 C11.8583379,2.43560352 11.7122051,2.49620898 11.6068535,2.60156055 C11.501502,2.70691211 11.4408965,2.85304492 11.4408965,3.00200977 C11.4408965,3.15097461 11.501502,3.29710742 11.6068535,3.40245898 C11.7122051,3.50781055 11.8583379,3.56841602 12.0073027,3.56841602 C12.1562676,3.56841602 12.3024004,3.50781055 12.407752,3.40245898 C12.5131035,3.29710742 12.573709,3.15097461 12.573709,3.00200977 C12.573709,2.85304492 12.5131035,2.70691211 12.407752,2.60156055 Z" id="Path"></path>
                        <path d="M15.3993398,11.328125 L12.0078691,11.328125 C11.695043,11.328125 11.4414629,11.5817051 11.4414629,11.8945312 C11.4414629,12.2073574 11.695043,12.4609375 12.0078691,12.4609375 L15.3993398,12.4609375 C15.712166,12.4609375 15.9657461,12.2073574 15.9657461,11.8945312 C15.9657461,11.5817051 15.712166,11.328125 15.3993398,11.328125 Z" id="Path"></path>
                        <path d="M20.1642324,14.7265625 L12.0078691,14.7265625 C11.695043,14.7265625 11.4414629,14.9801426 11.4414629,15.2929688 C11.4414629,15.6057949 11.695043,15.859375 12.0078691,15.859375 L20.1642324,15.859375 C20.4770586,15.859375 20.7306387,15.6057949 20.7306387,15.2929688 C20.7306387,14.9801426 20.4770586,14.7265625 20.1642324,14.7265625 Z" id="Path"></path>
                        <path d="M18.1822637,17.6113262 C18.0769121,17.5059746 17.9307793,17.4453691 17.7818145,17.4453691 C17.6328496,17.4453691 17.4867168,17.5059746 17.3813652,17.6113262 C17.2760137,17.7166777 17.2154082,17.8628105 17.2154082,18.0117754 C17.2154082,18.1607402 17.2760137,18.306873 17.3813652,18.4122246 C17.4867168,18.5175762 17.6328496,18.5781816 17.7818145,18.5781816 C17.9307793,18.5781816 18.0769121,18.5175762 18.1822637,18.4122246 C18.2876152,18.306873 18.3482207,18.1607402 18.3482207,18.0117754 C18.3482207,17.8628105 18.2876152,17.7166777 18.1822637,17.6113262 Z" id="Path"></path>
                        <path d="M15.3993398,17.4453125 L12.0078691,17.4453125 C11.695043,17.4453125 11.4414629,17.6988926 11.4414629,18.0117188 C11.4414629,18.3245449 11.695043,18.578125 12.0078691,18.578125 L15.3993398,18.578125 C15.712166,18.578125 15.9657461,18.3245449 15.9657461,18.0117188 C15.9657461,17.6988926 15.712166,17.4453125 15.3993398,17.4453125 Z" id="Path"></path>
                        <path d="M20.1642324,20.84375 L12.0078691,20.84375 C11.695043,20.84375 11.4414629,21.0973301 11.4414629,21.4101562 C11.4414629,21.7229824 11.695043,21.9765625 12.0078691,21.9765625 L20.1642324,21.9765625 C20.4770586,21.9765625 20.7306387,21.7229824 20.7306387,21.4101562 C20.7306387,21.0973301 20.4770586,20.84375 20.1642324,20.84375 Z" id="Path"></path>
                        <path d="M18.1822637,23.7285137 C18.0769121,23.6231621 17.9307793,23.5625566 17.7818145,23.5625566 C17.6328496,23.5625566 17.4867168,23.6231621 17.3813652,23.7285137 C17.2760137,23.8338652 17.2154082,23.979998 17.2154082,24.1289629 C17.2154082,24.2779277 17.2760137,24.4240605 17.3813652,24.5294121 C17.4867168,24.6347637 17.6328496,24.6953691 17.7818145,24.6953691 C17.9307793,24.6953691 18.0769121,24.6347637 18.1822637,24.5294121 C18.2876152,24.4240605 18.3482207,24.2779277 18.3482207,24.1289629 C18.3482207,23.979998 18.2876152,23.8338652 18.1822637,23.7285137 Z" id="Path"></path>
                        <path d="M15.3993398,23.5625 L12.0078691,23.5625 C11.695043,23.5625 11.4414629,23.8160801 11.4414629,24.1289062 C11.4414629,24.4417324 11.695043,24.6953125 12.0078691,24.6953125 L15.3993398,24.6953125 C15.712166,24.6953125 15.9657461,24.4417324 15.9657461,24.1289062 C15.9657461,23.8160801 15.712166,23.5625 15.3993398,23.5625 Z" id="Path"></path>
                        <path d="M21.253998,2.20904102 L16.9278438,2.20904102 C16.3024746,1.613125 15.4571133,1.24609375 14.5271309,1.24609375 L14.030959,1.24609375 C13.6516367,0.495152344 12.8723184,0 12.0078125,0 C11.1433066,0 10.3640449,0.495152344 9.98466602,1.24609375 L9.48730469,1.24609375 C8.55732227,1.24609375 7.71201758,1.613125 7.08664844,2.20904102 L2.76174023,2.20904102 C1.23895703,2.20904102 5.6640625e-05,3.44794141 5.6640625e-05,4.97072461 L5.6640625e-05,26.238373 C5.6640625e-05,27.7611562 1.23895703,29.0000566 2.76174023,29.0000566 L21.2539414,29.0000566 C22.7767246,29.0000566 24.015625,27.7611562 24.015625,26.238373 L24.015625,4.97072461 C24.015625,3.44794141 22.7767812,2.20904102 21.253998,2.20904102 Z M9.48736133,2.37890625 L10.3701621,2.37890625 C10.6249316,2.37890625 10.8483223,2.20881445 10.9161211,1.96327734 C11.051209,1.47429883 11.5001426,1.1328125 12.0078691,1.1328125 C12.5155957,1.1328125 12.9645293,1.47429883 13.0995605,1.96327734 C13.1673594,2.20881445 13.3908066,2.37890625 13.6455195,2.37890625 L14.5271309,2.37890625 C15.7565156,2.37890625 16.768457,3.32763672 16.8694473,4.53130664 L7.14504492,4.53130664 C7.24603516,3.32763672 8.2580332,2.37890625 9.48736133,2.37890625 Z M22.8828691,26.2384297 C22.8828691,27.1365801 22.1521484,27.8673008 21.253998,27.8673008 L2.76174023,27.8673008 C1.86358984,27.8673008 1.13286914,27.1365801 1.13286914,26.2384297 L1.13286914,4.97072461 C1.13286914,4.07257422 1.86358984,3.34185352 2.76174023,3.34185352 L6.29311328,3.34185352 C6.10755859,3.76733789 6.00396289,4.23643555 6.00396289,4.72954883 L6.00396289,5.09771289 C6.00396289,5.41053906 6.25754297,5.66411914 6.57036914,5.66411914 L17.4441797,5.66411914 C17.7570059,5.66411914 18.0105859,5.41053906 18.0105859,5.09771289 L18.0105859,4.72954883 C18.0105859,4.23649219 17.9069902,3.76733789 17.7214355,3.34185352 L21.253998,3.34185352 C22.1521484,3.34185352 22.8828691,4.07257422 22.8828691,4.97072461 L22.8828691,26.2384297 Z" id="Shape"></path>
                        <path d="M8.40603516,8.47321094 C8.18485352,8.2520293 7.82620508,8.2520293 7.60502344,8.4731543 L5.18295703,10.8952773 L4.43683008,10.1490938 C4.21564844,9.92796875 3.857,9.92796875 3.63576172,10.1490938 C3.41458008,10.3702754 3.41458008,10.7289238 3.63576172,10.9501621 L4.78245117,12.0968516 C4.89307031,12.2074707 5.03801367,12.262752 5.18295703,12.262752 C5.32790039,12.262752 5.47290039,12.2074707 5.58346289,12.0968516 L8.40603516,9.2742793 C8.6272168,9.05309766 8.6272168,8.69444922 8.40603516,8.47321094 Z" id="Path"></path>
                        <path d="M7.02349414,20.84375 L4.30474414,20.84375 C3.99191797,20.84375 3.73833789,21.0973301 3.73833789,21.4101562 L3.73833789,24.1289062 C3.73833789,24.4417324 3.99191797,24.6953125 4.30474414,24.6953125 L7.02349414,24.6953125 C7.33632031,24.6953125 7.58990039,24.4417324 7.58990039,24.1289062 L7.58990039,21.4101562 C7.58990039,21.0973301 7.33632031,20.84375 7.02349414,20.84375 Z M6.45708789,23.5625 L4.87115039,23.5625 L4.87115039,21.9765625 L6.45708789,21.9765625 L6.45708789,23.5625 Z" id="Shape"></path>
                        <path d="M7.02349414,14.7265625 L4.30474414,14.7265625 C3.99191797,14.7265625 3.73833789,14.9801426 3.73833789,15.2929688 L3.73833789,18.0117188 C3.73833789,18.3245449 3.99191797,18.578125 4.30474414,18.578125 L7.02349414,18.578125 C7.33632031,18.578125 7.58990039,18.3245449 7.58990039,18.0117188 L7.58990039,15.2929688 C7.58990039,14.9801426 7.33632031,14.7265625 7.02349414,14.7265625 Z M6.45708789,17.4453125 L4.87115039,17.4453125 L4.87115039,15.859375 L6.45708789,15.859375 L6.45708789,17.4453125 Z" id="Shape"></path>
                    </g>
                </g>
            </g>
        </g>
    </g>
</svg>