<?xml version="1.0" encoding="UTF-8"?>
<svg width="27px" height="30px" viewBox="0 0 27 30" version="1.1" xmlns="http://www.w3.org/2000/svg" xmlns:xlink="http://www.w3.org/1999/xlink">
    <title>Combined Shape</title>
    <defs>
        <filter id="filter-1">
            <feColorMatrix in="SourceGraphic" type="matrix" values="0 0 0 0 0.443137 0 0 0 0 0.674510 0 0 0 0 0.823529 0 0 0 1.000000 0"></feColorMatrix>
        </filter>
    </defs>
    <g id="Dizajn" stroke="none" stroke-width="1" fill="none" fill-rule="evenodd">
        <g id="Česta-pitanja" transform="translate(-383.000000, -688.000000)">
            <g id="wrapper" transform="translate(260.000000, 340.000000)">
                <g id="clipboards" transform="translate(123.000000, 348.000000)" filter="url(#filter-1)">
                    <g transform="translate(0.008966, -0.000000)">
                        <path d="M11.0344827,-7.46069873e-14 C12.5446897,-7.46069873e-14 13.8187586,1.01124138 14.2162758,2.3935862 C14.3624138,2.90165517 14.7534482,3.29268965 15.2615172,3.43875862 C15.8646896,3.61227586 16.3896551,3.95965518 16.7983449,4.41365517 L16.7983449,4.41365517 L19.8620689,4.41365517 C21.0808966,4.41365517 22.0688965,5.40172414 22.0688965,6.62055172 L22.0688965,6.62055172 L22.0689655,12.4629656 C21.7116551,12.3562759 21.3422069,12.28 20.9654483,12.2257931 L20.9654483,12.2257931 L20.9654483,6.62062069 C20.9654483,6.01220689 20.4704828,5.51717241 19.8620689,5.51717241 L19.8620689,5.51717241 L17.4645517,5.51717241 C17.5867586,5.86262069 17.6551724,6.23337931 17.6551724,6.62062069 L17.6551724,6.62062069 L17.6551724,8.82751721 L4.41386207,8.82751721 L4.41386207,6.59420689 C4.41675862,6.21668966 4.48351724,5.85455172 4.60282759,5.51717241 L4.60282759,5.51717241 L2.20682758,5.51717241 C1.59834483,5.51717241 1.10337931,6.01220689 1.10337931,6.62062069 L1.10337931,6.62062069 L1.10337931,26.4826207 C1.10337931,27.0910345 1.59834483,27.586069 2.20682758,27.586069 C4.75944828,27.586069 7.31806896,27.586 9.87406895,27.586 C9.92606892,27.4798621 9.98399998,27.3751034 10.072138,27.2868276 L10.072138,27.2868276 L14.1484138,23.1954483 C13.5754483,22.2155862 13.2413793,21.0788966 13.2413793,19.861862 C13.2413793,16.2053794 16.2055862,13.2411724 19.8620689,13.2411724 C23.5186207,13.2411724 26.4827586,16.2053794 26.4827586,19.861931 C26.4827586,22.7434482 24.6387587,25.188 22.0689655,26.0977931 L22.0689655,26.0977931 L22.0689655,26.4826896 C22.0689655,27.7015173 21.0809655,28.6895862 19.8620689,28.6895862 L19.8620689,28.6895862 L13.3485517,28.6895862 L12.415931,29.6249655 C12.2004138,29.8410345 11.9177241,29.9490345 11.6348276,29.9490345 C11.3528965,29.9490345 11.0709655,29.8417931 10.8555862,29.6268276 L10.8555862,29.6268276 L10.0742069,28.8474483 C10.0274483,28.8008276 10.0055862,28.7417241 9.96896548,28.6895172 L9.96896548,28.6895172 L2.20689655,28.6895172 C0.987999997,28.6895172 -1.76925141e-12,27.7014483 -1.76925141e-12,26.4826207 L-1.76925141e-12,26.4826207 L-1.76925141e-12,6.62062069 C-1.76925141e-12,5.4017931 0.987999997,4.41372414 2.20689655,4.41372414 L2.20689655,4.41372414 L5.27048276,4.41372414 C5.67882759,3.96 6.20331034,3.61296551 6.8057931,3.43931035 C7.31448276,3.29275862 7.70648276,2.9022069 7.85282758,2.39351724 C8.25034482,1.01124138 9.52427584,-7.46069873e-14 11.0344827,-7.46069873e-14 Z M14.7898621,24.1135862 L10.8541379,28.0653793 L11.6348276,28.8455862 L15.5683449,24.8957931 C15.288069,24.6565518 15.0267587,24.395931 14.7898621,24.1135862 L14.7898621,24.1135862 Z M16.4817931,25.5470344 L14.4488276,27.586069 L14.4488276,27.586069 L19.8620689,27.586069 C20.4705517,27.586069 20.9655173,27.0910345 20.9655173,26.4826207 L20.9655173,26.4826207 L20.9655173,26.3833104 C20.605931,26.4437931 20.2388965,26.4825517 19.8620689,26.4825517 C18.6254483,26.4825517 17.4721379,26.1372414 16.4817931,25.5470344 L16.4817931,25.5470344 Z M19.8620689,14.3446207 C16.8198621,14.3446207 14.3448276,16.8196552 14.3448276,19.861862 C14.3448276,22.9040689 16.8198621,25.3791034 19.8620689,25.3791034 C22.9042758,25.3791034 25.3793103,22.9040689 25.3793103,19.861862 C25.3793103,16.8196552 22.9042758,14.3446207 19.8620689,14.3446207 Z M24.2424827,19.8622759 C24.2424827,22.2997931 22.2663448,24.2757931 19.8286897,24.2757931 L19.8286897,24.2757931 L19.8286897,23.1723448 C21.6539311,23.1723448 23.1390345,21.6874482 23.1390345,19.8622759 L23.1390345,19.8622759 Z M11.0344828,20.9655172 L11.0344828,22.0689655 L4.4137931,22.0689655 L4.4137931,20.9655172 L11.0344828,20.9655172 Z M12.4632414,17.6549655 C12.3564827,18.0122069 12.2803449,18.3817241 12.226069,18.7584138 L12.226069,18.7584138 L4.4137931,18.7584138 L4.4137931,17.6549655 Z M14.4665517,14.3446207 C14.1216551,14.682 13.8095862,15.0516551 13.5322758,15.448069 L13.5322758,15.448069 L4.4137931,15.448069 L4.4137931,14.3446207 Z M17.6551725,11.0344827 L17.6551725,12.137931 L4.4137931,12.137931 L4.4137931,11.0344827 L17.6551725,11.0344827 Z M11.0344827,1.10344827 C10.0555862,1.10344827 9.18331031,1.75931035 8.91310348,2.69862069 C8.66137931,3.5737931 7.9877931,4.24717241 7.11124138,4.49972414 C6.18034482,4.768 5.52489655,5.63282758 5.51731034,6.60289655 L5.51731034,6.60289655 L5.51731034,7.724 L16.5516551,7.724 L16.5516551,6.62055172 C16.5516551,5.6417931 15.8956552,4.76944827 14.9564828,4.49931034 C14.0807586,4.24751724 13.4075862,3.57434483 13.1557241,2.69862069 C12.8856551,1.75931035 12.0133793,1.10344827 11.0344827,1.10344827 Z M11.0510345,2.42799189 C11.5383446,2.42799189 11.9333875,2.82303476 11.9333875,3.31034483 C11.9333875,3.7976549 11.5383446,4.19269777 11.0510345,4.19269777 C10.5637244,4.19269777 10.1686816,3.7976549 10.1686816,3.31034483 C10.1686816,2.82303476 10.5637244,2.42799189 11.0510345,2.42799189 Z" id="Combined-Shape" fill="#71ACD2" fill-rule="nonzero"></path>
                    </g>
                </g>
            </g>
        </g>
    </g>
</svg>