<?xml version="1.0" encoding="UTF-8"?>
<svg width="17px" height="17px" viewBox="0 0 17 17" version="1.1" xmlns="http://www.w3.org/2000/svg" xmlns:xlink="http://www.w3.org/1999/xlink">
    <title>D4059E5E-6A95-4630-8E88-F256EF6517BD</title>
    <g id="Dizajn" stroke="none" stroke-width="1" fill="none" fill-rule="evenodd">
        <g id="PoÄetna---r1" transform="translate(-331.000000, -8113.000000)" fill="#71ACD2" fill-rule="nonzero">
            <g id="Footer" transform="translate(260.000000, 7921.000000)">
                <g id="user-support" transform="translate(70.000000, 67.000000)">
                    <g id="radno-vrijeme" transform="translate(1.000000, 123.000000)">
                        <g id="clock" transform="translate(0.000000, 2.000000)">
                            <path d="M8.5,0 C10.4141947,0 12.2889608,0.651957172 13.7787781,1.83602904 C14.0852152,2.0793457 14.1362305,2.52516681 13.892568,2.83125814 C13.6489055,3.13752239 13.2025655,3.18853762 12.8973389,2.94487507 C11.6389059,1.94514974 10.1184794,1.41666667 8.5,1.41666667 C4.5943095,1.41666667 1.41666667,4.5943095 1.41666667,8.5 C1.41666667,12.4056905 4.5943095,15.5833333 8.5,15.5833333 C12.4056905,15.5833333 15.5833333,12.4056905 15.5833333,8.5 C15.5833333,7.41657512 15.3474528,6.38036093 14.8820902,5.41902669 C14.7117513,5.06710814 14.8590902,4.64342246 15.2111816,4.47308347 C15.5620626,4.30239869 15.9871318,4.44939167 16.1571249,4.80217488 C16.71639,5.9566752 17,7.20127358 17,8.5 C17,13.1866557 13.1866557,17 8.5,17 C3.81334433,17 -1.25825276e-15,13.1866557 -1.25825276e-15,8.5 C-1.25825276e-15,3.81334433 3.81334433,0 8.5,0 Z M8.5,2.83333333 C8.89100137,2.83333333 9.20833333,3.15066529 9.20833333,3.54166667 L9.20833333,3.54166667 L9.20833333,7.79166667 L12.0416667,7.79166667 C12.432668,7.79166667 12.75,8.10899863 12.75,8.5 C12.75,8.89100137 12.432668,9.20833333 12.0416667,9.20833333 L12.0416667,9.20833333 L8.5,9.20833333 C8.10899863,9.20833333 7.79166667,8.89100137 7.79166667,8.5 L7.79166667,8.5 L7.79166667,3.54166667 C7.79166667,3.15066529 8.10899863,2.83333333 8.5,2.83333333 Z" id="Combined-Shape"></path>
                        </g>
                    </g>
                </g>
            </g>
        </g>
    </g>
</svg>