<?xml version="1.0" encoding="UTF-8"?>
<svg width="18px" height="18px" viewBox="0 0 18 18" version="1.1" xmlns="http://www.w3.org/2000/svg" xmlns:xlink="http://www.w3.org/1999/xlink">
    <title>color-circle</title>
    <g id="Dizajn" stroke="none" stroke-width="1" fill="none" fill-rule="evenodd">
        <g id="Kategorije-proizvoda---3.-razina-filter-v2" transform="translate(-294.000000, -978.000000)" fill-rule="nonzero">
            <g id="grid-i-footer" transform="translate(0.000000, 424.000000)">
                <g id="Grid-proizvoda" transform="translate(220.000000, 41.000000)">
                    <g id="Grid-proizvoda" transform="translate(0.000000, 74.000000)">
                        <g id="color-circle" transform="translate(74.000000, 439.000000)">
                            <path d="M18,9 L15.0967742,9 C15.0967742,7.31583871 14.4145161,5.79164516 13.3112903,4.68841935 L15.363871,2.63612903 C16.9925806,4.26454839 18,6.51454839 18,9 Z" id="Path" fill="#F6BB42"></path>
                            <path d="M15.0967742,9 L18,9 C18,11.4822581 16.9954839,13.7322581 15.363871,15.3606774 L13.3112903,13.311 C14.4145161,12.2080645 15.0967742,10.683871 15.0967742,9 Z" id="Path" fill="#8CC152"></path>
                            <path d="M15.363871,15.3606774 L15.363871,15.363871 C13.7351613,16.9922903 11.4880645,18 9,18 L9,15.0967742 C10.683871,15.0967742 12.2080645,14.4142258 13.3112903,13.3112903 L15.363871,15.3606774 Z" id="Path" fill="#37BC9B"></path>
                            <path d="M15.363871,2.63612903 L13.3112903,4.68841935 C12.2080645,3.58548387 10.683871,2.90322581 9,2.90322581 L9,0 C11.4880645,0 13.7351613,1.00741935 15.363871,2.63612903 Z" id="Path" fill="#E9573F"></path>
                            <path d="M15.0967742,9 L12.1964516,9 L12.1935484,9 C12.1935484,8.11741935 11.8364516,7.31903226 11.2587097,6.74129032 L13.311,4.68870968 C14.4145161,5.79164516 15.0967742,7.31583871 15.0967742,9 Z" id="Path" fill="#FFCE54"></path>
                            <path d="M11.2587097,11.2584194 L13.311,13.311 C12.2080645,14.4142258 10.683871,15.0967742 9,15.0967742 L9,12.1935484 C9.88258065,12.1935484 10.6809677,11.8364516 11.2587097,11.2584194 L11.2587097,11.2584194 Z" id="Path" fill="#48CFAD"></path>
                            <path d="M9,15.0967742 L9,18 C6.51483871,18 4.26483871,16.9922903 2.63612903,15.363871 L4.68870968,13.3112903 C5.79193548,14.4142258 7.31903226,15.0967742 9,15.0967742 Z" id="Path" fill="#4A89DC"></path>
                            <path d="M9,12.1935484 L9,15.0967742 C7.31903226,15.0967742 5.79193548,14.4142258 4.68870968,13.3112903 L6.741,11.2587097 C7.31903226,11.8364516 8.12032258,12.1935484 9,12.1935484 L9,12.1935484 Z" id="Path" fill="#5D9CEC"></path>
                            <path d="M9,2.90322581 L9,5.80645161 C8.12032258,5.80645161 7.32193548,6.16325806 6.74419355,6.74129032 L6.74129032,6.74129032 L4.689,4.68870968 C5.79193548,3.58548387 7.31903226,2.90322581 9,2.90322581 Z" id="Path" fill="#ED5565"></path>
                            <path d="M4.68870968,13.3112903 L2.63612903,15.363871 C1.00741935,13.7351613 -5.15716502e-16,11.4851613 -5.15716502e-16,9 L2.90322581,9 C2.90322581,10.683871 3.58548387,12.2080645 4.68870968,13.3112903 Z" id="Path" fill="#967ADC"></path>
                            <path d="M12.1964516,9 L15.0967742,9 C15.0967742,10.683871 14.4145161,12.2080645 13.3112903,13.3112903 L11.259,11.2587097 C11.8364516,10.6809677 12.1935484,9.8793871 12.1935484,9 L12.1964516,9 Z" id="Path" fill="#A0D468"></path>
                            <path d="M4.68870968,4.68841935 L6.741,6.741 C6.16354839,7.31903226 5.80645161,8.11741935 5.80645161,9 L2.90322581,9 C2.90322581,7.31583871 3.58548387,5.79164516 4.68870968,4.68841935 Z" id="Path" fill="#EC87C0"></path>
                            <path d="M6.74129032,11.2584194 L4.689,13.311 C3.58548387,12.2080645 2.90322581,10.683871 2.90322581,9 L5.80645161,9 C5.80645161,9.8793871 6.16354839,10.6809677 6.74129032,11.2584194 L6.74129032,11.2584194 Z" id="Path" fill="#AC92EC"></path>
                            <path d="M2.63612903,2.63612903 L4.68870968,4.68841935 C3.58548387,5.79164516 2.90322581,7.31583871 2.90322581,9 L-5.15716502e-16,9 C-5.15716502e-16,6.51454839 1.00741935,4.26454839 2.63612903,2.63612903 Z" id="Path" fill="#D770AD"></path>
                            <path d="M13.3112903,4.68841935 L11.259,6.741 C10.6809677,6.16325806 9.88258065,5.80645161 9,5.80645161 L9,2.90322581 C10.683871,2.90322581 12.2080645,3.58548387 13.3112903,4.68841935 Z" id="Path" fill="#FC6E51"></path>
                            <path d="M9,0 L9,2.90322581 C7.31903226,2.90322581 5.79193548,3.58548387 4.68870968,4.68841935 L2.63612903,2.63612903 C4.26483871,1.00741935 6.51483871,0 9,0 Z" id="Path" fill="#DA4453"></path>
                        </g>
                    </g>
                </g>
            </g>
        </g>
    </g>
</svg>