<?xml version="1.0" encoding="UTF-8"?>
<svg width="14px" height="17px" viewBox="0 0 14 17" version="1.1" xmlns="http://www.w3.org/2000/svg" xmlns:xlink="http://www.w3.org/1999/xlink">
    <title>A14FC210-0045-4483-B623-888C2CFEE63E</title>
    <g id="Dizajn" stroke="none" stroke-width="1" fill="none" fill-rule="evenodd">
        <g id="Uvjeti-kupnje" transform="translate(-580.000000, -3473.000000)" fill="#062648" fill-rule="nonzero">
            <g id="wrapper" transform="translate(260.000000, 340.000000)">
                <g id="Group-5" transform="translate(120.000000, 3092.000000)">
                    <g id="Socials" transform="translate(0.000000, 26.000000)">
                        <g id="youtube-copy" transform="translate(184.000000, 0.000000)">
                            <g id="copy" transform="translate(16.000000, 15.000000)">
                                <path d="M9.25613497,2.96891616 C9.99314928,2.96891616 10.5945808,3.57034765 10.5980573,4.31083845 L10.5980573,4.31083845 L10.5980573,15.6337423 C10.5980573,16.3742331 9.99662577,16.9756646 9.25613497,16.9756646 L9.25613497,16.9756646 L1.36451943,16.9756646 C0.62402863,16.9756646 0.0225971371,16.3742331 0.0225971371,15.6337423 L0.0225971371,15.6337423 L0.0225971371,4.31083845 C0.0225971371,3.57034765 0.62402863,2.96891616 1.36451943,2.96891616 L1.36451943,2.96891616 Z M9.25265849,3.90756646 L1.36104294,3.90756646 C1.13854806,3.90756646 0.957770961,4.08834356 0.957770961,4.31083845 L0.957770961,4.31083845 L0.957770961,15.6302658 C0.957770961,15.8527607 1.13854806,16.0335378 1.36104294,16.0335378 L1.36104294,16.0335378 L9.25265849,16.0335378 C9.47515337,16.0335378 9.65593047,15.8527607 9.65593047,15.6302658 L9.65593047,15.6302658 L9.65593047,4.31083845 C9.65593047,4.08834356 9.47515337,3.90756646 9.25265849,3.90756646 L9.25265849,3.90756646 Z M12.2737219,3.46389584e-14 C13.0142127,3.46389584e-14 13.6156442,0.601431493 13.6156442,1.34192229 L13.6156442,1.34192229 L13.6156442,12.6648262 C13.6156442,13.405317 13.0142127,14.0067485 12.2737219,14.0067485 C12.0129857,14.0067485 11.8043967,13.7981595 11.8043967,13.5374233 C11.8043967,13.2766871 12.0129857,13.0680982 12.2737219,13.0680982 C12.4962168,13.0680982 12.6769939,12.8873211 12.6769939,12.6648262 L12.6769939,12.6648262 L12.6769939,1.34192229 C12.6769939,1.1194274 12.4962168,0.938650307 12.2737219,0.938650307 L12.2737219,0.938650307 L4.38210634,0.938650307 C4.15961145,0.938650307 3.97883436,1.1194274 3.97883436,1.34192229 C3.97883436,1.60265849 3.7702454,1.81124744 3.5095092,1.81124744 C3.24877301,1.81124744 3.04018405,1.60265849 3.04018405,1.34192229 C3.04018405,0.601431493 3.64161554,3.46389584e-14 4.38210634,3.46389584e-14 L4.38210634,3.46389584e-14 Z" id="Combined-Shape"></path>
                            </g>
                        </g>
                    </g>
                </g>
            </g>
        </g>
    </g>
</svg>