<?xml version="1.0" encoding="UTF-8"?>
<svg width="40px" height="40px" viewBox="0 0 40 40" version="1.1" xmlns="http://www.w3.org/2000/svg" xmlns:xlink="http://www.w3.org/1999/xlink">
    <title>FCFC61E9-2D3F-4022-AA5C-F7EC51406610</title>
    <g id="Dizajn" stroke="none" stroke-width="1" fill="none" fill-rule="evenodd">
        <g id="Moj-raÄun---dashboard" transform="translate(-1341.000000, -399.000000)" fill="#71ACD2" fill-rule="nonzero">
            <g id="wrapper" transform="translate(260.000000, 324.000000)">
                <g id="tabovi" transform="translate(551.000000, 40.000000)">
                    <g id="kkuponi-za-popust" transform="translate(372.000000, 0.000000)">
                        <g id="coupons" transform="translate(158.000000, 35.000000)">
                            <path d="M39.8287964,12.1682739 L37.843628,9.68658445 L39.2773437,8.43627929 C39.6026611,8.15277101 39.6365356,7.65930172 39.3527221,7.33428953 L33.1918335,0.267944375 C33.0557251,0.111389141 32.862854,0.0158691407 32.6559448,0.00183105469 C32.4490356,-0.0122070313 32.2451783,0.0564575 32.0889283,0.192871093 L27.6019288,4.11346437 L22.65625,0.170288125 C22.3187256,-0.0985717969 21.8270875,-0.0430297656 21.5582275,0.294189453 L15.4394531,7.96875 L3.90625,7.96875 C3.66882328,7.96875 3.44451907,8.07647703 3.2962036,8.26202391 L0.171203593,12.1682739 C0.0604248437,12.3068237 4.73695157e-15,12.4789429 4.73695157e-15,12.65625 L4.73695157e-15,39.21875 C4.73695157e-15,39.6502685 0.349731407,39.9999955 0.78125,39.9999955 L39.21875,39.9999955 C39.6502685,39.9999955 40,39.6502685 40,39.21875 L40,12.65625 C40,12.4789429 39.9395752,12.3068237 39.8287964,12.1682739 Z M32.5280761,1.88415531 L37.6617431,7.7722168 L25.7873535,18.125 L13.9395141,18.125 L32.5280761,1.88415531 Z M22.2930908,1.87896727 L26.4059448,5.15838625 L11.5649414,18.125 L9.34051516,18.125 L22.2930908,1.87896727 Z M1.5625,12.9302978 L4.2819214,9.53125 L14.1937256,9.53125 L8.04107664,17.2485352 L6.02111812,15.2285767 C5.87463375,15.0823975 5.67596437,15 5.46875,15 L1.5625,15 L1.5625,12.9302978 Z M38.4375,38.4375 L1.5625,38.4375 L1.5625,19.6875 L3.58245852,19.6875 L6.47888188,22.5836181 C6.62536625,22.7301025 6.82403563,22.8125 7.03125,22.8125 L32.96875,22.8125 C33.1759644,22.8125 33.3746337,22.7301025 33.5211181,22.5836181 L36.4175415,19.6875 L38.4375,19.6875 L38.4375,38.4375 Z M38.4375,18.125 L36.09375,18.125 C35.8865356,18.125 35.6878663,18.2073975 35.5413819,18.3538819 L32.6452637,21.25 L7.35504148,21.25 L4.45861812,18.3538819 C4.31213375,18.2073975 4.11346437,18.125 3.90625,18.125 L1.5625,18.125 L1.5625,16.5625 L5.14495852,16.5625 L8.04138188,19.4586181 C8.18786625,19.6051025 8.38653563,19.6875 8.59375,19.6875 L31.40625,19.6875 C31.6134644,19.6875 31.8121337,19.6051025 31.9586181,19.4586181 L34.8550415,16.5625 L38.4375,16.5625 L38.4375,18.125 Z M38.4375,15 L34.53125,15 C34.3240356,15 34.1253663,15.0823975 33.9788819,15.2288819 L31.0827637,18.125 L28.164978,18.125 L36.6647339,10.7144165 L38.4375,12.9302978 L38.4375,15 Z" id="Shape"></path>
                            <path d="M28.8647461,11.6000366 C28.8500976,11.8078613 28.9178467,12.0092773 29.0545655,12.1664429 C29.203186,12.3367309 29.4180297,12.4343872 29.6444703,12.4343872 C29.8327637,12.4343872 30.0149536,12.3657227 30.1571656,12.2421265 L34.868164,8.13446047 C35.1931763,7.85156251 35.2267456,7.35717773 34.9438476,7.03216555 C34.7955321,6.86187743 34.5806884,6.76483156 34.3548584,6.76483156 C34.1665649,6.76483156 33.9837647,6.83288579 33.8415528,6.95709227 L29.1305543,11.064148 C28.9733887,11.201477 28.8787843,11.3912964 28.8647461,11.6000366 L28.8647461,11.6000366 Z" id="Path"></path>
                            <path d="M32.2427368,6.02294921 C32.4249267,6.02294921 32.6080321,5.95947265 32.7560425,5.83007812 L32.8149415,5.7788086 C33.1399536,5.49499516 33.1735229,5.00183109 32.8897095,4.67651367 C32.605896,4.35150148 32.1124267,4.31793211 31.7874145,4.60174563 L31.7285156,4.65301516 C31.4035035,4.9368286 31.369934,5.43029781 31.6537476,5.75531008 C31.8081665,5.93231203 32.0248413,6.02294921 32.2427368,6.02294921 Z" id="Path"></path>
                            <path d="M27.5906372,10.0787353 C27.7728272,10.0787353 27.9556275,10.015564 28.1036376,9.88647461 L30.4003907,7.88421633 C30.7254028,7.60070797 30.7592773,7.1069336 30.4757691,6.7819214 C30.1922608,6.45660399 29.6987915,6.42272953 29.3734741,6.70654297 L27.0770264,8.70880125 C26.7517089,8.99230953 26.7178344,9.48577883 27.0013428,9.81109617 C27.1560669,9.98809812 27.3727417,10.0787353 27.5906372,10.0787353 L27.5906372,10.0787353 Z" id="Path"></path>
                            <path d="M15.0387573,25.2655029 C14.7106933,24.9850464 14.2175293,25.0238037 13.937378,25.3518676 L6.59362797,33.9456176 C6.3131714,34.2736816 6.35192875,34.7668457 6.67999265,35.0469971 C6.82708743,35.1727295 7.00744625,35.2343749 7.18688969,35.2343749 C7.40753172,35.2343749 7.62664797,35.1416016 7.78137203,34.9606324 L15.125122,26.3668824 C15.4055785,26.0388184 15.3668212,25.5456543 15.0387573,25.2655029 L15.0387573,25.2655029 Z" id="Path"></path>
                            <path d="M9.375,27.4218749 C9.375,26.1294556 8.32366945,25.0781251 7.03125,25.0781251 C5.73883055,25.0781251 4.6875,26.1294556 4.6875,27.4218749 C4.6875,28.7142944 5.73883055,29.7656251 7.03125,29.7656251 C8.32366945,29.7656251 9.375,28.7142944 9.375,27.4218749 Z M6.25,27.4218749 C6.25,26.9909668 6.6003418,26.6406251 7.03125,26.6406251 C7.4621582,26.6406251 7.8125,26.9909668 7.8125,27.4218749 C7.8125,27.852478 7.4621582,28.2031251 7.03125,28.2031251 C6.6003418,28.2031251 6.25,27.852478 6.25,27.4218749 Z" id="Shape"></path>
                            <path d="M14.7656251,30.5468749 C13.4732056,30.5468749 12.421875,31.5982056 12.421875,32.8906251 C12.421875,34.1830444 13.4732056,35.2343749 14.7656251,35.2343749 C16.0580444,35.2343749 17.1093749,34.1830444 17.1093749,32.8906251 C17.1093749,31.5982056 16.0580444,30.5468749 14.7656251,30.5468749 Z M14.7656251,33.6718749 C14.3347168,33.6718749 13.9843749,33.321228 13.9843749,32.8906251 C13.9843749,32.4597168 14.3347168,32.1093749 14.7656251,32.1093749 C15.1965332,32.1093749 15.5468749,32.4597168 15.5468749,32.8906251 C15.5468749,33.321228 15.1965332,33.6718749 14.7656251,33.6718749 Z" id="Shape"></path>
                            <path d="M34.4531251,26.7968749 L21.1718749,26.7968749 C20.7403564,26.7968749 20.3906251,27.1466064 20.3906251,27.5781251 C20.3906251,28.0096436 20.7403564,28.3593749 21.1718749,28.3593749 L34.4531251,28.3593749 C34.8846436,28.3593749 35.2343749,28.0096436 35.2343749,27.5781251 C35.2343749,27.1466064 34.8846436,26.7968749 34.4531251,26.7968749 Z" id="Path"></path>
                            <path d="M24.21875,31.4843749 C24.6502685,31.4843749 25,31.1346436 25,30.7031251 C25,30.2716064 24.6502685,29.9218749 24.21875,29.9218749 L21.1718749,29.9218749 C20.7403564,29.9218749 20.3906251,30.2716064 20.3906251,30.7031251 C20.3906251,31.1346436 20.7403564,31.4843749 21.1718749,31.4843749 L24.21875,31.4843749 Z" id="Path"></path>
                            <path d="M34.4531251,29.9218749 L27.34375,29.9218749 C26.9122315,29.9218749 26.5625,30.2716064 26.5625,30.7031251 C26.5625,31.1346436 26.9122315,31.4843749 27.34375,31.4843749 L34.4531251,31.4843749 C34.8846436,31.4843749 35.2343749,31.1346436 35.2343749,30.7031251 C35.2343749,30.2716064 34.8846436,29.9218749 34.4531251,29.9218749 Z" id="Path"></path>
                            <path d="M34.4531251,33.0468749 L32.1093749,33.0468749 C31.6781616,33.0468749 31.3281251,33.397522 31.3281251,33.8281251 C31.3281251,34.2584228 31.6781616,34.6093749 32.1093749,34.6093749 L34.4531251,34.6093749 C34.883728,34.6093749 35.2343749,34.2584228 35.2343749,33.8281251 C35.2343749,33.397522 34.883728,33.0468749 34.4531251,33.0468749 Z" id="Path"></path>
                            <path d="M28.9843749,33.0468749 C28.5531616,33.0468749 28.2031251,33.397522 28.2031251,33.8281251 C28.2031251,34.2584228 28.5531616,34.6093749 28.9843749,34.6093749 C29.414978,34.6093749 29.7656251,34.2584228 29.7656251,33.8281251 C29.7656251,33.397522 29.414978,33.0468749 28.9843749,33.0468749 Z" id="Path"></path>
                            <path d="M25.8593749,33.0468749 L21.1718749,33.0468749 C20.741272,33.0468749 20.3906251,33.397522 20.3906251,33.8281251 C20.3906251,34.2584228 20.741272,34.6093749 21.1718749,34.6093749 L25.8593749,34.6093749 C26.289978,34.6093749 26.6406251,34.2584228 26.6406251,33.8281251 C26.6406251,33.397522 26.289978,33.0468749 25.8593749,33.0468749 Z" id="Path"></path>
                        </g>
                    </g>
                </g>
            </g>
        </g>
    </g>
</svg>