<?xml version="1.0" encoding="UTF-8"?>
<svg width="16px" height="20px" viewBox="0 0 16 20" version="1.1" xmlns="http://www.w3.org/2000/svg" xmlns:xlink="http://www.w3.org/1999/xlink">
    <title>A74040CB-57C5-47C4-A264-AB11247EF872</title>
    <g id="Dizajn" stroke="none" stroke-width="1" fill="none" fill-rule="evenodd">
        <g id="Brza-narudžba" transform="translate(-1091.000000, -645.000000)" fill="#CC2936" fill-rule="nonzero">
            <g id="Proizvodi" transform="translate(260.000000, 551.000000)">
                <g id="Proizvod" transform="translate(0.000000, 64.000000)">
                    <g id="Delete" transform="translate(831.000000, 30.000000)">
                        <path d="M10.7157781,7.1332853 C10.4610951,7.1332853 10.254683,7.33969743 10.254683,7.5943804 L10.254683,16.3090778 C10.254683,16.5635807 10.4610951,16.7701729 10.7157781,16.7701729 C10.9704611,16.7701729 11.1768732,16.5635807 11.1768732,16.3090778 L11.1768732,7.5943804 C11.1768732,7.33969743 10.9704611,7.1332853 10.7157781,7.1332853 Z" id="Path"></path>
                        <path d="M5.27485593,7.1332853 C5.02017291,7.1332853 4.81376083,7.33969743 4.81376083,7.5943804 L4.81376083,16.3090778 C4.81376083,16.5635807 5.02017291,16.7701729 5.27485593,16.7701729 C5.5295389,16.7701729 5.73595103,16.5635807 5.73595103,16.3090778 L5.73595103,7.5943804 C5.73595103,7.33969743 5.5295389,7.1332853 5.27485593,7.1332853 Z" id="Path"></path>
                        <path d="M1.30943806,5.86149137 L1.30943806,17.221902 C1.30943806,17.8933718 1.55565561,18.5239553 1.98577088,18.9764049 C2.41390488,19.4301153 3.00972625,19.6876801 3.6332853,19.6887608 L12.3573487,19.6887608 C12.9810879,19.6876801 13.5769092,19.4301153 14.0048631,18.9764049 C14.4349784,18.5239553 14.681196,17.8933718 14.681196,17.221902 L14.681196,5.86149137 C15.5362032,5.63454612 16.0902377,4.80853745 15.9758645,3.93119594 C15.8613113,3.05403458 15.114013,2.39787463 14.2292867,2.39769452 L11.8685159,2.39769452 L11.8685159,1.82132565 C11.8712176,1.33663544 11.6795749,0.871217568 11.3364553,0.528818444 C10.9933357,0.186599424 10.5271974,-0.00396253602 10.0425072,-6.05841145e-05 L5.9481268,-6.05841145e-05 C5.46343659,-0.00396253602 4.99729826,0.186599424 4.65417867,0.528818444 C4.31105909,0.871217568 4.11941644,1.33663544 4.12211818,1.82132565 L4.12211818,2.39769452 L1.76134727,2.39769452 C0.876621049,2.39787463 0.12932279,3.05403458 0.0147694294,3.93119594 C-0.0996037349,4.80853745 0.454430847,5.63454612 1.30943806,5.86149137 Z M12.3573487,18.7665706 L3.6332853,18.7665706 C2.84492076,18.7665706 2.23162827,18.0893372 2.23162827,17.221902 L2.23162827,5.90201729 L13.7590058,5.90201729 L13.7590058,17.221902 C13.7590058,18.0893372 13.1457132,18.7665706 12.3573487,18.7665706 Z M5.04430838,1.82132565 C5.04124639,1.581232 5.13562679,1.35014409 5.30601586,1.18065563 C5.47622478,1.01116717 5.707853,0.918047539 5.9481268,0.922190202 L10.0425072,0.922190202 C10.282781,0.918047539 10.5144092,1.01116717 10.6846181,1.18065563 C10.8550072,1.34996399 10.9493876,1.581232 10.9463257,1.82132565 L10.9463257,2.39769452 L5.04430838,2.39769452 L5.04430838,1.82132565 Z M1.76134727,3.31988473 L14.2292867,3.31988473 C14.6876801,3.31988473 15.0592579,3.69146255 15.0592579,4.14985591 C15.0592579,4.60824927 14.6876801,4.97982709 14.2292867,4.97982709 L1.76134727,4.97982709 C1.30295387,4.97982709 0.931376092,4.60824927 0.931376092,4.14985591 C0.931376092,3.69146255 1.30295387,3.31988473 1.76134727,3.31988473 Z" id="Shape"></path>
                        <path d="M7.99531703,7.1332853 C7.74063401,7.1332853 7.53422193,7.33969743 7.53422193,7.5943804 L7.53422193,16.3090778 C7.53422193,16.5635807 7.74063401,16.7701729 7.99531703,16.7701729 C8.25,16.7701729 8.45641213,16.5635807 8.45641213,16.3090778 L8.45641213,7.5943804 C8.45641213,7.33969743 8.25,7.1332853 7.99531703,7.1332853 Z" id="Path"></path>
                    </g>
                </g>
            </g>
        </g>
    </g>
</svg>