<?xml version="1.0" encoding="UTF-8"?>
<svg width="27px" height="33px" viewBox="0 0 27 33" version="1.1" xmlns="http://www.w3.org/2000/svg" xmlns:xlink="http://www.w3.org/1999/xlink">
    <title>659DF065-F08B-46AA-B4DF-3EF7C2787826</title>
    <g id="Dizajn" stroke="none" stroke-width="1" fill="none" fill-rule="evenodd">
        <g id="Moj-raÄun---2B2-dashboard" transform="translate(-382.000000, -625.000000)" fill="#71ACD2" fill-rule="nonzero">
            <g id="wrapper" transform="translate(260.000000, 345.000000)">
                <g id="B2B-DIO" transform="translate(0.000000, 263.000000)">
                    <g id="document" transform="translate(122.000000, 17.000000)">
                        <path d="M23.045449,0 L2.41169388,0 C1.07975213,0 0,1.07975213 0,2.41169388 L0,30.5883061 C0,31.9202479 1.07975213,33 2.41169388,33 L23.045449,33 C24.3773907,33 25.4571429,31.9202479 25.4571429,30.5883061 L25.4571429,2.41169388 C25.4571429,1.07975213 24.3773907,0 23.045449,0 L23.045449,0 Z M24.6489796,30.5883061 C24.6489796,31.4739116 23.9310545,32.1918367 23.045449,32.1918367 L2.41169388,32.1918367 C1.52608837,32.1918367 0.808163265,31.4739116 0.808163265,30.5883061 L0.808163265,2.41169388 C0.808163265,1.52608837 1.52608837,0.808163265 2.41169388,0.808163265 L23.045449,0.808163265 C23.9310545,0.808163265 24.6489796,1.52608837 24.6489796,2.41169388 L24.6489796,30.5883061 Z" id="Shape"></path>
                        <path d="M1.95306122,3.51146939 C1.7298931,3.51146939 1.54897959,3.6923829 1.54897959,3.91555102 L1.54897959,4.33714286 C1.54897959,4.56031098 1.7298931,4.74122449 1.95306122,4.74122449 C2.17622935,4.74122449 2.35714286,4.56031098 2.35714286,4.33714286 L2.35714286,3.91555102 C2.35714286,3.6923829 2.17622935,3.51146939 1.95306122,3.51146939 Z" id="Path"></path>
                        <path d="M1.95306122,5.20457143 C1.7298931,5.20457143 1.54897959,5.38548494 1.54897959,5.60865306 L1.54897959,14.1751837 C1.54897959,14.3983518 1.7298931,14.5792653 1.95306122,14.5792653 C2.17622935,14.5792653 2.35714286,14.3983518 2.35714286,14.1751837 L2.35714286,5.60865306 C2.35714286,5.38548494 2.17622935,5.20457143 1.95306122,5.20457143 Z" id="Path"></path>
                        <path d="M20.3133857,15.6840245 L19.4232612,16.5353571 L19.0634939,16.1753878 C18.961951,16.0709421 18.8120513,16.0292349 18.6711559,16.066226 C18.5302605,16.1032172 18.4201808,16.2131802 18.3830402,16.3540363 C18.3458997,16.4948923 18.3874478,16.6448362 18.4917857,16.7464898 L19.1309082,17.3862857 C19.2861372,17.5418773 19.5372589,17.5448694 19.696151,17.3930204 L20.8719612,16.2683265 C20.9773827,16.168793 21.0213994,16.020409 20.9873059,15.8794897 C20.9532124,15.7385704 20.8462349,15.6267174 20.7069739,15.5863815 C20.5677129,15.5460456 20.4175157,15.58341 20.3133857,15.6842939 L20.3133857,15.6840245 Z" id="Path"></path>
                        <path d="M19.6855102,13.8101633 C18.1789394,13.8099773 16.9574717,15.0311435 16.9572858,16.5377143 C16.9570998,18.0442851 18.178266,19.2657528 19.6848367,19.2659387 C21.1914075,19.2661247 22.4128752,18.0449585 22.4130612,16.5383878 C22.4113918,15.0325859 21.1913116,13.8122045 19.6855102,13.8101633 Z M19.6855102,18.4577755 C18.9089929,18.4579117 18.208867,17.9902358 17.9116438,17.2728533 C17.6144205,16.5554709 17.7786426,15.7296815 18.3277233,15.1806008 C18.876804,14.6315202 19.7025934,14.4672981 20.4199758,14.7645213 C21.1373582,15.0617446 21.6050342,15.7618704 21.604898,16.5383878 C21.6034882,17.5978518 20.7449743,18.4563657 19.6855102,18.4577755 Z" id="Shape"></path>
                        <path d="M15.5679184,17.8469388 L9.72691837,17.8469388 C9.50375024,17.8469388 9.32283673,18.0278523 9.32283673,18.2510204 C9.32283673,18.4741885 9.50375024,18.655102 9.72691837,18.655102 L15.5679184,18.655102 C15.7910865,18.655102 15.972,18.4741885 15.972,18.2510204 C15.972,18.0278523 15.7910865,17.8469388 15.5679184,17.8469388 L15.5679184,17.8469388 Z" id="Path"></path>
                        <path d="M9.72691837,20.0020408 L13.662,20.0020408 C13.8851681,20.0020408 14.0660816,19.8211273 14.0660816,19.5979592 C14.0660816,19.3747911 13.8851681,19.1938776 13.662,19.1938776 L9.72691837,19.1938776 C9.50375024,19.1938776 9.32283673,19.3747911 9.32283673,19.5979592 C9.32283673,19.8211273 9.50375024,20.0020408 9.72691837,20.0020408 L9.72691837,20.0020408 Z" id="Path"></path>
                        <path d="M6.57373469,17.2408163 L6.23100612,17.2408163 C7.01606939,16.9714286 7.61020408,16.2524327 7.61020408,15.3806939 L7.61020408,14.6567143 C7.60577657,14.5491517 7.59321415,14.4420786 7.57262449,14.3364122 C7.41910409,13.3709662 6.58622872,12.6605574 5.60865306,12.661224 L4.03744898,12.661224 C3.81115785,12.6711058 3.63367953,12.859024 3.63673469,13.0855102 L3.63673469,15.3806939 C3.63936095,16.2265712 4.18298684,16.9758574 4.9863,17.2408163 L4.64357143,17.2408163 C3.75523149,17.247385 3.03681008,17.9661064 3.03061224,18.854449 L3.03061224,19.9912653 C3.03610063,20.2191162 3.22028164,20.4021089 3.44816327,20.4061224 L7.76914286,20.4061224 C7.99226327,20.4061224 8.14897959,20.2143857 8.14897959,19.9912653 L8.14897959,18.854449 C8.14897959,17.9724735 7.4557102,17.2408163 6.57373469,17.2408163 Z M4.44489796,13.4693878 L5.60865306,13.4693878 C6.06074915,13.4715118 6.47111124,13.7340722 6.66249796,14.1436653 L6.63037347,14.1606367 C6.42883531,14.2347937 6.20427626,14.2110512 6.02270204,14.0963878 C5.72230547,13.9018973 5.36176135,13.82247 5.00744694,13.8727286 L4.44489796,13.9530061 L4.44489796,13.4693878 Z M4.44489796,15.3806939 L4.44489796,14.7691837 L5.11978163,14.6744265 C5.28203678,14.6513901 5.4471409,14.6879762 5.58447551,14.7774 C5.83034299,14.9335992 6.1156278,15.0165075 6.40691633,15.0164143 C6.54021512,15.015695 6.67293559,14.9988251 6.80217551,14.9661735 L6.80217551,15.3807612 C6.80217551,16.0316682 6.27451109,16.5593326 5.62360408,16.5593326 C4.97269707,16.5593326 4.44503267,16.0316682 4.44503265,15.3807612 L4.44489796,15.3806939 Z M7.34081633,19.5979592 L3.83877551,19.5979592 L3.83877551,18.854449 C3.84446419,18.4122398 4.20136718,18.0550382 4.64357143,18.0489796 L6.57373469,18.0489796 C7.01007551,18.0489796 7.34081633,18.4181082 7.34081633,18.854449 L7.34081633,19.5979592 Z" id="Shape"></path>
                        <path d="M7.34957143,4.5122449 L7.06125918,4.5122449 C7.0498102,4.5122449 7.03883265,4.4857102 7.02718163,4.47405918 C6.47097909,3.9195514 5.63617195,3.75332212 4.9099856,4.05247682 C4.18379925,4.35163151 3.70831317,5.05764009 3.70408163,5.84302041 L3.70408163,6.50773469 C3.70901581,7.32949551 4.22080413,8.06288013 4.99040816,8.35102041 L4.71361224,8.35102041 C4.30165493,8.34744091 3.90554874,8.50960151 3.61436662,8.80103694 C3.3231845,9.09247238 3.1613684,9.48871942 3.16530612,9.90067347 L3.16530612,11.3668163 C3.16530612,11.5900041 3.32336939,11.7857143 3.5464898,11.7857143 L7.76577551,11.7857143 C7.98896327,11.7857143 8.14897959,11.5900041 8.14897959,11.3668163 L8.14897959,9.90067347 C8.15246416,9.48850455 7.99022399,9.09221377 7.69870283,8.80081924 C7.40718166,8.50942472 7.01082043,8.34735676 6.59865306,8.35102041 L6.31909592,8.35102041 C6.88042162,8.14139005 7.31532145,7.68694751 7.50009184,7.1169551 C8.1862635,7.03531516 8.6903067,6.43363515 8.6504412,5.74377475 C8.6105757,5.05391434 8.04057969,4.51430067 7.34957143,4.5122449 Z M5.65646939,4.71293599 C5.9513499,4.71228183 6.23464267,4.82770368 6.44510204,5.03425102 C6.29814582,4.98184205 6.13413079,5.01952793 6.0247898,5.13082653 C5.6266454,5.52969868 5.09196861,5.76261789 4.5287449,5.78254286 C4.56123656,5.18322965 5.05627654,4.71370292 5.65646939,4.71293599 L5.65646939,4.71293599 Z M6.59865306,9.15918367 C6.79654462,9.15526595 6.98749827,9.23210595 7.12751967,9.37200028 C7.26754107,9.51189462 7.34455439,9.70277844 7.34081633,9.90067347 L7.34081633,10.977551 L3.97346939,10.977551 L3.97346939,9.90067347 C3.96928892,9.70300106 4.04588016,9.51216828 4.18555975,9.37223449 C4.32523935,9.23230069 4.51593256,9.15536262 4.71361224,9.15918367 L6.59865306,9.15918367 Z M6.80204082,6.65704286 C6.72101602,7.23233928 6.22042508,7.65474521 5.63969674,7.63784571 C5.0589684,7.62094621 4.58378825,7.17014482 4.5363551,6.5911102 C5.12730019,6.57499348 5.70064955,6.3865066 6.18588367,6.04883265 C6.38657755,6.35189388 6.61084286,6.49877755 6.79874082,6.5648449 C6.79719184,6.59535306 6.80183878,6.62592857 6.80183878,6.65643673 L6.80204082,6.65704286 Z M7.61020408,6.24151224 L7.61020408,5.84302041 C7.6075716,5.67706386 7.58376281,5.51212235 7.5393551,5.35219592 C7.72878671,5.42656195 7.85405207,5.6085432 7.85588571,5.81204082 C7.85110538,5.98731469 7.75887029,6.14854912 7.61020408,6.24151224 L7.61020408,6.24151224 Z" id="Shape"></path>
                        <path d="M15.5679184,9.15918367 L9.72691837,9.15918367 C9.50375024,9.15918367 9.32283673,9.34009718 9.32283673,9.56326531 C9.32283673,9.78643343 9.50375024,9.96734694 9.72691837,9.96734694 L15.5679184,9.96734694 C15.7910865,9.96734694 15.972,9.78643343 15.972,9.56326531 C15.972,9.34009718 15.7910865,9.15918367 15.5679184,9.15918367 L15.5679184,9.15918367 Z" id="Path"></path>
                        <path d="M9.72691837,11.3142857 L13.662,11.3142857 C13.8851681,11.3142857 14.0660816,11.1333722 14.0660816,10.9102041 C14.0660816,10.687036 13.8851681,10.5061224 13.662,10.5061224 L9.72691837,10.5061224 C9.50375024,10.5061224 9.32283673,10.687036 9.32283673,10.9102041 C9.32283673,11.1333722 9.50375024,11.3142857 9.72691837,11.3142857 L9.72691837,11.3142857 Z" id="Path"></path>
                        <path d="M15.5679184,16.5 L9.72691837,16.5 C9.50375024,16.5 9.32283673,16.6809135 9.32283673,16.9040816 C9.32283673,17.1272498 9.50375024,17.3081633 9.72691837,17.3081633 L15.5679184,17.3081633 C15.7910865,17.3081633 15.972,17.1272498 15.972,16.9040816 C15.972,16.6809135 15.7910865,16.5 15.5679184,16.5 L15.5679184,16.5 Z" id="Path"></path>
                        <path d="M15.5679184,7.8122449 L9.72691837,7.8122449 C9.50375024,7.8122449 9.32283673,7.99315841 9.32283673,8.21632653 C9.32283673,8.43949465 9.50375024,8.62040816 9.72691837,8.62040816 L15.5679184,8.62040816 C15.7910865,8.62040816 15.972,8.43949465 15.972,8.21632653 C15.972,7.99315841 15.7910865,7.8122449 15.5679184,7.8122449 L15.5679184,7.8122449 Z" id="Path"></path>
                        <path d="M20.3133857,6.98347347 L19.4232612,7.83487347 L19.0634939,7.47483673 C18.9617459,7.37132315 18.8122964,7.33033308 18.6719762,7.36745371 C18.5316559,7.40457434 18.4220248,7.51410216 18.3847719,7.65438735 C18.347519,7.79467254 18.3883681,7.94416059 18.4917857,8.04600612 L19.1309082,8.68580204 C19.2862294,8.84129861 19.5373499,8.84414103 19.696151,8.6922 L20.8719612,7.56750612 C20.9773827,7.46797263 21.0213994,7.31958857 20.9873059,7.17866929 C20.9532124,7.03775002 20.8462349,6.92589696 20.7069739,6.88556108 C20.5677129,6.8452252 20.4175157,6.88258956 20.3133857,6.98347347 L20.3133857,6.98347347 Z" id="Path"></path>
                        <path d="M19.6855102,5.10961224 C18.1789394,5.10942628 16.9574717,6.33059246 16.9572858,7.83716325 C16.9570998,9.34373404 18.178266,10.5652017 19.6848367,10.5653877 C21.1914075,10.5655737 22.4128752,9.34440752 22.4130612,7.83783673 C22.4113547,6.33205023 21.1912962,5.11169048 19.6855102,5.10961224 L19.6855102,5.10961224 Z M19.6855102,9.75722452 C18.9089929,9.75736069 18.208867,9.28968475 17.9116438,8.57230232 C17.6144205,7.85491989 17.7786426,7.02913051 18.3277233,6.48004982 C18.876804,5.93096913 19.7025934,5.76674706 20.4199758,6.0639703 C21.1373582,6.36119354 21.6050342,7.06131939 21.604898,7.83783673 C21.6034882,8.89730081 20.7449743,9.75581469 19.6855102,9.75722452 L19.6855102,9.75722452 Z" id="Shape"></path>
                        <path d="M19.6855102,22.5107143 C18.1789394,22.5105283 16.9574717,23.7316945 16.9572858,25.2382653 C16.9570998,26.7448361 18.178266,27.9663038 19.6848367,27.9664898 C21.1914075,27.9666757 22.4128752,26.7455096 22.4130612,25.2389388 C22.4113547,23.7331523 21.1912962,22.5127925 19.6855102,22.5107143 L19.6855102,22.5107143 Z M19.6855102,27.1583266 C18.9089929,27.1584627 18.208867,26.6907868 17.9116438,25.9734044 C17.6144205,25.2560219 17.7786426,24.4302326 18.3277233,23.8811519 C18.876804,23.3320712 19.7025934,23.1678491 20.4199758,23.4650723 C21.1373582,23.7622956 21.6050342,24.4624214 21.604898,25.2389388 C21.6034882,26.2984029 20.7449743,27.1569167 19.6855102,27.1583266 L19.6855102,27.1583266 Z" id="Shape"></path>
                        <path d="M15.5679184,26.6020408 L9.72691837,26.6020408 C9.50375024,26.6020408 9.32283673,26.7829543 9.32283673,27.0061224 C9.32283673,27.2292906 9.50375024,27.4102041 9.72691837,27.4102041 L15.5679184,27.4102041 C15.7910865,27.4102041 15.972,27.2292906 15.972,27.0061224 C15.972,26.7829543 15.7910865,26.6020408 15.5679184,26.6020408 L15.5679184,26.6020408 Z" id="Path"></path>
                        <path d="M13.662,27.9489796 L9.72691837,27.9489796 C9.50375024,27.9489796 9.32283673,28.1298931 9.32283673,28.3530612 C9.32283673,28.5762293 9.50375024,28.7571429 9.72691837,28.7571429 L13.662,28.7571429 C13.8851681,28.7571429 14.0660816,28.5762293 14.0660816,28.3530612 C14.0660816,28.1298931 13.8851681,27.9489796 13.662,27.9489796 L13.662,27.9489796 Z" id="Path"></path>
                        <path d="M6.57373469,25.9285714 L6.23100612,25.9285714 C7.01606939,25.7265306 7.61020408,24.953051 7.61020408,24.0812449 L7.61020408,23.3572653 C7.60580337,23.247443 7.59319679,23.1381035 7.5724898,23.0301612 C7.41946671,22.0635899 6.58725991,21.3511627 5.60865306,21.3489796 L4.03744898,21.3489796 C3.81432857,21.3489796 3.63673469,21.5629408 3.63673469,21.7860612 L3.63673469,24.0812449 C3.63673469,24.953051 4.20123673,25.7265306 4.9863,25.9285714 L4.64357143,25.9285714 C3.75278684,25.941171 3.0358037,26.6641414 3.03061224,27.555 L3.03061224,28.6911429 C3.03712588,28.9165957 3.22262221,29.0955099 3.44816327,29.0938886 L7.76914286,29.0938886 C7.87368392,29.0931525 7.97338526,29.0497252 8.04511504,28.9736713 C8.11684482,28.8976174 8.1543683,28.7955475 8.14897959,28.6911429 L8.14897959,27.555 C8.14897959,26.6730918 7.4557102,25.9285714 6.57373469,25.9285714 Z M4.44489796,22.1571429 L5.60865306,22.1571429 C6.06177466,22.1618689 6.47180036,22.4267203 6.66243061,22.8378184 L6.63212449,22.857349 C6.43050019,22.9333511 6.20490484,22.9104151 6.02270204,22.7953898 C5.72228185,22.6009808 5.36167839,22.5218035 5.00744694,22.5724714 L4.44489796,22.6534898 L4.44489796,22.1571429 Z M4.44489796,24.0812449 L4.44489796,23.4696 L5.11978163,23.3748429 C5.28204693,23.3517764 5.44716909,23.3883905 5.58447551,23.4778837 C5.83054714,23.6341818 6.11607596,23.7170931 6.4075898,23.716898 C6.54067944,23.7161799 6.67318529,23.6992406 6.80217551,23.6664551 L6.80217551,24.0812449 C6.80217551,24.7321519 6.27451111,25.2598163 5.62360408,25.2598163 C4.97269706,25.2598163 4.44503265,24.7321519 4.44503265,24.0812449 L4.44489796,24.0812449 Z M7.34081633,28.2857143 L3.83877551,28.2857143 L3.83877551,27.555 C3.84346356,27.1102511 4.19896163,26.7488033 4.64357143,26.7367347 L6.57373469,26.7367347 C7.01007551,26.7367347 7.34081633,27.1187265 7.34081633,27.555 L7.34081633,28.2857143 Z" id="Shape"></path>
                        <path d="M15.5679184,25.255102 L9.72691837,25.255102 C9.50375024,25.255102 9.32283673,25.4360156 9.32283673,25.6591837 C9.32283673,25.8823518 9.50375024,26.0632653 9.72691837,26.0632653 L15.5679184,26.0632653 C15.7910865,26.0632653 15.972,25.8823518 15.972,25.6591837 C15.972,25.4360156 15.7910865,25.255102 15.5679184,25.255102 L15.5679184,25.255102 Z" id="Path"></path>
                    </g>
                </g>
            </g>
        </g>
    </g>
</svg>