<?xml version="1.0" encoding="UTF-8"?>
<svg width="21px" height="21px" viewBox="0 0 21 21" version="1.1" xmlns="http://www.w3.org/2000/svg" xmlns:xlink="http://www.w3.org/1999/xlink">
    <title>55CD96A0-316B-4E2F-B811-25532FB287C5</title>
    <g id="Dizajn" stroke="none" stroke-width="1" fill="none" fill-rule="evenodd" opacity="0.6">
        <g id="PoÄetna---r1" transform="translate(-462.000000, -106.000000)" fill="#FFFFFF" fill-rule="nonzero">
            <g id="Primarni-izbornik" transform="translate(0.000000, 86.000000)">
                <g id="door-(1)" transform="translate(462.000000, 20.000000)">
                    <path d="M13.8405367,10.9046653 L12.5823061,10.9046653 C12.3507078,10.9046653 12.1628959,11.0924772 12.1628959,11.3240755 C12.1628959,11.5556738 12.3507078,11.7434857 12.5823061,11.7434857 L13.8405367,11.7434857 C14.0721351,11.7434857 14.2599469,11.5556738 14.2599469,11.3240755 C14.2599469,11.0924772 14.0721351,10.9046653 13.8405367,10.9046653 Z" id="Path"></path>
                    <path d="M20.5511,20.1316898 L17.6152286,20.1316898 L17.6152286,0.419410204 C17.6152286,0.187769949 17.4274167,0 17.1958184,0 L3.77469184,0 C3.54305158,0 3.35528164,0.187769949 3.35528164,0.419410204 L3.35528164,20.1316898 L0.419410204,20.1316898 C0.187769949,20.1316898 0,20.3195017 0,20.5511 C0,20.7826983 0.187769949,20.9705102 0.419410204,20.9705102 L20.5511,20.9705102 C20.7826983,20.9705102 20.9705102,20.7826983 20.9705102,20.5511 C20.9705102,20.3195017 20.7826983,20.1316898 20.5511,20.1316898 Z M5.87174286,20.1316898 L5.87174286,2.51646123 L15.0987674,2.51646123 L15.0987674,20.1316898 L5.87174286,20.1316898 Z M15.9375878,20.1316898 L15.9375878,2.09705102 C15.9375878,1.86541077 15.7497759,1.67764082 15.5181776,1.67764082 L5.45233266,1.67764082 C5.2206924,1.67764082 5.03292245,1.86541077 5.03292245,2.09705102 L5.03292245,20.1316898 L4.19410204,20.1316898 L4.19410204,0.838820409 L16.7764082,0.838820409 L16.7764082,20.1316898 L15.9375878,20.1316898 Z" id="Shape"></path>
                </g>
            </g>
        </g>
    </g>
</svg>