<?xml version="1.0" encoding="UTF-8"?>
<svg width="18px" height="18px" viewBox="0 0 18 18" version="1.1" xmlns="http://www.w3.org/2000/svg" xmlns:xlink="http://www.w3.org/1999/xlink">
    <title>835DD599-974F-432D-9108-971E87869B02</title>
    <g id="Dizajn" stroke="none" stroke-width="1" fill="none" fill-rule="evenodd">
        <g id="Materijali-za-preuzimanje" transform="translate(-525.000000, -1012.000000)" fill="#71ACD2" fill-rule="nonzero">
            <g id="Prvi-red" transform="translate(260.000000, 380.000000)">
                <g id="gumb" transform="translate(51.000000, 615.000000)">
                    <g id="preuzmi" transform="translate(178.000000, 0.000000)">
                        <g id="Download-inactive" transform="translate(36.000000, 17.000000)">
                            <path d="M9,18 C4.03720095,18 0,13.9627991 0,9 C0,4.03720095 4.03720095,0 9,0 C13.9627991,0 18,4.03720095 18,9 C18,13.9627991 13.9627991,18 9,18 Z M9,1.125 C4.65751649,1.125 1.125,4.65751649 1.125,9 C1.125,13.3424834 4.65751649,16.875 9,16.875 C13.3424834,16.875 16.875,13.3424834 16.875,9 C16.875,4.65751649 13.3424834,1.125 9,1.125 Z" id="Shape"></path>
                            <path d="M9,14.2499542 C8.68949894,14.2499542 8.4375,13.9979552 8.4375,13.6874542 L8.4375,4.31254579 C8.4375,4.0020447 8.68949894,3.75004579 9,3.75004579 C9.31050108,3.75004579 9.5625,4.0020447 9.5625,4.31254579 L9.5625,13.6874542 C9.5625,13.9979552 9.31050108,14.2499542 9,14.2499542 Z" id="Path"></path>
                            <path d="M9,14.2499542 C8.85594174,14.2499542 8.71202086,14.1952972 8.60243228,14.085022 L5.60247802,11.0850677 C5.38275146,10.8652038 5.38275146,10.5089721 5.60247802,10.2892456 C5.82220459,10.069519 6.1784363,10.069519 6.39830018,10.2892456 L9.00068661,12.8917695 L11.6032105,10.2892456 C11.8229369,10.069519 12.1793061,10.069519 12.3990326,10.2892456 C12.6187592,10.5089721 12.6187592,10.8652038 12.3990326,11.0850677 L9.39894102,14.085022 C9.28797912,14.1952972 9.14405823,14.2499542 9,14.2499542 Z" id="Path"></path>
                        </g>
                    </g>
                </g>
            </g>
        </g>
    </g>
</svg>