<?xml version="1.0" encoding="UTF-8"?>
<svg width="20px" height="20px" viewBox="0 0 20 20" version="1.1" xmlns="http://www.w3.org/2000/svg" xmlns:xlink="http://www.w3.org/1999/xlink">
    <title>3EC7B25C-F936-40D1-9509-0845FF69DD46</title>
    <g id="Dizajn" stroke="none" stroke-width="1" fill="none" fill-rule="evenodd">
        <g id="Detalji-proizvoda" transform="translate(-865.000000, -1095.000000)" fill-rule="nonzero">
            <g id="Dokumenti-za-preuzimanje" transform="translate(260.000000, 1025.000000)">
                <g id="hover" transform="translate(0.000000, 53.000000)">
                    <g id="download-hover" transform="translate(605.000000, 17.000000)">
                        <path d="M10,20 C4.48577883,20 0,15.5142212 0,10 C0,4.48577883 4.48577883,0 10,0 C15.5142212,0 20,4.48577883 20,10 C20,15.5142212 15.5142212,20 10,20 Z M10,1.25 C5.17501832,1.25 1.25,5.17501832 1.25,10 C1.25,14.8249816 5.17501832,18.75 10,18.75 C14.8249816,18.75 18.75,14.8249816 18.75,10 C18.75,5.17501832 14.8249816,1.25 10,1.25 Z" id="Shape" fill="#00B5BD"></path>
                        <circle id="Oval" fill="#1661A2" cx="10" cy="10" r="10"></circle>
                        <path d="M10,15.8332825 C9.65499882,15.8332825 9.375,15.5532836 9.375,15.2082825 L9.375,4.79171754 C9.375,4.44671633 9.65499882,4.16671754 10,4.16671754 C10.3450012,4.16671754 10.625,4.44671633 10.625,4.79171754 L10.625,15.2082825 C10.625,15.5532836 10.3450012,15.8332825 10,15.8332825 Z" id="Path" fill="#FFFFFF"></path>
                        <path d="M10,15.8332825 C9.83993527,15.8332825 9.68002318,15.7725525 9.55825809,15.6500245 L6.22497558,12.3167419 C5.98083496,12.0724487 5.98083496,11.6766357 6.22497558,11.4324951 C6.46911621,11.1883545 6.86492922,11.1883545 7.10922242,11.4324951 L10.0007629,14.3241883 L12.8924561,11.4324951 C13.1365966,11.1883545 13.5325623,11.1883545 13.7767029,11.4324951 C14.0208435,11.6766357 14.0208435,12.0724487 13.7767029,12.3167419 L10.4432678,15.6500245 C10.3199768,15.7725525 10.1600647,15.8332825 10,15.8332825 Z" id="Path" fill="#FFFFFF"></path>
                    </g>
                </g>
            </g>
        </g>
    </g>
</svg>