<?xml version="1.0" encoding="UTF-8"?>
<svg width="9px" height="6px" viewBox="0 0 9 6" version="1.1" xmlns="http://www.w3.org/2000/svg" xmlns:xlink="http://www.w3.org/1999/xlink">
    <title>BC065F40-7418-4F41-A4F9-B357CAE55DBF</title>
    <g id="Dizajn" stroke="none" stroke-width="1" fill="none" fill-rule="evenodd">
        <g id="PoÄetna---r1" transform="translate(-386.000000, -169.000000)" fill="#71ACD2" fill-rule="nonzero">
            <g id="Sekundarni-izbornik" transform="translate(262.000000, 163.000000)">
                <g id="right-arrow-(1)-copy-3" transform="translate(128.857724, 8.642276) rotate(90.000000) translate(-128.857724, -8.642276) translate(125.857724, 3.142276)">
                    <path d="M5.58013008,5.68786992 L2.02,2.12780488 C1.93765854,2.04539837 1.82773984,2 1.71053659,2 C1.59333333,2 1.48341463,2.04539837 1.40107317,2.12780488 L1.13889431,2.3899187 C0.968292683,2.56071545 0.968292683,2.83830894 1.13889431,3.00884553 L4.12842276,5.99837398 L1.13557724,8.99121951 C1.05323577,9.07362602 1.00777236,9.18347967 1.00777236,9.30061789 C1.00777236,9.41788618 1.05323577,9.52773984 1.13557724,9.61021138 L1.3977561,9.87226016 C1.4801626,9.95466667 1.59001626,10.000065 1.70721951,10.000065 C1.82442276,10.000065 1.93434146,9.95466667 2.01668293,9.87226016 L5.58013008,6.30894309 C5.66266667,6.22627642 5.708,6.11590244 5.70774095,5.99856911 C5.708,5.88078049 5.66266667,5.77047154 5.58013008,5.68786992 Z" id="Path"></path>
                </g>
            </g>
        </g>
    </g>
</svg>