<?xml version="1.0" encoding="UTF-8"?>
<svg width="18px" height="13px" viewBox="0 0 18 13" version="1.1" xmlns="http://www.w3.org/2000/svg" xmlns:xlink="http://www.w3.org/1999/xlink">
    <title>D630965C-ECB5-42FF-AE31-2F7D4A69A631</title>
    <g id="Dizajn" stroke="none" stroke-width="1" fill="none" fill-rule="evenodd">
        <g id="Uvjeti-kupnje" transform="translate(-533.000000, -3475.000000)" fill="#062648" fill-rule="nonzero">
            <g id="wrapper" transform="translate(260.000000, 340.000000)">
                <g id="Group-5" transform="translate(120.000000, 3092.000000)">
                    <g id="Socials" transform="translate(0.000000, 26.000000)">
                        <g id="youtube" transform="translate(138.000000, 0.000000)">
                            <g id="email" transform="translate(15.000000, 17.000000)">
                                <path d="M15.5666667,0 L1.5,0 C0.673933333,0 0,0.6732 0,1.5 L0,11.5 C0,12.324 0.670933333,13 1.5,13 L15.5666667,13 C16.3906667,13 17.0666667,12.3290667 17.0666667,11.5 L17.0666667,1.5 C17.0666667,0.676 16.3957333,0 15.5666667,0 Z M15.3595333,1 L8.56513333,7.79443333 L1.71196667,1 L15.3595333,1 Z M1,11.2929333 L1,1.7023 L5.81596667,6.47696667 L1,11.2929333 Z M1.7071,12 L6.5261,7.181 L8.21466667,8.85506667 C8.41013333,9.04886667 8.72556667,9.04823333 8.92023333,8.85353333 L10.5666667,7.2071 L15.3595667,12 L1.7071,12 Z M16.0666667,11.2929 L11.2737667,6.5 L16.0666667,1.70706667 L16.0666667,11.2929 Z" id="Shape"></path>
                            </g>
                        </g>
                    </g>
                </g>
            </g>
        </g>
    </g>
</svg>