<?xml version="1.0" encoding="UTF-8"?>
<svg width="32px" height="32px" viewBox="0 0 32 32" version="1.1" xmlns="http://www.w3.org/2000/svg" xmlns:xlink="http://www.w3.org/1999/xlink">
    <title>Combined Shape</title>
    <defs>
        <filter id="filter-1">
            <feColorMatrix in="SourceGraphic" type="matrix" values="0 0 0 0 0.443137 0 0 0 0 0.674510 0 0 0 0 0.823529 0 0 0 1.000000 0"></feColorMatrix>
        </filter>
    </defs>
    <g id="Dizajn" stroke="none" stroke-width="1" fill="none" fill-rule="evenodd">
        <g id="Česta-pitanja" transform="translate(-381.000000, -555.000000)">
            <g id="wrapper" transform="translate(260.000000, 340.000000)">
                <g id="exchange-(1)" transform="translate(121.000000, 215.000000)" filter="url(#filter-1)">
                    <g transform="translate(0.000030, 0.031250)">
                        <path d="M18.5750191,0.0769371319 C18.7619099,-0.0256457106 18.9885181,-0.0256457106 19.175409,0.0769371319 L19.175409,0.0769371319 L31.6140054,6.90710284 C31.8135669,7.01650828 31.9375922,7.22630359 31.9375922,7.45388646 L31.9375922,7.45388646 L31.9375922,11.7889254 C31.9375922,12.1334673 31.6583524,12.4127071 31.3138105,12.4127071 C30.9692685,12.4127071 30.6900288,12.1334673 30.6900288,11.7889254 L30.6900288,11.7889254 L30.6900288,8.50798 L27.1064518,10.4755726 L27.1064518,14.3717714 C27.1064518,14.5991106 26.9829138,14.8084187 26.783596,14.9180678 L26.783596,14.9180678 L24.1181477,16.3851729 C24.0243368,16.4368299 23.9207793,16.4624147 23.8174655,16.4624147 C23.7075727,16.4624147 23.5979236,16.4334186 23.4999703,16.3756701 C23.3101555,16.2635843 23.1936838,16.0593933 23.1936838,15.838633 L23.1936838,15.838633 L23.1936838,12.6242081 L19.500945,14.6519858 L19.500945,26.888828 L30.6900288,20.7448221 L30.6900288,16.7789351 C30.6900288,16.4343932 30.9692685,16.1551535 31.3138105,16.1551535 C31.6583524,16.1551535 31.9375922,16.4343932 31.9375922,16.7789351 L31.9375922,16.7789351 L31.9375922,21.1139741 C31.9375922,21.3415569 31.8135669,21.5511087 31.6140054,21.6607578 L31.6140054,21.6607578 L19.175409,28.4906799 C19.0820853,28.5420931 18.9785279,28.5676778 18.875214,28.5676778 C18.7719001,28.5676778 18.6685863,28.5420931 18.5750191,28.4906799 L18.5750191,28.4906799 L15.8871535,27.0148026 C15.4785279,27.9312257 14.9010424,28.7743056 14.170292,29.505056 C12.5767247,31.0986233 10.45075,31.9375609 8.29602297,31.9375609 C7.06088648,31.9375609 5.81673446,31.6622198 4.65713406,31.0954556 C4.34743618,30.9443836 4.21926858,30.5708455 4.37058434,30.2611476 C4.52165647,29.9516934 4.89519447,29.8232822 5.20464869,29.974598 C7.9095707,31.2962353 11.1578651,30.7531068 13.287982,28.6229897 C14.620097,27.2908747 15.3537715,25.5199196 15.3537715,23.6361477 C15.3537715,21.7523757 14.620097,19.9814205 13.2882257,18.6495492 C11.9561107,17.3174342 10.1851555,16.5837597 8.30138357,16.5837597 C6.41761163,16.5837597 4.64665652,17.3174342 3.31454149,18.6495492 C1.1844245,20.7796662 0.641295864,24.0279605 1.96293329,26.7328826 C2.11400542,27.0423367 1.9858378,27.4158748 1.67613994,27.5671905 C1.36668571,27.7185063 0.993147718,27.5900951 0.842075592,27.2806408 C-0.713479964,24.0971613 -0.0743473951,20.2740619 2.43247521,17.767483 C3.39421981,16.8054946 4.55089623,16.1093446 5.81307948,15.7146076 L5.81307948,15.7146076 L5.81307948,7.45388646 C5.81307948,7.22605994 5.93710487,7.01650828 6.13666622,6.90710284 L6.13666622,6.90710284 L13.6188787,2.79842834 C13.6953895,2.7270346 13.7877384,2.67732699 13.8866663,2.65125486 L13.8866663,2.65125486 Z M3.35109117,28.6624635 C3.57258244,28.9263523 3.53920033,29.3203582 3.27555514,29.5420931 C3.15835236,29.6405336 3.01580852,29.6887793 2.87399568,29.6887793 C2.73208535,29.6887793 2.59095474,29.6404362 2.47717697,29.5461203 L2.39616913,29.4653387 C2.17443426,29.2016934 2.20854732,28.8084187 2.47219252,28.5866837 C2.73583777,28.3647051 3.12935631,28.3988182 3.35109117,28.6624635 Z M5.76288458,20.2009625 C6.00654929,19.9575414 6.40152978,19.9575414 6.64495085,20.2009625 C6.88861557,20.4446272 6.88861557,20.8396077 6.64495085,21.0832724 L6.64495085,21.0832724 L6.21293326,21.5155336 L9.89958048,21.5155336 C11.4816955,21.5155336 12.7689761,22.8025707 12.7689761,24.3846857 C12.7689761,25.9668006 11.4816955,27.2538377 9.89958048,27.2538377 L9.89958048,27.2538377 L7.71512629,27.2538377 C7.37058434,27.2538377 7.09134461,26.974598 7.09134461,26.6302997 C7.09134461,26.2857578 7.37058434,26.006518 7.71512629,26.006518 L7.71512629,26.006518 L9.89958048,26.006518 C10.79383,26.006518 11.5214128,25.2789351 11.5214128,24.3846857 C11.5214128,23.4904361 10.79383,22.7628533 9.89958048,22.7628533 L9.89958048,22.7628533 L6.21293326,22.7628533 L6.64495085,23.1951145 C6.88861557,23.4387793 6.88861557,23.8337597 6.64495085,24.0774245 C6.52336215,24.1990131 6.36351809,24.2599293 6.20391768,24.2599293 C6.04431734,24.2599293 5.88471693,24.1990131 5.76288458,24.0771808 L5.76288458,24.0771808 L4.26580855,22.5803484 C4.02238748,22.3366837 4.02238748,21.9417032 4.26580855,21.6980385 L4.26580855,21.6980385 Z M7.06064283,8.50798 L7.06064283,15.428058 C7.46780659,15.3673855 7.8820366,15.3364401 8.30138357,15.3364401 C10.5182452,15.3364401 12.6025532,16.1997442 14.170292,17.767483 C15.7377871,19.3349781 16.6010912,21.419286 16.6010912,23.6361477 C16.6010912,24.3856604 16.5021633,25.1200657 16.3108865,25.8242568 L16.3108865,25.8242568 L18.2536253,26.8910209 L18.2536253,14.6541788 L7.06064283,8.50798 Z M31.3138105,13.6571028 C31.4777968,13.6571028 31.6388593,13.723867 31.7548436,13.8398513 C31.870828,13.9558358 31.9375922,14.1166545 31.9375922,14.2808845 C31.9375922,14.4448709 31.870828,14.6056896 31.7548436,14.721674 C31.6388593,14.8379021 31.4777968,14.9044225 31.3138105,14.9044225 C31.1498241,14.9044225 30.9887617,14.8379021 30.8727774,14.721674 C30.7567929,14.6056896 30.6900288,14.4448709 30.6900288,14.2808845 C30.6900288,14.1166545 30.7567929,13.9558358 30.8727774,13.8398513 C30.9887617,13.723867 31.1498241,13.6571028 31.3138105,13.6571028 Z M25.8591321,11.1607578 L24.4412471,11.9392666 L24.4412471,14.7835648 L25.8591321,14.0031068 L25.8591321,11.1607578 Z M11.3764323,5.45291181 L7.73267015,7.45388646 L18.875214,13.5723075 L22.5192199,11.5713329 L11.3764323,5.45291181 Z M14.0642978,3.97703457 L12.672485,4.74141083 L23.8150288,10.8598319 L25.2070853,10.0954556 L14.0642978,3.97703457 Z M18.875214,1.33522173 L15.3603505,3.26528995 L26.5028943,9.38395466 L30.0177578,7.45388646 L18.875214,1.33522173 Z" id="Combined-Shape" fill="#71ACD2" fill-rule="nonzero"></path>
                    </g>
                </g>
            </g>
        </g>
    </g>
</svg>