<?xml version="1.0" encoding="UTF-8"?>
<svg width="8px" height="14px" viewBox="0 0 8 14" version="1.1" xmlns="http://www.w3.org/2000/svg" xmlns:xlink="http://www.w3.org/1999/xlink">
    <title>425F3EF7-BDF5-45C6-A8A8-B497BCB44224</title>
    <g id="Dizajn" stroke="none" stroke-width="1" fill="none" fill-rule="evenodd">
        <g id="Uvjeti-kupnje" transform="translate(-399.000000, -3475.000000)" fill="#062648" fill-rule="nonzero">
            <g id="wrapper" transform="translate(260.000000, 340.000000)">
                <g id="Group-5" transform="translate(120.000000, 3092.000000)">
                    <g id="Socials" transform="translate(0.000000, 26.000000)">
                        <g id="Path" transform="translate(19.000000, 17.000000)">
                            <path d="M7.2182268,0.00288659794 L5.41915464,0 C3.39795876,0 2.0917732,1.34010309 2.0917732,3.41426804 L2.0917732,4.98847422 L0.282886598,4.98847422 C0.12657732,4.98847422 0,5.11519587 0,5.27150515 L0,7.55235051 C0,7.7086598 0.126721649,7.83523711 0.282886598,7.83523711 L2.0917732,7.83523711 L2.0917732,13.590536 C2.0917732,13.7468453 2.21835051,13.8734227 2.3746598,13.8734227 L4.73474227,13.8734227 C4.89105155,13.8734227 5.01762887,13.7467011 5.01762887,13.590536 L5.01762887,7.83523711 L7.13263918,7.83523711 C7.28894845,7.83523711 7.41552578,7.7086598 7.41552578,7.55235051 L7.41639175,5.27150515 C7.41639175,5.1964536 7.38651547,5.12457732 7.3335464,5.07146391 C7.28057732,5.01835051 7.20841237,4.98847422 7.13336082,4.98847422 L5.01762887,4.98847422 L5.01762887,3.654 C5.01762887,3.01259794 5.17047423,2.68698969 6.006,2.68698969 L7.21793814,2.6865567 C7.37410309,2.6865567 7.50068042,2.55983505 7.50068042,2.40367011 L7.50068042,0.285773196 C7.50068042,0.129752577 7.37424742,0.00317525773 7.2182268,0.00288659794 Z"></path>
                        </g>
                    </g>
                </g>
            </g>
        </g>
    </g>
</svg>