<?xml version="1.0" encoding="UTF-8"?>
<svg width="21px" height="21px" viewBox="0 0 21 21" version="1.1" xmlns="http://www.w3.org/2000/svg" xmlns:xlink="http://www.w3.org/1999/xlink">
    <title>D09373D5-D69E-45EF-B6C5-F787C35F84F5</title>
    <g id="Dizajn" stroke="none" stroke-width="1" fill="none" fill-rule="evenodd">
        <g id="PoÄetna---r1" transform="translate(-1518.000000, -160.000000)" fill="#71ACD2" fill-rule="nonzero">
            <g id="Telefon-+-email" transform="translate(1403.000000, 160.000000)">
                <g id="help" transform="translate(115.000000, 0.000000)">
                    <path d="M21,14.2119141 C21,11.1509628 18.9375229,8.47661592 16.0290985,7.67072295 C15.8462906,3.4100647 12.3234329,0 8.01855469,0 C3.59703828,0 0,3.59703828 0,8.01855469 C0,9.45954893 0.38356016,10.8625717 1.11190796,12.0943222 L0.0294799805,16.0074692 L3.94278716,14.9252014 C5.07504272,15.5947495 6.35229492,15.9719009 7.67056274,16.0287781 C8.47629546,18.9373627 11.1508026,21 14.2119141,21 C15.4337311,21 16.6219024,20.6745987 17.6658783,20.0563202 L20.9703598,20.9703598 L20.0563202,17.6658783 C20.6745987,16.6219024 21,15.4337311 21,14.2119141 Z M4.13697051,13.5947571 L1.79427339,14.242836 L2.44235229,11.9001389 L2.29463194,11.6691055 C1.59848784,10.5799484 1.23046875,9.31759644 1.23046875,8.01855469 C1.23046875,4.27555849 4.27555849,1.23046875 8.01855469,1.23046875 C11.7615509,1.23046875 14.8066406,4.27555849 14.8066406,8.01855469 C14.8066406,11.7615509 11.7615509,14.8066406 8.01855469,14.8066406 C6.71951294,14.8066406 5.45732119,14.4386215 4.36800386,13.7424774 L4.13697051,13.5947571 Z M19.2057266,19.2057266 L17.4673691,18.7247543 L17.2352143,18.8758393 C16.3352737,19.4604721 15.2896957,19.7695312 14.2119141,19.7695312 C11.8060913,19.7695312 9.69202422,18.2139816 8.9430084,15.9834366 C12.6270447,15.5587006 15.5587006,12.6270447 15.9835968,8.9428482 C18.2139816,9.69202422 19.7695312,11.8060913 19.7695312,14.2119141 C19.7695312,15.2896957 19.4604721,16.3352737 18.8758393,17.2352143 L18.7247543,17.4673691 L19.2057266,19.2057266 Z" id="Shape"></path>
                    <polygon id="Path" points="7.40332031 11.1152344 8.63378906 11.1152344 8.63378906 12.3457031 7.40332031 12.3457031"></polygon>
                    <path d="M9.24902344,6.15234375 C9.24902344,6.50177764 9.10675049,6.82429502 8.84848022,7.06061553 L7.40332031,8.38336944 L7.40332031,9.88476562 L8.63378906,9.88476562 L8.63378906,8.92522431 L9.67920684,7.96840669 C10.1877365,7.50297548 10.4794922,6.84111787 10.4794922,6.15234375 C10.4794922,4.79530332 9.37559511,3.69140625 8.01855469,3.69140625 C6.66151426,3.69140625 5.55761719,4.79530332 5.55761719,6.15234375 L6.78808594,6.15234375 C6.78808594,5.47382354 7.34003447,4.921875 8.01855469,4.921875 C8.6970749,4.921875 9.24902344,5.47382354 9.24902344,6.15234375 Z" id="Path"></path>
                </g>
            </g>
        </g>
    </g>
</svg>