<?xml version="1.0" encoding="UTF-8"?>
<svg width="22px" height="22px" viewBox="0 0 22 22" version="1.1" xmlns="http://www.w3.org/2000/svg" xmlns:xlink="http://www.w3.org/1999/xlink">
    <title>Shape</title>
    <g id="Dizajn" stroke="none" stroke-width="1" fill="none" fill-rule="evenodd">
        <g id="Kategorije-proizvoda---razina-1" transform="translate(-280.000000, -1535.000000)" fill="#A1BFD9" fill-rule="nonzero">
            <g id="Group-7" transform="translate(0.000000, 1139.000000)">
                <g id="grid-proizvoda" transform="translate(260.000000, 0.000000)">
                    <g id="Filtriranje-proizvoda" transform="translate(0.000000, 380.000000)">
                        <g id="Filter" transform="translate(20.000000, 16.000000)">
                            <path d="M1.0991413,4.39656518 L13.1896956,4.39656518 C13.1896956,5.61064313 14.1739002,6.59484778 15.3879781,6.59484778 L17.5862607,6.59484778 C18.8003387,6.59484778 19.7845433,5.61064313 19.7845433,4.39656518 L20.8836846,4.39656518 C21.4907236,4.39656518 21.9828259,3.90446286 21.9828259,3.29742389 C21.9828259,2.69038491 21.4907236,2.19828259 20.8836846,2.19828259 L19.7845433,2.19828259 C19.7845433,0.98420464 18.8003387,0 17.5862607,0 L15.3879781,0 C14.1739002,0 13.1896956,0.98420464 13.1896956,2.19828259 L1.0991413,2.19828259 C0.492102329,2.1982826 2.316267e-08,2.69038492 2.316267e-08,3.29742389 C2.316267e-08,3.90446285 0.492102329,4.39656517 1.0991413,4.39656518 Z M15.3879781,2.19828259 L17.5862607,2.19828259 L17.5862607,3.29742389 L17.5862607,4.39656518 L15.3879781,4.39656518 L15.3879781,2.19828259 Z M20.8836846,9.89227166 L10.991413,9.89227166 C10.991413,8.67819371 10.0072083,7.69398907 8.79313037,7.69398907 L6.59484778,7.69398907 C5.38076982,7.69398907 4.39656518,8.67819371 4.39656518,9.89227166 L1.0991413,9.89227166 C0.49210232,9.89227166 0,10.384374 0,10.991413 C0,11.5984519 0.49210232,12.0905543 1.0991413,12.0905543 L4.39656518,12.0905543 C4.39656518,13.3046322 5.38076982,14.2888368 6.59484778,14.2888368 L8.79313037,14.2888368 C10.0072083,14.2888368 10.991413,13.3046322 10.991413,12.0905543 L20.8836846,12.0905543 C21.4907236,12.0905543 21.9828259,11.5984519 21.9828259,10.991413 C21.9828259,10.384374 21.4907236,9.89227166 20.8836846,9.89227166 Z M6.59484778,12.0905543 L6.59484778,9.89227166 L8.79313037,9.89227166 L8.79313037,10.991413 L8.79313037,12.0905543 L6.59484778,12.0905543 Z M20.8836846,17.5862607 L17.5862607,17.5862607 C17.5862607,16.3721828 16.6020561,15.3879781 15.3879781,15.3879781 L13.1896956,15.3879781 C11.9756176,15.3879781 10.991413,16.3721828 10.991413,17.5862607 L1.0991413,17.5862607 C0.49210232,17.5862607 0,18.0783631 0,18.685402 C0,19.292441 0.49210232,19.7845433 1.0991413,19.7845433 L10.991413,19.7845433 C10.991413,20.9986213 11.9756176,21.9828259 13.1896956,21.9828259 L15.3879781,21.9828259 C16.6020561,21.9828259 17.5862607,20.9986213 17.5862607,19.7845433 L20.8836846,19.7845433 C21.4907236,19.7845433 21.9828259,19.292441 21.9828259,18.685402 C21.9828259,18.0783631 21.4907236,17.5862607 20.8836846,17.5862607 Z M13.1896956,19.7845433 L13.1896956,17.5862607 L15.3879781,17.5862607 L15.3879781,18.685402 L15.3879781,19.7845433 L13.1896956,19.7845433 Z" id="Shape"></path>
                        </g>
                    </g>
                </g>
            </g>
        </g>
    </g>
</svg>