<?xml version="1.0" encoding="UTF-8"?>
<svg width="20px" height="18px" viewBox="0 0 20 18" version="1.1" xmlns="http://www.w3.org/2000/svg" xmlns:xlink="http://www.w3.org/1999/xlink">
    <title>Path</title>
    <g id="Dizajn" stroke="none" stroke-width="1" fill="none" fill-rule="evenodd">
        <g id="Lista-želja" transform="translate(-491.000000, -822.000000)" fill="#144578" fill-rule="nonzero">
            <g id="row-1---HOVER" transform="translate(260.000000, 380.000000)">
                <g id="osnovne-informacij" transform="translate(30.000000, 286.000000)">
                    <g id="wish-lista" transform="translate(201.000000, 149.000000)">
                        <path d="M18.3765643,8.73785034 C17.3433261,7.61720183 15.925574,7 14.3841684,7 C13.2319974,7 12.1768304,7.36426025 11.2479059,8.08257781 C10.7791797,8.44516294 10.3544632,8.88876252 9.98,9.40652375 C9.60568911,8.88891479 9.18082031,8.44516294 8.71194182,8.08257781 C7.78316958,7.36426025 6.72800261,7 5.57583161,7 C4.03442595,7 2.61652163,7.61720183 1.58328338,8.73785034 C0.562380056,9.84540252 0,11.3584836 0,12.9985684 C0,14.6866223 0.629079905,16.231835 1.97967529,17.8615646 C3.18788637,19.319367 4.92436614,20.7992505 6.93525942,22.5128879 C7.62190217,23.0981104 8.4002191,23.7614539 9.20838347,24.4680457 C9.42188386,24.6550488 9.69584047,24.7579919 9.98,24.7579919 C10.2640073,24.7579919 10.5381161,24.6550488 10.7513119,24.4683502 C11.5594763,23.7616061 12.3382501,23.0979581 13.0251974,22.512431 C15.0357861,20.7990982 16.7722659,19.319367 17.980477,17.8614124 C19.3310724,16.231835 19.96,14.6866223 19.96,12.9984162 C19.96,11.3584836 19.3976199,9.84540252 18.3765643,8.73785034 Z" id="Path"></path>
                    </g>
                </g>
            </g>
        </g>
    </g>
</svg>