<?xml version="1.0" encoding="UTF-8"?>
<svg width="20px" height="20px" viewBox="0 0 20 20" version="1.1" xmlns="http://www.w3.org/2000/svg" xmlns:xlink="http://www.w3.org/1999/xlink">
    <title>ADC48B0A-E2FB-4306-BB74-9621699164A5</title>
    <g id="Dizajn" stroke="none" stroke-width="1" fill="none" fill-rule="evenodd" opacity="0.6">
        <g id="PoÄetna---r1" transform="translate(-1100.000000, -107.000000)" fill="#FFFFFF" fill-rule="nonzero">
            <g id="Primarni-izbornik" transform="translate(0.000000, 86.000000)">
                <g id="glue-(1)" transform="translate(1100.000000, 21.000000)">
                    <path d="M19.7059631,6.3833618 L13.6166382,0.294036875 C13.427124,0.104522695 13.1748962,0 12.9066467,0 C12.6385498,0 12.386322,0.104522695 12.1968079,0.294036875 L10.9255981,1.56524656 C10.9216309,1.56921387 10.9179687,1.57363891 10.9141541,1.57791137 C10.9112549,1.5811157 10.9080505,1.5838623 10.9053039,1.58721922 L1.18362426,12.9321289 C1.12976074,12.9948425 1.09970094,13.0702209 1.09191895,13.1472778 C1.09191895,13.1472778 1.09176637,13.1472778 1.09161375,13.1471252 L0.816192617,15.886383 C0.804443359,16.0029602 0.845794687,16.1187744 0.928649922,16.2017822 L1.16455078,16.4376831 L0.0624084375,18.1459045 C-0.0373840234,18.3004761 -0.0157165625,18.5038757 0.114440937,18.6338806 L1.36611937,19.8855591 C1.44165039,19.9610901 1.54159547,20 1.64245605,20 C1.71554566,20 1.78909301,19.9795532 1.85409547,19.9375916 L3.56246949,18.8354492 L3.79837035,19.0713501 C3.87207031,19.14505 3.97155762,19.185791 4.07455445,19.185791 C4.08752441,19.185791 4.10064695,19.1851807 4.11361695,19.1838074 L6.85287477,18.9083863 C6.85302734,18.9083863 6.85302734,18.9082336 6.85302734,18.9082336 C6.92993164,18.9006043 7.00531008,18.8702393 7.06802367,18.8163757 L18.4129334,9.09484863 C18.4162903,9.09194945 18.419342,9.08859254 18.4225464,9.08554078 C18.4266662,9.08187867 18.4309387,9.07836914 18.434906,9.07440188 L19.7059631,7.80334473 C19.8956299,7.61367797 20,7.36160277 20,7.09335328 C20,6.82525633 19.8956299,6.57302855 19.7059631,6.3833618 L19.7059631,6.3833618 Z M15.8306885,3.61297609 L14.6783447,4.76547242 L13.4912109,3.57833863 L14.6437073,2.42599488 L15.8306885,3.61297609 Z M15.2307129,5.31784059 L16.3830566,4.16549684 L17.5701904,5.35247805 L16.4176941,6.5048218 L15.2307129,5.31784059 Z M12.749176,0.846557617 C12.7912903,0.804443359 12.8471375,0.78125 12.9066467,0.78125 C12.966156,0.78125 13.0221558,0.804443359 13.06427,0.846557617 L14.0911865,1.87347414 L12.9388428,3.02597047 L11.754303,1.84143066 L12.749176,0.846557617 Z M1.69555664,19.11026 L0.889892578,18.3045959 L1.72973633,17.0028687 L2.99728395,18.2702637 L1.69555664,19.11026 Z M3.89190672,18.0601502 C3.89190672,18.0601502 3.89190672,18.0599976 3.89175414,18.0599976 L1.94000242,16.1082459 C1.94000242,16.1080933 1.93984984,16.1079407 1.93969727,16.1077881 L1.61209105,15.7801819 L1.78649902,14.0449524 L5.95504762,18.213501 L4.21981813,18.3880615 L3.89190672,18.0601502 Z M6.83425902,17.9878235 L2.01217652,13.165741 L11.2239075,2.41592406 L17.5840759,8.77609254 L6.83425902,17.9878235 Z M19.1534424,7.25082398 L18.1587219,8.24569703 L17.9231262,8.01025391 L16.9702148,7.05734254 L18.1225586,5.90484617 L19.1534424,6.93588258 C19.2404175,7.02270508 19.2404175,7.16400148 19.1534424,7.25082398 Z" id="Shape"></path>
                    <path d="M12.0343018,4.72320555 C11.8818664,4.57061766 11.6345215,4.57061766 11.4819336,4.72320555 L4.72381594,11.4813232 C4.57122805,11.6337586 4.57122805,11.8811035 4.72381594,12.0336914 L7.96615602,15.2760315 C8.0393982,15.3492737 8.13873289,15.3904724 8.24234008,15.3904724 C8.34594727,15.3904724 8.44528199,15.3492737 8.51852418,15.2760315 L11.7134094,12.0812988 C11.8658447,11.9287109 11.8658447,11.681366 11.7134094,11.5287781 C11.5608215,11.3763428 11.3134766,11.3763428 11.1608887,11.5287781 L8.24234008,14.4474793 L6.77078246,12.9759216 L8.76403809,10.982666 C8.91662598,10.8300781 8.91662598,10.5827332 8.76403809,10.4301453 C8.6114502,10.27771 8.36410523,10.27771 8.21151734,10.4301453 L6.21826172,12.4234009 L5.55236816,11.7575073 L11.7581177,5.55175781 L14.4480896,8.24172973 L13.3706665,9.31900023 C13.2180786,9.47158812 13.2180786,9.71893312 13.3706665,9.87152102 C13.5232544,10.0239563 13.7705994,10.0241089 13.9230347,9.87152102 L15.2766418,8.51791383 C15.349884,8.44467164 15.3910828,8.34533691 15.3910828,8.24172973 C15.3910828,8.13812258 15.349884,8.03878785 15.2766418,7.96554566 L12.0343018,4.72320555 Z" id="Path"></path>
                    <path d="M12.8193664,10.4251098 C12.6675415,10.2720642 12.4201965,10.2708435 12.2669983,10.4228211 C12.1138,10.574646 12.112732,10.821991 12.2647095,10.9751892 L12.2692871,10.9797668 C12.3455811,11.0568238 12.4461365,11.0954285 12.5466919,11.0954285 C12.6460266,11.0954285 12.7455139,11.0575867 12.8216553,10.9822082 C12.9748535,10.8302307 12.9759216,10.5828857 12.8239441,10.4296875 L12.8193664,10.4251098 Z" id="Path"></path>
                    <path d="M9.31671141,9.32540895 C9.24392699,9.39804078 9.20227051,9.49890137 9.20227051,9.60159301 C9.20227051,9.70428469 9.24392699,9.80514527 9.31671141,9.87777711 C9.38934328,9.95040895 9.49005125,9.99221801 9.59289551,9.99221801 C9.69558715,9.99221801 9.79599,9.95040895 9.86892699,9.87777711 C9.94171141,9.80514527 9.98352051,9.70428469 9.98352051,9.60159301 C9.98352051,9.49890137 9.94171141,9.39804078 9.86892699,9.32540895 C9.79629516,9.25277711 9.69558715,9.21096801 9.59289551,9.21096801 C9.49005125,9.21096801 9.38934328,9.25277711 9.31671141,9.32540895 Z" id="Path"></path>
                </g>
            </g>
        </g>
    </g>
</svg>