<?xml version="1.0" encoding="UTF-8"?>
<svg width="220px" height="40px" viewBox="0 0 220 40" version="1.1" xmlns="http://www.w3.org/2000/svg" xmlns:xlink="http://www.w3.org/1999/xlink">
    <title>8BD53031-EC13-4E69-8512-5CD6AD406297</title>
    <g id="Dizajn" stroke="none" stroke-width="1" fill="none" fill-rule="evenodd">
        <g id="PoÄetna---r1" transform="translate(-260.000000, -23.000000)">
            <g id="Header-top" transform="translate(260.000000, 16.000000)">
                <g id="Logo" transform="translate(0.000000, 7.000000)">
                    <g id="Group-79" transform="translate(50.450017, 9.237579)" fill="#154577">
                        <path d="M89.1917043,0.000187995625 L77.6683244,0.000187995625 C74.9634434,0.000187995625 72.7710384,2.18845707 72.7710384,4.88657028 L72.7710384,16.4298776 C72.7710384,19.1279908 74.9634434,21.3162599 77.6683244,21.3162599 L89.1917043,21.3162599 C91.8947054,21.3162599 94.0871103,19.1279908 94.0871103,16.4298776 L94.0871103,4.88657028 C94.0871103,2.18845707 91.8947054,0.000187995625 89.1917043,0.000187995625 L89.1917043,0.000187995625 Z M77.6551648,16.4321336 L89.202608,16.4321336 L89.202608,4.88469032 L77.6551648,4.88469032 L77.6551648,16.4321336 Z" id="Fill-31"></path>
                        <path d="M45.6132657,21.3164103 L45.6132657,0.000338392125 L40.7291393,0.000338392125 L40.7291393,16.432284 L29.1816961,16.432284 L29.1816961,0.000338392125 L24.2971937,0.000338392125 L24.2971937,16.432284 C24.2971937,19.1300212 26.4835829,21.3164103 29.1816961,21.3164103 L45.6132657,21.3164103 Z" id="Fill-32"></path>
                        <path d="M121.365764,0.000187995625 L121.365764,21.3158839 L126.249891,21.3162599 L126.249891,17.1333573 L137.797334,17.1333573 L137.797334,21.3162599 L142.681836,21.3162599 L142.681836,0.000563986874 L121.365764,0.000187995625 Z M126.249891,12.2492309 L137.797334,12.2492309 L137.797334,4.88506631 L126.249891,4.88506631 L126.249891,12.2492309 Z" id="Fill-33"></path>
                        <polygon id="Fill-34" points="164.107585 0.000187995625 157.135579 8.58369223 150.163197 0.000187995625 145.662958 0.000187995625 145.662958 21.3162599 150.55874 21.3162599 150.55874 8.24304416 157.135579 16.3388877 163.712418 8.24304416 163.712418 21.3162599 168.605944 21.3162599 168.605944 0.000187995625"></polygon>
                        <polygon id="Fill-35" points="97.0684202 0.000187995625 97.0684202 21.3162599 118.384492 21.3162599 118.384492 16.4321336 101.952546 16.4321336 101.952546 0.000187995625"></polygon>
                        <polygon id="Fill-36" points="-1.28235769e-13 4.79614438 21.3160719 4.79614438 21.3160719 -1.0686314e-13 -1.28235769e-13 -1.0686314e-13"></polygon>
                        <polygon id="Fill-37" points="-1.28235769e-13 13.0562961 21.3160719 13.0562961 21.3160719 8.26015176 -1.28235769e-13 8.26015176"></polygon>
                        <polygon id="Fill-38" points="-1.28235769e-13 21.3164479 21.3160719 21.3164479 21.3160719 16.5203035 -1.28235769e-13 16.5203035"></polygon>
                        <path d="M48.5945755,0.000187995625 L48.5945755,21.3162599 L53.4790778,21.3162599 L53.4790778,17.3623359 L59.6272867,17.3623359 L63.5906105,21.3162599 L70.5103534,21.3162599 L65.4735747,16.286625 C68.1596561,14.8097313 69.9828377,11.9533258 69.9828377,8.68032199 C69.9828377,3.89470536 66.0811765,0.000187995625 61.2861601,0.000187995625 L48.5945755,0.000187995625 Z M61.2861601,12.4782096 L61.2861601,12.4782096 L53.4790778,12.4782096 L53.4790778,4.88469032 L61.2861601,4.88469032 C63.3834393,4.88469032 65.0893116,6.5871787 65.0893116,8.68032199 C65.0893116,10.7734653 63.3834393,12.4782096 61.2861601,12.4782096 L61.2861601,12.4782096 Z" id="Fill-42"></path>
                    </g>
                    <polygon id="Fill-39" fill="#203E65" points="4.47655182 24.3725048 24.3725048 4.47655182 19.895953 2.13726281e-14 2.75439745e-12 19.895953"></polygon>
                    <polygon id="Fill-40" fill="#23568D" points="12.1861772 32.0821678 32.0821302 12.1862148 27.6055783 7.70966298 7.70962538 27.6056159"></polygon>
                    <polygon id="Fill-41" fill="#71ADD2" points="19.8958402 39.7918307 39.7921691 19.8958778 35.3152413 15.419326 15.4192884 35.3152789"></polygon>
                </g>
            </g>
        </g>
    </g>
</svg>