<?xml version="1.0" encoding="UTF-8"?>
<svg width="132px" height="24px" viewBox="0 0 132 24" version="1.1" xmlns="http://www.w3.org/2000/svg" xmlns:xlink="http://www.w3.org/1999/xlink">
    <title>07158D42-0287-48E7-9497-44318C10391F</title>
    <defs>
        <polygon id="path-1" points="0.0585817021 0.0152930233 13.7448536 0.0152930233 13.7448536 12.7908279 0.0585817021 12.7908279"></polygon>
    </defs>
    <g id="Dizajn" stroke="none" stroke-width="1" fill="none" fill-rule="evenodd">
        <g id="Česta-pitanja" transform="translate(-330.000000, -2515.000000)">
            <g id="footer-unutarnje" transform="translate(0.000000, 2042.000000)">
                <g id="footer-content" transform="translate(260.000000, 100.000000)">
                    <g id="Logo" transform="translate(70.000000, 373.000000)">
                        <polygon id="Fill-1" fill="#FFFFFF" points="0 12.1353488 2.62741021 14.7700465 14.4511736 2.91376744 11.8237634 0.279348837"></polygon>
                        <polygon id="Fill-2" fill="#FFFFFF" points="18.9179101 7.39272558 7.09414672 19.2492837 4.46673651 16.614307 16.2904999 4.75830698"></polygon>
                        <polygon id="Fill-3" fill="#FFFFFF" points="8.93344519 21.0935721 11.5605771 23.7282698 11.5611337 23.7282698 23.3843405 11.8719907 20.7569303 9.23729302"></polygon>
                        <g id="Group-20" transform="translate(29.754495, 5.588735)">
                            <path d="M53.4548431,0.0154046512 L46.5561171,0.0154046512 C44.9431026,0.0154046512 43.6356592,1.32647442 43.6356592,2.94424186 L43.6356592,9.86154419 C43.6356592,11.4793116 44.9431026,12.7903814 46.5561171,12.7903814 L53.4548431,12.7903814 C55.0678575,12.7903814 56.3755792,11.4793116 56.3755792,9.86154419 L56.3755792,2.94424186 C56.3755792,1.32647442 55.0678575,0.0154046512 53.4548431,0.0154046512 L53.4548431,0.0154046512 Z M46.5550039,9.86293953 L53.4559563,9.86293953 L53.4559563,2.94284651 L46.5550039,2.94284651 L46.5550039,9.86293953 Z" id="Fill-4" fill="#FFFFFF"></path>
                            <path d="M27.3239252,12.7904651 L27.3239252,0.0154883721 L24.4043022,0.0154883721 L24.4043022,9.86302326 L17.5036282,9.86302326 L17.5036282,0.0154883721 L14.5840052,0.0154883721 L14.5840052,9.86302326 C14.5840052,11.4799535 15.8911703,12.7904651 17.5036282,12.7904651 L27.3239252,12.7904651 Z" id="Fill-6" fill="#FFFFFF"></path>
                            <path d="M85.411259,0.0154046512 L85.411259,0.0154046512 L72.6716173,0.0154046512 L72.6716173,12.7903814 L75.590962,12.7903814 L75.590962,10.284893 L82.491636,10.284893 L82.491636,12.7903814 L85.411259,12.7903814 L85.411259,0.0154046512 Z M75.590962,7.35717209 L82.491636,7.35717209 L82.491636,2.94312558 L75.590962,2.94312558 L75.590962,7.35717209 Z" id="Fill-8" fill="#FFFFFF"></path>
                            <g id="Group-12" transform="translate(87.130611, 0.000000)">
                                <mask id="mask-2" fill="white">
                                    <use xlink:href="#path-1"></use>
                                </mask>
                                <g id="Clip-11"></g>
                                <polygon id="Fill-10" fill="#FFFFFF" mask="url(#mask-2)" points="6.84306638 5.14409302 2.68418298 0 0 0 0 12.7755349 2.91962298 12.7755349 2.91962298 4.94037209 6.84306638 9.79283721 10.7667881 4.94037209 10.7667881 12.7755349 13.6864111 12.7755349 13.6864111 0 11.0022281 0"></polygon>
                            </g>
                            <polygon id="Fill-13" fill="#FFFFFF" points="58.1532904 12.7904651 58.1532904 12.7904651 70.8932104 12.7904651 70.8932104 9.86302326 61.0729134 9.86302326 61.0729134 0.0154883721 58.1532904 0.0154883721"></polygon>
                            <polygon id="Fill-15" fill="#FFFFFF" points="0 2.9427907 12.73992 2.9427907 12.73992 0.0150697674 0 0.0150697674"></polygon>
                            <polygon id="Fill-17" fill="#FFFFFF" points="0 7.87897674 12.73992 7.87897674 12.73992 4.95125581 0 4.95125581"></polygon>
                            <path d="M29.1679269,0.0154046512 L29.1679269,12.7903814 L32.0875499,12.7903814 L32.0875499,10.4205209 L35.7549592,10.4205209 L38.1185431,12.7906605 L42.2473703,12.7906605 L39.2417533,9.77698605 C40.8444707,8.8903814 41.9326154,7.17968372 41.9326154,5.21810233 C41.9326154,2.34898605 39.6052103,0.0154046512 36.7443082,0.0154046512 L29.1679269,0.0154046512 Z M36.7443082,7.49335814 L36.7443082,7.49307907 L32.0875499,7.49307907 L32.0875499,2.94256744 L36.7443082,2.94256744 C37.9955354,2.94256744 39.0132707,3.96340465 39.0132707,5.21810233 C39.0132707,6.4728 37.9955354,7.49335814 36.7443082,7.49335814 L36.7443082,7.49335814 Z" id="Fill-18" fill="#FFFFFF"></path>
                            <polygon id="Fill-19" fill="#FFFFFF" points="0.245504681 12.9463256 12.9854247 12.9463256 12.9854247 10.0186047 0.245504681 10.0186047"></polygon>
                        </g>
                    </g>
                </g>
            </g>
        </g>
    </g>
</svg>