<?xml version="1.0" encoding="UTF-8"?>
<svg width="19px" height="19px" viewBox="0 0 19 19" version="1.1" xmlns="http://www.w3.org/2000/svg" xmlns:xlink="http://www.w3.org/1999/xlink">
    <title>FBD55E54-2C6F-4200-916B-57989C470A30</title>
    <g id="Dizajn" stroke="none" stroke-width="1" fill="none" fill-rule="evenodd" opacity="0.6">
        <g id="PoÄetna---r1" transform="translate(-836.000000, -107.000000)" fill="#FFFFFF" fill-rule="nonzero">
            <g id="Primarni-izbornik" transform="translate(0.000000, 86.000000)">
                <g id="folder" transform="translate(836.000000, 21.000000)">
                    <path d="M12.0976562,15.5859375 L6.90234375,15.5859375 C6.59492969,15.5859375 6.34570312,15.8351641 6.34570312,16.1425781 C6.34570312,16.4499922 6.59492969,16.6992188 6.90234375,16.6992188 L12.0976562,16.6992188 C12.4050703,16.6992188 12.6542969,16.4499922 12.6542969,16.1425781 C12.6542969,15.8351641 12.4050703,15.5859375 12.0976562,15.5859375 Z" id="Path"></path>
                    <path d="M18.9853047,11.5623164 L16.7216328,1.91387891 C16.6625918,1.66224023 16.4381543,1.484375 16.1796875,1.484375 L13.7675781,1.484375 L13.7675781,0.556640625 C13.7675781,0.249226562 13.5183516,0 13.2109375,0 L5.7890625,0 C5.48164844,0 5.23242188,0.249226562 5.23242188,0.556640625 L5.23242188,1.484375 L2.8203125,1.484375 C2.5618457,1.484375 2.3374082,1.66224023 2.27836719,1.91387891 L0.0146953125,11.5623164 C0.00493554688,11.6039902 0,11.646666 0,11.6894531 L0,18.4433594 C0,18.7507734 0.249226562,19 0.556640625,19 L18.4433594,19 C18.7507734,19 19,18.7507734 19,18.4433594 L19,11.6894531 C19,11.646666 18.9950645,11.6039902 18.9853047,11.5623164 Z M15.7385312,2.59765625 L17.7409902,11.1328125 L15.9941406,11.1328125 L15.9941406,7.97851562 C15.9941406,7.67110156 15.7449141,7.421875 15.4375,7.421875 L14.8808594,7.421875 L14.8808594,4.26757812 C14.8808594,3.96016406 14.6316328,3.7109375 14.3242188,3.7109375 L13.7675781,3.7109375 L13.7675781,2.59765625 L15.7385312,2.59765625 Z M13.7675781,4.82421875 L13.7675781,7.421875 L5.23242187,7.421875 L5.23242187,4.82421875 L13.7675781,4.82421875 Z M14.8808594,8.53515625 L14.8808594,11.1328125 L12.8398437,11.1328125 C12.6002656,11.1328125 12.3875547,11.2861113 12.3117773,11.5134434 L11.6964297,13.359375 L7.30357031,13.359375 L6.68825977,11.5134434 C6.61244531,11.2861113 6.39973437,11.1328125 6.16015625,11.1328125 L4.11914062,11.1328125 L4.11914062,8.53515625 L14.8808594,8.53515625 Z M12.6542969,1.11328125 L12.6542969,3.7109375 L6.34570312,3.7109375 L6.34570312,1.11328125 L12.6542969,1.11328125 Z M3.26146875,2.59765625 L5.23242187,2.59765625 L5.23242187,3.7109375 L4.67578125,3.7109375 C4.36836719,3.7109375 4.11914062,3.96016406 4.11914062,4.26757812 L4.11914062,7.421875 L3.5625,7.421875 C3.25508594,7.421875 3.00585937,7.67110156 3.00585937,7.97851562 L3.00585937,11.1328125 L1.25900977,11.1328125 L3.26146875,2.59765625 Z M1.11328125,17.8867188 L1.11328125,12.2460938 L5.75892969,12.2460938 L6.37424023,14.0920254 C6.45005469,14.3193574 6.66276562,14.4726562 6.90234375,14.4726562 L12.0976562,14.4726562 C12.3372344,14.4726562 12.5499453,14.3193574 12.6257227,14.0920254 L13.2410703,12.2460938 L17.8867188,12.2460938 L17.8867188,17.8867188 L1.11328125,17.8867188 Z" id="Shape"></path>
                </g>
            </g>
        </g>
    </g>
</svg>