<?xml version="1.0" encoding="UTF-8"?>
<svg width="72px" height="60px" viewBox="0 0 72 60" version="1.1" xmlns="http://www.w3.org/2000/svg" xmlns:xlink="http://www.w3.org/1999/xlink">
    <title>email</title>
    <g id="Dizajn" stroke="none" stroke-width="1" fill="none" fill-rule="evenodd">
        <g id="PoÄetna---r1" transform="translate(-260.000000, -2258.000000)" fill="#FFFFFF" fill-rule="nonzero">
            <g id="Bitmap" transform="translate(0.000000, 2101.000000)">
                <g id="Group-43" transform="translate(260.000000, 151.000000)">
                    <g id="email" transform="translate(0.000000, 6.011295)">
                        <path d="M55.0203911,17.0530379 C54.4606498,16.4875902 53.5496673,16.4838398 52.9854654,17.0448158 C52.4214073,17.605936 52.4176661,18.5193071 52.9774074,19.084899 L52.9860409,19.0938423 C53.2661994,19.3769989 53.6334127,19.5180723 54.0010576,19.5180723 C54.3676954,19.5180723 54.7349087,19.3775759 55.0166499,19.0974485 C55.5808519,18.5363282 55.5801324,17.6186298 55.0203911,17.0530379 Z" id="Path"></path>
                        <path d="M71.5881157,34.3669223 L58.5318039,21.2582146 C57.9828591,20.7072079 57.092739,20.7072079 56.5436536,21.2582146 C55.9947088,21.8093624 55.9947088,22.7030545 56.5436536,23.2543434 L66.9085192,33.6606628 L42.1919445,33.6606628 C40.1415196,33.6606628 38.4735989,31.9859074 38.4735989,29.9273952 L38.4735989,5.11177219 L48.4801391,15.1583283 C49.029084,15.7093349 49.919204,15.7093349 50.4682894,15.1583283 C51.0172342,14.6071805 51.0172342,13.7134884 50.4682894,13.1621994 L37.7701623,0.413254983 C37.2212175,-0.137751661 36.3310975,-0.137751661 35.7821527,0.413254983 L13.3717086,22.9140573 C12.8227638,23.4652051 12.8227638,24.3588972 13.3717086,24.9101861 L47.1896619,58.8637123 C47.4532398,59.1283479 47.8108622,59.2771084 48.1836668,59.2771084 C48.5564713,59.2771084 48.9140937,59.1283479 49.1776716,58.8637123 L71.5882562,36.3630512 C71.8518341,36.0982744 72,35.7393579 72,35.3650573 C72,34.9907567 71.8516935,34.6316991 71.5881157,34.3669223 Z M35.6623829,4.52590421 L35.6623829,22.5008023 L17.7593311,22.5008023 L35.6623829,4.52590421 Z M46.7779182,54.4581997 L17.7593311,25.3234411 L35.6623829,25.3234411 L35.6623829,29.9273952 C35.6623829,33.5423883 38.5916818,36.4834427 42.1922257,36.4834427 L46.7779182,36.4834427 L46.7779182,54.4581997 Z M49.5892748,54.4583408 L49.5892748,36.4834427 L67.492186,36.4834427 L49.5892748,54.4583408 Z" id="Shape"></path>
                        <path d="M9.42649591,29.6385542 L1.37350409,29.6385542 C0.614917781,29.6385542 0,30.2859759 0,31.0843373 C0,31.8826988 0.614917781,32.5301205 1.37350409,32.5301205 L9.42649591,32.5301205 C10.1850822,32.5301205 10.8,31.8828434 10.8,31.0843373 C10.8,30.2859759 10.1850822,29.6385542 9.42649591,29.6385542 Z" id="Path"></path>
                        <path d="M13.6907196,29.6385542 L13.6692804,29.6385542 C12.8798888,29.6385542 12.24,30.2859759 12.24,31.0843373 C12.24,31.8826988 12.8798888,32.5301205 13.6692804,32.5301205 L13.6907196,32.5301205 C14.4801112,32.5301205 15.12,31.8826988 15.12,31.0843373 C15.12,30.2859759 14.4801112,29.6385542 13.6907196,29.6385542 Z" id="Path"></path>
                        <path d="M5.81546449,14.4578313 L1.38453551,14.4578313 C0.619856547,14.4578313 0,15.105253 0,15.9036145 C0,16.7019759 0.619856547,17.3493976 1.38453551,17.3493976 L5.81546449,17.3493976 C6.58014345,17.3493976 7.2,16.7019759 7.2,15.9036145 C7.2,15.105253 6.58014345,14.4578313 5.81546449,14.4578313 Z" id="Path"></path>
                        <path d="M15.9104212,14.4578313 L10.7295788,14.4578313 C9.97316041,14.4578313 9.36,15.105253 9.36,15.9036145 C9.36,16.7019759 9.97316041,17.3493976 10.7295788,17.3493976 L15.9104212,17.3493976 C16.6668396,17.3493976 17.28,16.7019759 17.28,15.9036145 C17.28,15.105253 16.6668396,14.4578313 15.9104212,14.4578313 Z" id="Path"></path>
                        <path d="M18.7389287,36.8674699 L10.7810713,36.8674699 C9.99621363,36.8674699 9.36,37.5148916 9.36,38.313253 C9.36,39.1116145 9.99621363,39.7590361 10.7810713,39.7590361 L18.7389287,39.7590361 C19.5237864,39.7590361 20.16,39.1116145 20.16,38.313253 C20.16,37.5148916 19.5236443,36.8674699 18.7389287,36.8674699 Z" id="Path"></path>
                        <path d="M24.533656,46.2650602 L4.98634401,46.2650602 C4.22066622,46.2650602 3.6,46.9124819 3.6,47.7108434 C3.6,48.5092048 4.22066622,49.1566265 4.98634401,49.1566265 L24.533656,49.1566265 C25.2993338,49.1566265 25.92,48.5092048 25.92,47.7108434 C25.92,46.9124819 25.2993338,46.2650602 24.533656,46.2650602 Z" id="Path"></path>
                    </g>
                </g>
            </g>
        </g>
    </g>
</svg>