<?xml version="1.0" encoding="UTF-8"?>
<svg width="43px" height="40px" viewBox="0 0 43 40" version="1.1" xmlns="http://www.w3.org/2000/svg" xmlns:xlink="http://www.w3.org/1999/xlink">
    <title>FD6A1B06-05A5-47DD-9C54-7AC4376403C6</title>
    <g id="Dizajn" stroke="none" stroke-width="1" fill="none" fill-rule="evenodd">
        <g id="Moj-raÄun---dashboard" transform="translate(-968.000000, -829.000000)" fill="#71ACD2" fill-rule="nonzero">
            <g id="wrapper" transform="translate(260.000000, 324.000000)">
                <g id="tabovi" transform="translate(551.000000, 40.000000)">
                    <g id="nova-lozinka" transform="translate(0.000000, 430.000000)">
                        <g id="padlock-(5)" transform="translate(157.000000, 35.000000)">
                            <path d="M36.5540219,5.68330437 C32.8962304,2.02551289 28.0307595,0.00981782511 22.8611968,0.00981782511 C17.5960623,0.00981782511 12.669773,2.08633127 8.99460483,5.85707119 C8.59494114,6.26542321 8.60362949,6.92573711 9.0119815,7.33408912 C9.42033353,7.7337528 10.0806474,7.72506446 10.4889994,7.31671245 C13.7731922,3.95432455 18.1608044,2.10370796 22.8611968,2.10370796 C32.3923066,2.09501962 40.1423066,9.84501962 40.1423066,19.3761295 C40.1423066,28.9072394 32.3923066,36.6572394 22.8611968,36.6572394 C13.3300869,36.6572394 5.58008689,28.9072394 5.58008689,19.3761295 L5.58008689,19.158921 L7.30037836,20.8792125 C7.5002102,21.0790442 7.76954876,21.1833044 8.03888734,21.1833044 C8.3082259,21.1833044 8.56887613,21.0790442 8.7773963,20.8792125 C9.18574831,20.4708604 9.18574831,19.8105465 8.7773963,19.4021945 L5.2846833,15.9007931 C4.87633128,15.4924411 4.21601738,15.4924411 3.80766536,15.9007931 L0.306264014,19.4021945 C-0.102088004,19.8105465 -0.102088004,20.4708604 0.306264014,20.8792125 C0.506095853,21.0790442 0.775434418,21.1833044 1.04477298,21.1833044 C1.31411155,21.1833044 1.57476178,21.0790442 1.78328195,20.8792125 L3.50357343,19.158921 L3.50357343,19.3761295 C3.50357343,24.5456922 5.5192685,29.4111631 9.17705998,33.0689546 C12.8348515,36.7267461 17.7003223,38.7424411 22.8698851,38.7424411 C28.0394479,38.7424411 32.9049188,36.7267461 36.5627103,33.0689546 C40.2205016,29.4111631 42.2275084,24.5456922 42.2275084,19.3761295 C42.2275084,14.2065667 40.2118134,9.34109585 36.5540219,5.68330437 Z" id="Path"></path>
                            <path d="M22.8611967,8.1160398 C19.4727439,8.1160398 16.7185397,10.8702438 16.7185397,14.2586967 L16.7185397,17.221421 L14.8071049,17.221421 C14.2336744,17.221421 13.7645039,17.6905914 13.7645039,18.2640219 L13.7645039,28.6639657 C13.7645039,29.2373962 14.2336744,29.7065667 14.8071049,29.7065667 L30.923977,29.7065667 C31.4974075,29.7065667 31.9665779,29.2373962 31.9665779,28.6639657 L31.9665779,18.2727102 C31.9665779,17.6992797 31.4974075,17.2301092 30.923977,17.2301092 L29.012542,17.2301092 L29.012542,14.2673851 C29.012542,10.8789322 26.2496496,8.1160398 22.8611967,8.1160398 Z M18.8037416,14.2673851 C18.8037416,12.0257932 20.6282931,10.2099299 22.8611967,10.2099299 C25.0941004,10.2099299 26.9186519,12.0344815 26.9186519,14.2673851 L26.9186519,17.2301092 L18.8037416,17.2301092 L18.8037416,14.2673851 L18.8037416,14.2673851 Z M29.8813761,27.6213649 L15.8497057,27.6213649 L15.8497057,19.3066227 L29.8813761,19.3066227 L29.8813761,27.6213649 Z" id="Shape"></path>
                        </g>
                    </g>
                </g>
            </g>
        </g>
    </g>
</svg>