<?xml version="1.0" encoding="UTF-8"?>
<svg width="18px" height="18px" viewBox="0 0 18 18" version="1.1" xmlns="http://www.w3.org/2000/svg" xmlns:xlink="http://www.w3.org/1999/xlink">
    <title>AFD377CF-D897-4392-982B-966A5D2EB024</title>
    <g id="Dizajn" stroke="none" stroke-width="1" fill="none" fill-rule="evenodd" opacity="0.6">
        <g id="PoÄetna---r1" transform="translate(-640.000000, -108.000000)" fill="#FFFFFF" fill-rule="nonzero">
            <g id="Primarni-izbornik" transform="translate(0.000000, 86.000000)">
                <g id="parquet" transform="translate(640.000000, 22.000000)">
                    <path d="M0,18 L18,18 L18,0 L0,0 L0,18 Z M14.2327969,9.01086328 L11.9900391,11.2443047 L6.75724219,6.01147266 L9.01089844,3.76716797 L14.2327969,9.01086328 Z M6.00992578,6.75569531 L11.2427227,11.9885273 L8.98906641,14.2327969 L3.76720313,8.98913672 L6.00992578,6.75569531 Z M3.01985156,9.73335937 L10.2018867,16.9453125 L5.72350781,16.9453125 L1.0546875,12.2764922 L1.0546875,11.6903672 L3.01985156,9.73335937 Z M9.73335937,14.9801484 L16.9453125,7.79811328 L16.9453125,12.2764922 L12.2764922,16.9453125 L11.690332,16.9453125 L9.73335937,14.9801484 Z M16.9453125,6.30963281 L14.9801484,8.26664062 L7.79811328,1.0546875 L12.2764922,1.0546875 L16.9453125,5.72350781 L16.9453125,6.30963281 Z M8.26664062,3.01985156 L1.0546875,10.2018867 L1.0546875,5.72350781 L5.72350781,1.0546875 L6.30963281,1.0546875 L8.26664062,3.01985156 Z M1.0546875,13.7680312 L4.23196875,16.9453125 L1.0546875,16.9453125 L1.0546875,13.7680312 Z M13.7680312,16.9453125 L16.9453125,13.7680312 L16.9453125,16.9453125 L13.7680312,16.9453125 Z M16.9453125,4.23193359 L13.7680312,1.0546875 L16.9453125,1.0546875 L16.9453125,4.23193359 Z M4.23196875,1.0546875 L1.0546875,4.23193359 L1.0546875,1.0546875 L4.23196875,1.0546875 Z" id="Shape"></path>
                </g>
            </g>
        </g>
    </g>
</svg>