<?xml version="1.0" encoding="UTF-8"?>
<svg width="19px" height="19px" viewBox="0 0 19 19" version="1.1" xmlns="http://www.w3.org/2000/svg" xmlns:xlink="http://www.w3.org/1999/xlink">
    <title>004FF305-C1FF-4067-80ED-960A3F82AD37</title>
    <g id="Dizajn" stroke="none" stroke-width="1" fill="none" fill-rule="evenodd" opacity="0.6">
        <g id="PoÄetna---r1" transform="translate(-1409.000000, -107.000000)" fill="#FFFFFF" fill-rule="nonzero">
            <g id="Primarni-izbornik" transform="translate(0.000000, 86.000000)">
                <g id="percentage" transform="translate(1409.000000, 21.000000)">
                    <path d="M16.2175391,2.78246094 C14.4231895,0.988185547 12.0375391,0 9.5,0 C6.96246094,0 4.57681055,0.988185547 2.78246094,2.78246094 C0.988185547,4.57681055 0,6.96246094 0,9.5 C0,12.0375391 0.988185547,14.4231895 2.78246094,16.2175391 C4.57681055,18.0118145 6.96246094,19 9.5,19 C11.2372012,19 12.936959,18.5265586 14.415582,17.6309238 C14.7661543,17.4185098 14.8782246,16.9621387 14.6658477,16.6115664 C14.4534336,16.2609199 13.9970996,16.1489238 13.6464902,16.3613008 C12.399875,17.1164766 10.9660059,17.515625 9.5,17.515625 C5.08016211,17.515625 1.484375,13.9198379 1.484375,9.5 C1.484375,5.08016211 5.08016211,1.484375 9.5,1.484375 C13.9198379,1.484375 17.515625,5.08016211 17.515625,9.5 C17.515625,11.0804512 17.0456348,12.6188203 16.156457,13.9488203 C15.9286426,14.2895586 16.0201914,14.7504941 16.3609297,14.9783086 C16.7017422,15.2061973 17.1626406,15.1145742 17.390418,14.7738359 C18.4434336,13.1988398 19,11.3751367 19,9.5 C19,6.96246094 18.0118145,4.57681055 16.2175391,2.78246094 Z" id="Path"></path>
                    <path d="M7.21035156,13.8638398 C7.32257031,13.9245137 7.44343555,13.9532734 7.56263086,13.9532734 C7.82644141,13.9532734 8.08193945,13.8122207 8.21616406,13.5638848 L12.2279844,6.14200977 C12.4229199,5.78138086 12.2886211,5.33105859 11.9280293,5.13619727 C11.5673633,4.94126172 11.117041,5.07559766 10.9222168,5.43615234 L6.91039648,12.8580273 C6.71546094,13.2186191 6.84975977,13.6689414 7.21035156,13.8638398 Z" id="Path"></path>
                    <path d="M8.27539062,6.90234375 C8.27539062,5.87923828 7.44302734,5.046875 6.41992188,5.046875 C5.39681641,5.046875 4.56445312,5.87923828 4.56445312,6.90234375 C4.56445312,7.92544922 5.39681641,8.7578125 6.41992188,8.7578125 C7.44302734,8.7578125 8.27539062,7.92544922 8.27539062,6.90234375 Z M6.41992188,7.2734375 C6.21530078,7.2734375 6.04882812,7.10696484 6.04882812,6.90234375 C6.04882812,6.69772266 6.21530078,6.53125 6.41992188,6.53125 C6.62454297,6.53125 6.79101562,6.69772266 6.79101562,6.90234375 C6.79101562,7.10696484 6.62454297,7.2734375 6.41992188,7.2734375 Z" id="Shape"></path>
                    <path d="M12.5429688,13.953125 C13.5660742,13.953125 14.3984375,13.1207617 14.3984375,12.0976562 C14.3984375,11.0745508 13.5660742,10.2421875 12.5429688,10.2421875 C11.5198633,10.2421875 10.6875,11.0745508 10.6875,12.0976562 C10.6875,13.1207617 11.5198633,13.953125 12.5429688,13.953125 Z M12.5429688,11.7265625 C12.7475898,11.7265625 12.9140625,11.8930352 12.9140625,12.0976562 C12.9140625,12.3022773 12.7475898,12.46875 12.5429688,12.46875 C12.3383477,12.46875 12.171875,12.3022773 12.171875,12.0976562 C12.171875,11.8930352 12.3383477,11.7265625 12.5429688,11.7265625 Z" id="Shape"></path>
                </g>
            </g>
        </g>
    </g>
</svg>