<?xml version="1.0" encoding="UTF-8"?>
<svg width="18px" height="18px" viewBox="0 0 18 18" version="1.1" xmlns="http://www.w3.org/2000/svg" xmlns:xlink="http://www.w3.org/1999/xlink">
    <title>8E2BE0A8-2C0B-474E-B2B6-B110C1469977</title>
    <g id="Dizajn" stroke="none" stroke-width="1" fill="none" fill-rule="evenodd">
        <g id="PoÄetna---r1" transform="translate(-330.000000, -8056.000000)" fill="#71ACD2" fill-rule="nonzero">
            <g id="Footer" transform="translate(260.000000, 7921.000000)">
                <g id="user-support" transform="translate(70.000000, 67.000000)">
                    <g id="telefon" transform="translate(0.000000, 67.000000)">
                        <g id="phone-ringing" transform="translate(0.000000, 1.000000)">
                            <path d="M5.06747368,-3.23296945e-13 C5.33217544,-3.23296945e-13 5.56094737,0.184947368 5.61642105,0.443754386 L6.49761404,4.556 C6.53750877,4.74221053 6.4802807,4.93596491 6.34564912,5.07063158 L4.83992982,6.57631579 C6.26035088,9.40038596 8.56519298,11.7052281 11.3892632,13.1256491 L12.8949474,11.6199298 C13.0295789,11.4852982 13.2233684,11.4281404 13.4095789,11.4679649 L17.5218246,12.3491579 C17.7806667,12.4046316 17.9655789,12.6334035 17.9655789,12.8981053 C17.9655789,13.749193 17.7642456,14.5550877 17.367193,15.2934035 C16.9948772,15.9857544 16.4549474,16.5921404 15.8057895,17.0469825 C15.1595088,17.4998246 14.4095789,17.7990526 13.6370526,17.9123509 C13.3949825,17.9478947 13.1529474,17.9656491 12.9118596,17.9656491 C12.3319298,17.9656491 11.7569123,17.8631228 11.1946316,17.6588421 C8.71750877,16.7589825 6.41821053,15.2933684 4.54522807,13.4204211 C2.67224561,11.5474737 1.20663158,9.24814035 0.306807018,6.77101754 C0.0176491228,5.97494737 -0.0676842105,5.15319298 0.0532631579,4.32849123 C0.166561404,3.556 0.465789474,2.80607018 0.918631579,2.15975439 C1.37347368,1.51059649 1.97985965,0.970666667 2.67221053,0.598350877 C3.41052632,0.201333333 4.21638596,-3.23296945e-13 5.06747368,-3.23296945e-13 Z M4.61891228,1.14736842 C3.4962807,1.27129825 2.49985965,1.8597193 1.83817544,2.80410526 C1.09410526,3.86603509 0.920596491,5.17217544 1.36214035,6.38768421 C3.09210526,11.15 6.81564912,14.8735439 11.5779649,16.6035088 C12.7934386,17.0450526 14.099614,16.8715789 15.1615439,16.1274737 C16.1059298,15.4657895 16.6943509,14.4693684 16.8182807,13.3467368 L13.4729825,12.6298947 L11.9004912,14.202386 C11.7331579,14.3697193 11.4789123,14.4141754 11.264807,14.3135439 C7.92480702,12.7444211 5.22122807,10.0408421 3.65210526,6.70084211 C3.55150877,6.48670175 3.59592982,6.23245614 3.76326316,6.06515789 L5.33575439,4.49266667 L4.61891228,1.14736842 Z M8.98315789,-6.35935749e-13 C11.3824912,-6.35935749e-13 13.6381754,0.934315789 15.3347368,2.63087719 C17.0312982,4.3274386 17.965614,6.58312281 17.965614,8.98245614 C17.965614,9.29249123 17.7142807,9.54385965 17.4042105,9.54385965 C17.0941754,9.54385965 16.842807,9.29249123 16.842807,8.98245614 C16.842807,4.64863158 13.3169825,1.12280702 8.98315789,1.12280702 C8.67312281,1.12280702 8.42175439,0.871438596 8.42175439,0.561403509 C8.42175439,0.251368421 8.67312281,-6.35935749e-13 8.98315789,-6.35935749e-13 Z M8.98315789,2.24561404 C12.6978596,2.24561404 15.72,5.26775439 15.72,8.98245614 C15.72,9.29249123 15.4686667,9.54385965 15.1585965,9.54385965 C14.8485614,9.54385965 14.597193,9.29249123 14.597193,8.98245614 C14.597193,5.88687719 12.0787368,3.36842105 8.98315789,3.36842105 C8.67312281,3.36842105 8.42175439,3.11705263 8.42175439,2.80701754 C8.42175439,2.49698246 8.67312281,2.24561404 8.98315789,2.24561404 Z M8.98315789,4.49122807 C11.4596491,4.49122807 13.474386,6.50596491 13.474386,8.98245614 C13.474386,9.29249123 13.2230526,9.54385965 12.9129825,9.54385965 C12.6029474,9.54385965 12.3515789,9.29249123 12.3515789,8.98245614 C12.3515789,7.12508772 10.8405263,5.61403509 8.98315789,5.61403509 C8.67312281,5.61403509 8.42175439,5.36266667 8.42175439,5.05263158 C8.42175439,4.74259649 8.67312281,4.49122807 8.98315789,4.49122807 Z" id="Combined-Shape"></path>
                        </g>
                    </g>
                </g>
            </g>
        </g>
    </g>
</svg>