<?xml version="1.0" encoding="UTF-8"?>
<svg width="18px" height="23px" viewBox="0 0 18 23" version="1.1" xmlns="http://www.w3.org/2000/svg" xmlns:xlink="http://www.w3.org/1999/xlink">
    <title>504AFD0B-076C-4F72-9543-3DF8C1EB0645</title>
    <g id="Dizajn" stroke="none" stroke-width="1" fill="none" fill-rule="evenodd">
        <g id="Kontakt-" transform="translate(-381.000000, -568.000000)" fill="#71ACD2" fill-rule="nonzero">
            <g id="wrapper" transform="translate(260.000000, 340.000000)">
                <g id="Lokacije" transform="translate(120.000000, 193.000000)">
                    <g id="Group" transform="translate(1.000000, 35.000000)">
                        <g id="pin-(1)" transform="translate(0.000000, 0.000000)">
                            <path d="M8.48195122,0 C3.80765312,0 0.00498644986,3.80266667 0.00498644986,8.47696477 C0.00498644986,10.0157832 0.695111111,11.6707859 0.72403252,11.7405962 C0.946926829,12.2696585 1.38673171,13.0914255 1.70386992,13.5731165 L7.51607588,22.3796856 C7.75392954,22.7407046 8.1059729,22.9476423 8.48195122,22.9476423 C8.85792954,22.9476423 9.2099729,22.7407046 9.44782656,22.3801843 L15.2605312,13.5731165 C15.578168,13.0914255 16.0174743,12.2696585 16.2403686,11.7405962 C16.26929,11.6712846 16.958916,10.0162818 16.958916,8.47696477 C16.958916,3.80266667 13.1562493,0 8.48195122,0 Z M15.3208672,11.3536477 C15.1219079,11.8278591 14.7125203,12.5922818 14.427794,13.0241084 L8.61508943,21.8311762 C8.50040108,22.0052033 8.464,22.0052033 8.34931165,21.8311762 L2.53660705,13.0241084 C2.25188076,12.5922818 1.84249322,11.8273604 1.64353388,11.3531491 C1.63505691,11.3327046 1.00227642,9.80934417 1.00227642,8.47696477 C1.00227642,4.35267209 4.35765854,0.997289973 8.48195122,0.997289973 C12.6062439,0.997289973 15.961626,4.35267209 15.961626,8.47696477 C15.961626,9.81133875 15.3273496,11.3386883 15.3208672,11.3536477 Z" id="Shape"></path>
                            <path d="M8.48195122,3.98965854 C6.00717615,3.98965854 3.99414634,6.00318699 3.99414634,8.47746341 C3.99414634,10.9517398 6.00717615,12.9652683 8.48195122,12.9652683 C10.9567263,12.9652683 12.9697561,10.9517398 12.9697561,8.47746341 C12.9697561,6.00318699 10.9567263,3.98965854 8.48195122,3.98965854 Z M8.48195122,11.9679783 C6.55768022,11.9679783 4.99143631,10.4022331 4.99143631,8.47746341 C4.99143631,6.55269377 6.55768022,4.98694851 8.48195122,4.98694851 C10.4062222,4.98694851 11.9724661,6.55269377 11.9724661,8.47746341 C11.9724661,10.4022331 10.4062222,11.9679783 8.48195122,11.9679783 Z" id="Shape"></path>
                        </g>
                    </g>
                </g>
            </g>
        </g>
    </g>
</svg>