<?xml version="1.0" encoding="UTF-8"?>
<svg width="86px" height="86px" viewBox="0 0 86 86" version="1.1" xmlns="http://www.w3.org/2000/svg" xmlns:xlink="http://www.w3.org/1999/xlink">
    <title>15A84A98-BC71-40DA-90A4-A8F8EF4F14E5</title>
    <g id="Dizajn" stroke="none" stroke-width="1" fill="none" fill-rule="evenodd">
        <g id="PoÄetna---r1" transform="translate(-597.000000, -7287.000000)">
            <g id="Group-77" transform="translate(260.000000, 6966.000000)">
                <g id="Group-75" transform="translate(0.000000, 144.000000)">
                    <g id="Group-50" transform="translate(337.000000, 177.000000)">
                        <circle id="Oval" stroke-opacity="0.40349104" stroke="#FFFFFF" stroke-width="8" fill="#FFFFFF" cx="43" cy="43" r="39"></circle>
                        <g id="play" transform="translate(35.875000, 33.250000)" fill="#1661A2" fill-rule="nonzero">
                            <path d="M17.0527173,8.89982033 L1.45274721,0.124837152 C1.15049779,-0.044812523 0.781948501,-0.0409125305 0.483599073,0.132637137 C0.183299649,0.3081368 0,0.627936187 0,0.975035521 L0,18.5250019 C0,18.8721012 0.183299649,19.1919006 0.483599073,19.3674003 C0.635698781,19.4551501 0.805348456,19.5 0.97499813,19.5 C1.13879782,19.5 1.3045475,19.4590501 1.45274721,19.3752002 L17.0527173,10.6002171 C17.3588667,10.4266674 17.5499663,10.102968 17.5499663,9.7500187 C17.5499663,9.39706937 17.3588667,9.07336999 17.0527173,8.89982033 Z" id="Path"></path>
                        </g>
                    </g>
                </g>
            </g>
        </g>
    </g>
</svg>