<?xml version="1.0" encoding="UTF-8"?>
<svg width="23px" height="30px" viewBox="0 0 23 30" version="1.1" xmlns="http://www.w3.org/2000/svg" xmlns:xlink="http://www.w3.org/1999/xlink">
    <title>E9CC17FD-D62E-4A1B-9821-A3A30368C569</title>
    <g id="Dizajn" stroke="none" stroke-width="1" fill="none" fill-rule="evenodd">
        <g id="PoÄetna---r1" transform="translate(-1382.000000, -18.000000)" fill="#144578" fill-rule="nonzero">
            <g id="Header-top" transform="translate(260.000000, 16.000000)">
                <g id="quick-order" transform="translate(1088.000000, 2.000000)">
                    <g id="clipboard" transform="translate(34.000000, 0.000000)">
                        <path d="M20.0727139,3.9256845 L17.4242424,3.9256845 L17.4242424,2.74432295 C17.4242424,2.36210796 17.0060873,2.18839202 16.6227506,2.18839202 L14.5667267,2.18839202 C14.0788679,0.798531424 12.8591543,0.103601128 11.4652149,0.103601128 C10.086617,0.051925289 8.83268516,0.894766866 8.36370307,2.18839202 L6.34249761,2.18839202 C5.95916095,2.18839202 5.57582428,2.36210796 5.57582428,2.74432295 L5.57582428,3.9256845 L2.92728607,3.9256845 C1.35778688,3.94237773 0.0737724648,5.17687827 0,6.74012227 L0,26.6498187 C0,28.1786787 1.39393939,29.2905405 2.92728607,29.2905405 L20.0727139,29.2905405 C21.6060606,29.2905405 23,28.1786787 23,26.6498187 L23,6.74018878 C22.9262275,5.17687827 21.6422131,3.94237773 20.0727139,3.9256845 Z M6.96969697,3.57825261 L8.88638031,3.57825261 C9.22095778,3.5375504 9.48970033,3.28376018 9.54853154,2.95282199 C9.75490768,2.05670841 10.5433926,1.41345395 11.4652149,1.38924545 C12.3784993,1.4168458 13.1551113,2.06209547 13.3470131,2.95282199 C13.4095129,3.29519936 13.6959982,3.55224842 14.0439828,3.57825261 L16.0303697,3.57825261 L16.0303697,6.35797379 L6.96969697,6.35797379 L6.96969697,3.57825261 Z M21.6060606,26.6498852 C21.6060606,27.4143152 20.8393873,27.9007465 20.0727139,27.9007465 L2.92728607,27.9007465 C2.16061273,27.9007465 1.39393939,27.4143152 1.39393939,26.6498852 L1.39393939,6.74018878 C1.46504378,5.94450057 2.12619447,5.33017661 2.92728607,5.31554509 L5.57575758,5.31554509 L5.57575758,7.08768718 C5.61257711,7.4770184 5.95075649,7.76825199 6.34243091,7.74790089 L16.6226839,7.74790089 C17.0215622,7.76964864 17.3703472,7.48240546 17.4241757,7.08768718 L17.4241757,5.31554509 L20.0726472,5.31554509 C20.8736721,5.33017661 21.5348895,5.94443407 21.6060606,6.74012227 L21.6060606,26.6498852 L21.6060606,26.6498852 Z" id="Shape"></path>
                        <path d="M8.81320281,15.728016 C8.54186958,15.4474325 8.09142457,15.4316068 7.80035928,15.692561 L5.48533779,17.8571496 L4.50870433,16.8635267 C4.2373711,16.5829432 3.7869261,16.5671855 3.4958608,16.8280717 C3.21566545,17.1160587 3.21566545,17.5691626 3.4958608,17.8571496 L4.97888141,19.3475499 C5.1072437,19.4885548 5.29265589,19.5665286 5.48526856,19.5604836 C5.67608111,19.5578347 5.85810077,19.4812872 5.99165571,19.3475499 L8.81306434,16.7216388 C9.09277504,16.4699219 9.11146858,16.0433753 8.85481324,15.7690405 C8.84165853,15.7547091 8.82774223,15.7410569 8.81320281,15.728016 Z" id="Path"></path>
                        <path d="M18.9841244,17.1283784 L10.5873042,17.1283784 C10.1840349,17.1283784 9.85714286,17.491377 9.85714286,17.9391892 C9.85714286,18.3870013 10.1840349,18.75 10.5873042,18.75 L18.9841244,18.75 C19.3873937,18.75 19.7142857,18.3870013 19.7142857,17.9391892 C19.7142857,17.491377 19.3873937,17.1283784 18.9841244,17.1283784 Z" id="Path"></path>
                        <path d="M8.81320281,10.0523403 C8.54186958,9.77175681 8.09142457,9.75593111 7.80035928,10.0168853 L5.48533779,12.1814739 L4.50870433,11.1878511 C4.2373711,10.9072676 3.7869261,10.8914419 3.4958608,11.1523961 C3.21566545,11.440383 3.21566545,11.893487 3.4958608,12.1814739 L4.97888141,13.6718742 C5.1072437,13.8128791 5.29265589,13.890853 5.48526856,13.884808 C5.67608111,13.882159 5.85810077,13.8056115 5.99165571,13.6718742 L8.81306434,11.0459632 C9.09277504,10.7942463 9.11146858,10.3676996 8.85481324,10.0933649 C8.84165853,10.0790334 8.82774223,10.0653812 8.81320281,10.0523403 Z" id="Path"></path>
                        <path d="M18.9841244,11.4527027 L10.5873042,11.4527027 C10.1840349,11.4527027 9.85714286,11.8157014 9.85714286,12.2635135 C9.85714286,12.7113257 10.1840349,13.0743243 10.5873042,13.0743243 L18.9841244,13.0743243 C19.3873937,13.0743243 19.7142857,12.7113257 19.7142857,12.2635135 C19.7142857,11.8157014 19.3873937,11.4527027 18.9841244,11.4527027 Z" id="Path"></path>
                        <path d="M8.81320281,21.4036665 C8.54186958,21.1230812 8.09142457,21.1073233 7.80035928,21.3682113 L5.48533779,23.5328141 L4.50870433,22.5391847 C4.2373711,22.2585994 3.7869261,22.2428415 3.4958608,22.5037295 C3.21566545,22.7917183 3.21566545,23.2448252 3.4958608,23.5328141 L4.97888141,25.0232242 C5.1072437,25.16423 5.29265589,25.2422044 5.48526856,25.2361593 C5.67608111,25.2335104 5.85810077,25.1569624 5.99165571,25.0232242 L8.81306434,22.3972959 C9.09277504,22.1455773 9.11146858,21.7190278 8.85481324,21.4446913 C8.84165853,21.4304277 8.82774223,21.4167754 8.81320281,21.4036665 Z" id="Path"></path>
                        <path d="M18.9841244,22.8040541 L10.5873042,22.8040541 C10.1840349,22.8040541 9.85714286,23.1670527 9.85714286,23.6148649 C9.85714286,24.062677 10.1840349,24.4256757 10.5873042,24.4256757 L18.9841244,24.4256757 C19.3873937,24.4256757 19.7142857,24.062677 19.7142857,23.6148649 C19.7142857,23.1670527 19.3873937,22.8040541 18.9841244,22.8040541 Z" id="Path"></path>
                    </g>
                </g>
            </g>
        </g>
    </g>
</svg>