<?xml version="1.0" encoding="UTF-8"?>
<svg width="23px" height="29px" viewBox="0 0 23 29" version="1.1" xmlns="http://www.w3.org/2000/svg" xmlns:xlink="http://www.w3.org/1999/xlink">
    <title>D732FCD4-CFA4-4C42-9D0B-D53392D24FB0</title>
    <g id="Dizajn" stroke="none" stroke-width="1" fill="none" fill-rule="evenodd">
        <g id="Moj-raÄun---2B2-dashboard" transform="translate(-384.000000, -759.000000)" fill="#71ACD2" fill-rule="nonzero">
            <g id="wrapper" transform="translate(260.000000, 345.000000)">
                <g id="B2B-DIO" transform="translate(0.000000, 263.000000)">
                    <g id="receipt" transform="translate(124.000000, 151.000000)">
                        <path d="M3.51358789,7.2339707 L10.1818887,7.2339707 C10.4449844,7.2339707 10.658293,7.02066211 10.658293,6.75756641 C10.658293,6.4944707 10.4449844,6.28110547 10.1818887,6.28110547 L3.51358789,6.28110547 C3.25049219,6.28110547 3.03718359,6.49441406 3.03718359,6.75756641 C3.03718359,7.02066211 3.25049219,7.2339707 3.51358789,7.2339707 Z" id="Path"></path>
                        <path d="M13.9394844,8.93908008 L3.51364453,8.93908008 C3.25054883,8.93908008 3.03724023,9.15238867 3.03724023,9.41554102 C3.03724023,9.67869336 3.25054883,9.89194531 3.51364453,9.89194531 L13.9394844,9.89194531 C14.2025801,9.89194531 14.4158887,9.67863672 14.4158887,9.41554102 C14.4158887,9.15244531 14.2025801,8.93908008 13.9394844,8.93908008 Z" id="Path"></path>
                        <path d="M3.51358789,12.5498066 L10.1818887,12.5498066 C10.4449844,12.5498066 10.658293,12.336498 10.658293,12.0733457 C10.658293,11.81025 10.4449844,11.5969414 10.1818887,11.5969414 L3.51358789,11.5969414 C3.25049219,11.5969414 3.03718359,11.81025 3.03718359,12.0733457 C3.03718359,12.336498 3.25049219,12.5498066 3.51358789,12.5498066 Z" id="Path"></path>
                        <path d="M13.1187051,20.7401543 L2.97975,20.7401543 C2.7166543,20.7401543 2.5033457,20.9534629 2.5033457,21.2166152 L2.5033457,24.1982344 C2.5033457,24.4613301 2.7166543,24.6746387 2.97975,24.6746387 L13.1187051,24.6746387 C13.3818008,24.6746387 13.595166,24.4613301 13.595166,24.1982344 L13.595166,21.2166152 C13.595166,20.9534629 13.3819141,20.7401543 13.1187051,20.7401543 Z M12.6423008,23.7218301 L3.45621094,23.7218301 L3.45621094,21.6930195 L12.6423008,21.6930195 L12.6423008,23.7218301 Z" id="Shape"></path>
                        <path d="M3.51358789,15.2077246 L7.24014453,15.2077246 C7.50324023,15.2077246 7.71660547,14.994416 7.71660547,14.7312637 C7.71660547,14.468168 7.50329688,14.2548594 7.24014453,14.2548594 L3.51358789,14.2548594 C3.25049219,14.2548594 3.03718359,14.468168 3.03718359,14.7312637 C3.03718359,14.994416 3.25049219,15.2077246 3.51358789,15.2077246 Z" id="Path"></path>
                        <path d="M3.51358789,17.8656426 L10.1818887,17.8656426 C10.4449844,17.8656426 10.658293,17.652334 10.658293,17.3891816 C10.658293,17.1260859 10.4449844,16.9127773 10.1818887,16.9127773 L3.51358789,16.9127773 C3.25049219,16.9127773 3.03718359,17.1260859 3.03718359,17.3891816 C3.03718359,17.652334 3.25049219,17.8656426 3.51358789,17.8656426 Z" id="Path"></path>
                        <path d="M13.9394844,3.62313086 L3.51364453,3.62313086 C3.25054883,3.62313086 3.03724023,3.83643945 3.03724023,4.0995918 C3.03724023,4.3626875 3.25054883,4.57599609 3.51364453,4.57599609 L13.9394844,4.57599609 C14.2025801,4.57599609 14.4158887,4.3626875 14.4158887,4.0995918 C14.4158887,3.83643945 14.2025801,3.62313086 13.9394844,3.62313086 Z" id="Path"></path>
                        <path d="M17.1305039,17.8656426 L19.1816309,17.8656426 C19.4447266,17.8656426 19.6580352,17.652334 19.6580352,17.3891816 C19.6580352,17.1260859 19.4447266,16.9127773 19.1816309,16.9127773 L17.1305039,16.9127773 C16.8674082,16.9127773 16.6540996,17.1260859 16.6540996,17.3891816 C16.654043,17.652334 16.8673516,17.8656426 17.1305039,17.8656426 Z" id="Path"></path>
                        <path d="M18.4701113,22.1925332 L18.4701113,21.3477383 C18.6201523,21.386707 18.7758008,21.4533164 18.9314492,21.536748 C18.9925645,21.570166 19.0593437,21.5868184 19.1260098,21.5868184 C19.337166,21.5868184 19.503916,21.4256758 19.503916,21.2144629 C19.503916,21.0477695 19.4094395,20.9421348 19.3038047,20.8809629 C19.0648379,20.7475742 18.7980039,20.6587051 18.4979219,20.6142422 L18.4979219,20.536418 C18.4979219,20.375332 18.3700273,20.2474375 18.2088848,20.2474375 C18.0477422,20.2474375 17.9199043,20.375332 17.9199043,20.536418 L17.9199043,20.6031973 C17.219543,20.6754707 16.7526543,21.0867383 16.7526543,21.6980605 C16.7526543,22.3595664 17.1472695,22.6651992 17.9476016,22.8819629 L17.9476016,23.7657266 C17.6919258,23.7101621 17.469668,23.604584 17.2361953,23.454543 C17.1694727,23.4100801 17.0917051,23.3822695 17.019375,23.3822695 C16.8026113,23.3822695 16.6358613,23.5434121 16.6358613,23.7601758 C16.6358613,23.9102734 16.7081348,24.0214023 16.8248711,24.0936758 C17.1527637,24.2937305 17.5251758,24.4327266 17.9198477,24.4826836 L17.9198477,24.7828223 C17.9198477,24.9439082 18.0476855,25.0718594 18.2088281,25.0718594 C18.3699707,25.0718594 18.4978652,24.9439082 18.4978652,24.7828223 L18.4978652,24.4881777 C19.1981699,24.4103535 19.6761035,24.0102441 19.6761035,23.3877637 C19.6761602,22.7650566 19.3149062,22.4203984 18.4701113,22.1925332 Z M17.9476582,22.0480996 C17.6419688,21.9368574 17.5641445,21.8201777 17.5641445,21.647877 C17.5641445,21.4700254 17.6808242,21.3365801 17.9476582,21.297668 L17.9476582,22.0480996 Z M18.4701113,23.7933105 L18.4701113,23.0207891 C18.77025,23.1263672 18.8647266,23.2485977 18.8647266,23.432 C18.8647832,23.6321113 18.7313379,23.7543984 18.4701113,23.7933105 Z" id="Shape"></path>
                        <path d="M17.1305039,4.57599609 L19.1816309,4.57599609 C19.4447266,4.57599609 19.6580352,4.3626875 19.6580352,4.0995918 C19.6580352,3.83649609 19.4447266,3.62313086 19.1816309,3.62313086 L17.1305039,3.62313086 C16.8674082,3.62313086 16.6540996,3.83643945 16.6540996,4.0995918 C16.654043,4.3626875 16.8673516,4.57599609 17.1305039,4.57599609 Z" id="Path"></path>
                        <path d="M17.1305039,15.2077246 L19.1816309,15.2077246 C19.4447266,15.2077246 19.6580352,14.994416 19.6580352,14.7312637 C19.6580352,14.468168 19.4447266,14.2548594 19.1816309,14.2548594 L17.1305039,14.2548594 C16.8674082,14.2548594 16.6540996,14.468168 16.6540996,14.7312637 C16.654043,14.994416 16.8673516,15.2077246 17.1305039,15.2077246 Z" id="Path"></path>
                        <path d="M21.170623,0 L1.48534375,0 C0.697189453,0 0.0560175781,0.641171875 0.0560175781,1.42932617 L0.0560175781,27.8252734 C0.0560175781,28.4666719 0.457429688,28.9145859 1.03216211,28.9145859 C1.21833984,28.9145859 1.40865234,28.8655918 1.59777539,28.7690762 L2.5994082,28.2575547 C2.75703906,28.1770684 2.98733984,28.1309062 3.23134766,28.1309062 C3.47535547,28.1309062 3.70571289,28.1770684 3.86328711,28.257498 L4.86491992,28.7690762 C5.15644922,28.9179844 5.53480859,28.9999434 5.9302168,28.9999434 C6.32556836,28.9999434 6.70392773,28.9179277 6.99551367,28.7690195 L7.99725977,28.2574414 C8.15477734,28.1769551 8.38507812,28.130793 8.62908594,28.130793 C8.87309375,28.130793 9.10350781,28.1769551 9.26108203,28.2574414 L10.2627148,28.7690195 C10.5543008,28.9179277 10.9326035,28.9999434 11.3280117,28.9999434 C11.7233633,28.9999434 12.1017227,28.9178711 12.3933086,28.7689629 L13.3950547,28.2573848 C13.5525723,28.1768984 13.782873,28.1307363 14.0268809,28.1307363 C14.2708887,28.1307363 14.5013027,28.1768984 14.658877,28.2573848 L15.6605098,28.7689629 C15.9520391,28.9178711 16.3303984,28.9999434 16.7258066,28.9999434 C17.1212715,28.9999434 17.4995176,28.9178145 17.7911035,28.7689063 L18.7927363,28.2573848 C18.9503672,28.1768984 19.180668,28.1307363 19.4246758,28.1307363 C19.6686836,28.1307363 19.899041,28.1768984 20.0566152,28.2573281 L21.058248,28.7689063 C21.2473711,28.8654785 21.437627,28.914416 21.6238047,28.914416 L21.6238613,28.914416 C21.9116523,28.914416 22.1691406,28.7963203 22.3489746,28.5819355 C22.5131758,28.3861289 22.5999492,28.1244492 22.5999492,27.8251035 L22.5999492,1.42909961 C22.5999492,0.641171875 21.9587207,0 21.170623,0 Z M21.647084,27.8252734 C21.647084,27.9000391 21.6328672,27.9437656 21.6238047,27.9617207 C21.6082852,27.9617207 21.5644453,27.9576992 21.4915488,27.9204297 L20.4899727,27.4088516 C20.1983867,27.2599434 19.820084,27.1779844 19.4246758,27.1779844 C19.0293242,27.1779844 18.6509648,27.26 18.3593789,27.4089082 L17.3577461,27.9204297 C17.2001152,28.000916 16.9698145,28.0470781 16.7258066,28.0470781 C16.4817988,28.0470781 16.2514414,28.000916 16.0938672,27.9204863 L15.092291,27.4089082 C14.8007051,27.26 14.4223457,27.1779844 14.0269375,27.1779844 C13.6314727,27.1779844 13.2532266,27.26 12.9616973,27.4089082 L11.9600645,27.9204297 C11.8024336,28.000916 11.5721328,28.0470781 11.328125,28.0470781 C11.0841172,28.0470781 10.8537598,28.000916 10.6961855,27.9204863 L9.69455273,27.4089082 C9.4029668,27.26 9.02460742,27.1779844 8.62919922,27.1779844 C8.23379102,27.1779844 7.85548828,27.26 7.56395898,27.4089082 L6.56232617,27.9204297 C6.40469531,28.000916 6.17439453,28.0470781 5.93038672,28.0470781 C5.68637891,28.0470781 5.45602148,28.000916 5.29844727,27.9204863 L4.29681445,27.4089082 C4.00522852,27.26 3.62692578,27.178041 3.23151758,27.178041 C2.83616602,27.178041 2.45780664,27.2600566 2.1662207,27.4089648 L1.16458789,27.9204863 C1.09157812,27.9577559 1.04773828,27.9617773 1.03233203,27.9617773 L1.03199219,27.9617773 C1.02292969,27.9438223 1.00876953,27.9000957 1.00876953,27.8253301 L1.00876953,1.42926953 C1.00876953,1.16651367 1.22270117,0.952808594 1.48540039,0.952808594 L21.1706797,0.952808594 C21.4333789,0.952808594 21.647084,1.16651367 21.647084,1.42926953 L21.647084,27.8252734 L21.647084,27.8252734 Z" id="Shape"></path>
                        <path d="M17.1305039,12.5498066 L19.1816309,12.5498066 C19.4447266,12.5498066 19.6580352,12.336498 19.6580352,12.0733457 C19.6580352,11.81025 19.4447266,11.5969414 19.1816309,11.5969414 L17.1305039,11.5969414 C16.8674082,11.5969414 16.6540996,11.81025 16.6540996,12.0733457 C16.654043,12.336498 16.8673516,12.5498066 17.1305039,12.5498066 Z" id="Path"></path>
                        <path d="M17.1305039,7.2339707 L19.1816309,7.2339707 C19.4447266,7.2339707 19.6580352,7.02066211 19.6580352,6.75756641 C19.6580352,6.4944707 19.4447266,6.28110547 19.1816309,6.28110547 L17.1305039,6.28110547 C16.8674082,6.28110547 16.6540996,6.49441406 16.6540996,6.75756641 C16.654043,7.02066211 16.8673516,7.2339707 17.1305039,7.2339707 Z" id="Path"></path>
                        <path d="M17.1305039,9.89194531 L19.1816309,9.89194531 C19.4447266,9.89194531 19.6580352,9.67863672 19.6580352,9.41554102 C19.6580352,9.15244531 19.4447266,8.93908008 19.1816309,8.93908008 L17.1305039,8.93908008 C16.8674082,8.93908008 16.6540996,9.15238867 16.6540996,9.41554102 C16.6540996,9.67869336 16.8673516,9.89194531 17.1305039,9.89194531 Z" id="Path"></path>
                    </g>
                </g>
            </g>
        </g>
    </g>
</svg>