<?xml version="1.0" encoding="UTF-8"?>
<svg width="21px" height="20px" viewBox="0 0 21 20" version="1.1" xmlns="http://www.w3.org/2000/svg" xmlns:xlink="http://www.w3.org/1999/xlink">
    <title>AE1E76FE-2199-4737-BC78-503C33BDC617</title>
    <g id="Dizajn" stroke="none" stroke-width="1" fill="none" fill-rule="evenodd" opacity="0.6">
        <g id="PoÄetna---r1" transform="translate(-287.000000, -107.000000)" fill="#FFFFFF">
            <g id="Primarni-izbornik" transform="translate(0.000000, 86.000000)">
                <g id="Group-5" transform="translate(287.000000, 21.000000)">
                    <path d="M19.3408515,9.05609241 L12.7907525,9.05609241 L12.7907525,7.92176898 L19.3408515,7.92176898 C19.6677822,7.92176898 19.9339868,7.64777558 19.9339868,7.31107591 L19.9339868,3.69351815 C19.9339868,3.35688449 19.6677822,3.08282508 19.3408515,3.08282508 L12.7907525,3.08282508 L12.7907525,0.742693069 C12.7907525,0.40150495 12.5200594,0.132 12.1976172,0.132 L7.05266667,0.132 C6.89240264,0.132 6.76263366,0.26170297 6.76263366,0.421834983 C6.76263366,0.58209901 6.89240264,0.711735974 7.05266667,0.711735974 L11.5393993,0.71160396 L7.72243564,3.09193399 C7.44170957,3.14005281 7.22692409,3.39114191 7.22692409,3.69351815 L7.22692409,4.39107591 L0.725867987,4.39120792 C0.723755776,4.39041584 0.712138614,4.38124092 0.712138614,4.36025083 L0.712138614,0.742693069 C0.712138614,0.72170297 0.723755776,0.712528053 0.725141914,0.711735974 L5.69906931,0.711735974 C5.85920132,0.711735974 5.98910231,0.58209901 5.98910231,0.421834983 C5.98910231,0.261834983 5.85920132,0.132 5.69906931,0.132 L0.725141914,0.132 C0.398079208,0.132 0.132006601,0.406059406 0.132006601,0.742693069 L0.132006601,4.36025083 C0.132006601,4.69688449 0.398079208,4.97094389 0.725141914,4.97094389 L7.22672607,4.97094389 L7.22672607,6.10520132 L0.725141914,6.10520132 C0.398079208,6.10506931 0.132006601,6.37912871 0.132006601,6.71576238 L0.132006601,10.3333861 C0.132006601,10.6700198 0.398079208,10.9440792 0.725141914,10.9440792 L7.22672607,10.9440792 L7.22672607,12.0783366 L0.725141914,12.0783366 C0.398079208,12.0783366 0.132006601,12.352198 0.132006601,12.6888977 L0.132006601,16.3064554 C0.132006601,16.6430891 0.398079208,16.9171485 0.725141914,16.9171485 L7.22672607,16.9171485 L7.22672607,19.2574125 C7.22672607,19.5941122 7.49293069,19.8679736 7.81986139,19.8679736 L19.3408515,19.8679736 C19.6677822,19.8679736 19.9339868,19.5941122 19.9339868,19.2574125 L19.9339868,15.6398548 C19.9339868,15.3030231 19.6677822,15.0291617 19.3408515,15.0291617 L12.7907525,15.0291617 L12.7907525,13.8949043 L19.3408515,13.8949043 C19.6679802,13.8949043 19.9339868,13.6208449 19.9339868,13.2842112 L19.9339868,12.2438152 C19.9339868,12.0836172 19.8042178,11.9539142 19.6438878,11.9539142 C19.4836238,11.9539142 19.3538548,12.0836172 19.3538548,12.2438152 L19.3538548,13.2842112 C19.3538548,13.3053333 19.3422376,13.3143762 19.3408515,13.3151023 L7.82045545,13.3151023 C7.8199934,13.3149703 7.81939934,13.3143762 7.81880528,13.3139142 C7.81834323,13.3135842 7.81788119,13.3133201 7.81728713,13.3127261 C7.81656106,13.312 7.81563696,13.3107459 7.81471287,13.3095578 C7.81411881,13.3086337 7.81352475,13.3080396 7.81279868,13.3069835 C7.81187459,13.3053333 7.8109505,13.3030231 7.81022442,13.3009769 C7.80976238,13.2997228 7.80910231,13.2987987 7.80870627,13.2974785 C7.80758416,13.2937162 7.80685809,13.2892937 7.80685809,13.2842112 L7.80685809,9.66665347 C7.80685809,9.64566337 7.81854125,9.63642244 7.81986139,9.63569637 C8.00976238,9.63569637 19.1494323,9.63549835 19.3401254,9.63549835 C19.3422376,9.63642244 19.3538548,9.64566337 19.3538548,9.66665347 L19.3538548,10.8910759 C19.3538548,11.0510759 19.4836238,11.1809109 19.6438878,11.1809109 C19.8040858,11.1809109 19.9339868,11.0510759 19.9339868,10.8910759 L19.9339868,9.66665347 C19.9339868,9.3299538 19.6679802,9.05609241 19.3408515,9.05609241 L19.3408515,9.05609241 Z M12.2106205,9.05609241 L8.83266667,9.05609241 L10.6516766,7.92176898 L12.2106205,7.92176898 L12.2106205,9.05609241 Z M19.3538548,3.69351815 L19.3538548,7.31107591 C19.3538548,7.33206601 19.3422376,7.34130693 19.3408515,7.342033 L7.82045545,7.342033 C7.8199934,7.34190099 7.81926733,7.34130693 7.81867327,7.34071287 C7.81821122,7.34038284 7.81788119,7.34025083 7.81741914,7.33978878 C7.81656106,7.33886469 7.81550495,7.33747855 7.81458086,7.33615842 C7.8139868,7.33543234 7.81339274,7.33477228 7.81293069,7.3340462 C7.81187459,7.33219802 7.8109505,7.32982178 7.8100264,7.32757756 C7.80963036,7.32645545 7.80910231,7.32572937 7.80870627,7.32454125 C7.80758416,7.32071287 7.80685809,7.31622442 7.80685809,7.31107591 L7.80685809,3.69351815 C7.80685809,3.67252805 7.81854125,3.66335314 7.81986139,3.66262706 L19.3403894,3.66262706 C19.3430957,3.66414521 19.3538548,3.67345215 19.3538548,3.69351815 L19.3538548,3.69351815 Z M12.2106205,0.976554455 L12.2106205,3.0829571 L8.83266667,3.0829571 L12.2106205,0.976554455 Z M0.725867987,10.3644092 C0.723623762,10.3635512 0.712138614,10.3543102 0.712138614,10.3333861 L0.712138614,6.71576238 C0.712138614,6.69483828 0.723755776,6.68559736 0.725141914,6.68487129 L7.22672607,6.68487129 L7.22672607,7.31107591 C7.22672607,7.64777558 7.49293069,7.92176898 7.81986139,7.92176898 L9.55576898,7.92176898 L7.72243564,9.0650033 C7.44170957,9.11312211 7.22672607,9.36421122 7.22672607,9.66665347 L7.22672607,10.3641452 L0.725867987,10.3644092 Z M19.3538548,15.6397228 L19.3538548,19.2572805 C19.3538548,19.2784026 19.3422376,19.2874455 19.3408515,19.2882376 L7.82065347,19.2883696 C7.81854125,19.2876436 7.80685809,19.2784026 7.80685809,19.2572805 L7.80685809,15.6397228 C7.80685809,15.6187327 7.81854125,15.6095578 7.81986139,15.6088977 L19.3403894,15.6088977 C19.3430957,15.6104158 19.3538548,15.6196568 19.3538548,15.6397228 L19.3538548,15.6397228 Z M12.2106205,15.0291617 L8.83266667,15.0291617 L10.6516766,13.8949043 L12.2106205,13.8949043 L12.2106205,15.0291617 Z M7.81986139,13.8949043 L9.55576898,13.8949043 L7.72243564,15.0380726 C7.44170957,15.0862574 7.22672607,15.3373465 7.22672607,15.6397228 L7.22672607,16.3374125 L0.725867987,16.3375446 C0.723623762,16.3366205 0.712138614,16.3274455 0.712138614,16.3064554 L0.712138614,12.6888977 C0.712138614,12.6679076 0.723755776,12.6586667 0.725141914,12.6579406 L7.22672607,12.6579406 L7.22672607,13.2842112 C7.22672607,13.6208449 7.49293069,13.8949043 7.81986139,13.8949043 L7.81986139,13.8949043 Z" id="Fill-1"></path>
                    <path d="M9.29385479,2.9509967 L12.0786073,2.9509967 L12.0786073,1.21442904 L9.29385479,2.9509967 Z M12.3426337,3.2150231 L8.37147855,3.2150231 L12.3426337,0.738653465 L12.3426337,3.2150231 Z M7.93887129,7.2100066 L19.2218416,7.2100066 L19.2218416,3.79456106 L7.93887129,3.79456106 L7.93887129,7.2100066 Z M19.3746469,7.474033 L7.79761716,7.474033 L7.74811221,7.45640924 L7.72415182,7.43310891 C7.72038944,7.42954455 7.71464686,7.4230099 7.70930033,7.41581518 L7.70012541,7.40267987 C7.695967,7.39555116 7.69233663,7.38829043 7.68923432,7.38089769 L7.68157756,7.36010561 C7.67708911,7.34419802 7.67484488,7.32769637 7.67484488,7.31112871 L7.67484488,3.69357096 C7.67484488,3.61746535 7.71939934,3.56664026 7.75761716,3.54617822 L7.78679208,3.53060066 L19.3744488,3.53060066 L19.4042838,3.54710231 C19.4538548,3.57449505 19.485868,3.6319868 19.485868,3.69357096 L19.485868,7.31112871 C19.485868,7.38644224 19.4419076,7.43720132 19.4042838,7.45786139 L19.3746469,7.474033 Z M9.29385479,8.92406601 L12.0786073,8.92406601 L12.0786073,8.05383498 L10.6894983,8.05383498 L9.29385479,8.92406601 Z M12.3426337,9.18809241 L8.37147855,9.18809241 L10.6139208,7.78980858 L12.3426337,7.78980858 L12.3426337,9.18809241 Z M0.844151815,6.81687129 L0.844151815,10.2324488 L7.09471287,10.2321188 L7.09471287,9.66664026 C7.09471287,9.31205281 7.33649505,9.01079868 7.67345875,8.9399736 L9.09451485,8.05383498 L7.81986139,8.05383498 C7.4199934,8.05383498 7.09471287,7.72063366 7.09471287,7.31112871 L7.09471287,6.81687129 L0.844151815,6.81687129 Z M0.725867987,10.4964752 L0.700455446,10.4964752 L0.676891089,10.4870363 C0.6190033,10.463868 0.580125413,10.4021518 0.580125413,10.3333729 L0.580125413,6.71581518 C0.580125413,6.64050165 0.624085809,6.58967657 0.661775578,6.5690165 L0.691346535,6.55284488 L7.35873927,6.55284488 L7.35873927,7.31112871 C7.35873927,7.5750231 7.56560396,7.78980858 7.81986139,7.78980858 L10.0169571,7.78980858 L7.77029043,9.19073267 L7.74474587,9.19508911 C7.52111551,9.23343894 7.35873927,9.43178878 7.35873927,9.66664026 L7.35873927,10.4961452 L0.725867987,10.4964752 Z M9.29385479,14.8971353 L12.0786073,14.8971353 L12.0786073,14.0269043 L10.6894323,14.0269043 L9.29385479,14.8971353 Z M12.3426337,15.1611617 L8.37147855,15.1611617 L10.6139208,13.7628779 L12.3426337,13.7628779 L12.3426337,15.1611617 Z M0.844151815,12.7899406 L0.844151815,16.2055182 L7.09471287,16.2053861 L7.09471287,15.6397096 C7.09471287,15.2851881 7.33649505,14.983934 7.67345875,14.9130429 L9.09451485,14.0269043 L7.81986139,14.0269043 C7.4199934,14.0269043 7.09471287,13.693703 7.09471287,13.284198 L7.09471287,12.7899406 L0.844151815,12.7899406 Z M0.725867987,16.4695446 L0.700455446,16.4695446 L0.676891089,16.4601056 C0.6190033,16.4370033 0.580125413,16.3752211 0.580125413,16.3064422 L0.580125413,12.6888845 C0.580125413,12.6149571 0.622963696,12.564264 0.659663366,12.5433399 L0.690092409,12.5259142 L7.35873927,12.5259142 L7.35873927,13.284198 C7.35873927,13.5480924 7.56560396,13.7628779 7.81986139,13.7628779 L10.0169571,13.7628779 L7.77029043,15.163802 L7.74474587,15.1681584 C7.52111551,15.2065743 7.35873927,15.4049241 7.35873927,15.6397096 L7.35873927,16.4694125 L0.725867987,16.4695446 Z M7.93887129,15.7409637 L7.93887129,19.1563432 L19.2218416,19.1562112 L19.2218416,15.7409637 L7.93887129,15.7409637 Z M7.82065347,19.4203696 L7.79827723,19.4203696 L7.77715512,19.4130429 C7.7169571,19.3920528 7.67484488,19.3279604 7.67484488,19.2572673 L7.67484488,15.6397096 C7.67484488,15.5630099 7.72091749,15.5083564 7.76652805,15.4881584 L7.7920066,15.4769373 L19.3744488,15.4769373 L19.4042838,15.4933729 C19.4437558,15.5152211 19.485868,15.5651221 19.485868,15.6397096 L19.485868,19.2572673 C19.485868,19.3311947 19.4430297,19.3818878 19.406396,19.4028779 L19.375967,19.4202376 L7.82065347,19.4203696 Z M0.725141914,12.2103366 C0.470884488,12.2103366 0.264019802,12.4250561 0.264019802,12.6888845 L0.264019802,16.3064422 C0.264019802,16.5704026 0.470884488,16.7851221 0.725141914,16.7851221 L7.35873927,16.7851221 L7.35873927,19.2573993 C7.35873927,19.5212937 7.56560396,19.7359472 7.81986139,19.7359472 L19.3408515,19.7359472 C19.5951089,19.7359472 19.8019736,19.5212937 19.8019736,19.2573993 L19.8019736,15.6398416 C19.8019736,15.3759472 19.5951089,15.1611617 19.3408515,15.1611617 L12.6587393,15.1611617 L12.6587393,13.7628779 L19.3408515,13.7628779 C19.5951089,13.7628779 19.8019736,13.5480924 19.8019736,13.284198 L19.8019736,12.243802 C19.8019736,12.1567393 19.7310825,12.0859802 19.6439538,12.0859802 C19.5567591,12.0859802 19.485868,12.1567393 19.485868,12.243802 L19.485868,13.284198 C19.485868,13.3595116 19.4419076,13.4103366 19.4042838,13.4309307 L19.3746469,13.4471683 L7.8019736,13.4471683 L7.7570231,13.434297 L7.7239538,13.4060462 C7.72124752,13.4034719 7.71517492,13.3967393 7.70963036,13.3894125 L7.69708911,13.3704686 C7.69438284,13.3656502 7.69147855,13.3594455 7.68890429,13.3531749 L7.68349175,13.3391815 C7.67715512,13.3173333 7.67484488,13.3007657 7.67484488,13.284198 L7.67484488,9.66664026 C7.67484488,9.59192079 7.71834323,9.54116172 7.75557096,9.52036964 L7.78553795,9.50366997 L19.3669241,9.50353795 L19.3916766,9.514033 C19.4385413,9.53390099 19.485868,9.58881848 19.485868,9.66664026 L19.485868,10.8910627 C19.485868,10.9781254 19.5567591,11.0489505 19.6439538,11.0489505 C19.7310825,11.0489505 19.8019736,10.9781254 19.8019736,10.8910627 L19.8019736,9.66664026 C19.8019736,9.40274587 19.5951089,9.18809241 19.3408515,9.18809241 L12.6587393,9.18809241 L12.6587393,7.78980858 L19.3408515,7.78980858 C19.5951089,7.78980858 19.8019736,7.5750231 19.8019736,7.31112871 L19.8019736,3.69357096 C19.8019736,3.42961056 19.5951089,3.21489109 19.3408515,3.21489109 L12.6587393,3.21489109 L12.6587393,0.742679868 C12.6587393,0.478785479 12.4518746,0.264 12.1976172,0.264 L7.05266667,0.264 C6.96553795,0.264 6.89464686,0.334825083 6.89464686,0.421887789 C6.89464686,0.508950495 6.96553795,0.579775578 7.05266667,0.579775578 L12.0005875,0.579577558 L7.77029043,3.21766337 L7.74474587,3.2220198 C7.52118152,3.26036964 7.35893729,3.45865347 7.35893729,3.69357096 L7.35893729,4.52307591 L0.70230363,4.52320792 L0.680125413,4.5150231 C0.620323432,4.4929769 0.580125413,4.43073267 0.580125413,4.36023762 L0.580125413,0.742679868 C0.580125413,0.667366337 0.624085809,0.616607261 0.661775578,0.595947195 L0.691346535,0.579775578 L5.69906931,0.579775578 C5.78619802,0.579775578 5.85708911,0.508950495 5.85708911,0.421887789 C5.85708911,0.334825083 5.78619802,0.264 5.69906931,0.264 L0.725141914,0.264 C0.470884488,0.264 0.264019802,0.478785479 0.264019802,0.742679868 L0.264019802,4.36023762 C0.264019802,4.62419802 0.470884488,4.8389835 0.725141914,4.8389835 L7.35873927,4.8389835 L7.35873927,6.23726733 L0.725141914,6.23726733 L0.725009901,6.23726733 C0.602831683,6.23726733 0.487650165,6.28657426 0.400653465,6.37621122 C0.312534653,6.46690429 0.264019802,6.58749835 0.264019802,6.71581518 L0.264019802,10.3333729 C0.264019802,10.5972673 0.470884488,10.8120528 0.725141914,10.8120528 L7.35873927,10.8120528 L7.35873927,12.2103366 L0.725141914,12.2103366 Z M19.3408515,19.9999736 L7.81986139,19.9999736 C7.4199934,19.9999736 7.09471287,19.6669043 7.09471287,19.2573993 L7.09471287,17.0491485 L0.725141914,17.0491485 C0.325273927,17.0491485 -6.60066006e-06,16.7160132 -6.60066006e-06,16.3064422 L-6.60066006e-06,12.6888845 C-6.60066006e-06,12.2794455 0.325273927,11.9463102 0.725141914,11.9463102 L7.09471287,11.9463102 L7.09471287,11.0760792 L0.725141914,11.0760792 C0.325273927,11.0760792 -6.60066006e-06,10.7428779 -6.60066006e-06,10.3333729 L-6.60066006e-06,6.71581518 C-6.60066006e-06,6.51838944 0.0749768977,6.33251485 0.211214521,6.19225083 C0.348442244,6.0509967 0.530818482,5.97324092 0.724943894,5.97324092 L0.725207921,5.97324092 L7.09471287,5.97324092 L7.09471287,5.1030099 L0.725141914,5.1030099 C0.325273927,5.1030099 -6.60066006e-06,4.76980858 -6.60066006e-06,4.36023762 L-6.60066006e-06,0.742679868 C-6.60066006e-06,0.333174917 0.325273927,-2.64026403e-05 0.725141914,-2.64026403e-05 L5.69906931,-2.64026403e-05 C5.93174257,-2.64026403e-05 6.12111551,0.189280528 6.12111551,0.421887789 C6.12111551,0.65449505 5.93174257,0.84380198 5.69906931,0.84380198 L0.844151815,0.84380198 L0.844151815,4.25918152 L7.09491089,4.2590495 L7.09491089,3.69357096 C7.09491089,3.3389835 7.33662706,3.03772937 7.67345875,2.96690429 L11.0782112,0.84360396 L7.05266667,0.84380198 C6.8199934,0.84380198 6.63062046,0.65449505 6.63062046,0.421887789 C6.63062046,0.189280528 6.8199934,-2.64026403e-05 7.05266667,-2.64026403e-05 L12.1976172,-2.64026403e-05 C12.5974851,-2.64026403e-05 12.9227657,0.333174917 12.9227657,0.742679868 L12.9227657,2.95086469 L19.3408515,2.95086469 C19.7407195,2.95086469 20.066,3.284 20.066,3.69357096 L20.066,7.31112871 C20.066,7.72063366 19.7407195,8.05383498 19.3408515,8.05383498 L12.9227657,8.05383498 L12.9227657,8.92406601 L19.3408515,8.92406601 C19.7407195,8.92406601 20.066,9.25720132 20.066,9.66664026 L20.066,10.8910627 C20.066,11.12367 19.8766931,11.3129769 19.6439538,11.3129769 C19.4112145,11.3129769 19.2218416,11.12367 19.2218416,10.8910627 L19.2218416,9.76756436 L7.93887129,9.76769637 L7.93887129,13.1831419 L19.2218416,13.1831419 L19.2218416,12.243802 C19.2218416,12.0111947 19.4112145,11.8219538 19.6439538,11.8219538 C19.8766931,11.8219538 20.066,12.0111947 20.066,12.243802 L20.066,13.284198 C20.066,13.693703 19.7407195,14.0269043 19.3408515,14.0269043 L12.9227657,14.0269043 L12.9227657,14.8971353 L19.3408515,14.8971353 C19.7407195,14.8971353 20.066,15.2303366 20.066,15.6398416 L20.066,19.2573993 C20.066,19.6669043 19.7407195,19.9999736 19.3408515,19.9999736 L19.3408515,19.9999736 Z" id="Fill-3"></path>
                </g>
            </g>
        </g>
    </g>
</svg>