<?xml version="1.0" encoding="UTF-8"?>
<svg width="19px" height="19px" viewBox="0 0 19 19" version="1.1" xmlns="http://www.w3.org/2000/svg" xmlns:xlink="http://www.w3.org/1999/xlink">
    <title>6312D4C1-F5F2-44F2-B33F-892987FDE0EC</title>
    <g id="Dizajn" stroke="none" stroke-width="1" fill="none" fill-rule="evenodd">
        <g id="PoÄetna---r1" transform="translate(-1246.000000, -34.000000)" fill="#71ACD2" fill-rule="nonzero">
            <g id="Header-top" transform="translate(260.000000, 16.000000)">
                <g id="Search" transform="translate(288.000000, 0.000000)">
                    <g id="search" transform="translate(698.000000, 18.000000)">
                        <path d="M18.8840422,17.7645981 L13.3646772,12.245233 C14.4115352,10.9528217 15.041691,9.30976296 15.041691,7.52086406 C15.041691,3.37388128 11.6678097,0 7.52082696,0 C3.37384417,0 0,3.37388128 0,7.52086406 C0,11.6678468 3.37388128,15.0417281 7.52086406,15.0417281 C9.30976296,15.0417281 10.9528217,14.4115352 12.245233,13.3647143 L17.7645981,18.8840793 C17.9192332,19.0386402 18.1697963,19.0386402 18.3244315,18.8840793 L18.8840793,18.3243943 C19.0386402,18.1697963 19.0386402,17.919159 18.8840422,17.7645981 Z M7.52086406,13.4583786 C4.24673302,13.4583786 1.58334957,10.7949951 1.58334957,7.52086406 C1.58334957,4.24673302 4.24673302,1.58334957 7.52086406,1.58334957 C10.7949951,1.58334957 13.4583786,4.24673302 13.4583786,7.52086406 C13.4583786,10.7949951 10.7949951,13.4583786 7.52086406,13.4583786 Z" id="Shape"></path>
                    </g>
                </g>
            </g>
        </g>
    </g>
</svg>