<?xml version="1.0" encoding="UTF-8"?>
<svg width="28px" height="34px" viewBox="0 0 28 34" version="1.1" xmlns="http://www.w3.org/2000/svg" xmlns:xlink="http://www.w3.org/1999/xlink">
    <title>D6F82DC1-F2B8-4502-80A7-C3E43FE07235</title>
    <g id="Dizajn" stroke="none" stroke-width="1" fill="none" fill-rule="evenodd">
        <g id="Košarica" transform="translate(-1321.000000, -772.000000)" fill="#FFFFFF" fill-rule="nonzero">
            <g id="benefit" transform="translate(1297.000000, 751.000000)">
                <g id="shield" transform="translate(24.000000, 21.000000)">
                    <path d="M27.7336687,8.99891791 L27.7326736,8.97310764 C27.718494,8.65452827 27.7090408,8.31747694 27.7033193,7.94246928 C27.6767013,6.11373773 26.2475411,4.60105516 24.449461,4.49882636 C20.7005586,4.28601834 17.8004455,3.04257202 15.3224881,0.585791286 L15.301343,0.565294869 C14.4931026,-0.188515965 13.2739008,-0.188515965 12.4654115,0.565294869 L12.4442664,0.585791286 C9.96630911,3.04257202 7.06619597,4.28601834 3.31729357,4.49907939 C1.51946225,4.60105516 0.0900532316,6.11373773 0.0634353258,7.9427223 C0.0579624437,8.31519952 0.0482605568,8.65225091 0.0340809152,8.97310764 L0.0325883516,9.03307848 C-0.0403000474,12.9215685 -0.130850906,17.7609889 1.46075349,22.1535377 C2.33591203,24.5690727 3.66133686,26.6688118 5.39996186,28.3948085 C7.38013859,30.3604355 9.97377206,31.9209429 13.1087202,33.0328077 C13.2107142,33.0689926 13.3166885,33.0983454 13.4246529,33.12036 C13.5768977,33.1512311 13.7301375,33.1666667 13.8833773,33.1666667 C14.0366171,33.1666667 14.1901056,33.1512311 14.3421016,33.12036 C14.4500661,33.0983454 14.5567866,33.0687396 14.6592782,33.0323016 C17.7904949,31.9184125 20.3813919,30.3571459 22.3598273,28.3917719 C24.097706,26.6652692 25.4231308,24.5650241 26.2990357,22.148983 C27.8966104,17.743276 27.8063083,12.8947462 27.7336687,8.99891791 Z M24.5039408,21.4756394 C22.8252683,26.1052882 19.3985178,29.2847557 14.0279103,31.1952197 C14.0087553,31.2017988 13.9883565,31.2076187 13.9672114,31.2119204 C13.9117366,31.2230543 13.8552667,31.2230543 13.7990457,31.2116673 C13.7781493,31.2073657 13.7577505,31.2017988 13.7388443,31.1952197 C8.3625152,29.2882983 4.93352575,26.1106021 3.25609712,21.4807001 C1.7891245,17.4317818 1.87221235,12.9893837 1.94559825,9.07027561 L1.94609582,9.04851406 C1.96102177,8.7117157 1.97097241,8.3589757 1.97644523,7.97131605 C1.98838599,7.15930556 2.62423168,6.4874802 3.42401414,6.44218574 C5.54548991,6.32173794 7.40924419,5.90472541 9.12174879,5.1673622 C10.8320145,4.43101122 12.3509792,3.3930346 13.7649647,1.99422072 C13.8368581,1.93247857 13.9301453,1.93222555 14.0017898,1.99422072 C15.4160241,3.3930346 16.9349888,4.43101122 18.6450058,5.1673622 C20.3575103,5.90472541 22.2212647,6.32173794 24.3429892,6.44218574 C25.1427717,6.4874802 25.7786173,7.15930556 25.7903093,7.97156908 C25.7960309,8.36125312 25.8059816,8.71399306 25.8209075,9.04851406 C25.8940447,12.9721769 25.9751424,17.4181175 24.5039408,21.4756394 Z" id="Shape"></path>
                    <path d="M13.8828798,8.31823602 C9.402108,8.31823602 5.75694098,12.0263074 5.75694098,16.5838394 C5.75694098,21.1416245 9.402108,24.8496958 13.8828798,24.8496958 C18.3634027,24.8496958 22.0088186,21.1416245 22.0088186,16.5838394 C22.0088186,12.0263074 18.3634027,8.31823602 13.8828798,8.31823602 Z M13.8828798,22.9033 C10.4571243,22.9033 7.67019963,20.0684751 7.67019963,16.5838394 C7.67019963,13.0992038 10.4571243,10.2643789 13.8828798,10.2643789 C17.3083865,10.2643789 20.0953111,13.0992038 20.0953111,16.5838394 C20.0953111,20.0684751 17.3083865,22.9033 13.8828798,22.9033 Z" id="Shape"></path>
                    <path d="M16.2182942,14.0177447 L12.4440177,17.8568916 L11.4195996,16.8148664 C11.0459532,16.4347979 10.4402082,16.4347979 10.0665617,16.8148664 C9.6931641,17.1949348 9.6931641,17.8110911 10.0665617,18.1909065 L11.7676231,19.9212049 C11.9544464,20.1112391 12.199232,20.2061297 12.4440177,20.2061297 C12.6888033,20.2061297 12.933589,20.1112391 13.1204122,19.9212049 L17.571332,15.3937849 C17.9447297,15.0137164 17.9447297,14.3975601 17.571332,14.0177447 C17.1976857,13.6374232 16.5919406,13.6374232 16.2182942,14.0177447 Z" id="Path"></path>
                </g>
            </g>
        </g>
    </g>
</svg>