<?xml version="1.0" encoding="UTF-8"?>
<svg width="35px" height="35px" viewBox="0 0 35 35" version="1.1" xmlns="http://www.w3.org/2000/svg" xmlns:xlink="http://www.w3.org/1999/xlink">
    <title>A20E4DBD-C8DF-4FA4-BDB3-6A1AD8CA6F7D</title>
    <g id="Dizajn" stroke="none" stroke-width="1" fill="none" fill-rule="evenodd">
        <g id="Moj-raÄun---dashboard" transform="translate(-1346.000000, -832.000000)" fill="#71ACD2" fill-rule="nonzero">
            <g id="wrapper" transform="translate(260.000000, 324.000000)">
                <g id="tabovi" transform="translate(551.000000, 40.000000)">
                    <g id="odjavi-se" transform="translate(372.000000, 430.000000)">
                        <g id="sign-out-(2)" transform="translate(180.500000, 55.500000) scale(-1, 1) translate(-180.500000, -55.500000) translate(163.000000, 38.000000)">
                            <path d="M31.2405753,-1.12388731e-13 L14.9950837,-1.12388731e-13 C12.924592,-1.12388731e-13 11.2460565,1.67846234 11.2460565,3.74895398 L11.2460565,11.2468619 C11.2460565,11.9370502 11.8056172,12.4965377 12.4958054,12.4965377 C13.1859937,12.4965377 13.7454812,11.9370502 13.7454812,11.2468619 L13.7454812,3.74895398 C13.7454812,3.05876569 14.3049686,2.49927824 14.9951569,2.49927824 L31.2406485,2.49927824 C31.9308368,2.49927824 32.4903243,3.05876569 32.4903243,3.74895398 L32.4903243,31.2413076 C32.4903243,31.9314957 31.9308368,32.4909833 31.2406485,32.4909833 L14.9950837,32.4909833 C14.3048954,32.4909833 13.745408,31.9314957 13.745408,31.2413076 L13.745408,23.7433996 C13.745408,23.0532113 13.1859205,22.4937238 12.4957322,22.4937238 C11.8055439,22.4937238 11.2460565,23.0532113 11.2460565,23.7433996 L11.2460565,31.2413076 C11.2460565,33.3117991 12.9245188,34.9902615 14.9950104,34.9902615 L31.2405021,34.9902615 C33.3109937,34.9902615 34.9894561,33.3117991 34.9894561,31.2413076 L34.9894561,3.74895398 C34.9894561,1.67846234 33.3110669,-1.12388731e-13 31.2405753,-1.12388731e-13 Z" id="Path"></path>
                            <path d="M24.9922699,16.2454916 L4.26560669,16.2454916 L8.38074268,12.1303556 C8.86019874,11.6339121 8.84643305,10.8428243 8.34998954,10.3633682 C7.86570084,9.89570084 7.09797071,9.89570084 6.61375522,10.3633682 L0.36544979,16.6116004 C0.249393305,16.7277301 0.157646444,16.8657532 0.0955543933,17.0177615 C-0.0308263599,17.3234623 -0.0308263599,17.6667991 0.0955543933,17.9725 C0.157939331,18.125021 0.250125522,18.2634833 0.366694561,18.3799059 L6.61492678,24.6281381 C7.09438284,25.1245816 7.88547071,25.1383472 8.38191422,24.6588912 C8.87835773,24.1794351 8.89212344,23.3883472 8.41266736,22.8919037 C8.40263598,22.8815063 8.39238494,22.8712552 8.38191422,22.8611506 L4.26560669,18.7447699 L24.9923431,18.7447699 C25.6825314,18.7447699 26.2420188,18.1852824 26.2420188,17.4950941 C26.2420188,16.8049059 25.6824582,16.2454916 24.9922699,16.2454916 Z" id="Path"></path>
                        </g>
                    </g>
                </g>
            </g>
        </g>
    </g>
</svg>