<?xml version="1.0" encoding="UTF-8"?>
<svg width="20px" height="19px" viewBox="0 0 20 19" version="1.1" xmlns="http://www.w3.org/2000/svg" xmlns:xlink="http://www.w3.org/1999/xlink">
    <title>B315B1EE-48F1-4E20-B065-AE371FAFF5AC</title>
    <g id="Dizajn" stroke="none" stroke-width="1" fill="none" fill-rule="evenodd" opacity="0.6">
        <g id="PoÄetna---r1" transform="translate(-1289.000000, -107.000000)" fill="#FFFFFF" fill-rule="nonzero">
            <g id="Primarni-izbornik" transform="translate(0.000000, 86.000000)">
                <g id="add" transform="translate(1289.000000, 21.000000)">
                    <path d="M9.09548522,12.4844067 L9.09548522,10.9431256 L7.55420418,10.9431256 C7.12861308,10.9431256 6.78356364,10.5980762 6.78356364,10.1724851 C6.78356364,9.74674348 7.12861308,9.40184457 7.55420418,9.40184457 L9.09548522,9.40184457 L9.09548522,7.86056353 C9.09548522,7.43497244 9.44053466,7.08992299 9.86612576,7.08992299 C10.2917169,7.08992299 10.6367663,7.43497244 10.6367663,7.86056353 L10.6367663,9.40184457 L12.1780473,9.40184457 C12.6036384,9.40184457 12.9486879,9.74674348 12.9486879,10.1724851 C12.9486879,10.5980762 12.6036384,10.9431256 12.1780473,10.9431256 L10.6367663,10.9431256 L10.6367663,12.4844067 C10.6367663,12.9099978 10.2917169,13.2550472 9.86612576,13.2550472 C9.44053466,13.2550472 9.09548522,12.9099978 9.09548522,12.4844067 Z M19.6225041,7.10000949 C19.3315004,6.20441651 18.5388803,5.62572102 17.6029412,5.62572102 L13.6601642,5.62572102 C13.3988178,5.62572102 13.180979,5.47517589 13.1057065,5.2436375 L11.8868931,1.46811613 C11.5970937,0.576286765 10.8038714,0 9.86612576,0 C8.92838014,0 8.13515785,0.576286765 7.84490684,1.46962156 L6.6269967,5.2422826 C6.55127249,5.47517589 6.33343372,5.62572102 6.07208737,5.62572102 L2.12931034,5.62572102 C1.19352181,5.62572102 0.40075116,6.20441651 0.109747391,7.10000949 C-0.182310164,7.99891448 0.120135034,8.93681067 0.880387931,9.48916075 L4.07013818,11.8066525 C4.27533121,11.9556922 4.3603892,12.2177913 4.28210573,12.4589646 L3.06374399,16.2087427 C2.77394458,17.1005721 3.07684142,18.0330486 3.83558889,18.5843449 C4.21496262,18.8598425 4.64973696,18.9977606 5.0845113,18.9977606 C5.51928564,18.9977606 5.95405998,18.859993 6.33343372,18.5843449 L9.52318393,16.2668531 C9.72822642,16.1176629 10.0038746,16.1176629 10.2090676,16.2668531 L13.3988178,18.5843449 C14.1575653,19.1356412 15.1379152,19.1354906 15.8966626,18.5843449 C16.6552596,18.0330486 16.9583069,17.1005721 16.6685075,16.2087427 L15.834337,13.6416471 C15.7029111,13.2369818 15.2682873,13.0153794 14.8633208,13.1469558 C14.458505,13.2785323 14.2370531,13.713156 14.368479,14.1179719 L15.2026496,16.6850675 C15.3241395,17.0591722 15.0710732,17.2789681 14.990682,17.3373796 C14.9101404,17.3957911 14.6229003,17.5686169 14.3047984,17.3373796 L11.1148976,15.0198878 C10.3680432,14.4771726 9.36420827,14.4773232 8.61720335,15.0198878 L5.42745309,17.3373796 C5.10920067,17.5686169 4.82196059,17.3957911 4.74141894,17.3373796 C4.66102782,17.2789681 4.40796146,17.0591722 4.52960193,16.6850675 L5.74796367,12.9352894 C6.0332467,12.0570091 5.7229732,11.1024024 4.97611881,10.5596872 L1.78636852,8.24219541 C1.4657074,8.00930209 1.54399087,7.67358646 1.57560533,7.57618375 C1.60676818,7.48013598 1.73894683,7.1670021 2.12931034,7.1670021 L6.07208737,7.1670021 C6.99929481,7.1670021 7.81133527,6.58484407 8.09330629,5.71710193 L9.31121639,1.94444092 C9.43270632,1.57033628 9.76661544,1.54128108 9.86612576,1.54128108 C9.96548555,1.54128108 10.2993947,1.57033628 10.4205835,1.94308603 L11.6393969,5.71845682 C11.9209163,6.58484407 12.7329567,7.1670021 13.6601642,7.1670021 L17.6029412,7.1670021 C17.9933047,7.1670021 18.1254833,7.48013598 18.1566462,7.57618375 C18.1882606,7.67358646 18.2665441,8.00930209 17.945883,8.24219541 L15.7709575,9.82246769 C15.4265102,10.0726737 15.3501838,10.5545686 15.6003898,10.8988654 C15.8505958,11.2431621 16.3324908,11.3194885 16.6769381,11.069433 L18.8518636,9.48916075 C19.6121165,8.93681067 19.9145617,7.99891448 19.6225041,7.10000949 L19.6225041,7.10000949 Z" id="Shape"></path>
                </g>
            </g>
        </g>
    </g>
</svg>