<?xml version="1.0" encoding="UTF-8"?>
<svg width="18px" height="18px" viewBox="0 0 18 18" version="1.1" xmlns="http://www.w3.org/2000/svg" xmlns:xlink="http://www.w3.org/1999/xlink">
    <title>817E0DE5-2A61-48D7-9A3C-0C992D6D7CE2</title>
    <g id="Dizajn" stroke="none" stroke-width="1" fill="none" fill-rule="evenodd" opacity="0.6">
        <g id="PoÄetna---r1" transform="translate(-1535.000000, -109.000000)" fill="#FFFFFF" fill-rule="nonzero">
            <g id="Primarni-izbornik" transform="translate(0.000000, 86.000000)">
                <g id="tag" transform="translate(1535.000000, 23.000000)">
                    <path d="M17.3521506,1.42108547e-14 C17.7071046,1.42108547e-14 17.994841,0.287736402 17.994841,0.642690377 L17.994841,0.642690377 L17.994841,7.71213389 C17.994841,7.88256904 17.9270586,8.046 17.8065188,8.16650209 L17.8065188,8.16650209 L8.16635146,17.8066695 C7.91540586,18.0575397 7.50859833,18.0575397 7.25761506,17.8066695 L7.25761506,17.8066695 L0.188171548,10.7372259 C-0.0627364017,10.4862803 -0.0627364017,10.0794728 0.188171548,9.82848954 L0.188171548,9.82848954 L9.82833891,0.188322176 C9.948841,0.0677824268 10.112272,1.42108547e-14 10.2827071,1.42108547e-14 L10.2827071,1.42108547e-14 Z M16.7094979,1.2853431 L10.5487908,1.2853431 L1.55127615,10.2828577 L7.71198326,16.4435649 L16.7094979,7.44605021 L16.7094979,1.2853431 Z M13.4960837,2.57072385 C14.5609079,2.57072385 15.4241172,3.43393305 15.4241172,4.49875732 C15.4241172,5.56358159 14.5609079,6.42679079 13.4960837,6.42679079 C12.4312594,6.42679079 11.5680502,5.56358159 11.5680502,4.49875732 C11.5680502,3.43393305 12.4312594,2.57072385 13.4960837,2.57072385 Z M13.4960837,3.85602929 C13.1411297,3.85602929 12.8533933,4.14376569 12.8533933,4.49871967 C12.8533933,4.85367364 13.1411297,5.14141004 13.4960837,5.14141004 C13.8510377,5.14141004 14.1387741,4.85367364 14.1387741,4.49871967 C14.1387741,4.14376569 13.8510377,3.85602929 13.4960837,3.85602929 Z" id="Combined-Shape"></path>
                </g>
            </g>
        </g>
    </g>
</svg>