<?xml version="1.0" encoding="UTF-8"?>
<svg width="34px" height="28px" viewBox="0 0 34 28" version="1.1" xmlns="http://www.w3.org/2000/svg" xmlns:xlink="http://www.w3.org/1999/xlink">
    <title>A9DD8894-364A-43F2-AD82-189D9B1918B2</title>
    <defs>
        <filter id="filter-1">
            <feColorMatrix in="SourceGraphic" type="matrix" values="0 0 0 0 0.443137 0 0 0 0 0.674510 0 0 0 0 0.823529 0 0 0 1.000000 0"></feColorMatrix>
        </filter>
    </defs>
    <g id="Dizajn" stroke="none" stroke-width="1" fill="none" fill-rule="evenodd">
        <g id="Česta-pitanja" transform="translate(-380.000000, -423.000000)">
            <g id="wrapper" transform="translate(260.000000, 340.000000)">
                <g id="delivery-truck-(7)" transform="translate(120.000000, 83.000000)" filter="url(#filter-1)">
                    <g transform="translate(0.000000, 0.000000)">
                        <path d="M5.51351351,22.0540541 C4.61128257,22.0540541 3.87987988,22.7854567 3.87987988,23.6876877 C3.87987988,24.5899186 4.61128257,25.3213214 5.51351351,25.3213214 C6.41574446,25.3213214 7.14714715,24.5899186 7.14714715,23.6876877 C7.14613432,22.7858766 6.4153246,22.0550669 5.51351351,22.0540541 L5.51351351,22.0540541 Z M5.51351351,24.2322323 C5.21276987,24.2322323 4.96896897,23.9884313 4.96896897,23.6876877 C4.96896897,23.386944 5.21276987,23.1431432 5.51351351,23.1431432 C5.81425716,23.1431432 6.05805806,23.386944 6.05805806,23.6876877 C6.05772044,23.9882914 5.81411721,24.2318946 5.51351351,24.2322323 L5.51351351,24.2322323 Z" id="Shape" fill="#1661A2" fill-rule="nonzero"></path>
                        <path d="M28.3843844,22.0540541 C27.4821534,22.0540541 26.7507507,22.7854567 26.7507507,23.6876877 C26.7507507,24.5899186 27.4821534,25.3213214 28.3843844,25.3213214 C29.2866153,25.3213214 30.018018,24.5899186 30.018018,23.6876877 C30.0170052,22.7858766 29.2861954,22.0550669 28.3843844,22.0540541 L28.3843844,22.0540541 Z M28.3843844,24.2322323 C28.0836407,24.2322323 27.8398398,23.9884313 27.8398398,23.6876877 C27.8398398,23.386944 28.0836407,23.1431432 28.3843844,23.1431432 C28.685128,23.1431432 28.9289289,23.386944 28.9289289,23.6876877 C28.9285913,23.9882914 28.684988,24.2318946 28.3843844,24.2322323 L28.3843844,24.2322323 Z" id="Shape" fill="#1661A2" fill-rule="nonzero"></path>
                        <path d="M33.0908697,17.1877587 L32.3933264,17.1866652 L30.2918842,10.9917784 C30.2169467,10.7709043 30.0111639,10.6223631 29.7796068,10.6219987 L23.8820108,10.6127047 L23.8887896,6.23903942 C23.8890235,6.09403152 23.8321026,5.9548701 23.7305508,5.85217382 C23.6289989,5.74947755 23.4911362,5.69166018 23.3472954,5.69144286 L15.6624566,5.67934694 C15.7456262,5.38147416 15.7911783,5.07421175 15.7980336,4.76484087 C15.8006734,3.06519052 14.9036585,1.49322906 13.4448858,0.641099178 C11.986113,-0.211030706 10.1872046,-0.21387021 8.72579206,0.633650279 C7.26437948,1.48117077 6.36248603,3.05029272 6.35984626,4.74994308 C6.36577111,5.05933144 6.41038924,5.3667304 6.49264384,5.66485917 L0.570305033,5.6554968 C0.426464308,5.655261 0.288423011,5.71264379 0.186553336,5.81501967 C0.0846836611,5.91739554 0.0273316733,6.05637697 0.0271161021,6.20138489 L0,23.6960459 C0,23.8410538 0.0566877297,23.9802152 0.158239578,24.0829115 C0.259791427,24.1856078 0.397654184,24.2434252 0.541494937,24.2436425 L1.66542761,24.2454193 C1.93187864,26.1286582 3.53016642,27.5286083 5.41715149,27.5315775 C7.30413657,27.5345466 8.90675152,26.139633 9.17903273,24.2572418 L24.4423501,24.2813653 C24.7087842,26.1646068 26.3070596,27.5645717 28.1940447,27.5675723 C30.0810299,27.5705443 31.6836575,26.1756451 31.9559553,24.2932562 L33.079888,24.295033 C33.2237287,24.2952688 33.36177,24.237886 33.4636397,24.1355102 C33.5655093,24.0331342 33.6228613,23.8941529 33.6230769,23.7491449 L33.6324324,17.7353552 C33.6324324,17.5903355 33.5757354,17.4511637 33.4741689,17.3484654 C33.3726024,17.2457673 33.2347222,17.1879579 33.0908697,17.1877587 Z M29.3875184,11.6949818 L31.251701,17.1620634 L23.8769267,17.1620634 L23.8769267,11.6949818 L29.3875184,11.6949818 Z M11.0649077,1.10251127 C13.07123,1.10480855 14.6971072,2.74387872 14.699386,4.766481 C14.699386,6.32992965 12.3747841,9.94018532 11.0648399,11.7916808 C9.75496352,9.94032197 7.43042941,6.33068138 7.43042941,4.766481 C7.43270819,2.74387872 9.05858542,1.10480855 11.0649077,1.10251127 L11.0649077,1.10251127 Z M1.10000406,6.7746084 L6.85639672,6.7746084 C7.21856787,7.65002483 7.77165391,8.69296176 8.51565486,9.90341919 C9.56027502,11.6019047 10.5874736,12.9893133 10.6306548,13.0475378 C10.7330441,13.1855239 10.8939736,13.2667685 11.0649077,13.2667685 C11.2358418,13.2667685 11.3967712,13.1855239 11.4991606,13.0475378 C11.5423418,12.9893133 12.5695403,11.6019047 13.6141605,9.90341919 C14.3576192,8.69487524 14.9107052,7.65193831 15.2734186,6.7746084 L22.7923113,6.7746084 L22.7923113,23.1758531 L9.19523421,23.1758531 C8.92596035,21.292979 7.32549533,19.8954607 5.43846551,19.8954607 C3.55143568,19.8954607 1.95097065,21.292979 1.68169684,23.1758531 L1.10000406,23.1758531 L1.10000406,6.7746084 Z M5.43846551,26.4561021 C3.94092419,26.4561021 2.7269271,25.2322541 2.7269271,23.7225612 C2.7269271,22.2128683 3.94092419,20.9890205 5.43846551,20.9890205 C6.93600681,20.9890205 8.15000391,22.2128683 8.15000391,23.7225612 C8.14832279,25.2315516 6.93530992,26.4544073 5.43846551,26.4561021 Z M28.215388,26.4561021 C26.7178467,26.4561021 25.5038497,25.2322541 25.5038497,23.7225612 C25.5038497,22.2128683 26.7178467,20.9890205 28.215388,20.9890205 C29.7129294,20.9890205 30.9269264,22.2128683 30.9269264,23.7225612 C30.9252454,25.2315516 29.7122325,26.4544073 28.215388,26.4561021 Z M32.5538495,23.1758531 L31.9721567,23.1758531 C31.7028829,21.292979 30.1024179,19.8954607 28.215388,19.8954607 C26.3283583,19.8954607 24.7278933,21.292979 24.4586194,23.1758531 L23.8769267,23.1758531 L23.8769267,18.2554797 L32.5538495,18.2554797 L32.5538495,23.1758531 Z" id="Shape" fill="#1661A2" fill-rule="nonzero"></path>
                        <path d="M13.5800561,4.64850451 C13.5800561,3.31370028 12.497922,2.23167968 11.1631178,2.23167968 C9.82831356,2.23167968 8.74627027,3.31379103 8.74627027,4.64859526 C8.74627027,5.98339949 9.82835896,7.06546547 11.1631631,7.06546547 C12.4973807,7.06396491 13.578593,5.98272216 13.5800561,4.64850451 Z M9.83535937,4.64850451 C9.83539696,3.91518757 10.4298916,3.32076877 11.1632085,3.32076877 C11.8965255,3.32076877 12.490967,3.91527833 12.490967,4.64859526 C12.490967,5.38191219 11.8964801,5.97637637 11.1631631,5.97637637 C10.4301374,5.97558848 9.83610967,5.3815303 9.83535937,4.64850451 L9.83535937,4.64850451 Z" id="Shape-Copy-3" fill="#1661A2" fill-rule="nonzero"></path>
                        <path d="M4.96896897,18.2422423 L18.038038,18.2422423 C18.3387817,18.2422423 18.5825826,17.9984413 18.5825826,17.6976977 C18.5825826,17.396954 18.3387817,17.1531532 18.038038,17.1531532 L5.51351351,17.1531532 L5.51351351,16.6086086 L10.9589589,16.6086086 C11.2597026,16.6086086 11.5035035,16.3648077 11.5035035,16.0640641 L11.5035035,14.4304304 C11.5035035,14.1296868 11.2597026,13.8858859 10.9589589,13.8858859 C10.6582153,13.8858859 10.4144144,14.1296868 10.4144144,14.4304304 L10.4144144,15.5195195 L4.96896897,15.5195195 C4.66822533,15.5195195 4.42442442,15.7633204 4.42442442,16.0640641 L4.42442442,17.6976977 C4.42442442,17.9984413 4.66822533,18.2422423 4.96896897,18.2422423 Z" id="Path" fill="#1661A2" fill-rule="nonzero"></path>
                        <path d="M19.6716717,18.1741742 L20.2162162,18.1741742 C20.5169599,18.1741742 20.7607608,17.9303732 20.7607608,17.6296296 C20.7607608,17.328886 20.5169599,17.0850851 20.2162162,17.0850851 L19.6716717,17.0850851 C19.3709281,17.0850851 19.1271271,17.328886 19.1271271,17.6296296 C19.1271271,17.9303732 19.3709281,18.1741742 19.6716717,18.1741742 Z" id="Path" fill="#1661A2" fill-rule="nonzero"></path>
                        <path d="M19.6716717,21.5095095 L15.3153153,21.5095095 C15.0145717,21.5095095 14.7707708,21.7533104 14.7707708,22.0540541 C14.7707708,22.3547977 15.0145717,22.5985986 15.3153153,22.5985986 L19.6716717,22.5985986 C19.9724154,22.5985986 20.2162162,22.3547977 20.2162162,22.0540541 C20.2162162,21.7533104 19.9724154,21.5095095 19.6716717,21.5095095 Z" id="Path" fill="#1661A2" fill-rule="nonzero"></path>
                        <path d="M21.3053053,22.5985986 L21.8498499,22.5985986 C22.1505935,22.5985986 22.3943944,22.3547977 22.3943944,22.0540541 C22.3943944,21.7533104 22.1505935,21.5095095 21.8498499,21.5095095 L21.3053053,21.5095095 C21.0045616,21.5095095 20.7607608,21.7533104 20.7607608,22.0540541 C20.7607608,22.3547977 21.0045616,22.5985986 21.3053053,22.5985986 Z" id="Path" fill="#1661A2" fill-rule="nonzero"></path>
                    </g>
                </g>
            </g>
        </g>
    </g>
</svg>