<?xml version="1.0" encoding="UTF-8"?>
<svg width="27px" height="27px" viewBox="0 0 27 27" version="1.1" xmlns="http://www.w3.org/2000/svg" xmlns:xlink="http://www.w3.org/1999/xlink">
    <title>19D32A00-319F-49BB-A28A-3F0F4EEF1BBF</title>
    <g id="Dizajn" stroke="none" stroke-width="1" fill="none" fill-rule="evenodd">
        <g id="PoÄetna---r1" transform="translate(-1475.000000, -20.000000)" fill="#144578" fill-rule="nonzero">
            <g id="Header-top" transform="translate(260.000000, 16.000000)">
                <g id="user" transform="translate(1197.000000, 4.000000)">
                    <g id="user-(4)" transform="translate(18.000000, 0.000000)">
                        <path d="M23.0459518,3.95404817 C20.4961624,1.40425871 17.1059189,0 13.5,0 C9.89408113,0 6.50383757,1.40425871 3.95404817,3.95404817 C1.40425871,6.50383757 -1.91846539e-14,9.89408113 -1.91846539e-14,13.5 C-1.91846539e-14,17.1059189 1.40425871,20.4961624 3.95404817,23.0459518 C6.50383757,25.5957413 9.89408113,27 13.5,27 C17.1059189,27 20.4961624,25.5957413 23.0459518,23.0459518 C25.5957413,20.4961624 27,17.1059189 27,13.5 C27,9.89408113 25.5957413,6.50383757 23.0459518,3.95404817 Z M5.85907747,22.6387024 C6.30484773,18.8031006 9.6026001,15.8417358 13.5,15.8417358 C15.5545807,15.8417358 17.4865951,16.6422272 18.9398804,18.0953064 C20.1676025,19.3232345 20.9419327,20.9264832 21.1411286,22.6384964 C19.0708923,24.372345 16.4053345,25.4179688 13.5,25.4179688 C10.5946655,25.4179688 7.92931365,24.372551 5.85907747,22.6387024 Z M13.5,14.212326 C11.2392197,14.212326 9.39969636,12.3728027 9.39969636,10.1120224 C9.39969636,7.85103606 11.2392197,6.01171875 13.5,6.01171875 C15.7607803,6.01171875 17.6003036,7.85103606 17.6003036,10.1120224 C17.6003036,12.3728027 15.7607803,14.212326 13.5,14.212326 Z M22.5027466,21.3011856 C22.099617,19.6758957 21.2589569,18.1772918 20.0584259,16.9767609 C19.0861359,16.0044709 17.9358673,15.2750473 16.681366,14.8179474 C18.1894455,13.7951889 19.1823349,12.0673141 19.1823349,10.1120224 C19.1823349,6.97885896 16.6331634,4.4296875 13.5,4.4296875 C10.3668366,4.4296875 7.81766511,6.97885896 7.81766511,10.1120224 C7.81766511,12.0683441 8.81137849,13.7968368 10.320694,14.8193893 C9.16651155,15.2400284 8.09843442,15.8903503 7.17949675,16.74646 C5.84877776,17.9857178 4.92469026,19.5658951 4.49622346,21.2999496 C2.68162534,19.2080841 1.58203125,16.4801102 1.58203125,13.5 C1.58203125,6.92839048 6.92839048,1.58203125 13.5,1.58203125 C20.0716095,1.58203125 25.4179687,6.92839048 25.4179687,13.5 C25.4179687,16.4807282 24.3179626,19.2093201 22.5027466,21.3011856 L22.5027466,21.3011856 Z" id="Shape"></path>
                    </g>
                </g>
            </g>
        </g>
    </g>
</svg>