<?xml version="1.0" encoding="UTF-8"?>
<svg width="15px" height="16px" viewBox="0 0 15 16" version="1.1" xmlns="http://www.w3.org/2000/svg" xmlns:xlink="http://www.w3.org/1999/xlink">
    <title>DE0F3EA1-EDEF-4131-8F07-1095446907EF</title>
    <g id="Dizajn" stroke="none" stroke-width="1" fill="none" fill-rule="evenodd">
        <g id="Uvjeti-kupnje" transform="translate(-488.000000, -3474.000000)" fill="#062648" fill-rule="nonzero">
            <g id="wrapper" transform="translate(260.000000, 340.000000)">
                <g id="Group-5" transform="translate(120.000000, 3092.000000)">
                    <g id="Socials" transform="translate(0.000000, 26.000000)">
                        <g id="linkedin" transform="translate(92.000000, 0.000000)">
                            <g id="viber" transform="translate(16.000000, 16.000000)">
                                <path d="M2.08736442,0.84186339 C2.44217454,0.722496804 2.78805567,0.723624677 3.11725367,0.844683073 C3.89478129,1.13050495 5.74016991,3.64702514 5.7856138,4.48339014 C5.82574729,5.21989138 5.25917897,5.60449615 4.95479417,5.81108494 C4.41877241,6.17520002 4.3200365,6.62258974 4.62460928,7.30702082 C5.25466747,8.72311268 6.35645865,9.79590812 7.89943625,10.4956125 C8.09065775,10.5824117 8.26580707,10.6263988 8.41994975,10.6263988 C8.68062945,10.6263988 8.89215268,10.4979622 9.06650308,10.2338049 C9.46003686,9.63795887 9.93684528,9.33578283 10.4837228,9.33578283 C10.8897572,9.33578283 11.3195238,9.49894849 11.7975541,9.83472575 L11.7975541,9.83472575 L12.0296141,9.99681054 C12.4027991,10.2570203 12.7886727,10.5260651 13.151378,10.8179492 C13.2197553,10.8730271 13.2927852,10.9288567 13.3634182,10.9828067 C13.8977482,11.3911908 14.5627234,11.8994858 14.1985143,12.9278241 C13.782799,14.1022222 12.4292101,15.1323463 11.3019009,15.1323463 L11.3019009,15.1323463 L11.2828681,15.1323463 C11.2627073,15.1320644 11.2425935,15.1291978 11.2230908,15.1238874 C11.1876097,15.1141595 11.1389232,15.1033506 11.0825295,15.0906621 C10.9170611,15.0536772 10.6904526,15.0029699 10.4744179,14.9100144 C8.07759323,13.8779634 6.00883871,12.5043077 4.32567587,10.8273482 C2.60609212,9.11424972 1.24249337,7.03830502 0.272616363,4.6572706 C-0.0628789336,3.83373516 -0.0768363649,3.04206212 0.2322479,2.3678289 C0.552093954,1.67005132 1.19352486,1.14234762 2.08736442,0.84186339 Z M8.01476128,2.48689958e-14 C8.07660634,2.48689958e-14 8.13760548,0.00422952467 8.19141443,0.00789511273 C8.23591843,0.0109027747 8.27788471,0.013863442 8.31200288,0.013863442 C8.33333849,0.013863442 8.34579209,0.0126415793 8.35251233,0.0116546902 C8.36618779,0.00972790675 8.37972227,0.00897599125 8.39391468,0.00944593844 C11.8149892,0.124911962 14.7789461,3.22990002 14.7366978,6.65402921 C14.7360869,6.69999004 14.7384836,6.75248314 14.7409744,6.80821888 C14.7512192,7.03539135 14.7639078,7.31806458 14.5819913,7.5083462 C14.47771,7.61746794 14.3319324,7.67273372 14.1486529,7.67273372 L14.1486529,7.67273372 L14.130513,7.67254574 C13.5461337,7.66126701 13.5374397,7.11711517 13.5332101,6.85554256 C13.5320352,6.78204282 13.5309074,6.71263162 13.5237172,6.65572101 C13.1003418,3.30772327 11.5725904,1.73377615 8.25058078,1.22289657 C8.20335109,1.21565938 8.14662847,1.21152385 8.0867102,1.20720033 C7.83867207,1.18910737 7.32257607,1.15155858 7.35312263,0.61807454 C7.36637515,0.387236481 7.46995151,2.48689958e-14 8.01476128,2.48689958e-14 Z M8.21763748,1.930919 C8.33394941,1.930919 8.44922746,1.94990486 8.56069893,1.96837379 C8.61234612,1.97692683 8.66112665,1.98500992 8.70591261,1.99032032 L8.91568967,2.02056704 C11.0693469,2.38318755 12.7741,4.28327195 12.7564814,6.35006737 C12.7564345,6.35988926 12.7557295,6.36971116 12.7543197,6.37948606 C12.7491033,6.4183037 12.7511241,6.47667114 12.7532387,6.5383752 C12.7607579,6.75746458 12.7764071,7.21345434 12.2769942,7.28935081 C12.2270389,7.29696395 12.1790573,7.30081751 12.1344123,7.30081751 L12.1344123,7.30081751 L12.0193627,7.29230719 C11.5934986,7.22560455 11.56668,6.78352496 11.5532756,6.56220153 C11.549375,6.49814772 11.5457094,6.43775951 11.5375794,6.38874402 C11.2046688,4.38291543 10.5234804,3.6722143 8.5004517,3.22017211 C8.45044932,3.20894037 8.39071903,3.20081028 8.32741714,3.19206927 C8.11142942,3.16250959 7.84252564,3.12561874 7.68969882,2.91780809 C7.59885803,2.79425898 7.56873441,2.63640371 7.60031486,2.44842484 C7.63278821,2.25508857 7.75614934,1.930919 8.21763748,1.930919 Z M8.58532416,3.92706667 C9.09695567,3.91470706 9.65943546,4.18159006 10.126046,4.65548481 C10.5910588,5.12792271 10.864474,5.72104306 10.8584587,6.24348334 C10.8749538,6.74407108 10.6924734,7.02063501 10.3160457,7.06542097 C10.2925013,7.06828765 10.268863,7.0696505 10.2457416,7.0696505 L10.2457416,7.0696505 L10.1540143,7.06221053 C9.88603412,7.01800142 9.68533894,6.78066588 9.65285619,6.45486559 C9.57517392,5.67851283 9.18680957,5.26035383 8.43061755,5.13901346 C8.22210198,5.10541225 7.99286175,5.04417812 7.87321319,4.84435658 C7.79167735,4.70816589 7.78378224,4.54218054 7.84971583,4.35100603 C7.99065299,3.941917 8.39231685,3.93195412 8.58532416,3.92706667 Z" id="Combined-Shape"></path>
                            </g>
                        </g>
                    </g>
                </g>
            </g>
        </g>
    </g>
</svg>