<?xml version="1.0" encoding="UTF-8"?>
<svg width="17px" height="17px" viewBox="0 0 17 17" version="1.1" xmlns="http://www.w3.org/2000/svg" xmlns:xlink="http://www.w3.org/1999/xlink">
    <title>3B38D896-431E-4EDE-BF96-880A3F65032B</title>
    <g id="Dizajn" stroke="none" stroke-width="1" fill="none" fill-rule="evenodd">
        <g id="Uvjeti-kupnje" transform="translate(-441.000000, -3473.000000)" fill="#FFFFFF" fill-rule="nonzero">
            <g id="wrapper" transform="translate(260.000000, 340.000000)">
                <g id="Group-5" transform="translate(120.000000, 3092.000000)">
                    <g id="Socials" transform="translate(0.000000, 26.000000)">
                        <g id="instagram" transform="translate(46.000000, 0.000000)">
                            <g id="whatsapp-1" transform="translate(15.000000, 15.000000)">
                                <path d="M16.7945603,8.18123509 C16.7945603,12.6992878 13.1034482,16.3619225 8.54925102,16.3619225 C7.10402179,16.3619225 5.74641541,15.9922637 4.56460235,15.3449499 L0,16.7945603 L1.48794536,12.4041083 C0.737674789,11.1719122 0.305584656,9.72504001 0.305584656,8.18068745 C0.306132299,3.66263473 3.99614917,0 8.55034631,0 C13.1039958,0.00109528551 16.7945603,3.66318238 16.7945603,8.18123509 Z M8.54870337,1.30448503 C4.72670461,1.30448503 1.61773669,4.3899043 1.61773669,8.18287802 C1.61773669,9.68780031 2.1084246,11.0810034 2.93810337,12.214624 L2.07282782,14.7682821 L4.73546689,13.9221741 C5.8307524,14.6406813 7.14126151,15.0590805 8.54870337,15.0590805 C12.3707022,15.0590805 15.480766,11.9742088 15.480766,8.18123509 C15.4818606,4.3899043 12.3712498,1.30448503 8.54870337,1.30448503 Z M12.7129789,10.0656738 C12.6615004,9.98297975 12.5267803,9.93259662 12.3252478,9.83183035 C12.1242629,9.73106408 11.129196,9.24640025 10.9446404,9.18068311 C10.7584419,9.11332306 10.6237218,9.0793692 10.4890016,9.28035409 C10.3559245,9.48133898 9.9681934,9.93259662 9.84935492,10.0673167 C9.73161173,10.2014892 9.61386853,10.2184661 9.41178836,10.1193428 C9.20970818,10.0174812 8.55801331,9.80718643 7.78583702,9.12427591 C7.18507292,8.59196715 6.77926964,7.93643878 6.66207409,7.73545389 C6.54323561,7.53501664 6.65002595,7.42658338 6.75024458,7.3269124 C6.84060563,7.23655134 6.95232475,7.0925213 7.05363866,6.97477811 C7.15495257,6.85813019 7.18835877,6.77543615 7.25571884,6.64126367 C7.32198361,6.50709119 7.28857741,6.39044329 7.23874191,6.28912938 C7.18835877,6.18836311 6.78474607,5.20260616 6.61552446,4.80118402 C6.44739813,4.40030953 6.27927181,4.46657429 6.16098098,4.46657429 C6.04323779,4.46657429 5.90851766,4.45014502 5.77379755,4.45014502 C5.63907743,4.45014502 5.42002033,4.49888522 5.23546472,4.69987011 C5.05090911,4.900855 4.52845793,5.38551884 4.52845793,6.37237108 C4.52845793,7.36031861 5.251894,8.31266935 5.35320791,8.44629418 C5.45506947,8.57937137 6.7518875,10.670819 8.80609548,11.4736634 C10.8613987,12.27596 10.8613987,12.0081626 11.2316053,11.9742088 C11.602907,11.9402549 12.4276571,11.489545 12.5952357,11.0218581 C12.7639096,10.5519806 12.7639096,10.1494631 12.7129789,10.0656738 Z" id="whatsapp"></path>
                            </g>
                        </g>
                    </g>
                </g>
            </g>
        </g>
    </g>
</svg>