<?xml version="1.0" encoding="UTF-8"?>
<svg width="27px" height="24px" viewBox="0 0 27 24" version="1.1" xmlns="http://www.w3.org/2000/svg" xmlns:xlink="http://www.w3.org/1999/xlink">
    <title>8B0CC632-8F5B-4CF2-A575-3D0C9536B7F3</title>
    <g id="Dizajn" stroke="none" stroke-width="1" fill="none" fill-rule="evenodd">
        <g id="PoÄetna---r1" transform="translate(-1551.000000, -21.000000)" fill="#144578" fill-rule="nonzero">
            <g id="Header-top" transform="translate(260.000000, 16.000000)">
                <g id="wishlist" transform="translate(1285.000000, 5.000000)">
                    <g id="heart" transform="translate(6.000000, 0.000000)">
                        <path d="M13.4736842,23.9745066 C13.0900494,23.9745066 12.7201892,23.8355263 12.431949,23.5830592 C11.3433388,22.6311678 10.2937911,21.7366365 9.36780426,20.947574 L9.36307568,20.9434622 C6.64823189,18.6299342 4.30386516,16.6319901 2.67269737,14.6638569 C0.849301,12.4636102 0,10.3774671 0,8.09847863 C0,5.88425163 0.759251632,3.84148847 2.13774674,2.34621711 C3.53268916,0.833264789 5.44675163,1.49587944e-15 7.52796053,1.49587944e-15 C9.08347042,1.49587944e-15 10.5080181,0.491776316 11.7619243,1.46155426 C12.3947368,1.95106905 12.9683388,2.55016447 13.4736842,3.24897205 C13.9792352,2.55016447 14.5526316,1.95106905 15.1856497,1.46155426 C16.4395559,0.491776316 17.8641036,1.49587944e-15 19.4196135,1.49587944e-15 C21.5006168,1.49587944e-15 23.4148848,0.833264789 24.8098273,2.34621711 C26.1883224,3.84148847 26.9473684,5.88425163 26.9473684,8.09847863 C26.9473684,10.3774671 26.0982731,12.4636102 24.2748766,14.6636513 C22.6437089,16.6319901 20.2995477,18.6297286 17.5851152,20.943051 C16.6574836,21.7333471 15.6062911,22.6293174 14.5152138,23.5834704 C14.2271793,23.8355263 13.8571135,23.9745066 13.4736842,23.9745066 L13.4736842,23.9745066 Z M7.52796053,1.57853621 C5.89288653,1.57853621 4.39083058,2.23108553 3.29810853,3.41611842 C2.18914474,4.61903784 1.57833058,6.28186679 1.57833058,8.09847863 C1.57833058,10.0152138 2.29070726,11.7294408 3.88795232,13.6566612 C5.43174342,15.5195313 7.72800163,17.4763569 10.3867187,19.7421875 L10.3916529,19.7462994 C11.3211348,20.5384457 12.3747944,21.4364721 13.4714227,22.3953536 C14.5746299,21.4346217 15.6299342,20.5351563 16.5612664,19.7417763 C19.2197779,17.4759457 21.5158306,15.5195313 23.0596217,13.6566612 C24.6566612,11.7294408 25.3690378,10.0152138 25.3690378,8.09847863 C25.3690378,6.28186679 24.7582237,4.61903784 23.6492599,3.41611842 C22.5567434,2.23108553 21.0544819,1.57853621 19.4196135,1.57853621 C18.2218339,1.57853621 17.1221217,1.95929274 16.1511102,2.71011516 C15.2857731,3.37952305 14.6829769,4.22574011 14.3295642,4.81784537 C14.1478207,5.12232732 13.8279194,5.30407074 13.4736842,5.30407074 C13.119449,5.30407074 12.7995477,5.12232732 12.6178043,4.81784537 C12.2645971,4.22574011 11.661801,3.37952305 10.7962582,2.71011516 C9.82524674,1.95929274 8.72553453,1.57853621 7.52796053,1.57853621 Z" id="Shape"></path>
                    </g>
                </g>
            </g>
        </g>
    </g>
</svg>